M48
; DRILL file {KiCad (6.0.0)} date Mon Jan 31 16:34:37 2022
; FORMAT={-:-/ absolute / metric / decimal}
; #@! TF.CreationDate,2022-01-31T16:34:37+07:00
; #@! TF.GenerationSoftware,Kicad,Pcbnew,(6.0.0)
; #@! TF.FileFunction,Plated,1,2,PTH
FMAT,2
METRIC
; #@! TA.AperFunction,Plated,PTH,ComponentDrill
T1C0.800
; #@! TA.AperFunction,Plated,PTH,ViaDrill
T2C1.000
; #@! TA.AperFunction,Plated,PTH,ComponentDrill
T3C1.000
; #@! TA.AperFunction,Plated,PTH,ComponentDrill
T4C1.100
; #@! TA.AperFunction,Plated,PTH,ComponentDrill
T5C1.200
; #@! TA.AperFunction,Plated,PTH,ComponentDrill
T6C1.270
; #@! TA.AperFunction,Plated,PTH,ComponentDrill
T7C1.300
; #@! TA.AperFunction,Plated,PTH,ComponentDrill
T8C1.360
; #@! TA.AperFunction,Plated,PTH,ComponentDrill
T9C2.500
%
G90
G05
T1
X117.4Y-71.675
X117.4Y-74.215
X125.02Y-71.675
X125.02Y-74.215
T2
X110.9Y-48.7
X111.04Y-107.72
X113.94Y-68.11
X115.99Y-62.42
X134.06Y-68.22
X134.56Y-70.56
X136.6Y-68.22
X139.14Y-68.22
X141.68Y-68.22
X141.68Y-83.46
X144.22Y-68.22
X144.22Y-83.46
X146.76Y-83.46
X149.3Y-83.46
X151.84Y-83.46
X154.38Y-83.46
X161.42Y-97.2
X165.07Y-87.02
X173.32Y-99.61
X193.29Y-107.95
X193.37Y-48.5
T3
X118.62Y-76.98
X118.62Y-84.6
X119.12Y-64.528
X119.12Y-67.069
X121.81Y-83.04
X124.35Y-80.5
X125.91Y-55.122
X125.91Y-62.742
X126.89Y-83.04
X131.46Y-74.95
X134.06Y-68.22
X134.06Y-83.46
X136.6Y-68.22
X136.6Y-83.46
X139.08Y-74.95
X139.14Y-68.22
X139.14Y-83.46
X141.68Y-68.22
X141.68Y-83.46
X144.22Y-68.22
X144.22Y-83.46
X146.76Y-68.22
X146.76Y-83.46
X149.3Y-68.22
X149.3Y-83.46
X151.84Y-68.22
X151.84Y-83.46
X154.38Y-68.22
X154.38Y-83.46
X156.92Y-68.22
X156.92Y-83.46
X159.46Y-68.22
X159.46Y-83.46
X162.0Y-68.22
X162.0Y-83.46
X164.54Y-68.22
X164.54Y-83.46
X167.08Y-68.22
X167.08Y-83.46
X169.62Y-68.22
X169.62Y-83.46
X176.018Y-102.27
X178.518Y-102.27
X182.748Y-102.32
X185.248Y-102.32
X189.648Y-102.32
X192.148Y-102.32
T4
X133.61Y-101.9
X142.31Y-89.85
X142.31Y-94.35
X143.77Y-101.9
X148.81Y-89.85
X148.81Y-94.35
X151.42Y-89.87
X151.42Y-94.37
X157.92Y-89.87
X157.92Y-94.37
X160.6Y-89.85
X160.6Y-94.35
X167.1Y-89.85
X167.1Y-94.35
T5
X120.84Y-51.762
X123.38Y-51.762
X125.92Y-51.762
X128.46Y-51.762
X131.0Y-51.762
X133.54Y-51.762
X136.08Y-51.762
X138.62Y-51.762
X141.16Y-51.762
X143.7Y-51.762
X146.24Y-51.762
X148.78Y-51.762
X151.32Y-51.762
X153.86Y-51.762
X156.4Y-51.762
X158.94Y-51.762
T6
X170.92Y-94.51
X170.92Y-97.06
X170.92Y-99.61
T7
X113.46Y-94.67
X115.46Y-88.67
X115.46Y-100.67
X127.66Y-88.67
X127.66Y-100.67
T8
X119.12Y-61.988
X147.838Y-100.04
X150.379Y-100.04
X152.918Y-100.04
T9
X115.341Y-51.762
X115.341Y-82.763
X190.339Y-82.763
X190.34Y-51.762
T3
G00X179.51Y-93.507
M15
G01X179.51Y-91.507
M16
G05
G00X183.51Y-87.807
M15
G01X181.51Y-87.807
M16
G05
G00X185.51Y-93.507
M15
G01X185.51Y-91.507
M16
G05
T0
M30
