%TF.GenerationSoftware,KiCad,Pcbnew,(6.0.0)*%
%TF.CreationDate,2022-02-01T13:32:59+07:00*%
%TF.ProjectId,egg_pro_mini,6567675f-7072-46f5-9f6d-696e692e6b69,rev?*%
%TF.SameCoordinates,Original*%
%TF.FileFunction,Copper,L2,Bot*%
%TF.FilePolarity,Positive*%
%FSLAX46Y46*%
G04 Gerber Fmt 4.6, Leading zero omitted, Abs format (unit mm)*
G04 Created by KiCad (PCBNEW (6.0.0)) date 2022-02-01 13:32:59*
%MOMM*%
%LPD*%
G01*
G04 APERTURE LIST*
G04 Aperture macros list*
%AMRoundRect*
0 Rectangle with rounded corners*
0 $1 Rounding radius*
0 $2 $3 $4 $5 $6 $7 $8 $9 X,Y pos of 4 corners*
0 Add a 4 corners polygon primitive as box body*
4,1,4,$2,$3,$4,$5,$6,$7,$8,$9,$2,$3,0*
0 Add four circle primitives for the rounded corners*
1,1,$1+$1,$2,$3*
1,1,$1+$1,$4,$5*
1,1,$1+$1,$6,$7*
1,1,$1+$1,$8,$9*
0 Add four rect primitives between the rounded corners*
20,1,$1+$1,$2,$3,$4,$5,0*
20,1,$1+$1,$4,$5,$6,$7,0*
20,1,$1+$1,$6,$7,$8,$9,0*
20,1,$1+$1,$8,$9,$2,$3,0*%
G04 Aperture macros list end*
%TA.AperFunction,ComponentPad*%
%ADD10C,1.400000*%
%TD*%
%TA.AperFunction,ComponentPad*%
%ADD11O,1.400000X1.400000*%
%TD*%
%TA.AperFunction,ComponentPad*%
%ADD12C,2.000000*%
%TD*%
%TA.AperFunction,ComponentPad*%
%ADD13O,2.000000X2.000000*%
%TD*%
%TA.AperFunction,ComponentPad*%
%ADD14O,1.500000X2.500000*%
%TD*%
%TA.AperFunction,ComponentPad*%
%ADD15O,2.500000X1.500000*%
%TD*%
%TA.AperFunction,ComponentPad*%
%ADD16R,1.910000X1.910000*%
%TD*%
%TA.AperFunction,ComponentPad*%
%ADD17C,1.910000*%
%TD*%
%TA.AperFunction,ComponentPad*%
%ADD18C,3.000000*%
%TD*%
%TA.AperFunction,ComponentPad*%
%ADD19R,1.800000X2.600000*%
%TD*%
%TA.AperFunction,ComponentPad*%
%ADD20O,1.800000X2.600000*%
%TD*%
%TA.AperFunction,ComponentPad*%
%ADD21R,3.500000X3.500000*%
%TD*%
%TA.AperFunction,ComponentPad*%
%ADD22RoundRect,0.750000X0.750000X1.000000X-0.750000X1.000000X-0.750000X-1.000000X0.750000X-1.000000X0*%
%TD*%
%TA.AperFunction,ComponentPad*%
%ADD23RoundRect,0.875000X0.875000X0.875000X-0.875000X0.875000X-0.875000X-0.875000X0.875000X-0.875000X0*%
%TD*%
%TA.AperFunction,ComponentPad*%
%ADD24R,1.500000X1.500000*%
%TD*%
%TA.AperFunction,ComponentPad*%
%ADD25C,1.500000*%
%TD*%
%TA.AperFunction,ComponentPad*%
%ADD26C,2.100000*%
%TD*%
%TA.AperFunction,ComponentPad*%
%ADD27R,2.200000X2.200000*%
%TD*%
%TA.AperFunction,ComponentPad*%
%ADD28O,2.200000X2.200000*%
%TD*%
%TA.AperFunction,ComponentPad*%
%ADD29R,1.600000X1.600000*%
%TD*%
%TA.AperFunction,ComponentPad*%
%ADD30O,1.600000X1.600000*%
%TD*%
%TA.AperFunction,ComponentPad*%
%ADD31C,1.600000*%
%TD*%
%TA.AperFunction,Conductor*%
%ADD32C,1.500000*%
%TD*%
%TA.AperFunction,Conductor*%
%ADD33C,1.200000*%
%TD*%
G04 APERTURE END LIST*
D10*
%TO.P,R2,1*%
%TO.N,Net-(R2-Pad1)*%
X160900000Y-83910000D03*
D11*
%TO.P,R2,2*%
%TO.N,Net-(Q1-Pad2)*%
X160900000Y-76290000D03*
%TD*%
D12*
%TO.P,SW3,1,1*%
%TO.N,GND*%
X127320000Y-95010000D03*
X133820000Y-95010000D03*
%TO.P,SW3,2,2*%
%TO.N,D7*%
X127320000Y-90510000D03*
X133820000Y-90510000D03*
%TD*%
%TO.P,R3,1*%
%TO.N,VCC*%
X139180000Y-91250000D03*
D13*
%TO.P,R3,2*%
%TO.N,D8*%
X146800000Y-91250000D03*
%TD*%
D14*
%TO.P,U2,1,D10*%
%TO.N,LD7*%
X138430000Y-61870000D03*
%TO.P,U2,2,D11*%
%TO.N,LD6*%
X135890000Y-61870000D03*
%TO.P,U2,3,D12*%
%TO.N,LD5*%
X133350000Y-61870000D03*
%TO.P,U2,4,D13*%
%TO.N,LD4*%
X130810000Y-61870000D03*
%TO.P,U2,5,A0*%
%TO.N,E*%
X128270000Y-61870000D03*
%TO.P,U2,6,A1*%
%TO.N,RS*%
X125730000Y-61870000D03*
%TO.P,U2,7,A2*%
%TO.N,unconnected-(U2-Pad7)*%
X123190000Y-61870000D03*
%TO.P,U2,8,A3*%
%TO.N,unconnected-(U2-Pad8)*%
X120650000Y-61870000D03*
%TO.P,U2,9,VCC*%
%TO.N,VCC*%
X118110000Y-61870000D03*
%TO.P,U2,10,RST*%
%TO.N,unconnected-(U2-Pad10)*%
X115570000Y-61870000D03*
%TO.P,U2,11,GND*%
%TO.N,GND*%
X113030000Y-61870000D03*
%TO.P,U2,12,RAW*%
%TO.N,VCC*%
X110490000Y-61870000D03*
%TO.P,U2,13,TX*%
%TO.N,unconnected-(U2-Pad13)*%
X110490000Y-77110000D03*
%TO.P,U2,14,RX*%
%TO.N,unconnected-(U2-Pad14)*%
X113030000Y-77110000D03*
%TO.P,U2,15,RST*%
%TO.N,unconnected-(U2-Pad15)*%
X115570000Y-77110000D03*
%TO.P,U2,16,GND*%
%TO.N,GND*%
X118110000Y-77110000D03*
%TO.P,U2,17,D2*%
%TO.N,unconnected-(U2-Pad17)*%
X120650000Y-77110000D03*
%TO.P,U2,18,D3*%
%TO.N,unconnected-(U2-Pad18)*%
X123190000Y-77110000D03*
%TO.P,U2,19,D4*%
%TO.N,unconnected-(U2-Pad19)*%
X125730000Y-77110000D03*
%TO.P,U2,20,D5*%
%TO.N,D5*%
X128270000Y-77110000D03*
%TO.P,U2,21,D6*%
%TO.N,D6*%
X130810000Y-77110000D03*
%TO.P,U2,22,D7*%
%TO.N,D7*%
X133350000Y-77110000D03*
%TO.P,U2,23,D8*%
%TO.N,D8*%
X135890000Y-77110000D03*
%TO.P,U2,24,D9*%
%TO.N,D9*%
X138430000Y-77110000D03*
D15*
%TO.P,U2,25,A4*%
%TO.N,unconnected-(U2-Pad25)*%
X138430000Y-73300000D03*
%TO.P,U2,26,A5*%
%TO.N,unconnected-(U2-Pad26)*%
X138430000Y-70760000D03*
%TO.P,U2,27,A6*%
%TO.N,unconnected-(U2-Pad27)*%
X138430000Y-68220000D03*
%TO.P,U2,28,A7*%
%TO.N,unconnected-(U2-Pad28)*%
X138430000Y-65680000D03*
%TD*%
D16*
%TO.P,U3,1,IN*%
%TO.N,Net-(C1-Pad1)*%
X172008000Y-89350000D03*
D17*
%TO.P,U3,2,GND*%
%TO.N,GND*%
X172008000Y-86800000D03*
%TO.P,U3,3,OUT*%
%TO.N,VCC*%
X172008000Y-84250000D03*
%TD*%
D18*
%TO.P,DS1,*%
%TO.N,*%
X103231125Y-85645700D03*
X178229705Y-85645700D03*
X178230225Y-54645000D03*
X103231125Y-54645000D03*
D19*
%TO.P,DS1,1,VSS*%
%TO.N,GND*%
X108730225Y-54645000D03*
D20*
%TO.P,DS1,2,VDD*%
%TO.N,VCC*%
X111270225Y-54645000D03*
%TO.P,DS1,3,VO*%
X113810225Y-54645000D03*
%TO.P,DS1,4,RS*%
%TO.N,RS*%
X116350225Y-54645000D03*
%TO.P,DS1,5,R/W*%
%TO.N,GND*%
X118890225Y-54645000D03*
%TO.P,DS1,6,E*%
%TO.N,E*%
X121430225Y-54645000D03*
%TO.P,DS1,7,D0*%
%TO.N,unconnected-(DS1-Pad7)*%
X123970225Y-54645000D03*
%TO.P,DS1,8,D1*%
%TO.N,unconnected-(DS1-Pad8)*%
X126510225Y-54645000D03*
%TO.P,DS1,9,D2*%
%TO.N,unconnected-(DS1-Pad9)*%
X129050225Y-54645000D03*
%TO.P,DS1,10,D3*%
%TO.N,unconnected-(DS1-Pad10)*%
X131590225Y-54645000D03*
%TO.P,DS1,11,D4*%
%TO.N,LD4*%
X134130225Y-54645000D03*
%TO.P,DS1,12,D5*%
%TO.N,LD5*%
X136670225Y-54645000D03*
%TO.P,DS1,13,D6*%
%TO.N,LD6*%
X139210225Y-54645000D03*
%TO.P,DS1,14,D7*%
%TO.N,LD7*%
X141750225Y-54645000D03*
%TO.P,DS1,15,LED(+)*%
%TO.N,unconnected-(DS1-Pad15)*%
X144290225Y-54645000D03*
%TO.P,DS1,16,LED(-)*%
%TO.N,unconnected-(DS1-Pad16)*%
X146830225Y-54645000D03*
%TD*%
D21*
%TO.P,J3,1*%
%TO.N,Net-(C1-Pad1)*%
X172900000Y-96467500D03*
D22*
%TO.P,J3,2*%
%TO.N,GND*%
X178900000Y-96467500D03*
D23*
%TO.P,J3,3*%
X175900000Y-91767500D03*
%TD*%
D24*
%TO.P,Q1,1,E*%
%TO.N,GND*%
X152110000Y-80450000D03*
D25*
%TO.P,Q1,2,B*%
%TO.N,Net-(Q1-Pad2)*%
X154650000Y-77910000D03*
%TO.P,Q1,3,C*%
%TO.N,Net-(D1-Pad2)*%
X157190000Y-80450000D03*
%TD*%
D10*
%TO.P,R1,1*%
%TO.N,D9*%
X140330000Y-80830000D03*
D11*
%TO.P,R1,2*%
%TO.N,Net-(R1-Pad2)*%
X147950000Y-80830000D03*
%TD*%
D26*
%TO.P,J2,1,1*%
%TO.N,Net-(J2-Pad1)*%
X155370000Y-97970000D03*
%TO.P,J2,2,2*%
%TO.N,Net-(J2-Pad2)*%
X160370000Y-97970000D03*
%TO.P,J2,3,3*%
%TO.N,Net-(J2-Pad3)*%
X165370000Y-97970000D03*
%TD*%
D27*
%TO.P,D1,1,K*%
%TO.N,VCC*%
X152640000Y-91930000D03*
D28*
%TO.P,D1,2,A*%
%TO.N,Net-(D1-Pad2)*%
X162800000Y-91930000D03*
%TD*%
D29*
%TO.P,U1,1*%
%TO.N,Net-(R1-Pad2)*%
X150600000Y-85075000D03*
D30*
%TO.P,U1,2*%
%TO.N,GND*%
X150600000Y-87615000D03*
%TO.P,U1,3*%
%TO.N,Net-(R2-Pad1)*%
X158220000Y-87615000D03*
%TO.P,U1,4*%
%TO.N,VCC*%
X158220000Y-85075000D03*
%TD*%
D26*
%TO.P,J1,1,1*%
%TO.N,VCC*%
X138060000Y-97620000D03*
%TO.P,J1,2,2*%
%TO.N,D8*%
X143060000Y-97620000D03*
%TO.P,J1,3,3*%
%TO.N,GND*%
X148060000Y-97620000D03*
%TD*%
D12*
%TO.P,SW1,1,1*%
%TO.N,GND*%
X115030000Y-94990000D03*
X108530000Y-94990000D03*
%TO.P,SW1,2,2*%
%TO.N,D5*%
X115030000Y-90490000D03*
X108530000Y-90490000D03*
%TD*%
%TO.P,SW2,1,1*%
%TO.N,GND*%
X117900000Y-95000000D03*
X124400000Y-95000000D03*
%TO.P,SW2,2,2*%
%TO.N,D6*%
X124400000Y-90500000D03*
X117900000Y-90500000D03*
%TD*%
D18*
%TO.P,K1,11*%
%TO.N,Net-(J2-Pad2)*%
X172830000Y-58470000D03*
%TO.P,K1,12*%
%TO.N,Net-(J2-Pad1)*%
X166830000Y-72670000D03*
%TO.P,K1,14*%
%TO.N,Net-(J2-Pad3)*%
X178830000Y-72670000D03*
%TO.P,K1,A1*%
%TO.N,VCC*%
X178830000Y-60470000D03*
%TO.P,K1,A2*%
%TO.N,Net-(D1-Pad2)*%
X166830000Y-60470000D03*
%TD*%
D29*
%TO.P,C3,1*%
%TO.N,VCC*%
X149364888Y-71380000D03*
D31*
%TO.P,C3,2*%
%TO.N,GND*%
X151864888Y-71380000D03*
%TD*%
D29*
%TO.P,C1,1*%
%TO.N,Net-(C1-Pad1)*%
X176754888Y-80340000D03*
D31*
%TO.P,C1,2*%
%TO.N,GND*%
X179254888Y-80340000D03*
%TD*%
D32*
%TO.N,Net-(C1-Pad1)*%
X175080000Y-82014888D02*
X176754888Y-80340000D01*
X173310000Y-89350000D02*
X175080000Y-87580000D01*
X172008000Y-89350000D02*
X173310000Y-89350000D01*
X175080000Y-87580000D02*
X175080000Y-82014888D01*
%TO.N,GND*%
X118110000Y-77110000D02*
X118110000Y-73670000D01*
X118110000Y-73670000D02*
X113030000Y-68590000D01*
X118110000Y-77110000D02*
X118110000Y-81940000D01*
X120740000Y-94180000D02*
X119920000Y-95000000D01*
X120740000Y-84570000D02*
X120740000Y-94180000D01*
X118110000Y-81940000D02*
X120740000Y-84570000D01*
X113030000Y-68590000D02*
X113030000Y-61870000D01*
X119920000Y-95000000D02*
X117900000Y-95000000D01*
%TO.N,VCC*%
X149530000Y-94950000D02*
X152550000Y-91930000D01*
D33*
X159180000Y-77740000D02*
X159180000Y-82180000D01*
D32*
X152550000Y-91930000D02*
X152640000Y-91930000D01*
D33*
X158220000Y-83140000D02*
X158220000Y-85075000D01*
X159180000Y-82180000D02*
X158220000Y-83140000D01*
D32*
X140910000Y-94950000D02*
X149530000Y-94950000D01*
D33*
X149364888Y-74684888D02*
X150270000Y-75590000D01*
D32*
X139180000Y-93220000D02*
X140910000Y-94950000D01*
D33*
X150270000Y-75590000D02*
X157030000Y-75590000D01*
D32*
X139180000Y-91250000D02*
X139180000Y-93220000D01*
D33*
X149364888Y-71380000D02*
X149364888Y-74684888D01*
X157030000Y-75590000D02*
X159180000Y-77740000D01*
D32*
%TO.N,Net-(J2-Pad1)*%
X155370000Y-96380000D02*
X155370000Y-97970000D01*
X163960000Y-94610000D02*
X157260000Y-94610000D01*
X157200000Y-94550000D02*
X155370000Y-96380000D01*
X166830000Y-72670000D02*
X166890000Y-72730000D01*
X166890000Y-72730000D02*
X166890000Y-91680000D01*
X166890000Y-91680000D02*
X163960000Y-94610000D01*
X157260000Y-94610000D02*
X157200000Y-94550000D01*
%TO.N,Net-(J2-Pad3)*%
X178830000Y-72670000D02*
X169380000Y-82120000D01*
X169380000Y-95620000D02*
X167030000Y-97970000D01*
X169380000Y-82120000D02*
X169380000Y-95620000D01*
X167030000Y-97970000D02*
X165370000Y-97970000D01*
%TD*%
%TA.AperFunction,Conductor*%
%TO.N,GND*%
G36*
X109641192Y-53030002D02*
G01*
X109687685Y-53083658D01*
X109697789Y-53153932D01*
X109676599Y-53207819D01*
X109630009Y-53274979D01*
X109507160Y-53521914D01*
X109421245Y-53783998D01*
X109420465Y-53788489D01*
X109420465Y-53788490D01*
X109379935Y-54021921D01*
X109374063Y-54055738D01*
X109369725Y-54142876D01*
X109369725Y-55115070D01*
X109369890Y-55117338D01*
X109369890Y-55117350D01*
X109378095Y-55230425D01*
X109384600Y-55320083D01*
X109385584Y-55324538D01*
X109385584Y-55324541D01*
X109426604Y-55510335D01*
X109444061Y-55589403D01*
X109541776Y-55847319D01*
X109675700Y-56088428D01*
X109843027Y-56307678D01*
X109846293Y-56310871D01*
X109846295Y-56310873D01*
X110036983Y-56497283D01*
X110036988Y-56497287D01*
X110040251Y-56500477D01*
X110043943Y-56503164D01*
X110043945Y-56503166D01*
X110194285Y-56612595D01*
X110263241Y-56662787D01*
X110507326Y-56791206D01*
X110767393Y-56883045D01*
X110867099Y-56902697D01*
X111033521Y-56935499D01*
X111033527Y-56935500D01*
X111037993Y-56936380D01*
X111042547Y-56936607D01*
X111042549Y-56936607D01*
X111308889Y-56949867D01*
X111308895Y-56949867D01*
X111313458Y-56950094D01*
X111588017Y-56923898D01*
X111592451Y-56922813D01*
X111592457Y-56922812D01*
X111851481Y-56859429D01*
X111855919Y-56858343D01*
X112111551Y-56754801D01*
X112115481Y-56752500D01*
X112115487Y-56752497D01*
X112345628Y-56617745D01*
X112345635Y-56617740D01*
X112349560Y-56615442D01*
X112459641Y-56527408D01*
X112525334Y-56500484D01*
X112595155Y-56513350D01*
X112612484Y-56523939D01*
X112628145Y-56535338D01*
X112734285Y-56612595D01*
X112803241Y-56662787D01*
X113047326Y-56791206D01*
X113307393Y-56883045D01*
X113407099Y-56902697D01*
X113573521Y-56935499D01*
X113573527Y-56935500D01*
X113577993Y-56936380D01*
X113582547Y-56936607D01*
X113582549Y-56936607D01*
X113848889Y-56949867D01*
X113848895Y-56949867D01*
X113853458Y-56950094D01*
X114128017Y-56923898D01*
X114132451Y-56922813D01*
X114132457Y-56922812D01*
X114391481Y-56859429D01*
X114395919Y-56858343D01*
X114651551Y-56754801D01*
X114655481Y-56752500D01*
X114655487Y-56752497D01*
X114885628Y-56617745D01*
X114885635Y-56617740D01*
X114889560Y-56615442D01*
X114999641Y-56527408D01*
X115065334Y-56500484D01*
X115135155Y-56513350D01*
X115152484Y-56523939D01*
X115168145Y-56535338D01*
X115274285Y-56612595D01*
X115343241Y-56662787D01*
X115587326Y-56791206D01*
X115847393Y-56883045D01*
X115947099Y-56902697D01*
X116113521Y-56935499D01*
X116113527Y-56935500D01*
X116117993Y-56936380D01*
X116122547Y-56936607D01*
X116122549Y-56936607D01*
X116388889Y-56949867D01*
X116388895Y-56949867D01*
X116393458Y-56950094D01*
X116668017Y-56923898D01*
X116672451Y-56922813D01*
X116672457Y-56922812D01*
X116931481Y-56859429D01*
X116935919Y-56858343D01*
X117191551Y-56754801D01*
X117195481Y-56752500D01*
X117195487Y-56752497D01*
X117425628Y-56617745D01*
X117425635Y-56617740D01*
X117429560Y-56615442D01*
X117644957Y-56443184D01*
X117720039Y-56362809D01*
X117830117Y-56244972D01*
X117830119Y-56244969D01*
X117833233Y-56241636D01*
X117990441Y-56015021D01*
X118012840Y-55969997D01*
X118111257Y-55772173D01*
X118111258Y-55772170D01*
X118113290Y-55768086D01*
X118199205Y-55506002D01*
X118231486Y-55320083D01*
X118245731Y-55238043D01*
X118245732Y-55238035D01*
X118246387Y-55234262D01*
X118250725Y-55147124D01*
X118250725Y-54174930D01*
X118248514Y-54144446D01*
X118236180Y-53974468D01*
X118235850Y-53969917D01*
X118194803Y-53783998D01*
X118177373Y-53705053D01*
X118177372Y-53705050D01*
X118176389Y-53700597D01*
X118078674Y-53442681D01*
X117944750Y-53201572D01*
X117945444Y-53201187D01*
X117926030Y-53137045D01*
X117945467Y-53068761D01*
X117998735Y-53021824D01*
X118052026Y-53010000D01*
X119733071Y-53010000D01*
X119801192Y-53030002D01*
X119847685Y-53083658D01*
X119857789Y-53153932D01*
X119836599Y-53207819D01*
X119790009Y-53274979D01*
X119667160Y-53521914D01*
X119581245Y-53783998D01*
X119580465Y-53788489D01*
X119580465Y-53788490D01*
X119539935Y-54021921D01*
X119534063Y-54055738D01*
X119529725Y-54142876D01*
X119529725Y-55115070D01*
X119529890Y-55117338D01*
X119529890Y-55117350D01*
X119538095Y-55230425D01*
X119544600Y-55320083D01*
X119545584Y-55324538D01*
X119545584Y-55324541D01*
X119586604Y-55510335D01*
X119604061Y-55589403D01*
X119701776Y-55847319D01*
X119835700Y-56088428D01*
X120003027Y-56307678D01*
X120006293Y-56310871D01*
X120006295Y-56310873D01*
X120196983Y-56497283D01*
X120196988Y-56497287D01*
X120200251Y-56500477D01*
X120203943Y-56503164D01*
X120203945Y-56503166D01*
X120354285Y-56612595D01*
X120423241Y-56662787D01*
X120667326Y-56791206D01*
X120927393Y-56883045D01*
X121027099Y-56902697D01*
X121193521Y-56935499D01*
X121193527Y-56935500D01*
X121197993Y-56936380D01*
X121202547Y-56936607D01*
X121202549Y-56936607D01*
X121468889Y-56949867D01*
X121468895Y-56949867D01*
X121473458Y-56950094D01*
X121748017Y-56923898D01*
X121752451Y-56922813D01*
X121752457Y-56922812D01*
X122011481Y-56859429D01*
X122015919Y-56858343D01*
X122271551Y-56754801D01*
X122275481Y-56752500D01*
X122275487Y-56752497D01*
X122505628Y-56617745D01*
X122505635Y-56617740D01*
X122509560Y-56615442D01*
X122619641Y-56527408D01*
X122685334Y-56500484D01*
X122755155Y-56513350D01*
X122772484Y-56523939D01*
X122788145Y-56535338D01*
X122894285Y-56612595D01*
X122963241Y-56662787D01*
X123207326Y-56791206D01*
X123467393Y-56883045D01*
X123567099Y-56902697D01*
X123733521Y-56935499D01*
X123733527Y-56935500D01*
X123737993Y-56936380D01*
X123742547Y-56936607D01*
X123742549Y-56936607D01*
X124008889Y-56949867D01*
X124008895Y-56949867D01*
X124013458Y-56950094D01*
X124288017Y-56923898D01*
X124292451Y-56922813D01*
X124292457Y-56922812D01*
X124551481Y-56859429D01*
X124555919Y-56858343D01*
X124811551Y-56754801D01*
X124815481Y-56752500D01*
X124815487Y-56752497D01*
X125045628Y-56617745D01*
X125045635Y-56617740D01*
X125049560Y-56615442D01*
X125159641Y-56527408D01*
X125225334Y-56500484D01*
X125295155Y-56513350D01*
X125312484Y-56523939D01*
X125328145Y-56535338D01*
X125434285Y-56612595D01*
X125503241Y-56662787D01*
X125747326Y-56791206D01*
X126007393Y-56883045D01*
X126107099Y-56902697D01*
X126273521Y-56935499D01*
X126273527Y-56935500D01*
X126277993Y-56936380D01*
X126282547Y-56936607D01*
X126282549Y-56936607D01*
X126548889Y-56949867D01*
X126548895Y-56949867D01*
X126553458Y-56950094D01*
X126828017Y-56923898D01*
X126832451Y-56922813D01*
X126832457Y-56922812D01*
X127091481Y-56859429D01*
X127095919Y-56858343D01*
X127351551Y-56754801D01*
X127355481Y-56752500D01*
X127355487Y-56752497D01*
X127585628Y-56617745D01*
X127585635Y-56617740D01*
X127589560Y-56615442D01*
X127699641Y-56527408D01*
X127765334Y-56500484D01*
X127835155Y-56513350D01*
X127852484Y-56523939D01*
X127868145Y-56535338D01*
X127974285Y-56612595D01*
X128043241Y-56662787D01*
X128287326Y-56791206D01*
X128547393Y-56883045D01*
X128647099Y-56902697D01*
X128813521Y-56935499D01*
X128813527Y-56935500D01*
X128817993Y-56936380D01*
X128822547Y-56936607D01*
X128822549Y-56936607D01*
X129088889Y-56949867D01*
X129088895Y-56949867D01*
X129093458Y-56950094D01*
X129368017Y-56923898D01*
X129372451Y-56922813D01*
X129372457Y-56922812D01*
X129631481Y-56859429D01*
X129635919Y-56858343D01*
X129891551Y-56754801D01*
X129895481Y-56752500D01*
X129895487Y-56752497D01*
X130125628Y-56617745D01*
X130125635Y-56617740D01*
X130129560Y-56615442D01*
X130239641Y-56527408D01*
X130305334Y-56500484D01*
X130375155Y-56513350D01*
X130392484Y-56523939D01*
X130408145Y-56535338D01*
X130514285Y-56612595D01*
X130583241Y-56662787D01*
X130827326Y-56791206D01*
X131087393Y-56883045D01*
X131187099Y-56902697D01*
X131353521Y-56935499D01*
X131353527Y-56935500D01*
X131357993Y-56936380D01*
X131362547Y-56936607D01*
X131362549Y-56936607D01*
X131628889Y-56949867D01*
X131628895Y-56949867D01*
X131633458Y-56950094D01*
X131908017Y-56923898D01*
X131912451Y-56922813D01*
X131912457Y-56922812D01*
X132171481Y-56859429D01*
X132175919Y-56858343D01*
X132431551Y-56754801D01*
X132435481Y-56752500D01*
X132435487Y-56752497D01*
X132665628Y-56617745D01*
X132665635Y-56617740D01*
X132669560Y-56615442D01*
X132779641Y-56527408D01*
X132845334Y-56500484D01*
X132915155Y-56513350D01*
X132932484Y-56523939D01*
X132948145Y-56535338D01*
X133054285Y-56612595D01*
X133123241Y-56662787D01*
X133367326Y-56791206D01*
X133627393Y-56883045D01*
X133727099Y-56902697D01*
X133893521Y-56935499D01*
X133893527Y-56935500D01*
X133897993Y-56936380D01*
X133902547Y-56936607D01*
X133902549Y-56936607D01*
X134168889Y-56949867D01*
X134168895Y-56949867D01*
X134173458Y-56950094D01*
X134448017Y-56923898D01*
X134452451Y-56922813D01*
X134452457Y-56922812D01*
X134711481Y-56859429D01*
X134715919Y-56858343D01*
X134971551Y-56754801D01*
X134975481Y-56752500D01*
X134975487Y-56752497D01*
X135205628Y-56617745D01*
X135205635Y-56617740D01*
X135209560Y-56615442D01*
X135319641Y-56527408D01*
X135385334Y-56500484D01*
X135455155Y-56513350D01*
X135472484Y-56523939D01*
X135488145Y-56535338D01*
X135594285Y-56612595D01*
X135663241Y-56662787D01*
X135907326Y-56791206D01*
X136167393Y-56883045D01*
X136267099Y-56902697D01*
X136433521Y-56935499D01*
X136433527Y-56935500D01*
X136437993Y-56936380D01*
X136442547Y-56936607D01*
X136442549Y-56936607D01*
X136708889Y-56949867D01*
X136708895Y-56949867D01*
X136713458Y-56950094D01*
X136988017Y-56923898D01*
X136992451Y-56922813D01*
X136992457Y-56922812D01*
X137251481Y-56859429D01*
X137255919Y-56858343D01*
X137511551Y-56754801D01*
X137515481Y-56752500D01*
X137515487Y-56752497D01*
X137745628Y-56617745D01*
X137745635Y-56617740D01*
X137749560Y-56615442D01*
X137859641Y-56527408D01*
X137925334Y-56500484D01*
X137995155Y-56513350D01*
X138012484Y-56523939D01*
X138028145Y-56535338D01*
X138134285Y-56612595D01*
X138203241Y-56662787D01*
X138447326Y-56791206D01*
X138707393Y-56883045D01*
X138807099Y-56902697D01*
X138973521Y-56935499D01*
X138973527Y-56935500D01*
X138977993Y-56936380D01*
X138982547Y-56936607D01*
X138982549Y-56936607D01*
X139248889Y-56949867D01*
X139248895Y-56949867D01*
X139253458Y-56950094D01*
X139528017Y-56923898D01*
X139532451Y-56922813D01*
X139532457Y-56922812D01*
X139791481Y-56859429D01*
X139795919Y-56858343D01*
X140051551Y-56754801D01*
X140055481Y-56752500D01*
X140055487Y-56752497D01*
X140285628Y-56617745D01*
X140285635Y-56617740D01*
X140289560Y-56615442D01*
X140399641Y-56527408D01*
X140465334Y-56500484D01*
X140535155Y-56513350D01*
X140552484Y-56523939D01*
X140568145Y-56535338D01*
X140674285Y-56612595D01*
X140743241Y-56662787D01*
X140987326Y-56791206D01*
X141247393Y-56883045D01*
X141347099Y-56902697D01*
X141513521Y-56935499D01*
X141513527Y-56935500D01*
X141517993Y-56936380D01*
X141522547Y-56936607D01*
X141522549Y-56936607D01*
X141788889Y-56949867D01*
X141788895Y-56949867D01*
X141793458Y-56950094D01*
X142068017Y-56923898D01*
X142072451Y-56922813D01*
X142072457Y-56922812D01*
X142331481Y-56859429D01*
X142335919Y-56858343D01*
X142591551Y-56754801D01*
X142595481Y-56752500D01*
X142595487Y-56752497D01*
X142825628Y-56617745D01*
X142825635Y-56617740D01*
X142829560Y-56615442D01*
X142939641Y-56527408D01*
X143005334Y-56500484D01*
X143075155Y-56513350D01*
X143092484Y-56523939D01*
X143108145Y-56535338D01*
X143214285Y-56612595D01*
X143283241Y-56662787D01*
X143527326Y-56791206D01*
X143787393Y-56883045D01*
X143887099Y-56902697D01*
X144053521Y-56935499D01*
X144053527Y-56935500D01*
X144057993Y-56936380D01*
X144062547Y-56936607D01*
X144062549Y-56936607D01*
X144328889Y-56949867D01*
X144328895Y-56949867D01*
X144333458Y-56950094D01*
X144608017Y-56923898D01*
X144612451Y-56922813D01*
X144612457Y-56922812D01*
X144871481Y-56859429D01*
X144875919Y-56858343D01*
X145131551Y-56754801D01*
X145135481Y-56752500D01*
X145135487Y-56752497D01*
X145365628Y-56617745D01*
X145365635Y-56617740D01*
X145369560Y-56615442D01*
X145479641Y-56527408D01*
X145545334Y-56500484D01*
X145615155Y-56513350D01*
X145632484Y-56523939D01*
X145648145Y-56535338D01*
X145754285Y-56612595D01*
X145823241Y-56662787D01*
X146067326Y-56791206D01*
X146327393Y-56883045D01*
X146427099Y-56902697D01*
X146593521Y-56935499D01*
X146593527Y-56935500D01*
X146597993Y-56936380D01*
X146602547Y-56936607D01*
X146602549Y-56936607D01*
X146868889Y-56949867D01*
X146868895Y-56949867D01*
X146873458Y-56950094D01*
X147148017Y-56923898D01*
X147152451Y-56922813D01*
X147152457Y-56922812D01*
X147411481Y-56859429D01*
X147415919Y-56858343D01*
X147671551Y-56754801D01*
X147675481Y-56752500D01*
X147675487Y-56752497D01*
X147905628Y-56617745D01*
X147905635Y-56617740D01*
X147909560Y-56615442D01*
X148124957Y-56443184D01*
X148200039Y-56362809D01*
X148310117Y-56244972D01*
X148310119Y-56244969D01*
X148313233Y-56241636D01*
X148470441Y-56015021D01*
X148492840Y-55969997D01*
X148591257Y-55772173D01*
X148591258Y-55772170D01*
X148593290Y-55768086D01*
X148679205Y-55506002D01*
X148711486Y-55320083D01*
X148725731Y-55238043D01*
X148725732Y-55238035D01*
X148726387Y-55234262D01*
X148730725Y-55147124D01*
X148730725Y-54174930D01*
X148728514Y-54144446D01*
X148716180Y-53974468D01*
X148715850Y-53969917D01*
X148674803Y-53783998D01*
X148657373Y-53705053D01*
X148657372Y-53705050D01*
X148656389Y-53700597D01*
X148558674Y-53442681D01*
X148424750Y-53201572D01*
X148425444Y-53201187D01*
X148406030Y-53137045D01*
X148425467Y-53068761D01*
X148478735Y-53021824D01*
X148532026Y-53010000D01*
X176077108Y-53010000D01*
X176145229Y-53030002D01*
X176191722Y-53083658D01*
X176201826Y-53153932D01*
X176183494Y-53203512D01*
X176034688Y-53437993D01*
X176033004Y-53441572D01*
X176033000Y-53441579D01*
X175909019Y-53705053D01*
X175900722Y-53722685D01*
X175803494Y-54021921D01*
X175744537Y-54330985D01*
X175724781Y-54645000D01*
X175744537Y-54959015D01*
X175803494Y-55268079D01*
X175900722Y-55567315D01*
X175902409Y-55570901D01*
X175902411Y-55570905D01*
X176033000Y-55848421D01*
X176033004Y-55848428D01*
X176034688Y-55852007D01*
X176203278Y-56117663D01*
X176205803Y-56120715D01*
X176360473Y-56307678D01*
X176403835Y-56360094D01*
X176633195Y-56575478D01*
X176636397Y-56577805D01*
X176636399Y-56577806D01*
X176884532Y-56758085D01*
X176884537Y-56758088D01*
X176887741Y-56760416D01*
X176946507Y-56792723D01*
X177108044Y-56881529D01*
X177163459Y-56911994D01*
X177259689Y-56950094D01*
X177452317Y-57026361D01*
X177452320Y-57026362D01*
X177456000Y-57027819D01*
X177459834Y-57028803D01*
X177459842Y-57028806D01*
X177648299Y-57077193D01*
X177760752Y-57106066D01*
X177764680Y-57106562D01*
X177764684Y-57106563D01*
X177888600Y-57122217D01*
X178072907Y-57145500D01*
X178387543Y-57145500D01*
X178571850Y-57122217D01*
X178695766Y-57106563D01*
X178695770Y-57106562D01*
X178699698Y-57106066D01*
X178812151Y-57077193D01*
X179000608Y-57028806D01*
X179000616Y-57028803D01*
X179004450Y-57027819D01*
X179008130Y-57026362D01*
X179008133Y-57026361D01*
X179200761Y-56950094D01*
X179296991Y-56911994D01*
X179352407Y-56881529D01*
X179513943Y-56792723D01*
X179572709Y-56760416D01*
X179669940Y-56689774D01*
X179736807Y-56665916D01*
X179805958Y-56681996D01*
X179855438Y-56732910D01*
X179870000Y-56791710D01*
X179870000Y-58007005D01*
X179849998Y-58075126D01*
X179796342Y-58121619D01*
X179726068Y-58131723D01*
X179697616Y-58124157D01*
X179607908Y-58088639D01*
X179607905Y-58088638D01*
X179604225Y-58087181D01*
X179600391Y-58086197D01*
X179600383Y-58086194D01*
X179411926Y-58037807D01*
X179299473Y-58008934D01*
X179295545Y-58008438D01*
X179295541Y-58008437D01*
X179171625Y-57992783D01*
X178987318Y-57969500D01*
X178672682Y-57969500D01*
X178488375Y-57992783D01*
X178364459Y-58008437D01*
X178364455Y-58008438D01*
X178360527Y-58008934D01*
X178248074Y-58037807D01*
X178059617Y-58086194D01*
X178059609Y-58086197D01*
X178055775Y-58087181D01*
X178052095Y-58088638D01*
X178052092Y-58088639D01*
X177922637Y-58139894D01*
X177763234Y-58203006D01*
X177487516Y-58354584D01*
X177484312Y-58356912D01*
X177484307Y-58356915D01*
X177328659Y-58470000D01*
X177232970Y-58539522D01*
X177003610Y-58754906D01*
X176803053Y-58997337D01*
X176634463Y-59262993D01*
X176632779Y-59266572D01*
X176632775Y-59266579D01*
X176571919Y-59395905D01*
X176500497Y-59547685D01*
X176403269Y-59846921D01*
X176344312Y-60155985D01*
X176324556Y-60470000D01*
X176344312Y-60784015D01*
X176403269Y-61093079D01*
X176500497Y-61392315D01*
X176502184Y-61395901D01*
X176502186Y-61395905D01*
X176632775Y-61673421D01*
X176632779Y-61673428D01*
X176634463Y-61677007D01*
X176803053Y-61942663D01*
X177003610Y-62185094D01*
X177232970Y-62400478D01*
X177236172Y-62402805D01*
X177236174Y-62402806D01*
X177484307Y-62583085D01*
X177484312Y-62583088D01*
X177487516Y-62585416D01*
X177763234Y-62736994D01*
X177922637Y-62800106D01*
X178052092Y-62851361D01*
X178052095Y-62851362D01*
X178055775Y-62852819D01*
X178059609Y-62853803D01*
X178059617Y-62853806D01*
X178248074Y-62902193D01*
X178360527Y-62931066D01*
X178364455Y-62931562D01*
X178364459Y-62931563D01*
X178488375Y-62947217D01*
X178672682Y-62970500D01*
X178987318Y-62970500D01*
X179171625Y-62947217D01*
X179295541Y-62931563D01*
X179295545Y-62931562D01*
X179299473Y-62931066D01*
X179411926Y-62902193D01*
X179600383Y-62853806D01*
X179600391Y-62853803D01*
X179604225Y-62852819D01*
X179607905Y-62851362D01*
X179607908Y-62851361D01*
X179697616Y-62815843D01*
X179768317Y-62809364D01*
X179831297Y-62842136D01*
X179866561Y-62903756D01*
X179870000Y-62932995D01*
X179870000Y-70207005D01*
X179849998Y-70275126D01*
X179796342Y-70321619D01*
X179726068Y-70331723D01*
X179697616Y-70324157D01*
X179607908Y-70288639D01*
X179607905Y-70288638D01*
X179604225Y-70287181D01*
X179600391Y-70286197D01*
X179600383Y-70286194D01*
X179411926Y-70237807D01*
X179299473Y-70208934D01*
X179295545Y-70208438D01*
X179295541Y-70208437D01*
X179171625Y-70192783D01*
X178987318Y-70169500D01*
X178672682Y-70169500D01*
X178488375Y-70192783D01*
X178364459Y-70208437D01*
X178364455Y-70208438D01*
X178360527Y-70208934D01*
X178248074Y-70237807D01*
X178059617Y-70286194D01*
X178059609Y-70286197D01*
X178055775Y-70287181D01*
X178052095Y-70288638D01*
X178052092Y-70288639D01*
X177922637Y-70339894D01*
X177763234Y-70403006D01*
X177487516Y-70554584D01*
X177484312Y-70556912D01*
X177484307Y-70556915D01*
X177345847Y-70657512D01*
X177232970Y-70739522D01*
X177003610Y-70954906D01*
X176803053Y-71197337D01*
X176634463Y-71462993D01*
X176632779Y-71466572D01*
X176632775Y-71466579D01*
X176547996Y-71646744D01*
X176500497Y-71747685D01*
X176403269Y-72046921D01*
X176344312Y-72355985D01*
X176331532Y-72559127D01*
X176325541Y-72654350D01*
X176301302Y-72721081D01*
X176288885Y-72735534D01*
X168855595Y-80168824D01*
X168793283Y-80202850D01*
X168722468Y-80197785D01*
X168665632Y-80155238D01*
X168640821Y-80088718D01*
X168640500Y-80079729D01*
X168640500Y-74449666D01*
X168660502Y-74381545D01*
X168669415Y-74369351D01*
X168854416Y-74145723D01*
X168854422Y-74145715D01*
X168856947Y-74142663D01*
X169025537Y-73877007D01*
X169027221Y-73873428D01*
X169027225Y-73873421D01*
X169157814Y-73595905D01*
X169157816Y-73595901D01*
X169159503Y-73592315D01*
X169256731Y-73293079D01*
X169315688Y-72984015D01*
X169335444Y-72670000D01*
X169315688Y-72355985D01*
X169256731Y-72046921D01*
X169159503Y-71747685D01*
X169112004Y-71646744D01*
X169027225Y-71466579D01*
X169027221Y-71466572D01*
X169025537Y-71462993D01*
X168856947Y-71197337D01*
X168656390Y-70954906D01*
X168427030Y-70739522D01*
X168314153Y-70657512D01*
X168175693Y-70556915D01*
X168175688Y-70556912D01*
X168172484Y-70554584D01*
X167896766Y-70403006D01*
X167737363Y-70339894D01*
X167607908Y-70288639D01*
X167607905Y-70288638D01*
X167604225Y-70287181D01*
X167600391Y-70286197D01*
X167600383Y-70286194D01*
X167411926Y-70237807D01*
X167299473Y-70208934D01*
X167295545Y-70208438D01*
X167295541Y-70208437D01*
X167171625Y-70192783D01*
X166987318Y-70169500D01*
X166672682Y-70169500D01*
X166488375Y-70192783D01*
X166364459Y-70208437D01*
X166364455Y-70208438D01*
X166360527Y-70208934D01*
X166248074Y-70237807D01*
X166059617Y-70286194D01*
X166059609Y-70286197D01*
X166055775Y-70287181D01*
X166052095Y-70288638D01*
X166052092Y-70288639D01*
X165922637Y-70339894D01*
X165763234Y-70403006D01*
X165487516Y-70554584D01*
X165484312Y-70556912D01*
X165484307Y-70556915D01*
X165345847Y-70657512D01*
X165232970Y-70739522D01*
X165003610Y-70954906D01*
X164803053Y-71197337D01*
X164634463Y-71462993D01*
X164632779Y-71466572D01*
X164632775Y-71466579D01*
X164547996Y-71646744D01*
X164500497Y-71747685D01*
X164403269Y-72046921D01*
X164344312Y-72355985D01*
X164324556Y-72670000D01*
X164344312Y-72984015D01*
X164403269Y-73293079D01*
X164500497Y-73592315D01*
X164502184Y-73595901D01*
X164502186Y-73595905D01*
X164632775Y-73873421D01*
X164632779Y-73873428D01*
X164634463Y-73877007D01*
X164803053Y-74142663D01*
X164806470Y-74146793D01*
X164989986Y-74368625D01*
X165003610Y-74385094D01*
X165006500Y-74387808D01*
X165006501Y-74387809D01*
X165099753Y-74475379D01*
X165135719Y-74536592D01*
X165139500Y-74567229D01*
X165139500Y-90902729D01*
X165119498Y-90970850D01*
X165102595Y-90991824D01*
X164943627Y-91150792D01*
X164881315Y-91184818D01*
X164810500Y-91179753D01*
X164753664Y-91137206D01*
X164735760Y-91103760D01*
X164732248Y-91093842D01*
X164600891Y-90839342D01*
X164598428Y-90835837D01*
X164438673Y-90608529D01*
X164438668Y-90608523D01*
X164436209Y-90605024D01*
X164284211Y-90441454D01*
X164244172Y-90398367D01*
X164244169Y-90398364D01*
X164241251Y-90395224D01*
X164237935Y-90392510D01*
X164237932Y-90392507D01*
X164090041Y-90271460D01*
X164019623Y-90213823D01*
X163775427Y-90064180D01*
X163757419Y-90056275D01*
X163517110Y-89950786D01*
X163517106Y-89950785D01*
X163513182Y-89949062D01*
X163237739Y-89870600D01*
X163020631Y-89839701D01*
X162958448Y-89830851D01*
X162958446Y-89830851D01*
X162954196Y-89830246D01*
X162802333Y-89829451D01*
X162672086Y-89828769D01*
X162672080Y-89828769D01*
X162667800Y-89828747D01*
X162663556Y-89829306D01*
X162663552Y-89829306D01*
X162580546Y-89840234D01*
X162383851Y-89866129D01*
X162379711Y-89867262D01*
X162379709Y-89867262D01*
X162363209Y-89871776D01*
X162107602Y-89941702D01*
X162103654Y-89943386D01*
X161848117Y-90052382D01*
X161848113Y-90052384D01*
X161844165Y-90054068D01*
X161598415Y-90201146D01*
X161595064Y-90203830D01*
X161595062Y-90203832D01*
X161497420Y-90282058D01*
X161374900Y-90380215D01*
X161254795Y-90506779D01*
X161196320Y-90568399D01*
X161177755Y-90587962D01*
X161010629Y-90820543D01*
X160876614Y-91073653D01*
X160853357Y-91137206D01*
X160796711Y-91292000D01*
X160778190Y-91342610D01*
X160717178Y-91622436D01*
X160694707Y-91907953D01*
X160711194Y-92193878D01*
X160712019Y-92198083D01*
X160712020Y-92198091D01*
X160729015Y-92284714D01*
X160766332Y-92474920D01*
X160767719Y-92478970D01*
X160767720Y-92478975D01*
X160840890Y-92692686D01*
X160844032Y-92763613D01*
X160808329Y-92824980D01*
X160745116Y-92857302D01*
X160721683Y-92859500D01*
X157681951Y-92859500D01*
X157656295Y-92856860D01*
X157612607Y-92847773D01*
X157605126Y-92845977D01*
X157539462Y-92828075D01*
X157539463Y-92828075D01*
X157534947Y-92826844D01*
X157530306Y-92826295D01*
X157530302Y-92826294D01*
X157503943Y-92823175D01*
X157487125Y-92821184D01*
X157476289Y-92819419D01*
X157440025Y-92811876D01*
X157433709Y-92810562D01*
X157433708Y-92810562D01*
X157429127Y-92809609D01*
X157424459Y-92809344D01*
X157424452Y-92809343D01*
X157375386Y-92806557D01*
X157356476Y-92805483D01*
X157348829Y-92804815D01*
X157276570Y-92796263D01*
X157240390Y-92797368D01*
X157228441Y-92797733D01*
X157217452Y-92797589D01*
X157174040Y-92795124D01*
X157174034Y-92795124D01*
X157169364Y-92794859D01*
X157136259Y-92797901D01*
X157096902Y-92801517D01*
X157089222Y-92801987D01*
X157021190Y-92804066D01*
X157016510Y-92804209D01*
X157011909Y-92805041D01*
X157011899Y-92805042D01*
X156969129Y-92812776D01*
X156958241Y-92814258D01*
X156914928Y-92818238D01*
X156914923Y-92818239D01*
X156910274Y-92818666D01*
X156905735Y-92819777D01*
X156905733Y-92819777D01*
X156839586Y-92835963D01*
X156832063Y-92837562D01*
X156760481Y-92850506D01*
X156714874Y-92865987D01*
X156704344Y-92869056D01*
X156657550Y-92880507D01*
X156653222Y-92882278D01*
X156653221Y-92882278D01*
X156590197Y-92908062D01*
X156582988Y-92910757D01*
X156529342Y-92928967D01*
X156514107Y-92934139D01*
X156509956Y-92936277D01*
X156471297Y-92956187D01*
X156461317Y-92960788D01*
X156416741Y-92979025D01*
X156412723Y-92981416D01*
X156412720Y-92981417D01*
X156354217Y-93016223D01*
X156347485Y-93019954D01*
X156286970Y-93051121D01*
X156286966Y-93051123D01*
X156282802Y-93053268D01*
X156279005Y-93056001D01*
X156279004Y-93056002D01*
X156243711Y-93081409D01*
X156234525Y-93087431D01*
X156193139Y-93112054D01*
X156136778Y-93158103D01*
X156130716Y-93162755D01*
X156071646Y-93205279D01*
X156068295Y-93208544D01*
X156068292Y-93208546D01*
X156037148Y-93238885D01*
X156028941Y-93246210D01*
X156027393Y-93247474D01*
X156027382Y-93247484D01*
X156024940Y-93249479D01*
X155975283Y-93299136D01*
X155974109Y-93300295D01*
X155888625Y-93383569D01*
X155888622Y-93383573D01*
X155885277Y-93386831D01*
X155882450Y-93390549D01*
X155879348Y-93394055D01*
X155879316Y-93394027D01*
X155871905Y-93402514D01*
X154170869Y-95103550D01*
X154165675Y-95108458D01*
X154107265Y-95160591D01*
X154104272Y-95164190D01*
X154034551Y-95248021D01*
X154033153Y-95249673D01*
X153958903Y-95335844D01*
X153956402Y-95339807D01*
X153956401Y-95339809D01*
X153955117Y-95341843D01*
X153945436Y-95355167D01*
X153943890Y-95357026D01*
X153943881Y-95357039D01*
X153940895Y-95360629D01*
X153938471Y-95364623D01*
X153938470Y-95364625D01*
X153881898Y-95457854D01*
X153880740Y-95459725D01*
X153820066Y-95555886D01*
X153818186Y-95560160D01*
X153818185Y-95560161D01*
X153817214Y-95562369D01*
X153809593Y-95577008D01*
X153808347Y-95579060D01*
X153808342Y-95579070D01*
X153805920Y-95583061D01*
X153762664Y-95686216D01*
X153761949Y-95687921D01*
X153761081Y-95689941D01*
X153715280Y-95794033D01*
X153713413Y-95800880D01*
X153708049Y-95816457D01*
X153707112Y-95818690D01*
X153707109Y-95818698D01*
X153705305Y-95823001D01*
X153677548Y-95932299D01*
X153677319Y-95933200D01*
X153676759Y-95935327D01*
X153648073Y-96040543D01*
X153648072Y-96040551D01*
X153646844Y-96045053D01*
X153646010Y-96052100D01*
X153643006Y-96068305D01*
X153641261Y-96075177D01*
X153633868Y-96148594D01*
X153629871Y-96188290D01*
X153629636Y-96190437D01*
X153616263Y-96303430D01*
X153618007Y-96360500D01*
X153619441Y-96407441D01*
X153619500Y-96411289D01*
X153619500Y-96862686D01*
X153604856Y-96921642D01*
X153492398Y-97134038D01*
X153396317Y-97396592D01*
X153336757Y-97669757D01*
X153314822Y-97948477D01*
X153330916Y-98227596D01*
X153384741Y-98501948D01*
X153475303Y-98766457D01*
X153477230Y-98770288D01*
X153558884Y-98932638D01*
X153600925Y-99016228D01*
X153759282Y-99246639D01*
X153762169Y-99249812D01*
X153762170Y-99249813D01*
X153927342Y-99431335D01*
X153947444Y-99453427D01*
X153981951Y-99482279D01*
X154158638Y-99630013D01*
X154158643Y-99630017D01*
X154161930Y-99632765D01*
X154227722Y-99674036D01*
X154395131Y-99779052D01*
X154395135Y-99779054D01*
X154398771Y-99781335D01*
X154402681Y-99783100D01*
X154402682Y-99783101D01*
X154649671Y-99894621D01*
X154649675Y-99894623D01*
X154653583Y-99896387D01*
X154657702Y-99897607D01*
X154917539Y-99974575D01*
X154917544Y-99974576D01*
X154921652Y-99975793D01*
X154925886Y-99976441D01*
X154925891Y-99976442D01*
X155168904Y-100013628D01*
X155198018Y-100018083D01*
X155340396Y-100020319D01*
X155473275Y-100022407D01*
X155473281Y-100022407D01*
X155477566Y-100022474D01*
X155755123Y-99988886D01*
X156025554Y-99917940D01*
X156029514Y-99916300D01*
X156029519Y-99916298D01*
X156154704Y-99864444D01*
X156283855Y-99810948D01*
X156430696Y-99725141D01*
X156521542Y-99672055D01*
X156521543Y-99672054D01*
X156525245Y-99669891D01*
X156745258Y-99497379D01*
X156759348Y-99482840D01*
X156936840Y-99299681D01*
X156939823Y-99296603D01*
X157105340Y-99071280D01*
X157115243Y-99053041D01*
X157236695Y-98829354D01*
X157236696Y-98829352D01*
X157238745Y-98825578D01*
X157337570Y-98564044D01*
X157399987Y-98291518D01*
X157424840Y-98013043D01*
X157425291Y-97970000D01*
X157425122Y-97967520D01*
X157406567Y-97695342D01*
X157406566Y-97695336D01*
X157406275Y-97691065D01*
X157402747Y-97674026D01*
X157350450Y-97421498D01*
X157349579Y-97417292D01*
X157343734Y-97400784D01*
X157257688Y-97157798D01*
X157257687Y-97157796D01*
X157256253Y-97153746D01*
X157235690Y-97113906D01*
X157222220Y-97044200D01*
X157248574Y-96978276D01*
X157258560Y-96967021D01*
X157828176Y-96397405D01*
X157890488Y-96363379D01*
X157917271Y-96360500D01*
X158777226Y-96360500D01*
X158845347Y-96380502D01*
X158891840Y-96434158D01*
X158901944Y-96504432D01*
X158868623Y-96573232D01*
X158786371Y-96659908D01*
X158623223Y-96886952D01*
X158492398Y-97134038D01*
X158490926Y-97138061D01*
X158490924Y-97138065D01*
X158422872Y-97324026D01*
X158396317Y-97396592D01*
X158336757Y-97669757D01*
X158314822Y-97948477D01*
X158330916Y-98227596D01*
X158384741Y-98501948D01*
X158475303Y-98766457D01*
X158477230Y-98770288D01*
X158558884Y-98932638D01*
X158600925Y-99016228D01*
X158759282Y-99246639D01*
X158762169Y-99249812D01*
X158762170Y-99249813D01*
X158927342Y-99431335D01*
X158947444Y-99453427D01*
X158981951Y-99482279D01*
X159158638Y-99630013D01*
X159158643Y-99630017D01*
X159161930Y-99632765D01*
X159227722Y-99674036D01*
X159395131Y-99779052D01*
X159395135Y-99779054D01*
X159398771Y-99781335D01*
X159402681Y-99783100D01*
X159402682Y-99783101D01*
X159649671Y-99894621D01*
X159649675Y-99894623D01*
X159653583Y-99896387D01*
X159657702Y-99897607D01*
X159917539Y-99974575D01*
X159917544Y-99974576D01*
X159921652Y-99975793D01*
X159925886Y-99976441D01*
X159925891Y-99976442D01*
X160168904Y-100013628D01*
X160198018Y-100018083D01*
X160340396Y-100020319D01*
X160473275Y-100022407D01*
X160473281Y-100022407D01*
X160477566Y-100022474D01*
X160755123Y-99988886D01*
X161025554Y-99917940D01*
X161029514Y-99916300D01*
X161029519Y-99916298D01*
X161154704Y-99864444D01*
X161283855Y-99810948D01*
X161430696Y-99725141D01*
X161521542Y-99672055D01*
X161521543Y-99672054D01*
X161525245Y-99669891D01*
X161745258Y-99497379D01*
X161759348Y-99482840D01*
X161936840Y-99299681D01*
X161939823Y-99296603D01*
X162105340Y-99071280D01*
X162115243Y-99053041D01*
X162236695Y-98829354D01*
X162236696Y-98829352D01*
X162238745Y-98825578D01*
X162337570Y-98564044D01*
X162399987Y-98291518D01*
X162424840Y-98013043D01*
X162425291Y-97970000D01*
X162425122Y-97967520D01*
X162406567Y-97695342D01*
X162406566Y-97695336D01*
X162406275Y-97691065D01*
X162402747Y-97674026D01*
X162350450Y-97421498D01*
X162349579Y-97417292D01*
X162343734Y-97400784D01*
X162257684Y-97157787D01*
X162256253Y-97153746D01*
X162128022Y-96905304D01*
X162050792Y-96795417D01*
X161969724Y-96680067D01*
X161969721Y-96680064D01*
X161967261Y-96676563D01*
X161964348Y-96673429D01*
X161964343Y-96673422D01*
X161870348Y-96572271D01*
X161838629Y-96508754D01*
X161846285Y-96438171D01*
X161890886Y-96382933D01*
X161962648Y-96360500D01*
X163777226Y-96360500D01*
X163845347Y-96380502D01*
X163891840Y-96434158D01*
X163901944Y-96504432D01*
X163868623Y-96573232D01*
X163786371Y-96659908D01*
X163623223Y-96886952D01*
X163492398Y-97134038D01*
X163490926Y-97138061D01*
X163490924Y-97138065D01*
X163422872Y-97324026D01*
X163396317Y-97396592D01*
X163336757Y-97669757D01*
X163314822Y-97948477D01*
X163330916Y-98227596D01*
X163384741Y-98501948D01*
X163475303Y-98766457D01*
X163477230Y-98770288D01*
X163558884Y-98932638D01*
X163600925Y-99016228D01*
X163759282Y-99246639D01*
X163762169Y-99249812D01*
X163762170Y-99249813D01*
X163927342Y-99431335D01*
X163947444Y-99453427D01*
X163981951Y-99482279D01*
X164158638Y-99630013D01*
X164158643Y-99630017D01*
X164161930Y-99632765D01*
X164227722Y-99674036D01*
X164395131Y-99779052D01*
X164395135Y-99779054D01*
X164398771Y-99781335D01*
X164402681Y-99783100D01*
X164402682Y-99783101D01*
X164649671Y-99894621D01*
X164649675Y-99894623D01*
X164653583Y-99896387D01*
X164657702Y-99897607D01*
X164917539Y-99974575D01*
X164917544Y-99974576D01*
X164921652Y-99975793D01*
X164925886Y-99976441D01*
X164925891Y-99976442D01*
X165168904Y-100013628D01*
X165198018Y-100018083D01*
X165340396Y-100020319D01*
X165473275Y-100022407D01*
X165473281Y-100022407D01*
X165477566Y-100022474D01*
X165755123Y-99988886D01*
X166025554Y-99917940D01*
X166029514Y-99916300D01*
X166029519Y-99916298D01*
X166154704Y-99864444D01*
X166283855Y-99810948D01*
X166409183Y-99737712D01*
X166472754Y-99720500D01*
X166975335Y-99720500D01*
X166982478Y-99720703D01*
X167055961Y-99724876D01*
X167055967Y-99724876D01*
X167060636Y-99725141D01*
X167118775Y-99719799D01*
X167173860Y-99714737D01*
X167176051Y-99714554D01*
X167207269Y-99712234D01*
X167289466Y-99706126D01*
X167294029Y-99705094D01*
X167294039Y-99705092D01*
X167296382Y-99704562D01*
X167312648Y-99701985D01*
X167315071Y-99701762D01*
X167315075Y-99701761D01*
X167319726Y-99701334D01*
X167324265Y-99700223D01*
X167324267Y-99700223D01*
X167430214Y-99674299D01*
X167432352Y-99673795D01*
X167461311Y-99667242D01*
X167543232Y-99648705D01*
X167549844Y-99646134D01*
X167565549Y-99641182D01*
X167572451Y-99639493D01*
X167588897Y-99632765D01*
X167677711Y-99596431D01*
X167679752Y-99595616D01*
X167781368Y-99556099D01*
X167781373Y-99556097D01*
X167785723Y-99554405D01*
X167789782Y-99552085D01*
X167789786Y-99552083D01*
X167791884Y-99550884D01*
X167806686Y-99543664D01*
X167813259Y-99540975D01*
X167910977Y-99482838D01*
X167912874Y-99481732D01*
X168011612Y-99425299D01*
X168017196Y-99420897D01*
X168030764Y-99411573D01*
X168032841Y-99410337D01*
X168032843Y-99410335D01*
X168036861Y-99407945D01*
X168124884Y-99336028D01*
X168126598Y-99334652D01*
X168212268Y-99267115D01*
X168212271Y-99267112D01*
X168215936Y-99264223D01*
X168287264Y-99188399D01*
X168289944Y-99185637D01*
X169934405Y-97541176D01*
X169996717Y-97507150D01*
X170067532Y-97512215D01*
X170124368Y-97554762D01*
X170149179Y-97621282D01*
X170149500Y-97630271D01*
X170149500Y-98275316D01*
X170149749Y-98278103D01*
X170149749Y-98278109D01*
X170150946Y-98291518D01*
X170160234Y-98395587D01*
X170216259Y-98590970D01*
X170310427Y-98771096D01*
X170438891Y-98928609D01*
X170443831Y-98932638D01*
X170541626Y-99012397D01*
X170596404Y-99057073D01*
X170776530Y-99151241D01*
X170971913Y-99207266D01*
X171003545Y-99210089D01*
X171089391Y-99217751D01*
X171089397Y-99217751D01*
X171092184Y-99218000D01*
X174707816Y-99218000D01*
X174710603Y-99217751D01*
X174710609Y-99217751D01*
X174796455Y-99210089D01*
X174828087Y-99207266D01*
X175023470Y-99151241D01*
X175203596Y-99057073D01*
X175258375Y-99012397D01*
X175356169Y-98932638D01*
X175361109Y-98928609D01*
X175489573Y-98771096D01*
X175583741Y-98590970D01*
X175639766Y-98395587D01*
X175649054Y-98291518D01*
X175650251Y-98278109D01*
X175650251Y-98278103D01*
X175650500Y-98275316D01*
X175650500Y-94659684D01*
X175639766Y-94539413D01*
X175583741Y-94344030D01*
X175489573Y-94163904D01*
X175361109Y-94006391D01*
X175323506Y-93975723D01*
X175208540Y-93881959D01*
X175208539Y-93881958D01*
X175203596Y-93877927D01*
X175187617Y-93869573D01*
X175163662Y-93857050D01*
X175023470Y-93783759D01*
X174828087Y-93727734D01*
X174796455Y-93724911D01*
X174710609Y-93717249D01*
X174710603Y-93717249D01*
X174707816Y-93717000D01*
X171256500Y-93717000D01*
X171188379Y-93696998D01*
X171141886Y-93643342D01*
X171130500Y-93591000D01*
X171130500Y-91431500D01*
X171150502Y-91363379D01*
X171204158Y-91316886D01*
X171256500Y-91305500D01*
X173020816Y-91305500D01*
X173023603Y-91305251D01*
X173023609Y-91305251D01*
X173109455Y-91297589D01*
X173141087Y-91294766D01*
X173336470Y-91238741D01*
X173516596Y-91144573D01*
X173569689Y-91101271D01*
X173619377Y-91076526D01*
X173710213Y-91054299D01*
X173712352Y-91053795D01*
X173740058Y-91047526D01*
X173823232Y-91028705D01*
X173829844Y-91026134D01*
X173845549Y-91021182D01*
X173852451Y-91019493D01*
X173868327Y-91012998D01*
X173957711Y-90976431D01*
X173959752Y-90975616D01*
X174061368Y-90936099D01*
X174061373Y-90936097D01*
X174065723Y-90934405D01*
X174069782Y-90932085D01*
X174069786Y-90932083D01*
X174071884Y-90930884D01*
X174086686Y-90923664D01*
X174093259Y-90920975D01*
X174190977Y-90862838D01*
X174192874Y-90861732D01*
X174291612Y-90805299D01*
X174297196Y-90800897D01*
X174310764Y-90791573D01*
X174312841Y-90790337D01*
X174312843Y-90790335D01*
X174316861Y-90787945D01*
X174404884Y-90716028D01*
X174406598Y-90714652D01*
X174492268Y-90647115D01*
X174492271Y-90647112D01*
X174495936Y-90644223D01*
X174567264Y-90568399D01*
X174569944Y-90565637D01*
X176279131Y-88856450D01*
X176284325Y-88851542D01*
X176339243Y-88802526D01*
X176339246Y-88802523D01*
X176342735Y-88799409D01*
X176415473Y-88711951D01*
X176416870Y-88710300D01*
X176424361Y-88701607D01*
X176491097Y-88624156D01*
X176493599Y-88620191D01*
X176494883Y-88618157D01*
X176504564Y-88604833D01*
X176506110Y-88602974D01*
X176506119Y-88602961D01*
X176509105Y-88599371D01*
X176512940Y-88593052D01*
X176568102Y-88502146D01*
X176569260Y-88500275D01*
X176627438Y-88408070D01*
X176627439Y-88408069D01*
X176629934Y-88404114D01*
X176632788Y-88397626D01*
X176640407Y-88382992D01*
X176641653Y-88380940D01*
X176641658Y-88380930D01*
X176644080Y-88376939D01*
X176688065Y-88272046D01*
X176688919Y-88270059D01*
X176732836Y-88170248D01*
X176734720Y-88165967D01*
X176736587Y-88159120D01*
X176741951Y-88143543D01*
X176742888Y-88141310D01*
X176742891Y-88141302D01*
X176744695Y-88136999D01*
X176772686Y-88026782D01*
X176773241Y-88024673D01*
X176801927Y-87919457D01*
X176801928Y-87919449D01*
X176803156Y-87914947D01*
X176803705Y-87910309D01*
X176804598Y-87905713D01*
X176806296Y-87906043D01*
X176831278Y-87847510D01*
X176890025Y-87807645D01*
X176961000Y-87805869D01*
X176989237Y-87817200D01*
X177162939Y-87912694D01*
X177308514Y-87970331D01*
X177451797Y-88027061D01*
X177451800Y-88027062D01*
X177455480Y-88028519D01*
X177459314Y-88029503D01*
X177459322Y-88029506D01*
X177647779Y-88077893D01*
X177760232Y-88106766D01*
X177764160Y-88107262D01*
X177764164Y-88107263D01*
X177888080Y-88122917D01*
X178072387Y-88146200D01*
X178387023Y-88146200D01*
X178571330Y-88122917D01*
X178695246Y-88107263D01*
X178695250Y-88107262D01*
X178699178Y-88106766D01*
X178811631Y-88077893D01*
X179000088Y-88029506D01*
X179000096Y-88029503D01*
X179003930Y-88028519D01*
X179007610Y-88027062D01*
X179007613Y-88027061D01*
X179150896Y-87970331D01*
X179296471Y-87912694D01*
X179308570Y-87906043D01*
X179515951Y-87792033D01*
X179572189Y-87761116D01*
X179575393Y-87758788D01*
X179575398Y-87758785D01*
X179669939Y-87690097D01*
X179736807Y-87666238D01*
X179805959Y-87682319D01*
X179855439Y-87733233D01*
X179870000Y-87792033D01*
X179870000Y-100994000D01*
X179849998Y-101062121D01*
X179796342Y-101108614D01*
X179744000Y-101120000D01*
X101726000Y-101120000D01*
X101657879Y-101099998D01*
X101611386Y-101046342D01*
X101600000Y-100994000D01*
X101600000Y-97598477D01*
X136004822Y-97598477D01*
X136020916Y-97877596D01*
X136074741Y-98151948D01*
X136076127Y-98155996D01*
X136158158Y-98395587D01*
X136165303Y-98416457D01*
X136167230Y-98420288D01*
X136241550Y-98568056D01*
X136290925Y-98666228D01*
X136449282Y-98896639D01*
X136452169Y-98899812D01*
X136452170Y-98899813D01*
X136611336Y-99074735D01*
X136637444Y-99103427D01*
X136640725Y-99106170D01*
X136848638Y-99280013D01*
X136848643Y-99280017D01*
X136851930Y-99282765D01*
X136906891Y-99317242D01*
X137085131Y-99429052D01*
X137085135Y-99429054D01*
X137088771Y-99431335D01*
X137092681Y-99433100D01*
X137092682Y-99433101D01*
X137339671Y-99544621D01*
X137339675Y-99544623D01*
X137343583Y-99546387D01*
X137370651Y-99554405D01*
X137607539Y-99624575D01*
X137607544Y-99624576D01*
X137611652Y-99625793D01*
X137615886Y-99626441D01*
X137615891Y-99626442D01*
X137858904Y-99663628D01*
X137888018Y-99668083D01*
X138030396Y-99670319D01*
X138163275Y-99672407D01*
X138163281Y-99672407D01*
X138167566Y-99672474D01*
X138445123Y-99638886D01*
X138715554Y-99567940D01*
X138719514Y-99566300D01*
X138719519Y-99566298D01*
X138921003Y-99482840D01*
X138973855Y-99460948D01*
X139215245Y-99319891D01*
X139435258Y-99147379D01*
X139477851Y-99103427D01*
X139626840Y-98949681D01*
X139629823Y-98946603D01*
X139795340Y-98721280D01*
X139797386Y-98717512D01*
X139926695Y-98479354D01*
X139926696Y-98479352D01*
X139928745Y-98475578D01*
X140027570Y-98214044D01*
X140087413Y-97952757D01*
X140089030Y-97945698D01*
X140089031Y-97945693D01*
X140089987Y-97941518D01*
X140114840Y-97663043D01*
X140115291Y-97620000D01*
X140115122Y-97617520D01*
X140096567Y-97345342D01*
X140096566Y-97345336D01*
X140096275Y-97341065D01*
X140092747Y-97324026D01*
X140040450Y-97071498D01*
X140039579Y-97067292D01*
X140033734Y-97050784D01*
X139947684Y-96807787D01*
X139946253Y-96803746D01*
X139858618Y-96633957D01*
X139845149Y-96564250D01*
X139871504Y-96498326D01*
X139929317Y-96457117D01*
X140000231Y-96453705D01*
X140037818Y-96469604D01*
X140085886Y-96499933D01*
X140092378Y-96502790D01*
X140106992Y-96510398D01*
X140113061Y-96514080D01*
X140117369Y-96515887D01*
X140117370Y-96515887D01*
X140217962Y-96558069D01*
X140219982Y-96558937D01*
X140252473Y-96573233D01*
X140324033Y-96604720D01*
X140330880Y-96606587D01*
X140346457Y-96611951D01*
X140348695Y-96612890D01*
X140348702Y-96612892D01*
X140353001Y-96614695D01*
X140357528Y-96615845D01*
X140357529Y-96615845D01*
X140375453Y-96620397D01*
X140463249Y-96642694D01*
X140465263Y-96643224D01*
X140575052Y-96673156D01*
X140582102Y-96673991D01*
X140598294Y-96676992D01*
X140600641Y-96677588D01*
X140600653Y-96677590D01*
X140605177Y-96678739D01*
X140609823Y-96679207D01*
X140609824Y-96679207D01*
X140718277Y-96690128D01*
X140720462Y-96690367D01*
X140819792Y-96702123D01*
X140833429Y-96703737D01*
X140937440Y-96700559D01*
X140941288Y-96700500D01*
X141032687Y-96700500D01*
X141100808Y-96720502D01*
X141147301Y-96774158D01*
X141157405Y-96844432D01*
X141151013Y-96869801D01*
X141132041Y-96921645D01*
X141086317Y-97046592D01*
X141026757Y-97319757D01*
X141026421Y-97324026D01*
X141009332Y-97541176D01*
X141004822Y-97598477D01*
X141020916Y-97877596D01*
X141074741Y-98151948D01*
X141076127Y-98155996D01*
X141158158Y-98395587D01*
X141165303Y-98416457D01*
X141167230Y-98420288D01*
X141241550Y-98568056D01*
X141290925Y-98666228D01*
X141449282Y-98896639D01*
X141452169Y-98899812D01*
X141452170Y-98899813D01*
X141611336Y-99074735D01*
X141637444Y-99103427D01*
X141640725Y-99106170D01*
X141848638Y-99280013D01*
X141848643Y-99280017D01*
X141851930Y-99282765D01*
X141906891Y-99317242D01*
X142085131Y-99429052D01*
X142085135Y-99429054D01*
X142088771Y-99431335D01*
X142092681Y-99433100D01*
X142092682Y-99433101D01*
X142339671Y-99544621D01*
X142339675Y-99544623D01*
X142343583Y-99546387D01*
X142370651Y-99554405D01*
X142607539Y-99624575D01*
X142607544Y-99624576D01*
X142611652Y-99625793D01*
X142615886Y-99626441D01*
X142615891Y-99626442D01*
X142858904Y-99663628D01*
X142888018Y-99668083D01*
X143030396Y-99670319D01*
X143163275Y-99672407D01*
X143163281Y-99672407D01*
X143167566Y-99672474D01*
X143445123Y-99638886D01*
X143715554Y-99567940D01*
X143719514Y-99566300D01*
X143719519Y-99566298D01*
X143921003Y-99482840D01*
X143973855Y-99460948D01*
X144215245Y-99319891D01*
X144435258Y-99147379D01*
X144477851Y-99103427D01*
X144626840Y-98949681D01*
X144629823Y-98946603D01*
X144795340Y-98721280D01*
X144797386Y-98717512D01*
X144926695Y-98479354D01*
X144926696Y-98479352D01*
X144928745Y-98475578D01*
X145027570Y-98214044D01*
X145087413Y-97952757D01*
X145089030Y-97945698D01*
X145089031Y-97945693D01*
X145089987Y-97941518D01*
X145114840Y-97663043D01*
X145115291Y-97620000D01*
X145115122Y-97617520D01*
X145096567Y-97345342D01*
X145096566Y-97345336D01*
X145096275Y-97341065D01*
X145092747Y-97324026D01*
X145040450Y-97071498D01*
X145039579Y-97067292D01*
X144969204Y-96868558D01*
X144965320Y-96797669D01*
X145000378Y-96735933D01*
X145063249Y-96702950D01*
X145087977Y-96700500D01*
X149475335Y-96700500D01*
X149482478Y-96700703D01*
X149555961Y-96704876D01*
X149555967Y-96704876D01*
X149560636Y-96705141D01*
X149618775Y-96699799D01*
X149673860Y-96694737D01*
X149676051Y-96694554D01*
X149707269Y-96692234D01*
X149789466Y-96686126D01*
X149794029Y-96685094D01*
X149794039Y-96685092D01*
X149796382Y-96684562D01*
X149812648Y-96681985D01*
X149815071Y-96681762D01*
X149815075Y-96681761D01*
X149819726Y-96681334D01*
X149824265Y-96680223D01*
X149824267Y-96680223D01*
X149930214Y-96654299D01*
X149932352Y-96653795D01*
X149960058Y-96647526D01*
X150043232Y-96628705D01*
X150049844Y-96626134D01*
X150065549Y-96621182D01*
X150072451Y-96619493D01*
X150088591Y-96612890D01*
X150177711Y-96576431D01*
X150179752Y-96575616D01*
X150281368Y-96536099D01*
X150281373Y-96536097D01*
X150285723Y-96534405D01*
X150289782Y-96532085D01*
X150289786Y-96532083D01*
X150291884Y-96530884D01*
X150306686Y-96523664D01*
X150313259Y-96520975D01*
X150410977Y-96462838D01*
X150412874Y-96461732D01*
X150426918Y-96453705D01*
X150511612Y-96405299D01*
X150517196Y-96400897D01*
X150530764Y-96391573D01*
X150532841Y-96390337D01*
X150532843Y-96390335D01*
X150536861Y-96387945D01*
X150624884Y-96316028D01*
X150626598Y-96314652D01*
X150712268Y-96247115D01*
X150712271Y-96247112D01*
X150715936Y-96244223D01*
X150787264Y-96168399D01*
X150789944Y-96165637D01*
X152888176Y-94067405D01*
X152950488Y-94033379D01*
X152977271Y-94030500D01*
X153797816Y-94030500D01*
X153800603Y-94030251D01*
X153800609Y-94030251D01*
X153886455Y-94022589D01*
X153918087Y-94019766D01*
X154113470Y-93963741D01*
X154269904Y-93881959D01*
X154287942Y-93872529D01*
X154287943Y-93872528D01*
X154293596Y-93869573D01*
X154451109Y-93741109D01*
X154487085Y-93696998D01*
X154575541Y-93588540D01*
X154575542Y-93588539D01*
X154579573Y-93583596D01*
X154673741Y-93403470D01*
X154729766Y-93208087D01*
X154734228Y-93158088D01*
X154740251Y-93090609D01*
X154740251Y-93090603D01*
X154740500Y-93087816D01*
X154740500Y-90772184D01*
X154729766Y-90651913D01*
X154673741Y-90456530D01*
X154579573Y-90276404D01*
X154535088Y-90221859D01*
X154455138Y-90123831D01*
X154451109Y-90118891D01*
X154386778Y-90066424D01*
X154298540Y-89994459D01*
X154298539Y-89994458D01*
X154293596Y-89990427D01*
X154113470Y-89896259D01*
X153918087Y-89840234D01*
X153886455Y-89837411D01*
X153800609Y-89829749D01*
X153800603Y-89829749D01*
X153797816Y-89829500D01*
X151482184Y-89829500D01*
X151479397Y-89829749D01*
X151479391Y-89829749D01*
X151393545Y-89837411D01*
X151361913Y-89840234D01*
X151166530Y-89896259D01*
X150986404Y-89990427D01*
X150981461Y-89994458D01*
X150981460Y-89994459D01*
X150893222Y-90066424D01*
X150828891Y-90118891D01*
X150824862Y-90123831D01*
X150744913Y-90221859D01*
X150700427Y-90276404D01*
X150606259Y-90456530D01*
X150550234Y-90651913D01*
X150539500Y-90772184D01*
X150539500Y-91412729D01*
X150519498Y-91480850D01*
X150502595Y-91501824D01*
X148841824Y-93162595D01*
X148779512Y-93196621D01*
X148752729Y-93199500D01*
X147898721Y-93199500D01*
X147830600Y-93179498D01*
X147784107Y-93125842D01*
X147774003Y-93055568D01*
X147803497Y-92990988D01*
X147828719Y-92968735D01*
X148025545Y-92837221D01*
X148025549Y-92837218D01*
X148029253Y-92834743D01*
X148240281Y-92645730D01*
X148422573Y-92428868D01*
X148435202Y-92408619D01*
X148469988Y-92352841D01*
X148572489Y-92188485D01*
X148687040Y-91929376D01*
X148763939Y-91656712D01*
X148781684Y-91524598D01*
X148801225Y-91379115D01*
X148801226Y-91379107D01*
X148801652Y-91375933D01*
X148803866Y-91305500D01*
X148805509Y-91253222D01*
X148805509Y-91253217D01*
X148805610Y-91250000D01*
X148785601Y-90967407D01*
X148782913Y-90954919D01*
X148726911Y-90694800D01*
X148726911Y-90694798D01*
X148725975Y-90690453D01*
X148627920Y-90424663D01*
X148625806Y-90420745D01*
X148495506Y-90179256D01*
X148493393Y-90175340D01*
X148325078Y-89947460D01*
X148321068Y-89943386D01*
X148210286Y-89830851D01*
X148126334Y-89745570D01*
X148122794Y-89742869D01*
X148122788Y-89742863D01*
X147904667Y-89576398D01*
X147904663Y-89576395D01*
X147901126Y-89573696D01*
X147661065Y-89439256D01*
X147657837Y-89437448D01*
X147657832Y-89437445D01*
X147653947Y-89435270D01*
X147649789Y-89433662D01*
X147649784Y-89433659D01*
X147393885Y-89334659D01*
X147393879Y-89334657D01*
X147389730Y-89333052D01*
X147385398Y-89332048D01*
X147385395Y-89332047D01*
X147310141Y-89314604D01*
X147113747Y-89269082D01*
X146831503Y-89244637D01*
X146827068Y-89244881D01*
X146827064Y-89244881D01*
X146553073Y-89259960D01*
X146553066Y-89259961D01*
X146548630Y-89260205D01*
X146410743Y-89287632D01*
X146275146Y-89314604D01*
X146275141Y-89314605D01*
X146270774Y-89315474D01*
X146266571Y-89316950D01*
X146007684Y-89407864D01*
X146007681Y-89407865D01*
X146003476Y-89409342D01*
X145999523Y-89411395D01*
X145999517Y-89411398D01*
X145857135Y-89485360D01*
X145752072Y-89539936D01*
X145748457Y-89542519D01*
X145748451Y-89542523D01*
X145701048Y-89576398D01*
X145521576Y-89704651D01*
X145518349Y-89707729D01*
X145518347Y-89707731D01*
X145322510Y-89894550D01*
X145316588Y-89900199D01*
X145141199Y-90122680D01*
X145086177Y-90217407D01*
X145001141Y-90363807D01*
X145001138Y-90363813D01*
X144998907Y-90367654D01*
X144997237Y-90371777D01*
X144898344Y-90615933D01*
X144892552Y-90630232D01*
X144891481Y-90634545D01*
X144891479Y-90634550D01*
X144825328Y-90900856D01*
X144824255Y-90905177D01*
X144823801Y-90909605D01*
X144823801Y-90909607D01*
X144811862Y-91026136D01*
X144795380Y-91187002D01*
X144795555Y-91191454D01*
X144805261Y-91438485D01*
X144806502Y-91470084D01*
X144857400Y-91748775D01*
X144861255Y-91760331D01*
X144932821Y-91974839D01*
X144947058Y-92017514D01*
X144949050Y-92021501D01*
X144949051Y-92021503D01*
X145064354Y-92252260D01*
X145073687Y-92270939D01*
X145234761Y-92503993D01*
X145427065Y-92712027D01*
X145430519Y-92714839D01*
X145643307Y-92888075D01*
X145643311Y-92888078D01*
X145646764Y-92890889D01*
X145650586Y-92893190D01*
X145770781Y-92965554D01*
X145818825Y-93017826D01*
X145830981Y-93087774D01*
X145803390Y-93153190D01*
X145744813Y-93193305D01*
X145705792Y-93199500D01*
X141687271Y-93199500D01*
X141619150Y-93179498D01*
X141598175Y-93162595D01*
X140967404Y-92531823D01*
X140933379Y-92469511D01*
X140930500Y-92442728D01*
X140930500Y-92259814D01*
X140948621Y-92196511D01*
X140948045Y-92196206D01*
X140949488Y-92193480D01*
X140949585Y-92193142D01*
X140950129Y-92192269D01*
X140952489Y-92188485D01*
X141067040Y-91929376D01*
X141143939Y-91656712D01*
X141161684Y-91524598D01*
X141181225Y-91379115D01*
X141181226Y-91379107D01*
X141181652Y-91375933D01*
X141183866Y-91305500D01*
X141185509Y-91253222D01*
X141185509Y-91253217D01*
X141185610Y-91250000D01*
X141165601Y-90967407D01*
X141162913Y-90954919D01*
X141106911Y-90694800D01*
X141106911Y-90694798D01*
X141105975Y-90690453D01*
X141007920Y-90424663D01*
X141005806Y-90420745D01*
X140875506Y-90179256D01*
X140873393Y-90175340D01*
X140705078Y-89947460D01*
X140701068Y-89943386D01*
X140590286Y-89830851D01*
X140506334Y-89745570D01*
X140502794Y-89742869D01*
X140502788Y-89742863D01*
X140284667Y-89576398D01*
X140284663Y-89576395D01*
X140281126Y-89573696D01*
X140041065Y-89439256D01*
X140037837Y-89437448D01*
X140037832Y-89437445D01*
X140033947Y-89435270D01*
X140029789Y-89433662D01*
X140029784Y-89433659D01*
X139773885Y-89334659D01*
X139773879Y-89334657D01*
X139769730Y-89333052D01*
X139765398Y-89332048D01*
X139765395Y-89332047D01*
X139690141Y-89314604D01*
X139493747Y-89269082D01*
X139211503Y-89244637D01*
X139207068Y-89244881D01*
X139207064Y-89244881D01*
X138933073Y-89259960D01*
X138933066Y-89259961D01*
X138928630Y-89260205D01*
X138790743Y-89287632D01*
X138655146Y-89314604D01*
X138655141Y-89314605D01*
X138650774Y-89315474D01*
X138646571Y-89316950D01*
X138387684Y-89407864D01*
X138387681Y-89407865D01*
X138383476Y-89409342D01*
X138379523Y-89411395D01*
X138379517Y-89411398D01*
X138237135Y-89485360D01*
X138132072Y-89539936D01*
X138128457Y-89542519D01*
X138128451Y-89542523D01*
X138081048Y-89576398D01*
X137901576Y-89704651D01*
X137898349Y-89707729D01*
X137898347Y-89707731D01*
X137702510Y-89894550D01*
X137696588Y-89900199D01*
X137521199Y-90122680D01*
X137466177Y-90217407D01*
X137381141Y-90363807D01*
X137381138Y-90363813D01*
X137378907Y-90367654D01*
X137377237Y-90371777D01*
X137278344Y-90615933D01*
X137272552Y-90630232D01*
X137271481Y-90634545D01*
X137271479Y-90634550D01*
X137205328Y-90900856D01*
X137204255Y-90905177D01*
X137203801Y-90909605D01*
X137203801Y-90909607D01*
X137191862Y-91026136D01*
X137175380Y-91187002D01*
X137175555Y-91191454D01*
X137185261Y-91438485D01*
X137186502Y-91470084D01*
X137237400Y-91748775D01*
X137241255Y-91760331D01*
X137312821Y-91974839D01*
X137327058Y-92017514D01*
X137414814Y-92193142D01*
X137416213Y-92195941D01*
X137429500Y-92252260D01*
X137429500Y-93165335D01*
X137429297Y-93172478D01*
X137426948Y-93213851D01*
X137424859Y-93250636D01*
X137425288Y-93255301D01*
X137435263Y-93363860D01*
X137435446Y-93366051D01*
X137443874Y-93479466D01*
X137444906Y-93484029D01*
X137444908Y-93484039D01*
X137445438Y-93486382D01*
X137448015Y-93502648D01*
X137448238Y-93505071D01*
X137448666Y-93509726D01*
X137449777Y-93514265D01*
X137449777Y-93514267D01*
X137475701Y-93620214D01*
X137476205Y-93622352D01*
X137501295Y-93733232D01*
X137503866Y-93739844D01*
X137508818Y-93755549D01*
X137510507Y-93762451D01*
X137512280Y-93766784D01*
X137512280Y-93766785D01*
X137553569Y-93867711D01*
X137554384Y-93869752D01*
X137591620Y-93965501D01*
X137595595Y-93975723D01*
X137597915Y-93979782D01*
X137597917Y-93979786D01*
X137599116Y-93981884D01*
X137606336Y-93996686D01*
X137609025Y-94003259D01*
X137618846Y-94019766D01*
X137667160Y-94100974D01*
X137668266Y-94102871D01*
X137724701Y-94201612D01*
X137729103Y-94207196D01*
X137738427Y-94220764D01*
X137742055Y-94226861D01*
X137745012Y-94230480D01*
X137813972Y-94314884D01*
X137815348Y-94316598D01*
X137885777Y-94405936D01*
X137889179Y-94409136D01*
X137961601Y-94477264D01*
X137964363Y-94479944D01*
X139021111Y-95536692D01*
X139055137Y-95599004D01*
X139050072Y-95669819D01*
X139007525Y-95726655D01*
X138941005Y-95751466D01*
X138881370Y-95741160D01*
X138760133Y-95687940D01*
X138760129Y-95687939D01*
X138756205Y-95686216D01*
X138487319Y-95609622D01*
X138272577Y-95579060D01*
X138214778Y-95570834D01*
X138214776Y-95570834D01*
X138210526Y-95570229D01*
X138063177Y-95569457D01*
X137935233Y-95568787D01*
X137935226Y-95568787D01*
X137930947Y-95568765D01*
X137926703Y-95569324D01*
X137926699Y-95569324D01*
X137822356Y-95583061D01*
X137653757Y-95605257D01*
X137649617Y-95606390D01*
X137649615Y-95606390D01*
X137417760Y-95669819D01*
X137384083Y-95679032D01*
X137126917Y-95788722D01*
X137062933Y-95827016D01*
X136890700Y-95930095D01*
X136890696Y-95930098D01*
X136887018Y-95932299D01*
X136668823Y-96107106D01*
X136476371Y-96309908D01*
X136313223Y-96536952D01*
X136294523Y-96572271D01*
X136216039Y-96720502D01*
X136182398Y-96784038D01*
X136180926Y-96788061D01*
X136180924Y-96788065D01*
X136132041Y-96921645D01*
X136086317Y-97046592D01*
X136026757Y-97319757D01*
X136026421Y-97324026D01*
X136009332Y-97541176D01*
X136004822Y-97598477D01*
X101600000Y-97598477D01*
X101600000Y-90427002D01*
X106525380Y-90427002D01*
X106525555Y-90431454D01*
X106535902Y-90694800D01*
X106536502Y-90710084D01*
X106548355Y-90774986D01*
X106583498Y-90967407D01*
X106587400Y-90988775D01*
X106600722Y-91028705D01*
X106673477Y-91246779D01*
X106677058Y-91257514D01*
X106679050Y-91261501D01*
X106679051Y-91261503D01*
X106799133Y-91501824D01*
X106803687Y-91510939D01*
X106964761Y-91743993D01*
X106970620Y-91750331D01*
X107136862Y-91930171D01*
X107157065Y-91952027D01*
X107160519Y-91954839D01*
X107373307Y-92128075D01*
X107373311Y-92128078D01*
X107376764Y-92130889D01*
X107380586Y-92133190D01*
X107561544Y-92242136D01*
X107619472Y-92277012D01*
X107623567Y-92278746D01*
X107623569Y-92278747D01*
X107876247Y-92385742D01*
X107876254Y-92385744D01*
X107880348Y-92387478D01*
X107980492Y-92414031D01*
X108149889Y-92458946D01*
X108149893Y-92458947D01*
X108154186Y-92460085D01*
X108158595Y-92460607D01*
X108158601Y-92460608D01*
X108313539Y-92478946D01*
X108435523Y-92493384D01*
X108718745Y-92486709D01*
X108765385Y-92478946D01*
X108993810Y-92440926D01*
X108993814Y-92440925D01*
X108998200Y-92440195D01*
X109002441Y-92438854D01*
X109002444Y-92438853D01*
X109264068Y-92356112D01*
X109264070Y-92356111D01*
X109268314Y-92354769D01*
X109272325Y-92352843D01*
X109272330Y-92352841D01*
X109519678Y-92234066D01*
X109519679Y-92234065D01*
X109523697Y-92232136D01*
X109538069Y-92222533D01*
X109755545Y-92077221D01*
X109755550Y-92077217D01*
X109759253Y-92074743D01*
X109970281Y-91885730D01*
X110152573Y-91668868D01*
X110302489Y-91428485D01*
X110417040Y-91169376D01*
X110493939Y-90896712D01*
X110501645Y-90839342D01*
X110531225Y-90619115D01*
X110531226Y-90619107D01*
X110531652Y-90615933D01*
X110533146Y-90568399D01*
X110535509Y-90493222D01*
X110535509Y-90493217D01*
X110535610Y-90490000D01*
X110531149Y-90427002D01*
X113025380Y-90427002D01*
X113025555Y-90431454D01*
X113035902Y-90694800D01*
X113036502Y-90710084D01*
X113048355Y-90774986D01*
X113083498Y-90967407D01*
X113087400Y-90988775D01*
X113100722Y-91028705D01*
X113173477Y-91246779D01*
X113177058Y-91257514D01*
X113179050Y-91261501D01*
X113179051Y-91261503D01*
X113299133Y-91501824D01*
X113303687Y-91510939D01*
X113464761Y-91743993D01*
X113470620Y-91750331D01*
X113636862Y-91930171D01*
X113657065Y-91952027D01*
X113660519Y-91954839D01*
X113873307Y-92128075D01*
X113873311Y-92128078D01*
X113876764Y-92130889D01*
X113880586Y-92133190D01*
X114061544Y-92242136D01*
X114119472Y-92277012D01*
X114123567Y-92278746D01*
X114123569Y-92278747D01*
X114376247Y-92385742D01*
X114376254Y-92385744D01*
X114380348Y-92387478D01*
X114480492Y-92414031D01*
X114649889Y-92458946D01*
X114649893Y-92458947D01*
X114654186Y-92460085D01*
X114658595Y-92460607D01*
X114658601Y-92460608D01*
X114813539Y-92478946D01*
X114935523Y-92493384D01*
X115218745Y-92486709D01*
X115265385Y-92478946D01*
X115493810Y-92440926D01*
X115493814Y-92440925D01*
X115498200Y-92440195D01*
X115502441Y-92438854D01*
X115502444Y-92438853D01*
X115764068Y-92356112D01*
X115764070Y-92356111D01*
X115768314Y-92354769D01*
X115772325Y-92352843D01*
X115772330Y-92352841D01*
X116019678Y-92234066D01*
X116019679Y-92234065D01*
X116023697Y-92232136D01*
X116038069Y-92222533D01*
X116255551Y-92077217D01*
X116255555Y-92077214D01*
X116259253Y-92074743D01*
X116372536Y-91973277D01*
X116436621Y-91942729D01*
X116507052Y-91951677D01*
X116536147Y-91969421D01*
X116647631Y-92060182D01*
X116743307Y-92138075D01*
X116743311Y-92138078D01*
X116746764Y-92140889D01*
X116750586Y-92143190D01*
X116968853Y-92274598D01*
X116989472Y-92287012D01*
X116993567Y-92288746D01*
X116993569Y-92288747D01*
X117246247Y-92395742D01*
X117246254Y-92395744D01*
X117250348Y-92397478D01*
X117350492Y-92424031D01*
X117519889Y-92468946D01*
X117519893Y-92468947D01*
X117524186Y-92470085D01*
X117528595Y-92470607D01*
X117528601Y-92470608D01*
X117664639Y-92486709D01*
X117805523Y-92503384D01*
X118088745Y-92496709D01*
X118108722Y-92493384D01*
X118363810Y-92450926D01*
X118363814Y-92450925D01*
X118368200Y-92450195D01*
X118372441Y-92448854D01*
X118372444Y-92448853D01*
X118634068Y-92366112D01*
X118634070Y-92366111D01*
X118638314Y-92364769D01*
X118642325Y-92362843D01*
X118642330Y-92362841D01*
X118889678Y-92244066D01*
X118889679Y-92244065D01*
X118893697Y-92242136D01*
X118905775Y-92234066D01*
X119125545Y-92087221D01*
X119125549Y-92087218D01*
X119129253Y-92084743D01*
X119340281Y-91895730D01*
X119522573Y-91678868D01*
X119531167Y-91665089D01*
X119560378Y-91618250D01*
X119672489Y-91438485D01*
X119787040Y-91179376D01*
X119863939Y-90906712D01*
X119879891Y-90787945D01*
X119901225Y-90629115D01*
X119901226Y-90629107D01*
X119901652Y-90625933D01*
X119902736Y-90591442D01*
X119905509Y-90503222D01*
X119905509Y-90503217D01*
X119905610Y-90500000D01*
X119901149Y-90437002D01*
X122395380Y-90437002D01*
X122395555Y-90441454D01*
X122406289Y-90714652D01*
X122406502Y-90720084D01*
X122419558Y-90791573D01*
X122456131Y-90991824D01*
X122457400Y-90998775D01*
X122475924Y-91054299D01*
X122545053Y-91261503D01*
X122547058Y-91267514D01*
X122549050Y-91271501D01*
X122549051Y-91271503D01*
X122670519Y-91514598D01*
X122673687Y-91520939D01*
X122834761Y-91753993D01*
X122837783Y-91757262D01*
X123020421Y-91954839D01*
X123027065Y-91962027D01*
X123030519Y-91964839D01*
X123243307Y-92138075D01*
X123243311Y-92138078D01*
X123246764Y-92140889D01*
X123250586Y-92143190D01*
X123468853Y-92274598D01*
X123489472Y-92287012D01*
X123493567Y-92288746D01*
X123493569Y-92288747D01*
X123746247Y-92395742D01*
X123746254Y-92395744D01*
X123750348Y-92397478D01*
X123850492Y-92424031D01*
X124019889Y-92468946D01*
X124019893Y-92468947D01*
X124024186Y-92470085D01*
X124028595Y-92470607D01*
X124028601Y-92470608D01*
X124164639Y-92486709D01*
X124305523Y-92503384D01*
X124588745Y-92496709D01*
X124608722Y-92493384D01*
X124863810Y-92450926D01*
X124863814Y-92450925D01*
X124868200Y-92450195D01*
X124872441Y-92448854D01*
X124872444Y-92448853D01*
X125134068Y-92366112D01*
X125134070Y-92366111D01*
X125138314Y-92364769D01*
X125142325Y-92362843D01*
X125142330Y-92362841D01*
X125389678Y-92244066D01*
X125389679Y-92244065D01*
X125393697Y-92242136D01*
X125405775Y-92234066D01*
X125625545Y-92087221D01*
X125625549Y-92087218D01*
X125629253Y-92084743D01*
X125632568Y-92081774D01*
X125632582Y-92081763D01*
X125767721Y-91960721D01*
X125831808Y-91930171D01*
X125902239Y-91939119D01*
X125940320Y-91966208D01*
X125940792Y-91965705D01*
X125944043Y-91968758D01*
X125947065Y-91972027D01*
X125950519Y-91974839D01*
X126163307Y-92148075D01*
X126163311Y-92148078D01*
X126166764Y-92150889D01*
X126409472Y-92297012D01*
X126413567Y-92298746D01*
X126413569Y-92298747D01*
X126666247Y-92405742D01*
X126666254Y-92405744D01*
X126670348Y-92407478D01*
X126736768Y-92425089D01*
X126939889Y-92478946D01*
X126939893Y-92478947D01*
X126944186Y-92480085D01*
X126948595Y-92480607D01*
X126948601Y-92480608D01*
X127084639Y-92496709D01*
X127225523Y-92513384D01*
X127508745Y-92506709D01*
X127528722Y-92503384D01*
X127783810Y-92460926D01*
X127783814Y-92460925D01*
X127788200Y-92460195D01*
X127792441Y-92458854D01*
X127792444Y-92458853D01*
X128054068Y-92376112D01*
X128054070Y-92376111D01*
X128058314Y-92374769D01*
X128062325Y-92372843D01*
X128062330Y-92372841D01*
X128309678Y-92254066D01*
X128309679Y-92254065D01*
X128313697Y-92252136D01*
X128325775Y-92244066D01*
X128545545Y-92097221D01*
X128545549Y-92097218D01*
X128549253Y-92094743D01*
X128760281Y-91905730D01*
X128942573Y-91688868D01*
X128951167Y-91675089D01*
X129043548Y-91526959D01*
X129092489Y-91448485D01*
X129207040Y-91189376D01*
X129283939Y-90916712D01*
X129299494Y-90800904D01*
X129321225Y-90639115D01*
X129321226Y-90639107D01*
X129321652Y-90635933D01*
X129322513Y-90608529D01*
X129325509Y-90513222D01*
X129325509Y-90513217D01*
X129325610Y-90510000D01*
X129321149Y-90447002D01*
X131815380Y-90447002D01*
X131815555Y-90451454D01*
X131823129Y-90644223D01*
X131826502Y-90730084D01*
X131827302Y-90734464D01*
X131862427Y-90926788D01*
X131877400Y-91008775D01*
X131907127Y-91097879D01*
X131965053Y-91271503D01*
X131967058Y-91277514D01*
X131969050Y-91281501D01*
X131969051Y-91281503D01*
X132090519Y-91524598D01*
X132093687Y-91530939D01*
X132254761Y-91763993D01*
X132257783Y-91767262D01*
X132440421Y-91964839D01*
X132447065Y-91972027D01*
X132450519Y-91974839D01*
X132663307Y-92148075D01*
X132663311Y-92148078D01*
X132666764Y-92150889D01*
X132909472Y-92297012D01*
X132913567Y-92298746D01*
X132913569Y-92298747D01*
X133166247Y-92405742D01*
X133166254Y-92405744D01*
X133170348Y-92407478D01*
X133236768Y-92425089D01*
X133439889Y-92478946D01*
X133439893Y-92478947D01*
X133444186Y-92480085D01*
X133448595Y-92480607D01*
X133448601Y-92480608D01*
X133584639Y-92496709D01*
X133725523Y-92513384D01*
X134008745Y-92506709D01*
X134028722Y-92503384D01*
X134283810Y-92460926D01*
X134283814Y-92460925D01*
X134288200Y-92460195D01*
X134292441Y-92458854D01*
X134292444Y-92458853D01*
X134554068Y-92376112D01*
X134554070Y-92376111D01*
X134558314Y-92374769D01*
X134562325Y-92372843D01*
X134562330Y-92372841D01*
X134809678Y-92254066D01*
X134809679Y-92254065D01*
X134813697Y-92252136D01*
X134825775Y-92244066D01*
X135045545Y-92097221D01*
X135045549Y-92097218D01*
X135049253Y-92094743D01*
X135260281Y-91905730D01*
X135442573Y-91688868D01*
X135451167Y-91675089D01*
X135543548Y-91526959D01*
X135592489Y-91448485D01*
X135707040Y-91189376D01*
X135783939Y-90916712D01*
X135799494Y-90800904D01*
X135821225Y-90639115D01*
X135821226Y-90639107D01*
X135821652Y-90635933D01*
X135822513Y-90608529D01*
X135825509Y-90513222D01*
X135825509Y-90513217D01*
X135825610Y-90510000D01*
X135805601Y-90227407D01*
X135802677Y-90213823D01*
X135746911Y-89954800D01*
X135746911Y-89954798D01*
X135745975Y-89950453D01*
X135647920Y-89684663D01*
X135513393Y-89435340D01*
X135345078Y-89207460D01*
X135332102Y-89194278D01*
X135239404Y-89100113D01*
X135146334Y-89005570D01*
X135142794Y-89002869D01*
X135142788Y-89002863D01*
X134924667Y-88836398D01*
X134924663Y-88836395D01*
X134921126Y-88833696D01*
X134847606Y-88792523D01*
X134677837Y-88697448D01*
X134677832Y-88697445D01*
X134673947Y-88695270D01*
X134669789Y-88693662D01*
X134669784Y-88693659D01*
X134413885Y-88594659D01*
X134413879Y-88594657D01*
X134409730Y-88593052D01*
X134405398Y-88592048D01*
X134405395Y-88592047D01*
X134286998Y-88564604D01*
X134133747Y-88529082D01*
X133851503Y-88504637D01*
X133847068Y-88504881D01*
X133847064Y-88504881D01*
X133573073Y-88519960D01*
X133573066Y-88519961D01*
X133568630Y-88520205D01*
X133430743Y-88547632D01*
X133295146Y-88574604D01*
X133295141Y-88574605D01*
X133290774Y-88575474D01*
X133286571Y-88576950D01*
X133027684Y-88667864D01*
X133027681Y-88667865D01*
X133023476Y-88669342D01*
X133019523Y-88671395D01*
X133019517Y-88671398D01*
X132943048Y-88711121D01*
X132772072Y-88799936D01*
X132768457Y-88802519D01*
X132768451Y-88802523D01*
X132721048Y-88836398D01*
X132541576Y-88964651D01*
X132538349Y-88967729D01*
X132538347Y-88967731D01*
X132347071Y-89150199D01*
X132336588Y-89160199D01*
X132161199Y-89382680D01*
X132130612Y-89435340D01*
X132021141Y-89623807D01*
X132021138Y-89623813D01*
X132018907Y-89627654D01*
X132017237Y-89631777D01*
X131918274Y-89876106D01*
X131912552Y-89890232D01*
X131911481Y-89894545D01*
X131911479Y-89894550D01*
X131845328Y-90160856D01*
X131844255Y-90165177D01*
X131843801Y-90169605D01*
X131843801Y-90169607D01*
X131815948Y-90441454D01*
X131815380Y-90447002D01*
X129321149Y-90447002D01*
X129305601Y-90227407D01*
X129302677Y-90213823D01*
X129246911Y-89954800D01*
X129246911Y-89954798D01*
X129245975Y-89950453D01*
X129147920Y-89684663D01*
X129013393Y-89435340D01*
X128845078Y-89207460D01*
X128832102Y-89194278D01*
X128739404Y-89100113D01*
X128646334Y-89005570D01*
X128642794Y-89002869D01*
X128642788Y-89002863D01*
X128424667Y-88836398D01*
X128424663Y-88836395D01*
X128421126Y-88833696D01*
X128347606Y-88792523D01*
X128177837Y-88697448D01*
X128177832Y-88697445D01*
X128173947Y-88695270D01*
X128169789Y-88693662D01*
X128169784Y-88693659D01*
X127913885Y-88594659D01*
X127913879Y-88594657D01*
X127909730Y-88593052D01*
X127905398Y-88592048D01*
X127905395Y-88592047D01*
X127786998Y-88564604D01*
X127633747Y-88529082D01*
X127351503Y-88504637D01*
X127347068Y-88504881D01*
X127347064Y-88504881D01*
X127073073Y-88519960D01*
X127073066Y-88519961D01*
X127068630Y-88520205D01*
X126930743Y-88547632D01*
X126795146Y-88574604D01*
X126795141Y-88574605D01*
X126790774Y-88575474D01*
X126786571Y-88576950D01*
X126527684Y-88667864D01*
X126527681Y-88667865D01*
X126523476Y-88669342D01*
X126519523Y-88671395D01*
X126519517Y-88671398D01*
X126443048Y-88711121D01*
X126272072Y-88799936D01*
X126268457Y-88802519D01*
X126268451Y-88802523D01*
X126128115Y-88902809D01*
X126041576Y-88964651D01*
X125998682Y-89005570D01*
X125953056Y-89049095D01*
X125889959Y-89081642D01*
X125819282Y-89074911D01*
X125776292Y-89046319D01*
X125726334Y-88995570D01*
X125722794Y-88992869D01*
X125722788Y-88992863D01*
X125504667Y-88826398D01*
X125504663Y-88826395D01*
X125501126Y-88823696D01*
X125427606Y-88782523D01*
X125257837Y-88687448D01*
X125257832Y-88687445D01*
X125253947Y-88685270D01*
X125249789Y-88683662D01*
X125249784Y-88683659D01*
X124993885Y-88584659D01*
X124993879Y-88584657D01*
X124989730Y-88583052D01*
X124985398Y-88582048D01*
X124985395Y-88582047D01*
X124866998Y-88554604D01*
X124713747Y-88519082D01*
X124431503Y-88494637D01*
X124427068Y-88494881D01*
X124427064Y-88494881D01*
X124153073Y-88509960D01*
X124153066Y-88509961D01*
X124148630Y-88510205D01*
X124010743Y-88537632D01*
X123875146Y-88564604D01*
X123875141Y-88564605D01*
X123870774Y-88565474D01*
X123866571Y-88566950D01*
X123607684Y-88657864D01*
X123607681Y-88657865D01*
X123603476Y-88659342D01*
X123599523Y-88661395D01*
X123599517Y-88661398D01*
X123457135Y-88735360D01*
X123352072Y-88789936D01*
X123348457Y-88792519D01*
X123348451Y-88792523D01*
X123265863Y-88851542D01*
X123121576Y-88954651D01*
X123118354Y-88957725D01*
X123118347Y-88957731D01*
X122923687Y-89143427D01*
X122916588Y-89150199D01*
X122913832Y-89153695D01*
X122753179Y-89357484D01*
X122741199Y-89372680D01*
X122710612Y-89425340D01*
X122601141Y-89613807D01*
X122601138Y-89613813D01*
X122598907Y-89617654D01*
X122597237Y-89621777D01*
X122498274Y-89866106D01*
X122492552Y-89880232D01*
X122491481Y-89884545D01*
X122491479Y-89884550D01*
X122425328Y-90150856D01*
X122424255Y-90155177D01*
X122423801Y-90159605D01*
X122423801Y-90159607D01*
X122396216Y-90428840D01*
X122395380Y-90437002D01*
X119901149Y-90437002D01*
X119885601Y-90217407D01*
X119884348Y-90211584D01*
X119826910Y-89944796D01*
X119825975Y-89940453D01*
X119727920Y-89674663D01*
X119656621Y-89542523D01*
X119595506Y-89429256D01*
X119593393Y-89425340D01*
X119425078Y-89197460D01*
X119412102Y-89184278D01*
X119242232Y-89011720D01*
X119226334Y-88995570D01*
X119222794Y-88992869D01*
X119222788Y-88992863D01*
X119004667Y-88826398D01*
X119004663Y-88826395D01*
X119001126Y-88823696D01*
X118927606Y-88782523D01*
X118757837Y-88687448D01*
X118757832Y-88687445D01*
X118753947Y-88685270D01*
X118749789Y-88683662D01*
X118749784Y-88683659D01*
X118493885Y-88584659D01*
X118493879Y-88584657D01*
X118489730Y-88583052D01*
X118485398Y-88582048D01*
X118485395Y-88582047D01*
X118366998Y-88554604D01*
X118213747Y-88519082D01*
X117931503Y-88494637D01*
X117927068Y-88494881D01*
X117927064Y-88494881D01*
X117653073Y-88509960D01*
X117653066Y-88509961D01*
X117648630Y-88510205D01*
X117510743Y-88537632D01*
X117375146Y-88564604D01*
X117375141Y-88564605D01*
X117370774Y-88565474D01*
X117366571Y-88566950D01*
X117107684Y-88657864D01*
X117107681Y-88657865D01*
X117103476Y-88659342D01*
X117099523Y-88661395D01*
X117099517Y-88661398D01*
X116957135Y-88735360D01*
X116852072Y-88789936D01*
X116848457Y-88792519D01*
X116848451Y-88792523D01*
X116765863Y-88851542D01*
X116621576Y-88954651D01*
X116558839Y-89014499D01*
X116495744Y-89047045D01*
X116425067Y-89040313D01*
X116382076Y-89011720D01*
X116379154Y-89008751D01*
X116366178Y-88995570D01*
X116359465Y-88988750D01*
X116359461Y-88988746D01*
X116356334Y-88985570D01*
X116352794Y-88982869D01*
X116352788Y-88982863D01*
X116134667Y-88816398D01*
X116134663Y-88816395D01*
X116131126Y-88813696D01*
X116067179Y-88777884D01*
X115887837Y-88677448D01*
X115887832Y-88677445D01*
X115883947Y-88675270D01*
X115879789Y-88673662D01*
X115879784Y-88673659D01*
X115623885Y-88574659D01*
X115623879Y-88574657D01*
X115619730Y-88573052D01*
X115615398Y-88572048D01*
X115615395Y-88572047D01*
X115540141Y-88554604D01*
X115343747Y-88509082D01*
X115061503Y-88484637D01*
X115057068Y-88484881D01*
X115057064Y-88484881D01*
X114783073Y-88499960D01*
X114783066Y-88499961D01*
X114778630Y-88500205D01*
X114640743Y-88527632D01*
X114505146Y-88554604D01*
X114505141Y-88554605D01*
X114500774Y-88555474D01*
X114496571Y-88556950D01*
X114237684Y-88647864D01*
X114237681Y-88647865D01*
X114233476Y-88649342D01*
X114229523Y-88651395D01*
X114229517Y-88651398D01*
X114126095Y-88705122D01*
X113982072Y-88779936D01*
X113978457Y-88782519D01*
X113978451Y-88782523D01*
X113909886Y-88831521D01*
X113751576Y-88944651D01*
X113748349Y-88947729D01*
X113748347Y-88947731D01*
X113552341Y-89134711D01*
X113546588Y-89140199D01*
X113371199Y-89362680D01*
X113328995Y-89435340D01*
X113231141Y-89603807D01*
X113231138Y-89603813D01*
X113228907Y-89607654D01*
X113227237Y-89611777D01*
X113203353Y-89670745D01*
X113122552Y-89870232D01*
X113121481Y-89874545D01*
X113121479Y-89874550D01*
X113059843Y-90122680D01*
X113054255Y-90145177D01*
X113053801Y-90149605D01*
X113053801Y-90149607D01*
X113031855Y-90363807D01*
X113025380Y-90427002D01*
X110531149Y-90427002D01*
X110515601Y-90207407D01*
X110513779Y-90198941D01*
X110456911Y-89934800D01*
X110456911Y-89934798D01*
X110455975Y-89930453D01*
X110357920Y-89664663D01*
X110223393Y-89415340D01*
X110055078Y-89187460D01*
X110031684Y-89163695D01*
X109884811Y-89014498D01*
X109856334Y-88985570D01*
X109852794Y-88982869D01*
X109852788Y-88982863D01*
X109634667Y-88816398D01*
X109634663Y-88816395D01*
X109631126Y-88813696D01*
X109567179Y-88777884D01*
X109387837Y-88677448D01*
X109387832Y-88677445D01*
X109383947Y-88675270D01*
X109379789Y-88673662D01*
X109379784Y-88673659D01*
X109123885Y-88574659D01*
X109123879Y-88574657D01*
X109119730Y-88573052D01*
X109115398Y-88572048D01*
X109115395Y-88572047D01*
X109040141Y-88554604D01*
X108843747Y-88509082D01*
X108561503Y-88484637D01*
X108557068Y-88484881D01*
X108557064Y-88484881D01*
X108283073Y-88499960D01*
X108283066Y-88499961D01*
X108278630Y-88500205D01*
X108140743Y-88527632D01*
X108005146Y-88554604D01*
X108005141Y-88554605D01*
X108000774Y-88555474D01*
X107996571Y-88556950D01*
X107737684Y-88647864D01*
X107737681Y-88647865D01*
X107733476Y-88649342D01*
X107729523Y-88651395D01*
X107729517Y-88651398D01*
X107626095Y-88705122D01*
X107482072Y-88779936D01*
X107478457Y-88782519D01*
X107478451Y-88782523D01*
X107409886Y-88831521D01*
X107251576Y-88944651D01*
X107248349Y-88947729D01*
X107248347Y-88947731D01*
X107052341Y-89134711D01*
X107046588Y-89140199D01*
X106871199Y-89362680D01*
X106828995Y-89435340D01*
X106731141Y-89603807D01*
X106731138Y-89603813D01*
X106728907Y-89607654D01*
X106727237Y-89611777D01*
X106703353Y-89670745D01*
X106622552Y-89870232D01*
X106621481Y-89874545D01*
X106621479Y-89874550D01*
X106559843Y-90122680D01*
X106554255Y-90145177D01*
X106553801Y-90149605D01*
X106553801Y-90149607D01*
X106531855Y-90363807D01*
X106525380Y-90427002D01*
X101600000Y-90427002D01*
X101600000Y-87798695D01*
X101620002Y-87730574D01*
X101673658Y-87684081D01*
X101743932Y-87673977D01*
X101800061Y-87696759D01*
X101888641Y-87761116D01*
X101944879Y-87792033D01*
X102152261Y-87906043D01*
X102164359Y-87912694D01*
X102309934Y-87970331D01*
X102453217Y-88027061D01*
X102453220Y-88027062D01*
X102456900Y-88028519D01*
X102460734Y-88029503D01*
X102460742Y-88029506D01*
X102649199Y-88077893D01*
X102761652Y-88106766D01*
X102765580Y-88107262D01*
X102765584Y-88107263D01*
X102889500Y-88122917D01*
X103073807Y-88146200D01*
X103388443Y-88146200D01*
X103572750Y-88122917D01*
X103696666Y-88107263D01*
X103696670Y-88107262D01*
X103700598Y-88106766D01*
X103813051Y-88077893D01*
X104001508Y-88029506D01*
X104001516Y-88029503D01*
X104005350Y-88028519D01*
X104009030Y-88027062D01*
X104009033Y-88027061D01*
X104152316Y-87970331D01*
X104297891Y-87912694D01*
X104309990Y-87906043D01*
X104517371Y-87792033D01*
X104573609Y-87761116D01*
X104576813Y-87758788D01*
X104576818Y-87758785D01*
X104824951Y-87578506D01*
X104824953Y-87578505D01*
X104828155Y-87576178D01*
X105057515Y-87360794D01*
X105060162Y-87357595D01*
X105255547Y-87121415D01*
X105258072Y-87118363D01*
X105426662Y-86852707D01*
X105428346Y-86849128D01*
X105428350Y-86849121D01*
X105558939Y-86571605D01*
X105558941Y-86571601D01*
X105560628Y-86568015D01*
X105657856Y-86268779D01*
X105716813Y-85959715D01*
X105718505Y-85932816D01*
X148799500Y-85932816D01*
X148799749Y-85935603D01*
X148799749Y-85935609D01*
X148802249Y-85963615D01*
X148810234Y-86053087D01*
X148866259Y-86248470D01*
X148960427Y-86428596D01*
X149088891Y-86586109D01*
X149093831Y-86590138D01*
X149117459Y-86609408D01*
X149246404Y-86714573D01*
X149426530Y-86808741D01*
X149621913Y-86864766D01*
X149653545Y-86867589D01*
X149739391Y-86875251D01*
X149739397Y-86875251D01*
X149742184Y-86875500D01*
X151457816Y-86875500D01*
X151460603Y-86875251D01*
X151460609Y-86875251D01*
X151546455Y-86867589D01*
X151578087Y-86864766D01*
X151773470Y-86808741D01*
X151953596Y-86714573D01*
X152082542Y-86609408D01*
X152106169Y-86590138D01*
X152111109Y-86586109D01*
X152239573Y-86428596D01*
X152333741Y-86248470D01*
X152389766Y-86053087D01*
X152397751Y-85963615D01*
X152400251Y-85935609D01*
X152400251Y-85935603D01*
X152400500Y-85932816D01*
X152400500Y-84217184D01*
X152389766Y-84096913D01*
X152333741Y-83901530D01*
X152239573Y-83721404D01*
X152232633Y-83712894D01*
X152115138Y-83568831D01*
X152111109Y-83563891D01*
X152067562Y-83528375D01*
X151958540Y-83439459D01*
X151958539Y-83439458D01*
X151953596Y-83435427D01*
X151773470Y-83341259D01*
X151578087Y-83285234D01*
X151546455Y-83282411D01*
X151460609Y-83274749D01*
X151460603Y-83274749D01*
X151457816Y-83274500D01*
X149742184Y-83274500D01*
X149739397Y-83274749D01*
X149739391Y-83274749D01*
X149653545Y-83282411D01*
X149621913Y-83285234D01*
X149426530Y-83341259D01*
X149246404Y-83435427D01*
X149241461Y-83439458D01*
X149241460Y-83439459D01*
X149132438Y-83528375D01*
X149088891Y-83563891D01*
X149084862Y-83568831D01*
X148967368Y-83712894D01*
X148960427Y-83721404D01*
X148866259Y-83901530D01*
X148810234Y-84096913D01*
X148799500Y-84217184D01*
X148799500Y-85932816D01*
X105718505Y-85932816D01*
X105736569Y-85645700D01*
X105716813Y-85331685D01*
X105657856Y-85022621D01*
X105560628Y-84723385D01*
X105456495Y-84502091D01*
X105428350Y-84442279D01*
X105428346Y-84442272D01*
X105426662Y-84438693D01*
X105258072Y-84173037D01*
X105057515Y-83930606D01*
X104828155Y-83715222D01*
X104743052Y-83653391D01*
X104576818Y-83532615D01*
X104576813Y-83532612D01*
X104573609Y-83530284D01*
X104323495Y-83392782D01*
X104301353Y-83380609D01*
X104301350Y-83380607D01*
X104297891Y-83378706D01*
X104138488Y-83315594D01*
X104009033Y-83264339D01*
X104009030Y-83264338D01*
X104005350Y-83262881D01*
X104001516Y-83261897D01*
X104001508Y-83261894D01*
X103813051Y-83213507D01*
X103700598Y-83184634D01*
X103696670Y-83184138D01*
X103696666Y-83184137D01*
X103572750Y-83168483D01*
X103388443Y-83145200D01*
X103073807Y-83145200D01*
X102889500Y-83168483D01*
X102765584Y-83184137D01*
X102765580Y-83184138D01*
X102761652Y-83184634D01*
X102649199Y-83213507D01*
X102460742Y-83261894D01*
X102460734Y-83261897D01*
X102456900Y-83262881D01*
X102453220Y-83264338D01*
X102453217Y-83264339D01*
X102323762Y-83315594D01*
X102164359Y-83378706D01*
X102160900Y-83380607D01*
X102160897Y-83380609D01*
X102138755Y-83392782D01*
X101888641Y-83530284D01*
X101831920Y-83571494D01*
X101800061Y-83594641D01*
X101733193Y-83618500D01*
X101664042Y-83602419D01*
X101614561Y-83551505D01*
X101600000Y-83492705D01*
X101600000Y-80785361D01*
X138625316Y-80785361D01*
X138637443Y-81037820D01*
X138638356Y-81042409D01*
X138667081Y-81186818D01*
X138686752Y-81285713D01*
X138688331Y-81290111D01*
X138688333Y-81290118D01*
X138739786Y-81433425D01*
X138772160Y-81523595D01*
X138891792Y-81746240D01*
X138894587Y-81749984D01*
X138894589Y-81749986D01*
X139040226Y-81945018D01*
X139040231Y-81945024D01*
X139043018Y-81948756D01*
X139046327Y-81952036D01*
X139046332Y-81952042D01*
X139212855Y-82117118D01*
X139222517Y-82126696D01*
X139226279Y-82129454D01*
X139226282Y-82129457D01*
X139379965Y-82242141D01*
X139426346Y-82276149D01*
X139430481Y-82278325D01*
X139430485Y-82278327D01*
X139543939Y-82338018D01*
X139650026Y-82393833D01*
X139888644Y-82477162D01*
X139893237Y-82478034D01*
X140132369Y-82523435D01*
X140132372Y-82523435D01*
X140136958Y-82524306D01*
X140257081Y-82529026D01*
X140384845Y-82534046D01*
X140384850Y-82534046D01*
X140389513Y-82534229D01*
X140467657Y-82525671D01*
X140636107Y-82507223D01*
X140636112Y-82507222D01*
X140640760Y-82506713D01*
X140758861Y-82475620D01*
X140880658Y-82443554D01*
X140880661Y-82443553D01*
X140885181Y-82442363D01*
X141117405Y-82342591D01*
X141225070Y-82275966D01*
X141328358Y-82212050D01*
X141328362Y-82212047D01*
X141332331Y-82209591D01*
X141428577Y-82128113D01*
X141521672Y-82049302D01*
X141521673Y-82049301D01*
X141525238Y-82046283D01*
X141581149Y-81982529D01*
X141688806Y-81859771D01*
X141688810Y-81859766D01*
X141691888Y-81856256D01*
X141698376Y-81846169D01*
X141826094Y-81647610D01*
X141826096Y-81647607D01*
X141828619Y-81643684D01*
X141932428Y-81413236D01*
X142001034Y-81169976D01*
X142017263Y-81042409D01*
X142032533Y-80922378D01*
X142032533Y-80922372D01*
X142032931Y-80919247D01*
X142033055Y-80914532D01*
X142035185Y-80833160D01*
X142035268Y-80830000D01*
X142031951Y-80785361D01*
X146245316Y-80785361D01*
X146257443Y-81037820D01*
X146258356Y-81042409D01*
X146287081Y-81186818D01*
X146306752Y-81285713D01*
X146308331Y-81290111D01*
X146308333Y-81290118D01*
X146359786Y-81433425D01*
X146392160Y-81523595D01*
X146511792Y-81746240D01*
X146514587Y-81749984D01*
X146514589Y-81749986D01*
X146660226Y-81945018D01*
X146660231Y-81945024D01*
X146663018Y-81948756D01*
X146666327Y-81952036D01*
X146666332Y-81952042D01*
X146832855Y-82117118D01*
X146842517Y-82126696D01*
X146846279Y-82129454D01*
X146846282Y-82129457D01*
X146999965Y-82242141D01*
X147046346Y-82276149D01*
X147050481Y-82278325D01*
X147050485Y-82278327D01*
X147163939Y-82338018D01*
X147270026Y-82393833D01*
X147508644Y-82477162D01*
X147513237Y-82478034D01*
X147752369Y-82523435D01*
X147752372Y-82523435D01*
X147756958Y-82524306D01*
X147877081Y-82529026D01*
X148004845Y-82534046D01*
X148004850Y-82534046D01*
X148009513Y-82534229D01*
X148087657Y-82525671D01*
X148256107Y-82507223D01*
X148256112Y-82507222D01*
X148260760Y-82506713D01*
X148378861Y-82475620D01*
X148500658Y-82443554D01*
X148500661Y-82443553D01*
X148505181Y-82442363D01*
X148737405Y-82342591D01*
X148845070Y-82275966D01*
X148948358Y-82212050D01*
X148948362Y-82212047D01*
X148952331Y-82209591D01*
X149048577Y-82128113D01*
X149141672Y-82049302D01*
X149141673Y-82049301D01*
X149145238Y-82046283D01*
X149201149Y-81982529D01*
X149308806Y-81859771D01*
X149308810Y-81859766D01*
X149311888Y-81856256D01*
X149318376Y-81846169D01*
X149446094Y-81647610D01*
X149446096Y-81647607D01*
X149448619Y-81643684D01*
X149552428Y-81413236D01*
X149621034Y-81169976D01*
X149637263Y-81042409D01*
X149652533Y-80922378D01*
X149652533Y-80922372D01*
X149652931Y-80919247D01*
X149653055Y-80914532D01*
X149655185Y-80833160D01*
X149655268Y-80830000D01*
X149651605Y-80780707D01*
X149636883Y-80582597D01*
X149636882Y-80582593D01*
X149636537Y-80577945D01*
X149580756Y-80331428D01*
X149489150Y-80095863D01*
X149363731Y-79876426D01*
X149207255Y-79677938D01*
X149023160Y-79504758D01*
X148815489Y-79360691D01*
X148806279Y-79356149D01*
X148592993Y-79250968D01*
X148592990Y-79250967D01*
X148588805Y-79248903D01*
X148565788Y-79241535D01*
X148492403Y-79218045D01*
X148348087Y-79171849D01*
X148343480Y-79171099D01*
X148343477Y-79171098D01*
X148103235Y-79131972D01*
X148103236Y-79131972D01*
X148098624Y-79131221D01*
X147976026Y-79129616D01*
X147850573Y-79127974D01*
X147850570Y-79127974D01*
X147845896Y-79127913D01*
X147595455Y-79161996D01*
X147590965Y-79163305D01*
X147590959Y-79163306D01*
X147487851Y-79193360D01*
X147352803Y-79232723D01*
X147348556Y-79234681D01*
X147348553Y-79234682D01*
X147303281Y-79255553D01*
X147123270Y-79338539D01*
X147119361Y-79341102D01*
X146915812Y-79474554D01*
X146915807Y-79474558D01*
X146911899Y-79477120D01*
X146880933Y-79504758D01*
X146733873Y-79636014D01*
X146723333Y-79645421D01*
X146561715Y-79839746D01*
X146430595Y-80055825D01*
X146428786Y-80060139D01*
X146428785Y-80060141D01*
X146383211Y-80168824D01*
X146332854Y-80288911D01*
X146270639Y-80533883D01*
X146245316Y-80785361D01*
X142031951Y-80785361D01*
X142031605Y-80780707D01*
X142016883Y-80582597D01*
X142016882Y-80582593D01*
X142016537Y-80577945D01*
X141960756Y-80331428D01*
X141869150Y-80095863D01*
X141743731Y-79876426D01*
X141587255Y-79677938D01*
X141403160Y-79504758D01*
X141195489Y-79360691D01*
X141186279Y-79356149D01*
X140972993Y-79250968D01*
X140972990Y-79250967D01*
X140968805Y-79248903D01*
X140945788Y-79241535D01*
X140872403Y-79218045D01*
X140728087Y-79171849D01*
X140723480Y-79171099D01*
X140723477Y-79171098D01*
X140483235Y-79131972D01*
X140483236Y-79131972D01*
X140478624Y-79131221D01*
X140356026Y-79129616D01*
X140230573Y-79127974D01*
X140230570Y-79127974D01*
X140225896Y-79127913D01*
X139975455Y-79161996D01*
X139970965Y-79163305D01*
X139970959Y-79163306D01*
X139867851Y-79193360D01*
X139732803Y-79232723D01*
X139728556Y-79234681D01*
X139728553Y-79234682D01*
X139683281Y-79255553D01*
X139503270Y-79338539D01*
X139499361Y-79341102D01*
X139295812Y-79474554D01*
X139295807Y-79474558D01*
X139291899Y-79477120D01*
X139260933Y-79504758D01*
X139113873Y-79636014D01*
X139103333Y-79645421D01*
X138941715Y-79839746D01*
X138810595Y-80055825D01*
X138808786Y-80060139D01*
X138808785Y-80060141D01*
X138763211Y-80168824D01*
X138712854Y-80288911D01*
X138650639Y-80533883D01*
X138625316Y-80785361D01*
X101600000Y-80785361D01*
X101600000Y-77676044D01*
X108739500Y-77676044D01*
X108739673Y-77678369D01*
X108739673Y-77678375D01*
X108753126Y-77859395D01*
X108753874Y-77869466D01*
X108811295Y-78123232D01*
X108812987Y-78127584D01*
X108812988Y-78127586D01*
X108898323Y-78347022D01*
X108905595Y-78365723D01*
X108907912Y-78369777D01*
X108907913Y-78369779D01*
X108915759Y-78383507D01*
X109034701Y-78591612D01*
X109195777Y-78795936D01*
X109385286Y-78974208D01*
X109599063Y-79122511D01*
X109603253Y-79124577D01*
X109603256Y-79124579D01*
X109828225Y-79235521D01*
X109828228Y-79235522D01*
X109832413Y-79237586D01*
X109836856Y-79239008D01*
X109836858Y-79239009D01*
X109867767Y-79248903D01*
X110080208Y-79316906D01*
X110201024Y-79336582D01*
X110332394Y-79357977D01*
X110332395Y-79357977D01*
X110337006Y-79358728D01*
X110467086Y-79360431D01*
X110592488Y-79362073D01*
X110592491Y-79362073D01*
X110597165Y-79362134D01*
X110854970Y-79327048D01*
X111104757Y-79254242D01*
X111132321Y-79241535D01*
X111255585Y-79184709D01*
X111341039Y-79145314D01*
X111344944Y-79142754D01*
X111344949Y-79142751D01*
X111554712Y-79005225D01*
X111554717Y-79005221D01*
X111558625Y-79002659D01*
X111676155Y-78897760D01*
X111740295Y-78867322D01*
X111810709Y-78876393D01*
X111846387Y-78899987D01*
X111925286Y-78974208D01*
X112139063Y-79122511D01*
X112143253Y-79124577D01*
X112143256Y-79124579D01*
X112368225Y-79235521D01*
X112368228Y-79235522D01*
X112372413Y-79237586D01*
X112376856Y-79239008D01*
X112376858Y-79239009D01*
X112407767Y-79248903D01*
X112620208Y-79316906D01*
X112741024Y-79336582D01*
X112872394Y-79357977D01*
X112872395Y-79357977D01*
X112877006Y-79358728D01*
X113007086Y-79360431D01*
X113132488Y-79362073D01*
X113132491Y-79362073D01*
X113137165Y-79362134D01*
X113394970Y-79327048D01*
X113644757Y-79254242D01*
X113672321Y-79241535D01*
X113795585Y-79184709D01*
X113881039Y-79145314D01*
X113884944Y-79142754D01*
X113884949Y-79142751D01*
X114094712Y-79005225D01*
X114094717Y-79005221D01*
X114098625Y-79002659D01*
X114216155Y-78897760D01*
X114280295Y-78867322D01*
X114350709Y-78876393D01*
X114386387Y-78899987D01*
X114465286Y-78974208D01*
X114679063Y-79122511D01*
X114683253Y-79124577D01*
X114683256Y-79124579D01*
X114908225Y-79235521D01*
X114908228Y-79235522D01*
X114912413Y-79237586D01*
X114916856Y-79239008D01*
X114916858Y-79239009D01*
X114947767Y-79248903D01*
X115160208Y-79316906D01*
X115281024Y-79336582D01*
X115412394Y-79357977D01*
X115412395Y-79357977D01*
X115417006Y-79358728D01*
X115547086Y-79360431D01*
X115672488Y-79362073D01*
X115672491Y-79362073D01*
X115677165Y-79362134D01*
X115934970Y-79327048D01*
X116184757Y-79254242D01*
X116212321Y-79241535D01*
X116335585Y-79184709D01*
X116421039Y-79145314D01*
X116424944Y-79142754D01*
X116424949Y-79142751D01*
X116634712Y-79005225D01*
X116634717Y-79005221D01*
X116638625Y-79002659D01*
X116756154Y-78897760D01*
X116829243Y-78832526D01*
X116829245Y-78832524D01*
X116832735Y-78829409D01*
X116999105Y-78629371D01*
X117134080Y-78406939D01*
X117145749Y-78379112D01*
X117232886Y-78171314D01*
X117232888Y-78171309D01*
X117234695Y-78166999D01*
X117247078Y-78118243D01*
X117297586Y-77919362D01*
X117298739Y-77914823D01*
X117320500Y-77698714D01*
X117320500Y-76543956D01*
X117319050Y-76524440D01*
X117306472Y-76355186D01*
X117306471Y-76355182D01*
X117306126Y-76350534D01*
X117248705Y-76096768D01*
X117247012Y-76092414D01*
X117156098Y-75858630D01*
X117156097Y-75858628D01*
X117154405Y-75854277D01*
X117025299Y-75628388D01*
X116864223Y-75424064D01*
X116674714Y-75245792D01*
X116514631Y-75134738D01*
X116464779Y-75100154D01*
X116464776Y-75100152D01*
X116460937Y-75097489D01*
X116456747Y-75095423D01*
X116456744Y-75095421D01*
X116231775Y-74984479D01*
X116231772Y-74984478D01*
X116227587Y-74982414D01*
X116216001Y-74978705D01*
X116086089Y-74937120D01*
X115979792Y-74903094D01*
X115740236Y-74864080D01*
X115727606Y-74862023D01*
X115727605Y-74862023D01*
X115722994Y-74861272D01*
X115592914Y-74859569D01*
X115467512Y-74857927D01*
X115467509Y-74857927D01*
X115462835Y-74857866D01*
X115205030Y-74892952D01*
X114955243Y-74965758D01*
X114950990Y-74967718D01*
X114950989Y-74967719D01*
X114914634Y-74984479D01*
X114718961Y-75074686D01*
X114715056Y-75077246D01*
X114715051Y-75077249D01*
X114505288Y-75214775D01*
X114505283Y-75214779D01*
X114501375Y-75217341D01*
X114413076Y-75296151D01*
X114383846Y-75322240D01*
X114319705Y-75352678D01*
X114249291Y-75343607D01*
X114213612Y-75320012D01*
X114138122Y-75248998D01*
X114134714Y-75245792D01*
X113974631Y-75134738D01*
X113924779Y-75100154D01*
X113924776Y-75100152D01*
X113920937Y-75097489D01*
X113916747Y-75095423D01*
X113916744Y-75095421D01*
X113691775Y-74984479D01*
X113691772Y-74984478D01*
X113687587Y-74982414D01*
X113676001Y-74978705D01*
X113546089Y-74937120D01*
X113439792Y-74903094D01*
X113200236Y-74864080D01*
X113187606Y-74862023D01*
X113187605Y-74862023D01*
X113182994Y-74861272D01*
X113052914Y-74859569D01*
X112927512Y-74857927D01*
X112927509Y-74857927D01*
X112922835Y-74857866D01*
X112665030Y-74892952D01*
X112415243Y-74965758D01*
X112410990Y-74967718D01*
X112410989Y-74967719D01*
X112374634Y-74984479D01*
X112178961Y-75074686D01*
X112175056Y-75077246D01*
X112175051Y-75077249D01*
X111965288Y-75214775D01*
X111965283Y-75214779D01*
X111961375Y-75217341D01*
X111873076Y-75296151D01*
X111843846Y-75322240D01*
X111779705Y-75352678D01*
X111709291Y-75343607D01*
X111673612Y-75320012D01*
X111598122Y-75248998D01*
X111594714Y-75245792D01*
X111434631Y-75134738D01*
X111384779Y-75100154D01*
X111384776Y-75100152D01*
X111380937Y-75097489D01*
X111376747Y-75095423D01*
X111376744Y-75095421D01*
X111151775Y-74984479D01*
X111151772Y-74984478D01*
X111147587Y-74982414D01*
X111136001Y-74978705D01*
X111006089Y-74937120D01*
X110899792Y-74903094D01*
X110660236Y-74864080D01*
X110647606Y-74862023D01*
X110647605Y-74862023D01*
X110642994Y-74861272D01*
X110512914Y-74859569D01*
X110387512Y-74857927D01*
X110387509Y-74857927D01*
X110382835Y-74857866D01*
X110125030Y-74892952D01*
X109875243Y-74965758D01*
X109870990Y-74967718D01*
X109870989Y-74967719D01*
X109834634Y-74984479D01*
X109638961Y-75074686D01*
X109635056Y-75077246D01*
X109635051Y-75077249D01*
X109425288Y-75214775D01*
X109425283Y-75214779D01*
X109421375Y-75217341D01*
X109227265Y-75390591D01*
X109060895Y-75590629D01*
X108925920Y-75813061D01*
X108924111Y-75817375D01*
X108924110Y-75817377D01*
X108829668Y-76042597D01*
X108825305Y-76053001D01*
X108761261Y-76305177D01*
X108739500Y-76521286D01*
X108739500Y-77676044D01*
X101600000Y-77676044D01*
X101600000Y-62436044D01*
X108739500Y-62436044D01*
X108739673Y-62438369D01*
X108739673Y-62438375D01*
X108741185Y-62458714D01*
X108753874Y-62629466D01*
X108811295Y-62883232D01*
X108812987Y-62887584D01*
X108812988Y-62887586D01*
X108845039Y-62970003D01*
X108905595Y-63125723D01*
X109034701Y-63351612D01*
X109195777Y-63555936D01*
X109385286Y-63734208D01*
X109599063Y-63882511D01*
X109603253Y-63884577D01*
X109603256Y-63884579D01*
X109828225Y-63995521D01*
X109828228Y-63995522D01*
X109832413Y-63997586D01*
X109836856Y-63999008D01*
X109836858Y-63999009D01*
X109956310Y-64037246D01*
X110080208Y-64076906D01*
X110220431Y-64099743D01*
X110332394Y-64117977D01*
X110332395Y-64117977D01*
X110337006Y-64118728D01*
X110467085Y-64120431D01*
X110592488Y-64122073D01*
X110592491Y-64122073D01*
X110597165Y-64122134D01*
X110854970Y-64087048D01*
X111104757Y-64014242D01*
X111140887Y-63997586D01*
X111190747Y-63974600D01*
X111341039Y-63905314D01*
X111344944Y-63902754D01*
X111344949Y-63902751D01*
X111554712Y-63765225D01*
X111554717Y-63765221D01*
X111558625Y-63762659D01*
X111752735Y-63589409D01*
X111919105Y-63389371D01*
X112054080Y-63166939D01*
X112055890Y-63162623D01*
X112152886Y-62931314D01*
X112152888Y-62931309D01*
X112154695Y-62926999D01*
X112173284Y-62853806D01*
X112217586Y-62679362D01*
X112218739Y-62674823D01*
X112240500Y-62458714D01*
X112240500Y-62436044D01*
X113819500Y-62436044D01*
X113819673Y-62438369D01*
X113819673Y-62438375D01*
X113821185Y-62458714D01*
X113833874Y-62629466D01*
X113891295Y-62883232D01*
X113892987Y-62887584D01*
X113892988Y-62887586D01*
X113925039Y-62970003D01*
X113985595Y-63125723D01*
X114114701Y-63351612D01*
X114275777Y-63555936D01*
X114465286Y-63734208D01*
X114679063Y-63882511D01*
X114683253Y-63884577D01*
X114683256Y-63884579D01*
X114908225Y-63995521D01*
X114908228Y-63995522D01*
X114912413Y-63997586D01*
X114916856Y-63999008D01*
X114916858Y-63999009D01*
X115036310Y-64037246D01*
X115160208Y-64076906D01*
X115300431Y-64099743D01*
X115412394Y-64117977D01*
X115412395Y-64117977D01*
X115417006Y-64118728D01*
X115547085Y-64120431D01*
X115672488Y-64122073D01*
X115672491Y-64122073D01*
X115677165Y-64122134D01*
X115934970Y-64087048D01*
X116184757Y-64014242D01*
X116220887Y-63997586D01*
X116270747Y-63974600D01*
X116421039Y-63905314D01*
X116424944Y-63902754D01*
X116424949Y-63902751D01*
X116634712Y-63765225D01*
X116634717Y-63765221D01*
X116638625Y-63762659D01*
X116756155Y-63657760D01*
X116820295Y-63627322D01*
X116890709Y-63636393D01*
X116926387Y-63659987D01*
X117005286Y-63734208D01*
X117219063Y-63882511D01*
X117223253Y-63884577D01*
X117223256Y-63884579D01*
X117448225Y-63995521D01*
X117448228Y-63995522D01*
X117452413Y-63997586D01*
X117456856Y-63999008D01*
X117456858Y-63999009D01*
X117576310Y-64037246D01*
X117700208Y-64076906D01*
X117840431Y-64099743D01*
X117952394Y-64117977D01*
X117952395Y-64117977D01*
X117957006Y-64118728D01*
X118087085Y-64120431D01*
X118212488Y-64122073D01*
X118212491Y-64122073D01*
X118217165Y-64122134D01*
X118474970Y-64087048D01*
X118724757Y-64014242D01*
X118760887Y-63997586D01*
X118810747Y-63974600D01*
X118961039Y-63905314D01*
X118964944Y-63902754D01*
X118964949Y-63902751D01*
X119174712Y-63765225D01*
X119174717Y-63765221D01*
X119178625Y-63762659D01*
X119296155Y-63657760D01*
X119360295Y-63627322D01*
X119430709Y-63636393D01*
X119466387Y-63659987D01*
X119545286Y-63734208D01*
X119759063Y-63882511D01*
X119763253Y-63884577D01*
X119763256Y-63884579D01*
X119988225Y-63995521D01*
X119988228Y-63995522D01*
X119992413Y-63997586D01*
X119996856Y-63999008D01*
X119996858Y-63999009D01*
X120116310Y-64037246D01*
X120240208Y-64076906D01*
X120380431Y-64099743D01*
X120492394Y-64117977D01*
X120492395Y-64117977D01*
X120497006Y-64118728D01*
X120627085Y-64120431D01*
X120752488Y-64122073D01*
X120752491Y-64122073D01*
X120757165Y-64122134D01*
X121014970Y-64087048D01*
X121264757Y-64014242D01*
X121300887Y-63997586D01*
X121350747Y-63974600D01*
X121501039Y-63905314D01*
X121504944Y-63902754D01*
X121504949Y-63902751D01*
X121714712Y-63765225D01*
X121714717Y-63765221D01*
X121718625Y-63762659D01*
X121836155Y-63657760D01*
X121900295Y-63627322D01*
X121970709Y-63636393D01*
X122006387Y-63659987D01*
X122085286Y-63734208D01*
X122299063Y-63882511D01*
X122303253Y-63884577D01*
X122303256Y-63884579D01*
X122528225Y-63995521D01*
X122528228Y-63995522D01*
X122532413Y-63997586D01*
X122536856Y-63999008D01*
X122536858Y-63999009D01*
X122656310Y-64037246D01*
X122780208Y-64076906D01*
X122920431Y-64099743D01*
X123032394Y-64117977D01*
X123032395Y-64117977D01*
X123037006Y-64118728D01*
X123167085Y-64120431D01*
X123292488Y-64122073D01*
X123292491Y-64122073D01*
X123297165Y-64122134D01*
X123554970Y-64087048D01*
X123804757Y-64014242D01*
X123840887Y-63997586D01*
X123890747Y-63974600D01*
X124041039Y-63905314D01*
X124044944Y-63902754D01*
X124044949Y-63902751D01*
X124254712Y-63765225D01*
X124254717Y-63765221D01*
X124258625Y-63762659D01*
X124376155Y-63657760D01*
X124440295Y-63627322D01*
X124510709Y-63636393D01*
X124546387Y-63659987D01*
X124625286Y-63734208D01*
X124839063Y-63882511D01*
X124843253Y-63884577D01*
X124843256Y-63884579D01*
X125068225Y-63995521D01*
X125068228Y-63995522D01*
X125072413Y-63997586D01*
X125076856Y-63999008D01*
X125076858Y-63999009D01*
X125196310Y-64037246D01*
X125320208Y-64076906D01*
X125460431Y-64099743D01*
X125572394Y-64117977D01*
X125572395Y-64117977D01*
X125577006Y-64118728D01*
X125707085Y-64120431D01*
X125832488Y-64122073D01*
X125832491Y-64122073D01*
X125837165Y-64122134D01*
X126094970Y-64087048D01*
X126344757Y-64014242D01*
X126380887Y-63997586D01*
X126430747Y-63974600D01*
X126581039Y-63905314D01*
X126584944Y-63902754D01*
X126584949Y-63902751D01*
X126794712Y-63765225D01*
X126794717Y-63765221D01*
X126798625Y-63762659D01*
X126916155Y-63657760D01*
X126980295Y-63627322D01*
X127050709Y-63636393D01*
X127086387Y-63659987D01*
X127165286Y-63734208D01*
X127379063Y-63882511D01*
X127383253Y-63884577D01*
X127383256Y-63884579D01*
X127608225Y-63995521D01*
X127608228Y-63995522D01*
X127612413Y-63997586D01*
X127616856Y-63999008D01*
X127616858Y-63999009D01*
X127736310Y-64037246D01*
X127860208Y-64076906D01*
X128000431Y-64099743D01*
X128112394Y-64117977D01*
X128112395Y-64117977D01*
X128117006Y-64118728D01*
X128247085Y-64120431D01*
X128372488Y-64122073D01*
X128372491Y-64122073D01*
X128377165Y-64122134D01*
X128634970Y-64087048D01*
X128884757Y-64014242D01*
X128920887Y-63997586D01*
X128970747Y-63974600D01*
X129121039Y-63905314D01*
X129124944Y-63902754D01*
X129124949Y-63902751D01*
X129334712Y-63765225D01*
X129334717Y-63765221D01*
X129338625Y-63762659D01*
X129456155Y-63657760D01*
X129520295Y-63627322D01*
X129590709Y-63636393D01*
X129626387Y-63659987D01*
X129705286Y-63734208D01*
X129919063Y-63882511D01*
X129923253Y-63884577D01*
X129923256Y-63884579D01*
X130148225Y-63995521D01*
X130148228Y-63995522D01*
X130152413Y-63997586D01*
X130156856Y-63999008D01*
X130156858Y-63999009D01*
X130276310Y-64037246D01*
X130400208Y-64076906D01*
X130540431Y-64099743D01*
X130652394Y-64117977D01*
X130652395Y-64117977D01*
X130657006Y-64118728D01*
X130787085Y-64120431D01*
X130912488Y-64122073D01*
X130912491Y-64122073D01*
X130917165Y-64122134D01*
X131174970Y-64087048D01*
X131424757Y-64014242D01*
X131460887Y-63997586D01*
X131510747Y-63974600D01*
X131661039Y-63905314D01*
X131664944Y-63902754D01*
X131664949Y-63902751D01*
X131874712Y-63765225D01*
X131874717Y-63765221D01*
X131878625Y-63762659D01*
X131996155Y-63657760D01*
X132060295Y-63627322D01*
X132130709Y-63636393D01*
X132166387Y-63659987D01*
X132245286Y-63734208D01*
X132459063Y-63882511D01*
X132463253Y-63884577D01*
X132463256Y-63884579D01*
X132688225Y-63995521D01*
X132688228Y-63995522D01*
X132692413Y-63997586D01*
X132696856Y-63999008D01*
X132696858Y-63999009D01*
X132816310Y-64037246D01*
X132940208Y-64076906D01*
X133080431Y-64099743D01*
X133192394Y-64117977D01*
X133192395Y-64117977D01*
X133197006Y-64118728D01*
X133327085Y-64120431D01*
X133452488Y-64122073D01*
X133452491Y-64122073D01*
X133457165Y-64122134D01*
X133714970Y-64087048D01*
X133964757Y-64014242D01*
X134000887Y-63997586D01*
X134050747Y-63974600D01*
X134201039Y-63905314D01*
X134204944Y-63902754D01*
X134204949Y-63902751D01*
X134414712Y-63765225D01*
X134414717Y-63765221D01*
X134418625Y-63762659D01*
X134536155Y-63657760D01*
X134600295Y-63627322D01*
X134670709Y-63636393D01*
X134706387Y-63659987D01*
X134785286Y-63734208D01*
X134999063Y-63882511D01*
X135003253Y-63884577D01*
X135003256Y-63884579D01*
X135228225Y-63995521D01*
X135228228Y-63995522D01*
X135232413Y-63997586D01*
X135236856Y-63999008D01*
X135236858Y-63999009D01*
X135356310Y-64037246D01*
X135480208Y-64076906D01*
X135620431Y-64099743D01*
X135732394Y-64117977D01*
X135732395Y-64117977D01*
X135737006Y-64118728D01*
X135867085Y-64120431D01*
X135992488Y-64122073D01*
X135992491Y-64122073D01*
X135997165Y-64122134D01*
X136254970Y-64087048D01*
X136504757Y-64014242D01*
X136540887Y-63997586D01*
X136590747Y-63974600D01*
X136741039Y-63905314D01*
X136744944Y-63902754D01*
X136744949Y-63902751D01*
X136954712Y-63765225D01*
X136954717Y-63765221D01*
X136958625Y-63762659D01*
X137076155Y-63657760D01*
X137140295Y-63627322D01*
X137210709Y-63636393D01*
X137246387Y-63659987D01*
X137325286Y-63734208D01*
X137329131Y-63736875D01*
X137329133Y-63736877D01*
X137410149Y-63793080D01*
X137454719Y-63848343D01*
X137462336Y-63918930D01*
X137430581Y-63982429D01*
X137383998Y-64014039D01*
X137229944Y-64073947D01*
X137178630Y-64093902D01*
X137178628Y-64093903D01*
X137174277Y-64095595D01*
X137170223Y-64097912D01*
X137170221Y-64097913D01*
X137133696Y-64118789D01*
X136948388Y-64224701D01*
X136744064Y-64385777D01*
X136565792Y-64575286D01*
X136417489Y-64789063D01*
X136415423Y-64793253D01*
X136415421Y-64793256D01*
X136395720Y-64833207D01*
X136302414Y-65022413D01*
X136223094Y-65270208D01*
X136181272Y-65527006D01*
X136177866Y-65787165D01*
X136212952Y-66044970D01*
X136285758Y-66294757D01*
X136394686Y-66531039D01*
X136397246Y-66534944D01*
X136397249Y-66534949D01*
X136534775Y-66744712D01*
X136534779Y-66744717D01*
X136537341Y-66748625D01*
X136639971Y-66863612D01*
X136642240Y-66866154D01*
X136672678Y-66930295D01*
X136663607Y-67000709D01*
X136640013Y-67036387D01*
X136565792Y-67115286D01*
X136417489Y-67329063D01*
X136415423Y-67333253D01*
X136415421Y-67333256D01*
X136395720Y-67373207D01*
X136302414Y-67562413D01*
X136223094Y-67810208D01*
X136181272Y-68067006D01*
X136177866Y-68327165D01*
X136212952Y-68584970D01*
X136285758Y-68834757D01*
X136394686Y-69071039D01*
X136397246Y-69074944D01*
X136397249Y-69074949D01*
X136534775Y-69284712D01*
X136534779Y-69284717D01*
X136537341Y-69288625D01*
X136639971Y-69403612D01*
X136642240Y-69406154D01*
X136672678Y-69470295D01*
X136663607Y-69540709D01*
X136640013Y-69576387D01*
X136565792Y-69655286D01*
X136417489Y-69869063D01*
X136415423Y-69873253D01*
X136415421Y-69873256D01*
X136395720Y-69913207D01*
X136302414Y-70102413D01*
X136223094Y-70350208D01*
X136181272Y-70607006D01*
X136177866Y-70867165D01*
X136212952Y-71124970D01*
X136285758Y-71374757D01*
X136394686Y-71611039D01*
X136397246Y-71614944D01*
X136397249Y-71614949D01*
X136534775Y-71824712D01*
X136534779Y-71824717D01*
X136537341Y-71828625D01*
X136639971Y-71943612D01*
X136642240Y-71946154D01*
X136672678Y-72010295D01*
X136663607Y-72080709D01*
X136640013Y-72116387D01*
X136565792Y-72195286D01*
X136417489Y-72409063D01*
X136415423Y-72413253D01*
X136415421Y-72413256D01*
X136346276Y-72553470D01*
X136302414Y-72642413D01*
X136223094Y-72890208D01*
X136181272Y-73147006D01*
X136177866Y-73407165D01*
X136212952Y-73664970D01*
X136285758Y-73914757D01*
X136394686Y-74151039D01*
X136397246Y-74154944D01*
X136397249Y-74154949D01*
X136534775Y-74364712D01*
X136534779Y-74364717D01*
X136537341Y-74368625D01*
X136609673Y-74449666D01*
X136665937Y-74512704D01*
X136710591Y-74562735D01*
X136910629Y-74729105D01*
X137133061Y-74864080D01*
X137137375Y-74865889D01*
X137137377Y-74865890D01*
X137368681Y-74962884D01*
X137368687Y-74962886D01*
X137373001Y-74964695D01*
X137375021Y-74965208D01*
X137432715Y-75005400D01*
X137459781Y-75071035D01*
X137447066Y-75140883D01*
X137403566Y-75189679D01*
X137365294Y-75214771D01*
X137365289Y-75214775D01*
X137361375Y-75217341D01*
X137273076Y-75296151D01*
X137243846Y-75322240D01*
X137179705Y-75352678D01*
X137109291Y-75343607D01*
X137073612Y-75320012D01*
X136998122Y-75248998D01*
X136994714Y-75245792D01*
X136834631Y-75134738D01*
X136784779Y-75100154D01*
X136784776Y-75100152D01*
X136780937Y-75097489D01*
X136776747Y-75095423D01*
X136776744Y-75095421D01*
X136551775Y-74984479D01*
X136551772Y-74984478D01*
X136547587Y-74982414D01*
X136536001Y-74978705D01*
X136406089Y-74937120D01*
X136299792Y-74903094D01*
X136060236Y-74864080D01*
X136047606Y-74862023D01*
X136047605Y-74862023D01*
X136042994Y-74861272D01*
X135912914Y-74859569D01*
X135787512Y-74857927D01*
X135787509Y-74857927D01*
X135782835Y-74857866D01*
X135525030Y-74892952D01*
X135275243Y-74965758D01*
X135270990Y-74967718D01*
X135270989Y-74967719D01*
X135234634Y-74984479D01*
X135038961Y-75074686D01*
X135035056Y-75077246D01*
X135035051Y-75077249D01*
X134825288Y-75214775D01*
X134825283Y-75214779D01*
X134821375Y-75217341D01*
X134733076Y-75296151D01*
X134703846Y-75322240D01*
X134639705Y-75352678D01*
X134569291Y-75343607D01*
X134533612Y-75320012D01*
X134458122Y-75248998D01*
X134454714Y-75245792D01*
X134294631Y-75134738D01*
X134244779Y-75100154D01*
X134244776Y-75100152D01*
X134240937Y-75097489D01*
X134236747Y-75095423D01*
X134236744Y-75095421D01*
X134011775Y-74984479D01*
X134011772Y-74984478D01*
X134007587Y-74982414D01*
X133996001Y-74978705D01*
X133866089Y-74937120D01*
X133759792Y-74903094D01*
X133520236Y-74864080D01*
X133507606Y-74862023D01*
X133507605Y-74862023D01*
X133502994Y-74861272D01*
X133372914Y-74859569D01*
X133247512Y-74857927D01*
X133247509Y-74857927D01*
X133242835Y-74857866D01*
X132985030Y-74892952D01*
X132735243Y-74965758D01*
X132730990Y-74967718D01*
X132730989Y-74967719D01*
X132694634Y-74984479D01*
X132498961Y-75074686D01*
X132495056Y-75077246D01*
X132495051Y-75077249D01*
X132285288Y-75214775D01*
X132285283Y-75214779D01*
X132281375Y-75217341D01*
X132193076Y-75296151D01*
X132163846Y-75322240D01*
X132099705Y-75352678D01*
X132029291Y-75343607D01*
X131993612Y-75320012D01*
X131918122Y-75248998D01*
X131914714Y-75245792D01*
X131754631Y-75134738D01*
X131704779Y-75100154D01*
X131704776Y-75100152D01*
X131700937Y-75097489D01*
X131696747Y-75095423D01*
X131696744Y-75095421D01*
X131471775Y-74984479D01*
X131471772Y-74984478D01*
X131467587Y-74982414D01*
X131456001Y-74978705D01*
X131326089Y-74937120D01*
X131219792Y-74903094D01*
X130980236Y-74864080D01*
X130967606Y-74862023D01*
X130967605Y-74862023D01*
X130962994Y-74861272D01*
X130832914Y-74859569D01*
X130707512Y-74857927D01*
X130707509Y-74857927D01*
X130702835Y-74857866D01*
X130445030Y-74892952D01*
X130195243Y-74965758D01*
X130190990Y-74967718D01*
X130190989Y-74967719D01*
X130154634Y-74984479D01*
X129958961Y-75074686D01*
X129955056Y-75077246D01*
X129955051Y-75077249D01*
X129745288Y-75214775D01*
X129745283Y-75214779D01*
X129741375Y-75217341D01*
X129653076Y-75296151D01*
X129623846Y-75322240D01*
X129559705Y-75352678D01*
X129489291Y-75343607D01*
X129453612Y-75320012D01*
X129378122Y-75248998D01*
X129374714Y-75245792D01*
X129214631Y-75134738D01*
X129164779Y-75100154D01*
X129164776Y-75100152D01*
X129160937Y-75097489D01*
X129156747Y-75095423D01*
X129156744Y-75095421D01*
X128931775Y-74984479D01*
X128931772Y-74984478D01*
X128927587Y-74982414D01*
X128916001Y-74978705D01*
X128786089Y-74937120D01*
X128679792Y-74903094D01*
X128440236Y-74864080D01*
X128427606Y-74862023D01*
X128427605Y-74862023D01*
X128422994Y-74861272D01*
X128292914Y-74859569D01*
X128167512Y-74857927D01*
X128167509Y-74857927D01*
X128162835Y-74857866D01*
X127905030Y-74892952D01*
X127655243Y-74965758D01*
X127650990Y-74967718D01*
X127650989Y-74967719D01*
X127614634Y-74984479D01*
X127418961Y-75074686D01*
X127415056Y-75077246D01*
X127415051Y-75077249D01*
X127205288Y-75214775D01*
X127205283Y-75214779D01*
X127201375Y-75217341D01*
X127113076Y-75296151D01*
X127083846Y-75322240D01*
X127019705Y-75352678D01*
X126949291Y-75343607D01*
X126913612Y-75320012D01*
X126838122Y-75248998D01*
X126834714Y-75245792D01*
X126674631Y-75134738D01*
X126624779Y-75100154D01*
X126624776Y-75100152D01*
X126620937Y-75097489D01*
X126616747Y-75095423D01*
X126616744Y-75095421D01*
X126391775Y-74984479D01*
X126391772Y-74984478D01*
X126387587Y-74982414D01*
X126376001Y-74978705D01*
X126246089Y-74937120D01*
X126139792Y-74903094D01*
X125900236Y-74864080D01*
X125887606Y-74862023D01*
X125887605Y-74862023D01*
X125882994Y-74861272D01*
X125752914Y-74859569D01*
X125627512Y-74857927D01*
X125627509Y-74857927D01*
X125622835Y-74857866D01*
X125365030Y-74892952D01*
X125115243Y-74965758D01*
X125110990Y-74967718D01*
X125110989Y-74967719D01*
X125074634Y-74984479D01*
X124878961Y-75074686D01*
X124875056Y-75077246D01*
X124875051Y-75077249D01*
X124665288Y-75214775D01*
X124665283Y-75214779D01*
X124661375Y-75217341D01*
X124573076Y-75296151D01*
X124543846Y-75322240D01*
X124479705Y-75352678D01*
X124409291Y-75343607D01*
X124373612Y-75320012D01*
X124298122Y-75248998D01*
X124294714Y-75245792D01*
X124134631Y-75134738D01*
X124084779Y-75100154D01*
X124084776Y-75100152D01*
X124080937Y-75097489D01*
X124076747Y-75095423D01*
X124076744Y-75095421D01*
X123851775Y-74984479D01*
X123851772Y-74984478D01*
X123847587Y-74982414D01*
X123836001Y-74978705D01*
X123706089Y-74937120D01*
X123599792Y-74903094D01*
X123360236Y-74864080D01*
X123347606Y-74862023D01*
X123347605Y-74862023D01*
X123342994Y-74861272D01*
X123212914Y-74859569D01*
X123087512Y-74857927D01*
X123087509Y-74857927D01*
X123082835Y-74857866D01*
X122825030Y-74892952D01*
X122575243Y-74965758D01*
X122570990Y-74967718D01*
X122570989Y-74967719D01*
X122534634Y-74984479D01*
X122338961Y-75074686D01*
X122335056Y-75077246D01*
X122335051Y-75077249D01*
X122125288Y-75214775D01*
X122125283Y-75214779D01*
X122121375Y-75217341D01*
X122033076Y-75296151D01*
X122003846Y-75322240D01*
X121939705Y-75352678D01*
X121869291Y-75343607D01*
X121833612Y-75320012D01*
X121758122Y-75248998D01*
X121754714Y-75245792D01*
X121594631Y-75134738D01*
X121544779Y-75100154D01*
X121544776Y-75100152D01*
X121540937Y-75097489D01*
X121536747Y-75095423D01*
X121536744Y-75095421D01*
X121311775Y-74984479D01*
X121311772Y-74984478D01*
X121307587Y-74982414D01*
X121296001Y-74978705D01*
X121166089Y-74937120D01*
X121059792Y-74903094D01*
X120820236Y-74864080D01*
X120807606Y-74862023D01*
X120807605Y-74862023D01*
X120802994Y-74861272D01*
X120672914Y-74859569D01*
X120547512Y-74857927D01*
X120547509Y-74857927D01*
X120542835Y-74857866D01*
X120285030Y-74892952D01*
X120035243Y-74965758D01*
X120030990Y-74967718D01*
X120030989Y-74967719D01*
X119994634Y-74984479D01*
X119798961Y-75074686D01*
X119795056Y-75077246D01*
X119795051Y-75077249D01*
X119585288Y-75214775D01*
X119585283Y-75214779D01*
X119581375Y-75217341D01*
X119387265Y-75390591D01*
X119220895Y-75590629D01*
X119085920Y-75813061D01*
X119084111Y-75817375D01*
X119084110Y-75817377D01*
X118989668Y-76042597D01*
X118985305Y-76053001D01*
X118921261Y-76305177D01*
X118899500Y-76521286D01*
X118899500Y-77676044D01*
X118899673Y-77678369D01*
X118899673Y-77678375D01*
X118913126Y-77859395D01*
X118913874Y-77869466D01*
X118971295Y-78123232D01*
X118972987Y-78127584D01*
X118972988Y-78127586D01*
X119058323Y-78347022D01*
X119065595Y-78365723D01*
X119067912Y-78369777D01*
X119067913Y-78369779D01*
X119075759Y-78383507D01*
X119194701Y-78591612D01*
X119355777Y-78795936D01*
X119545286Y-78974208D01*
X119759063Y-79122511D01*
X119763253Y-79124577D01*
X119763256Y-79124579D01*
X119988225Y-79235521D01*
X119988228Y-79235522D01*
X119992413Y-79237586D01*
X119996856Y-79239008D01*
X119996858Y-79239009D01*
X120027767Y-79248903D01*
X120240208Y-79316906D01*
X120361024Y-79336582D01*
X120492394Y-79357977D01*
X120492395Y-79357977D01*
X120497006Y-79358728D01*
X120627086Y-79360431D01*
X120752488Y-79362073D01*
X120752491Y-79362073D01*
X120757165Y-79362134D01*
X121014970Y-79327048D01*
X121264757Y-79254242D01*
X121292321Y-79241535D01*
X121415585Y-79184709D01*
X121501039Y-79145314D01*
X121504944Y-79142754D01*
X121504949Y-79142751D01*
X121714712Y-79005225D01*
X121714717Y-79005221D01*
X121718625Y-79002659D01*
X121836155Y-78897760D01*
X121900295Y-78867322D01*
X121970709Y-78876393D01*
X122006387Y-78899987D01*
X122085286Y-78974208D01*
X122299063Y-79122511D01*
X122303253Y-79124577D01*
X122303256Y-79124579D01*
X122528225Y-79235521D01*
X122528228Y-79235522D01*
X122532413Y-79237586D01*
X122536856Y-79239008D01*
X122536858Y-79239009D01*
X122567767Y-79248903D01*
X122780208Y-79316906D01*
X122901024Y-79336582D01*
X123032394Y-79357977D01*
X123032395Y-79357977D01*
X123037006Y-79358728D01*
X123167086Y-79360431D01*
X123292488Y-79362073D01*
X123292491Y-79362073D01*
X123297165Y-79362134D01*
X123554970Y-79327048D01*
X123804757Y-79254242D01*
X123832321Y-79241535D01*
X123955585Y-79184709D01*
X124041039Y-79145314D01*
X124044944Y-79142754D01*
X124044949Y-79142751D01*
X124254712Y-79005225D01*
X124254717Y-79005221D01*
X124258625Y-79002659D01*
X124376155Y-78897760D01*
X124440295Y-78867322D01*
X124510709Y-78876393D01*
X124546387Y-78899987D01*
X124625286Y-78974208D01*
X124839063Y-79122511D01*
X124843253Y-79124577D01*
X124843256Y-79124579D01*
X125068225Y-79235521D01*
X125068228Y-79235522D01*
X125072413Y-79237586D01*
X125076856Y-79239008D01*
X125076858Y-79239009D01*
X125107767Y-79248903D01*
X125320208Y-79316906D01*
X125441024Y-79336582D01*
X125572394Y-79357977D01*
X125572395Y-79357977D01*
X125577006Y-79358728D01*
X125707086Y-79360431D01*
X125832488Y-79362073D01*
X125832491Y-79362073D01*
X125837165Y-79362134D01*
X126094970Y-79327048D01*
X126344757Y-79254242D01*
X126372321Y-79241535D01*
X126495585Y-79184709D01*
X126581039Y-79145314D01*
X126584944Y-79142754D01*
X126584949Y-79142751D01*
X126794712Y-79005225D01*
X126794717Y-79005221D01*
X126798625Y-79002659D01*
X126916155Y-78897760D01*
X126980295Y-78867322D01*
X127050709Y-78876393D01*
X127086387Y-78899987D01*
X127165286Y-78974208D01*
X127379063Y-79122511D01*
X127383253Y-79124577D01*
X127383256Y-79124579D01*
X127608225Y-79235521D01*
X127608228Y-79235522D01*
X127612413Y-79237586D01*
X127616856Y-79239008D01*
X127616858Y-79239009D01*
X127647767Y-79248903D01*
X127860208Y-79316906D01*
X127981024Y-79336582D01*
X128112394Y-79357977D01*
X128112395Y-79357977D01*
X128117006Y-79358728D01*
X128247086Y-79360431D01*
X128372488Y-79362073D01*
X128372491Y-79362073D01*
X128377165Y-79362134D01*
X128634970Y-79327048D01*
X128884757Y-79254242D01*
X128912321Y-79241535D01*
X129035585Y-79184709D01*
X129121039Y-79145314D01*
X129124944Y-79142754D01*
X129124949Y-79142751D01*
X129334712Y-79005225D01*
X129334717Y-79005221D01*
X129338625Y-79002659D01*
X129456155Y-78897760D01*
X129520295Y-78867322D01*
X129590709Y-78876393D01*
X129626387Y-78899987D01*
X129705286Y-78974208D01*
X129919063Y-79122511D01*
X129923253Y-79124577D01*
X129923256Y-79124579D01*
X130148225Y-79235521D01*
X130148228Y-79235522D01*
X130152413Y-79237586D01*
X130156856Y-79239008D01*
X130156858Y-79239009D01*
X130187767Y-79248903D01*
X130400208Y-79316906D01*
X130521024Y-79336582D01*
X130652394Y-79357977D01*
X130652395Y-79357977D01*
X130657006Y-79358728D01*
X130787086Y-79360431D01*
X130912488Y-79362073D01*
X130912491Y-79362073D01*
X130917165Y-79362134D01*
X131174970Y-79327048D01*
X131424757Y-79254242D01*
X131452321Y-79241535D01*
X131575585Y-79184709D01*
X131661039Y-79145314D01*
X131664944Y-79142754D01*
X131664949Y-79142751D01*
X131874712Y-79005225D01*
X131874717Y-79005221D01*
X131878625Y-79002659D01*
X131996155Y-78897760D01*
X132060295Y-78867322D01*
X132130709Y-78876393D01*
X132166387Y-78899987D01*
X132245286Y-78974208D01*
X132459063Y-79122511D01*
X132463253Y-79124577D01*
X132463256Y-79124579D01*
X132688225Y-79235521D01*
X132688228Y-79235522D01*
X132692413Y-79237586D01*
X132696856Y-79239008D01*
X132696858Y-79239009D01*
X132727767Y-79248903D01*
X132940208Y-79316906D01*
X133061024Y-79336582D01*
X133192394Y-79357977D01*
X133192395Y-79357977D01*
X133197006Y-79358728D01*
X133327086Y-79360431D01*
X133452488Y-79362073D01*
X133452491Y-79362073D01*
X133457165Y-79362134D01*
X133714970Y-79327048D01*
X133964757Y-79254242D01*
X133992321Y-79241535D01*
X134115585Y-79184709D01*
X134201039Y-79145314D01*
X134204944Y-79142754D01*
X134204949Y-79142751D01*
X134414712Y-79005225D01*
X134414717Y-79005221D01*
X134418625Y-79002659D01*
X134536155Y-78897760D01*
X134600295Y-78867322D01*
X134670709Y-78876393D01*
X134706387Y-78899987D01*
X134785286Y-78974208D01*
X134999063Y-79122511D01*
X135003253Y-79124577D01*
X135003256Y-79124579D01*
X135228225Y-79235521D01*
X135228228Y-79235522D01*
X135232413Y-79237586D01*
X135236856Y-79239008D01*
X135236858Y-79239009D01*
X135267767Y-79248903D01*
X135480208Y-79316906D01*
X135601024Y-79336582D01*
X135732394Y-79357977D01*
X135732395Y-79357977D01*
X135737006Y-79358728D01*
X135867086Y-79360431D01*
X135992488Y-79362073D01*
X135992491Y-79362073D01*
X135997165Y-79362134D01*
X136254970Y-79327048D01*
X136504757Y-79254242D01*
X136532321Y-79241535D01*
X136655585Y-79184709D01*
X136741039Y-79145314D01*
X136744944Y-79142754D01*
X136744949Y-79142751D01*
X136954712Y-79005225D01*
X136954717Y-79005221D01*
X136958625Y-79002659D01*
X137076155Y-78897760D01*
X137140295Y-78867322D01*
X137210709Y-78876393D01*
X137246387Y-78899987D01*
X137325286Y-78974208D01*
X137539063Y-79122511D01*
X137543253Y-79124577D01*
X137543256Y-79124579D01*
X137768225Y-79235521D01*
X137768228Y-79235522D01*
X137772413Y-79237586D01*
X137776856Y-79239008D01*
X137776858Y-79239009D01*
X137807767Y-79248903D01*
X138020208Y-79316906D01*
X138141024Y-79336582D01*
X138272394Y-79357977D01*
X138272395Y-79357977D01*
X138277006Y-79358728D01*
X138407086Y-79360431D01*
X138532488Y-79362073D01*
X138532491Y-79362073D01*
X138537165Y-79362134D01*
X138794970Y-79327048D01*
X139044757Y-79254242D01*
X139072321Y-79241535D01*
X139195585Y-79184709D01*
X139281039Y-79145314D01*
X139284944Y-79142754D01*
X139284949Y-79142751D01*
X139494712Y-79005225D01*
X139494717Y-79005221D01*
X139498625Y-79002659D01*
X139616154Y-78897760D01*
X139689243Y-78832526D01*
X139689245Y-78832524D01*
X139692735Y-78829409D01*
X139859105Y-78629371D01*
X139994080Y-78406939D01*
X140005749Y-78379112D01*
X140092886Y-78171314D01*
X140092888Y-78171309D01*
X140094695Y-78166999D01*
X140107078Y-78118243D01*
X140157586Y-77919362D01*
X140158739Y-77914823D01*
X140180500Y-77698714D01*
X140180500Y-76543956D01*
X140179050Y-76524440D01*
X140166472Y-76355186D01*
X140166471Y-76355182D01*
X140166126Y-76350534D01*
X140108705Y-76096768D01*
X140107012Y-76092414D01*
X140016098Y-75858630D01*
X140016097Y-75858628D01*
X140014405Y-75854277D01*
X139885299Y-75628388D01*
X139724223Y-75424064D01*
X139534714Y-75245792D01*
X139498196Y-75220458D01*
X139449851Y-75186920D01*
X139405281Y-75131657D01*
X139397664Y-75061070D01*
X139429419Y-74997571D01*
X139476002Y-74965961D01*
X139665365Y-74892322D01*
X139681370Y-74886098D01*
X139681372Y-74886097D01*
X139685723Y-74884405D01*
X139721285Y-74864080D01*
X139792537Y-74823356D01*
X139911612Y-74755299D01*
X140115936Y-74594223D01*
X140294208Y-74404714D01*
X140442511Y-74190937D01*
X140460258Y-74154949D01*
X140555521Y-73961775D01*
X140555522Y-73961772D01*
X140557586Y-73957587D01*
X140636906Y-73709792D01*
X140678728Y-73452994D01*
X140682134Y-73192835D01*
X140647048Y-72935030D01*
X140574242Y-72685243D01*
X140465314Y-72448961D01*
X140409514Y-72363851D01*
X140326882Y-72237816D01*
X147564388Y-72237816D01*
X147575122Y-72358087D01*
X147631147Y-72553470D01*
X147725315Y-72733596D01*
X147729346Y-72738538D01*
X147729347Y-72738540D01*
X147736031Y-72746735D01*
X147763585Y-72812166D01*
X147764388Y-72826371D01*
X147764388Y-74617050D01*
X147764000Y-74626936D01*
X147759439Y-74684888D01*
X147764388Y-74747770D01*
X147779205Y-74936036D01*
X147780359Y-74940843D01*
X147780360Y-74940849D01*
X147796809Y-75009364D01*
X147838015Y-75180999D01*
X147839908Y-75185570D01*
X147839909Y-75185572D01*
X147924831Y-75390591D01*
X147934422Y-75413747D01*
X148066052Y-75628547D01*
X148069264Y-75632307D01*
X148069267Y-75632312D01*
X148201447Y-75787074D01*
X148229664Y-75820112D01*
X148273879Y-75857876D01*
X148281132Y-75864581D01*
X149090307Y-76673756D01*
X149097012Y-76681009D01*
X149134776Y-76725224D01*
X149218043Y-76796341D01*
X149326341Y-76888836D01*
X149541141Y-77020466D01*
X149545711Y-77022359D01*
X149545715Y-77022361D01*
X149769316Y-77114980D01*
X149769318Y-77114981D01*
X149773889Y-77116874D01*
X150018852Y-77175684D01*
X150270000Y-77195449D01*
X150274930Y-77195061D01*
X150327955Y-77190888D01*
X150337841Y-77190500D01*
X152865018Y-77190500D01*
X152933139Y-77210502D01*
X152979632Y-77264158D01*
X152989736Y-77334432D01*
X152985365Y-77352857D01*
X152985305Y-77353001D01*
X152984154Y-77357533D01*
X152984153Y-77357536D01*
X152976216Y-77388789D01*
X152921261Y-77605177D01*
X152895194Y-77864049D01*
X152895418Y-77868715D01*
X152895418Y-77868720D01*
X152897250Y-77906851D01*
X152907677Y-78123930D01*
X152958435Y-78379112D01*
X153046355Y-78623989D01*
X153169504Y-78853180D01*
X153172299Y-78856923D01*
X153172301Y-78856926D01*
X153322385Y-79057913D01*
X153322390Y-79057919D01*
X153325177Y-79061651D01*
X153328486Y-79064931D01*
X153328491Y-79064937D01*
X153504089Y-79239009D01*
X153509954Y-79244823D01*
X153513716Y-79247581D01*
X153513719Y-79247584D01*
X153669645Y-79361913D01*
X153719775Y-79398670D01*
X153723910Y-79400846D01*
X153723914Y-79400848D01*
X153815619Y-79449096D01*
X153950033Y-79519815D01*
X154195667Y-79605594D01*
X154200260Y-79606466D01*
X154446693Y-79653253D01*
X154446696Y-79653253D01*
X154451282Y-79654124D01*
X154581272Y-79659231D01*
X154706595Y-79664156D01*
X154706601Y-79664156D01*
X154711263Y-79664339D01*
X154812489Y-79653253D01*
X154965245Y-79636524D01*
X154965250Y-79636523D01*
X154969898Y-79636014D01*
X154974422Y-79634823D01*
X155216982Y-79570962D01*
X155216984Y-79570961D01*
X155221505Y-79569771D01*
X155225802Y-79567925D01*
X155456259Y-79468913D01*
X155456264Y-79468911D01*
X155460557Y-79467066D01*
X155464537Y-79464603D01*
X155467981Y-79462810D01*
X155537641Y-79449096D01*
X155603657Y-79475219D01*
X155645069Y-79532886D01*
X155648731Y-79603788D01*
X155633883Y-79639938D01*
X155632448Y-79642304D01*
X155625920Y-79653061D01*
X155624111Y-79657375D01*
X155624110Y-79657377D01*
X155530554Y-79880484D01*
X155525305Y-79893001D01*
X155461261Y-80145177D01*
X155435194Y-80404049D01*
X155447677Y-80663930D01*
X155498435Y-80919112D01*
X155586355Y-81163989D01*
X155709504Y-81393180D01*
X155712299Y-81396923D01*
X155712301Y-81396926D01*
X155862385Y-81597913D01*
X155862390Y-81597919D01*
X155865177Y-81601651D01*
X155868486Y-81604931D01*
X155868491Y-81604937D01*
X156046637Y-81781535D01*
X156049954Y-81784823D01*
X156053716Y-81787581D01*
X156053719Y-81787584D01*
X156147376Y-81856256D01*
X156259775Y-81938670D01*
X156263910Y-81940846D01*
X156263914Y-81940848D01*
X156343137Y-81982529D01*
X156490033Y-82059815D01*
X156521441Y-82070783D01*
X156691869Y-82130299D01*
X156735667Y-82145594D01*
X156740258Y-82146466D01*
X156740267Y-82146468D01*
X156750416Y-82148395D01*
X156813610Y-82180754D01*
X156849277Y-82242141D01*
X156846094Y-82313066D01*
X156834344Y-82338018D01*
X156789534Y-82411141D01*
X156787641Y-82415711D01*
X156787639Y-82415715D01*
X156706356Y-82611951D01*
X156693127Y-82643889D01*
X156691972Y-82648701D01*
X156657531Y-82792160D01*
X156634317Y-82888852D01*
X156614551Y-83140000D01*
X156614939Y-83144930D01*
X156619112Y-83197952D01*
X156619500Y-83207838D01*
X156619500Y-84210261D01*
X156609697Y-84258987D01*
X156535744Y-84435346D01*
X156507755Y-84502091D01*
X156441881Y-84761470D01*
X156415070Y-85027736D01*
X156427909Y-85295041D01*
X156480118Y-85557512D01*
X156570549Y-85809383D01*
X156591037Y-85847513D01*
X156674114Y-86002127D01*
X156697215Y-86045121D01*
X156700010Y-86048864D01*
X156700012Y-86048867D01*
X156779254Y-86154984D01*
X156857335Y-86259547D01*
X156860654Y-86262837D01*
X156862927Y-86265452D01*
X156892521Y-86329987D01*
X156882527Y-86400277D01*
X156864706Y-86428683D01*
X156860667Y-86433540D01*
X156750075Y-86566512D01*
X156611244Y-86795298D01*
X156609437Y-86799606D01*
X156609437Y-86799607D01*
X156582114Y-86864766D01*
X156507755Y-87042091D01*
X156506604Y-87046623D01*
X156506603Y-87046626D01*
X156489235Y-87115012D01*
X156441881Y-87301470D01*
X156415070Y-87567736D01*
X156415294Y-87572403D01*
X156415294Y-87572408D01*
X156420658Y-87684081D01*
X156427909Y-87835041D01*
X156480118Y-88097512D01*
X156481698Y-88101912D01*
X156481698Y-88101913D01*
X156483619Y-88107263D01*
X156570549Y-88349383D01*
X156572765Y-88353507D01*
X156692825Y-88576950D01*
X156697215Y-88585121D01*
X156700010Y-88588864D01*
X156700012Y-88588867D01*
X156848626Y-88787884D01*
X156857335Y-88799547D01*
X156860642Y-88802825D01*
X156860647Y-88802831D01*
X157042258Y-88982863D01*
X157047390Y-88987950D01*
X157051156Y-88990712D01*
X157051158Y-88990713D01*
X157075759Y-89008751D01*
X157263205Y-89146192D01*
X157267340Y-89148368D01*
X157267344Y-89148370D01*
X157396918Y-89216542D01*
X157500039Y-89270797D01*
X157504458Y-89272340D01*
X157748273Y-89357484D01*
X157748279Y-89357486D01*
X157752690Y-89359026D01*
X157757283Y-89359898D01*
X158009923Y-89407864D01*
X158015606Y-89408943D01*
X158142616Y-89413933D01*
X158278345Y-89419266D01*
X158278350Y-89419266D01*
X158283013Y-89419449D01*
X158378943Y-89408943D01*
X158544382Y-89390825D01*
X158544387Y-89390824D01*
X158549035Y-89390315D01*
X158591314Y-89379184D01*
X158803309Y-89323370D01*
X158807829Y-89322180D01*
X158988317Y-89244637D01*
X159049407Y-89218391D01*
X159049410Y-89218389D01*
X159053710Y-89216542D01*
X159057690Y-89214079D01*
X159057694Y-89214077D01*
X159277302Y-89078179D01*
X159277306Y-89078176D01*
X159281275Y-89075720D01*
X159316005Y-89046319D01*
X159481960Y-88905828D01*
X159481961Y-88905827D01*
X159485526Y-88902809D01*
X159552537Y-88826398D01*
X159658894Y-88705122D01*
X159658898Y-88705117D01*
X159661976Y-88701607D01*
X159666052Y-88695270D01*
X159804219Y-88480465D01*
X159804222Y-88480460D01*
X159806747Y-88476534D01*
X159916661Y-88232534D01*
X159952131Y-88106766D01*
X159988032Y-87979473D01*
X159988033Y-87979470D01*
X159989302Y-87974969D01*
X160007103Y-87835041D01*
X160022677Y-87712625D01*
X160022677Y-87712621D01*
X160023075Y-87709495D01*
X160023409Y-87696759D01*
X160025466Y-87618160D01*
X160025549Y-87615000D01*
X160019645Y-87535549D01*
X160006064Y-87352788D01*
X160006063Y-87352784D01*
X160005717Y-87348123D01*
X159995161Y-87301470D01*
X159947686Y-87091666D01*
X159946655Y-87087109D01*
X159856362Y-86854919D01*
X159851355Y-86842044D01*
X159851354Y-86842042D01*
X159849662Y-86837691D01*
X159716868Y-86605350D01*
X159577595Y-86428683D01*
X159571540Y-86421002D01*
X159545075Y-86355122D01*
X159558428Y-86285393D01*
X159575755Y-86259922D01*
X159661976Y-86161607D01*
X159731778Y-86053087D01*
X159804219Y-85940465D01*
X159804222Y-85940460D01*
X159806747Y-85936534D01*
X159916661Y-85692534D01*
X159938746Y-85614229D01*
X159967334Y-85512862D01*
X160005075Y-85452728D01*
X160069337Y-85422545D01*
X160139715Y-85431895D01*
X160147267Y-85435553D01*
X160220026Y-85473833D01*
X160331788Y-85512862D01*
X160446517Y-85552927D01*
X160458644Y-85557162D01*
X160463237Y-85558034D01*
X160702369Y-85603435D01*
X160702372Y-85603435D01*
X160706958Y-85604306D01*
X160827081Y-85609026D01*
X160954845Y-85614046D01*
X160954850Y-85614046D01*
X160959513Y-85614229D01*
X161037657Y-85605671D01*
X161206107Y-85587223D01*
X161206112Y-85587222D01*
X161210760Y-85586713D01*
X161319692Y-85558034D01*
X161450658Y-85523554D01*
X161450661Y-85523553D01*
X161455181Y-85522363D01*
X161687405Y-85422591D01*
X161886115Y-85299626D01*
X161898358Y-85292050D01*
X161898362Y-85292047D01*
X161902331Y-85289591D01*
X162095238Y-85126283D01*
X162181662Y-85027736D01*
X162258806Y-84939771D01*
X162258810Y-84939766D01*
X162261888Y-84936256D01*
X162398619Y-84723684D01*
X162502428Y-84493236D01*
X162571034Y-84249976D01*
X162602931Y-83999247D01*
X162605268Y-83910000D01*
X162590995Y-83717933D01*
X162586883Y-83662597D01*
X162586882Y-83662593D01*
X162586537Y-83657945D01*
X162530756Y-83411428D01*
X162517466Y-83377252D01*
X162440843Y-83180216D01*
X162440842Y-83180214D01*
X162439150Y-83175863D01*
X162313731Y-82956426D01*
X162235493Y-82857182D01*
X162160147Y-82761606D01*
X162160144Y-82761603D01*
X162157255Y-82757938D01*
X161973160Y-82584758D01*
X161765489Y-82440691D01*
X161714843Y-82415715D01*
X161542993Y-82330968D01*
X161542990Y-82330967D01*
X161538805Y-82328903D01*
X161491130Y-82313642D01*
X161442403Y-82298045D01*
X161298087Y-82251849D01*
X161293480Y-82251099D01*
X161293477Y-82251098D01*
X161053235Y-82211972D01*
X161053236Y-82211972D01*
X161048624Y-82211221D01*
X160958993Y-82210048D01*
X160904851Y-82209339D01*
X160836998Y-82188447D01*
X160791211Y-82134188D01*
X160780500Y-82083350D01*
X160780500Y-78118243D01*
X160800502Y-78050122D01*
X160854158Y-78003629D01*
X160911446Y-77992340D01*
X160932832Y-77993181D01*
X160954846Y-77994046D01*
X160954851Y-77994046D01*
X160959513Y-77994229D01*
X161037657Y-77985671D01*
X161206107Y-77967223D01*
X161206112Y-77967222D01*
X161210760Y-77966713D01*
X161390614Y-77919362D01*
X161450658Y-77903554D01*
X161450661Y-77903553D01*
X161455181Y-77902363D01*
X161687405Y-77802591D01*
X161855269Y-77698714D01*
X161898358Y-77672050D01*
X161898362Y-77672047D01*
X161902331Y-77669591D01*
X161978420Y-77605177D01*
X162091672Y-77509302D01*
X162091673Y-77509301D01*
X162095238Y-77506283D01*
X162198278Y-77388789D01*
X162258806Y-77319771D01*
X162258810Y-77319766D01*
X162261888Y-77316256D01*
X162295399Y-77264158D01*
X162396094Y-77107610D01*
X162396096Y-77107607D01*
X162398619Y-77103684D01*
X162502428Y-76873236D01*
X162571034Y-76629976D01*
X162602931Y-76379247D01*
X162605268Y-76290000D01*
X162591247Y-76101325D01*
X162586883Y-76042597D01*
X162586882Y-76042593D01*
X162586537Y-76037945D01*
X162530756Y-75791428D01*
X162529063Y-75787074D01*
X162440843Y-75560216D01*
X162440842Y-75560214D01*
X162439150Y-75555863D01*
X162313731Y-75336426D01*
X162212019Y-75207405D01*
X162160147Y-75141606D01*
X162160144Y-75141603D01*
X162157255Y-75137938D01*
X161973160Y-74964758D01*
X161765489Y-74820691D01*
X161761296Y-74818623D01*
X161542993Y-74710968D01*
X161542990Y-74710967D01*
X161538805Y-74708903D01*
X161494379Y-74694682D01*
X161442403Y-74678045D01*
X161298087Y-74631849D01*
X161293480Y-74631099D01*
X161293477Y-74631098D01*
X161053235Y-74591972D01*
X161053236Y-74591972D01*
X161048624Y-74591221D01*
X160926026Y-74589616D01*
X160800573Y-74587974D01*
X160800570Y-74587974D01*
X160795896Y-74587913D01*
X160545455Y-74621996D01*
X160540965Y-74623305D01*
X160540959Y-74623306D01*
X160437851Y-74653360D01*
X160302803Y-74692723D01*
X160298556Y-74694681D01*
X160298553Y-74694682D01*
X160263226Y-74710968D01*
X160073270Y-74798539D01*
X160069361Y-74801102D01*
X159865812Y-74934554D01*
X159865807Y-74934558D01*
X159861899Y-74937120D01*
X159673333Y-75105421D01*
X159511715Y-75299746D01*
X159402960Y-75478969D01*
X159350522Y-75526829D01*
X159280532Y-75538741D01*
X159215212Y-75510923D01*
X159206147Y-75502698D01*
X158209692Y-74506243D01*
X158202976Y-74498978D01*
X158168437Y-74458538D01*
X158165224Y-74454776D01*
X158083637Y-74385094D01*
X157977424Y-74294379D01*
X157977419Y-74294376D01*
X157973659Y-74291164D01*
X157758859Y-74159534D01*
X157754289Y-74157641D01*
X157754285Y-74157639D01*
X157530684Y-74065021D01*
X157530682Y-74065020D01*
X157526111Y-74063127D01*
X157441711Y-74042865D01*
X157285961Y-74005472D01*
X157285955Y-74005471D01*
X157281148Y-74004317D01*
X157092882Y-73989500D01*
X157030000Y-73984551D01*
X157025070Y-73984939D01*
X156972048Y-73989112D01*
X156962162Y-73989500D01*
X151091388Y-73989500D01*
X151023267Y-73969498D01*
X150976774Y-73915842D01*
X150965388Y-73863500D01*
X150965388Y-72826371D01*
X150985390Y-72758250D01*
X150993745Y-72746735D01*
X151000429Y-72738540D01*
X151000430Y-72738538D01*
X151004461Y-72733596D01*
X151098629Y-72553470D01*
X151154654Y-72358087D01*
X151165388Y-72237816D01*
X151165388Y-70522184D01*
X151154654Y-70401913D01*
X151098629Y-70206530D01*
X151004461Y-70026404D01*
X150875997Y-69868891D01*
X150718484Y-69740427D01*
X150538358Y-69646259D01*
X150342975Y-69590234D01*
X150311343Y-69587411D01*
X150225497Y-69579749D01*
X150225491Y-69579749D01*
X150222704Y-69579500D01*
X148507072Y-69579500D01*
X148504285Y-69579749D01*
X148504279Y-69579749D01*
X148418433Y-69587411D01*
X148386801Y-69590234D01*
X148191418Y-69646259D01*
X148011292Y-69740427D01*
X147853779Y-69868891D01*
X147725315Y-70026404D01*
X147631147Y-70206530D01*
X147575122Y-70401913D01*
X147564388Y-70522184D01*
X147564388Y-72237816D01*
X140326882Y-72237816D01*
X140325225Y-72235288D01*
X140325221Y-72235283D01*
X140322659Y-72231375D01*
X140217760Y-72113845D01*
X140187322Y-72049705D01*
X140196393Y-71979291D01*
X140219988Y-71943612D01*
X140291002Y-71868122D01*
X140294208Y-71864714D01*
X140442511Y-71650937D01*
X140460258Y-71614949D01*
X140555521Y-71421775D01*
X140555522Y-71421772D01*
X140557586Y-71417587D01*
X140636906Y-71169792D01*
X140678728Y-70912994D01*
X140682134Y-70652835D01*
X140647048Y-70395030D01*
X140574242Y-70145243D01*
X140465314Y-69908961D01*
X140439156Y-69869063D01*
X140325225Y-69695288D01*
X140325221Y-69695283D01*
X140322659Y-69691375D01*
X140217760Y-69573845D01*
X140187322Y-69509705D01*
X140196393Y-69439291D01*
X140219988Y-69403612D01*
X140291002Y-69328122D01*
X140294208Y-69324714D01*
X140442511Y-69110937D01*
X140460258Y-69074949D01*
X140555521Y-68881775D01*
X140555522Y-68881772D01*
X140557586Y-68877587D01*
X140636906Y-68629792D01*
X140678728Y-68372994D01*
X140682134Y-68112835D01*
X140647048Y-67855030D01*
X140574242Y-67605243D01*
X140465314Y-67368961D01*
X140436637Y-67325221D01*
X140325225Y-67155288D01*
X140325221Y-67155283D01*
X140322659Y-67151375D01*
X140217760Y-67033845D01*
X140187322Y-66969705D01*
X140196393Y-66899291D01*
X140219988Y-66863612D01*
X140291002Y-66788122D01*
X140294208Y-66784714D01*
X140442511Y-66570937D01*
X140460258Y-66534949D01*
X140555521Y-66341775D01*
X140555522Y-66341772D01*
X140557586Y-66337587D01*
X140636906Y-66089792D01*
X140678728Y-65832994D01*
X140682134Y-65572835D01*
X140647048Y-65315030D01*
X140574242Y-65065243D01*
X140465314Y-64828961D01*
X140436637Y-64785221D01*
X140325225Y-64615288D01*
X140325221Y-64615283D01*
X140322659Y-64611375D01*
X140149409Y-64417265D01*
X139949371Y-64250895D01*
X139726939Y-64115920D01*
X139722623Y-64114110D01*
X139491319Y-64017116D01*
X139491313Y-64017114D01*
X139486999Y-64015305D01*
X139484979Y-64014792D01*
X139427285Y-63974600D01*
X139400219Y-63908965D01*
X139412934Y-63839117D01*
X139456434Y-63790321D01*
X139494706Y-63765229D01*
X139494711Y-63765225D01*
X139498625Y-63762659D01*
X139692735Y-63589409D01*
X139859105Y-63389371D01*
X139994080Y-63166939D01*
X139995890Y-63162623D01*
X140092886Y-62931314D01*
X140092888Y-62931309D01*
X140094695Y-62926999D01*
X140113284Y-62853806D01*
X140157586Y-62679362D01*
X140158739Y-62674823D01*
X140180500Y-62458714D01*
X140180500Y-61303956D01*
X140179050Y-61284440D01*
X140166472Y-61115186D01*
X140166471Y-61115182D01*
X140166126Y-61110534D01*
X140108705Y-60856768D01*
X140107012Y-60852414D01*
X140016098Y-60618630D01*
X140016097Y-60618628D01*
X140014405Y-60614277D01*
X139931944Y-60470000D01*
X164324556Y-60470000D01*
X164344312Y-60784015D01*
X164403269Y-61093079D01*
X164500497Y-61392315D01*
X164502184Y-61395901D01*
X164502186Y-61395905D01*
X164632775Y-61673421D01*
X164632779Y-61673428D01*
X164634463Y-61677007D01*
X164803053Y-61942663D01*
X165003610Y-62185094D01*
X165232970Y-62400478D01*
X165236172Y-62402805D01*
X165236174Y-62402806D01*
X165484307Y-62583085D01*
X165484312Y-62583088D01*
X165487516Y-62585416D01*
X165763234Y-62736994D01*
X165922637Y-62800106D01*
X166052092Y-62851361D01*
X166052095Y-62851362D01*
X166055775Y-62852819D01*
X166059609Y-62853803D01*
X166059617Y-62853806D01*
X166248074Y-62902193D01*
X166360527Y-62931066D01*
X166364455Y-62931562D01*
X166364459Y-62931563D01*
X166488375Y-62947217D01*
X166672682Y-62970500D01*
X166987318Y-62970500D01*
X167171625Y-62947217D01*
X167295541Y-62931563D01*
X167295545Y-62931562D01*
X167299473Y-62931066D01*
X167411926Y-62902193D01*
X167600383Y-62853806D01*
X167600391Y-62853803D01*
X167604225Y-62852819D01*
X167607905Y-62851362D01*
X167607908Y-62851361D01*
X167737363Y-62800106D01*
X167896766Y-62736994D01*
X168172484Y-62585416D01*
X168175688Y-62583088D01*
X168175693Y-62583085D01*
X168423826Y-62402806D01*
X168423828Y-62402805D01*
X168427030Y-62400478D01*
X168656390Y-62185094D01*
X168856947Y-61942663D01*
X169025537Y-61677007D01*
X169027221Y-61673428D01*
X169027225Y-61673421D01*
X169157814Y-61395905D01*
X169157816Y-61395901D01*
X169159503Y-61392315D01*
X169256731Y-61093079D01*
X169315688Y-60784015D01*
X169335444Y-60470000D01*
X169315688Y-60155985D01*
X169256731Y-59846921D01*
X169159503Y-59547685D01*
X169088081Y-59395905D01*
X169027225Y-59266579D01*
X169027221Y-59266572D01*
X169025537Y-59262993D01*
X168856947Y-58997337D01*
X168656390Y-58754906D01*
X168427030Y-58539522D01*
X168331341Y-58470000D01*
X170324556Y-58470000D01*
X170344312Y-58784015D01*
X170403269Y-59093079D01*
X170500497Y-59392315D01*
X170502184Y-59395901D01*
X170502186Y-59395905D01*
X170632775Y-59673421D01*
X170632779Y-59673428D01*
X170634463Y-59677007D01*
X170803053Y-59942663D01*
X170831741Y-59977341D01*
X171000111Y-60180864D01*
X171003610Y-60185094D01*
X171232970Y-60400478D01*
X171236172Y-60402805D01*
X171236174Y-60402806D01*
X171484307Y-60583085D01*
X171484312Y-60583088D01*
X171487516Y-60585416D01*
X171763234Y-60736994D01*
X171871986Y-60780052D01*
X172052092Y-60851361D01*
X172052095Y-60851362D01*
X172055775Y-60852819D01*
X172059609Y-60853803D01*
X172059617Y-60853806D01*
X172248074Y-60902193D01*
X172360527Y-60931066D01*
X172364455Y-60931562D01*
X172364459Y-60931563D01*
X172488375Y-60947217D01*
X172672682Y-60970500D01*
X172987318Y-60970500D01*
X173171625Y-60947217D01*
X173295541Y-60931563D01*
X173295545Y-60931562D01*
X173299473Y-60931066D01*
X173411926Y-60902193D01*
X173600383Y-60853806D01*
X173600391Y-60853803D01*
X173604225Y-60852819D01*
X173607905Y-60851362D01*
X173607908Y-60851361D01*
X173788014Y-60780052D01*
X173896766Y-60736994D01*
X174172484Y-60585416D01*
X174175688Y-60583088D01*
X174175693Y-60583085D01*
X174423826Y-60402806D01*
X174423828Y-60402805D01*
X174427030Y-60400478D01*
X174656390Y-60185094D01*
X174659890Y-60180864D01*
X174828259Y-59977341D01*
X174856947Y-59942663D01*
X175025537Y-59677007D01*
X175027221Y-59673428D01*
X175027225Y-59673421D01*
X175157814Y-59395905D01*
X175157816Y-59395901D01*
X175159503Y-59392315D01*
X175256731Y-59093079D01*
X175315688Y-58784015D01*
X175335444Y-58470000D01*
X175315688Y-58155985D01*
X175256731Y-57846921D01*
X175159503Y-57547685D01*
X175157814Y-57544095D01*
X175027225Y-57266579D01*
X175027221Y-57266572D01*
X175025537Y-57262993D01*
X174856947Y-56997337D01*
X174740543Y-56856629D01*
X174658915Y-56757958D01*
X174658914Y-56757957D01*
X174656390Y-56754906D01*
X174427030Y-56539522D01*
X174421271Y-56535338D01*
X174175693Y-56356915D01*
X174175688Y-56356912D01*
X174172484Y-56354584D01*
X174023407Y-56272628D01*
X173900228Y-56204909D01*
X173900225Y-56204907D01*
X173896766Y-56203006D01*
X173737363Y-56139894D01*
X173607908Y-56088639D01*
X173607905Y-56088638D01*
X173604225Y-56087181D01*
X173600391Y-56086197D01*
X173600383Y-56086194D01*
X173411926Y-56037807D01*
X173299473Y-56008934D01*
X173295545Y-56008438D01*
X173295541Y-56008437D01*
X173171625Y-55992783D01*
X172987318Y-55969500D01*
X172672682Y-55969500D01*
X172488375Y-55992783D01*
X172364459Y-56008437D01*
X172364455Y-56008438D01*
X172360527Y-56008934D01*
X172248074Y-56037807D01*
X172059617Y-56086194D01*
X172059609Y-56086197D01*
X172055775Y-56087181D01*
X172052095Y-56088638D01*
X172052092Y-56088639D01*
X171922637Y-56139894D01*
X171763234Y-56203006D01*
X171759775Y-56204907D01*
X171759772Y-56204909D01*
X171636593Y-56272628D01*
X171487516Y-56354584D01*
X171484312Y-56356912D01*
X171484307Y-56356915D01*
X171238729Y-56535338D01*
X171232970Y-56539522D01*
X171003610Y-56754906D01*
X171001086Y-56757957D01*
X171001085Y-56757958D01*
X170919457Y-56856629D01*
X170803053Y-56997337D01*
X170634463Y-57262993D01*
X170632779Y-57266572D01*
X170632775Y-57266579D01*
X170502186Y-57544095D01*
X170500497Y-57547685D01*
X170403269Y-57846921D01*
X170344312Y-58155985D01*
X170324556Y-58470000D01*
X168331341Y-58470000D01*
X168175693Y-58356915D01*
X168175688Y-58356912D01*
X168172484Y-58354584D01*
X167896766Y-58203006D01*
X167737363Y-58139894D01*
X167607908Y-58088639D01*
X167607905Y-58088638D01*
X167604225Y-58087181D01*
X167600391Y-58086197D01*
X167600383Y-58086194D01*
X167411926Y-58037807D01*
X167299473Y-58008934D01*
X167295545Y-58008438D01*
X167295541Y-58008437D01*
X167171625Y-57992783D01*
X166987318Y-57969500D01*
X166672682Y-57969500D01*
X166488375Y-57992783D01*
X166364459Y-58008437D01*
X166364455Y-58008438D01*
X166360527Y-58008934D01*
X166248074Y-58037807D01*
X166059617Y-58086194D01*
X166059609Y-58086197D01*
X166055775Y-58087181D01*
X166052095Y-58088638D01*
X166052092Y-58088639D01*
X165922637Y-58139894D01*
X165763234Y-58203006D01*
X165487516Y-58354584D01*
X165484312Y-58356912D01*
X165484307Y-58356915D01*
X165328659Y-58470000D01*
X165232970Y-58539522D01*
X165003610Y-58754906D01*
X164803053Y-58997337D01*
X164634463Y-59262993D01*
X164632779Y-59266572D01*
X164632775Y-59266579D01*
X164571919Y-59395905D01*
X164500497Y-59547685D01*
X164403269Y-59846921D01*
X164344312Y-60155985D01*
X164324556Y-60470000D01*
X139931944Y-60470000D01*
X139885299Y-60388388D01*
X139724223Y-60184064D01*
X139534714Y-60005792D01*
X139320937Y-59857489D01*
X139316747Y-59855423D01*
X139316744Y-59855421D01*
X139091775Y-59744479D01*
X139091772Y-59744478D01*
X139087587Y-59742414D01*
X138839792Y-59663094D01*
X138699569Y-59640257D01*
X138587606Y-59622023D01*
X138587605Y-59622023D01*
X138582994Y-59621272D01*
X138452914Y-59619569D01*
X138327512Y-59617927D01*
X138327509Y-59617927D01*
X138322835Y-59617866D01*
X138065030Y-59652952D01*
X137815243Y-59725758D01*
X137810990Y-59727718D01*
X137810989Y-59727719D01*
X137774634Y-59744479D01*
X137578961Y-59834686D01*
X137575056Y-59837246D01*
X137575051Y-59837249D01*
X137365288Y-59974775D01*
X137365283Y-59974779D01*
X137361375Y-59977341D01*
X137246342Y-60080012D01*
X137243846Y-60082240D01*
X137179705Y-60112678D01*
X137109291Y-60103607D01*
X137073612Y-60080012D01*
X136998122Y-60008998D01*
X136994714Y-60005792D01*
X136780937Y-59857489D01*
X136776747Y-59855423D01*
X136776744Y-59855421D01*
X136551775Y-59744479D01*
X136551772Y-59744478D01*
X136547587Y-59742414D01*
X136299792Y-59663094D01*
X136159569Y-59640257D01*
X136047606Y-59622023D01*
X136047605Y-59622023D01*
X136042994Y-59621272D01*
X135912914Y-59619569D01*
X135787512Y-59617927D01*
X135787509Y-59617927D01*
X135782835Y-59617866D01*
X135525030Y-59652952D01*
X135275243Y-59725758D01*
X135270990Y-59727718D01*
X135270989Y-59727719D01*
X135234634Y-59744479D01*
X135038961Y-59834686D01*
X135035056Y-59837246D01*
X135035051Y-59837249D01*
X134825288Y-59974775D01*
X134825283Y-59974779D01*
X134821375Y-59977341D01*
X134706342Y-60080012D01*
X134703846Y-60082240D01*
X134639705Y-60112678D01*
X134569291Y-60103607D01*
X134533612Y-60080012D01*
X134458122Y-60008998D01*
X134454714Y-60005792D01*
X134240937Y-59857489D01*
X134236747Y-59855423D01*
X134236744Y-59855421D01*
X134011775Y-59744479D01*
X134011772Y-59744478D01*
X134007587Y-59742414D01*
X133759792Y-59663094D01*
X133619569Y-59640257D01*
X133507606Y-59622023D01*
X133507605Y-59622023D01*
X133502994Y-59621272D01*
X133372914Y-59619569D01*
X133247512Y-59617927D01*
X133247509Y-59617927D01*
X133242835Y-59617866D01*
X132985030Y-59652952D01*
X132735243Y-59725758D01*
X132730990Y-59727718D01*
X132730989Y-59727719D01*
X132694634Y-59744479D01*
X132498961Y-59834686D01*
X132495056Y-59837246D01*
X132495051Y-59837249D01*
X132285288Y-59974775D01*
X132285283Y-59974779D01*
X132281375Y-59977341D01*
X132166342Y-60080012D01*
X132163846Y-60082240D01*
X132099705Y-60112678D01*
X132029291Y-60103607D01*
X131993612Y-60080012D01*
X131918122Y-60008998D01*
X131914714Y-60005792D01*
X131700937Y-59857489D01*
X131696747Y-59855423D01*
X131696744Y-59855421D01*
X131471775Y-59744479D01*
X131471772Y-59744478D01*
X131467587Y-59742414D01*
X131219792Y-59663094D01*
X131079569Y-59640257D01*
X130967606Y-59622023D01*
X130967605Y-59622023D01*
X130962994Y-59621272D01*
X130832914Y-59619569D01*
X130707512Y-59617927D01*
X130707509Y-59617927D01*
X130702835Y-59617866D01*
X130445030Y-59652952D01*
X130195243Y-59725758D01*
X130190990Y-59727718D01*
X130190989Y-59727719D01*
X130154634Y-59744479D01*
X129958961Y-59834686D01*
X129955056Y-59837246D01*
X129955051Y-59837249D01*
X129745288Y-59974775D01*
X129745283Y-59974779D01*
X129741375Y-59977341D01*
X129626342Y-60080012D01*
X129623846Y-60082240D01*
X129559705Y-60112678D01*
X129489291Y-60103607D01*
X129453612Y-60080012D01*
X129378122Y-60008998D01*
X129374714Y-60005792D01*
X129160937Y-59857489D01*
X129156747Y-59855423D01*
X129156744Y-59855421D01*
X128931775Y-59744479D01*
X128931772Y-59744478D01*
X128927587Y-59742414D01*
X128679792Y-59663094D01*
X128539569Y-59640257D01*
X128427606Y-59622023D01*
X128427605Y-59622023D01*
X128422994Y-59621272D01*
X128292914Y-59619569D01*
X128167512Y-59617927D01*
X128167509Y-59617927D01*
X128162835Y-59617866D01*
X127905030Y-59652952D01*
X127655243Y-59725758D01*
X127650990Y-59727718D01*
X127650989Y-59727719D01*
X127614634Y-59744479D01*
X127418961Y-59834686D01*
X127415056Y-59837246D01*
X127415051Y-59837249D01*
X127205288Y-59974775D01*
X127205283Y-59974779D01*
X127201375Y-59977341D01*
X127086342Y-60080012D01*
X127083846Y-60082240D01*
X127019705Y-60112678D01*
X126949291Y-60103607D01*
X126913612Y-60080012D01*
X126838122Y-60008998D01*
X126834714Y-60005792D01*
X126620937Y-59857489D01*
X126616747Y-59855423D01*
X126616744Y-59855421D01*
X126391775Y-59744479D01*
X126391772Y-59744478D01*
X126387587Y-59742414D01*
X126139792Y-59663094D01*
X125999569Y-59640257D01*
X125887606Y-59622023D01*
X125887605Y-59622023D01*
X125882994Y-59621272D01*
X125752914Y-59619569D01*
X125627512Y-59617927D01*
X125627509Y-59617927D01*
X125622835Y-59617866D01*
X125365030Y-59652952D01*
X125115243Y-59725758D01*
X125110990Y-59727718D01*
X125110989Y-59727719D01*
X125074634Y-59744479D01*
X124878961Y-59834686D01*
X124875056Y-59837246D01*
X124875051Y-59837249D01*
X124665288Y-59974775D01*
X124665283Y-59974779D01*
X124661375Y-59977341D01*
X124546342Y-60080012D01*
X124543846Y-60082240D01*
X124479705Y-60112678D01*
X124409291Y-60103607D01*
X124373612Y-60080012D01*
X124298122Y-60008998D01*
X124294714Y-60005792D01*
X124080937Y-59857489D01*
X124076747Y-59855423D01*
X124076744Y-59855421D01*
X123851775Y-59744479D01*
X123851772Y-59744478D01*
X123847587Y-59742414D01*
X123599792Y-59663094D01*
X123459569Y-59640257D01*
X123347606Y-59622023D01*
X123347605Y-59622023D01*
X123342994Y-59621272D01*
X123212914Y-59619569D01*
X123087512Y-59617927D01*
X123087509Y-59617927D01*
X123082835Y-59617866D01*
X122825030Y-59652952D01*
X122575243Y-59725758D01*
X122570990Y-59727718D01*
X122570989Y-59727719D01*
X122534634Y-59744479D01*
X122338961Y-59834686D01*
X122335056Y-59837246D01*
X122335051Y-59837249D01*
X122125288Y-59974775D01*
X122125283Y-59974779D01*
X122121375Y-59977341D01*
X122006342Y-60080012D01*
X122003846Y-60082240D01*
X121939705Y-60112678D01*
X121869291Y-60103607D01*
X121833612Y-60080012D01*
X121758122Y-60008998D01*
X121754714Y-60005792D01*
X121540937Y-59857489D01*
X121536747Y-59855423D01*
X121536744Y-59855421D01*
X121311775Y-59744479D01*
X121311772Y-59744478D01*
X121307587Y-59742414D01*
X121059792Y-59663094D01*
X120919569Y-59640257D01*
X120807606Y-59622023D01*
X120807605Y-59622023D01*
X120802994Y-59621272D01*
X120672914Y-59619569D01*
X120547512Y-59617927D01*
X120547509Y-59617927D01*
X120542835Y-59617866D01*
X120285030Y-59652952D01*
X120035243Y-59725758D01*
X120030990Y-59727718D01*
X120030989Y-59727719D01*
X119994634Y-59744479D01*
X119798961Y-59834686D01*
X119795056Y-59837246D01*
X119795051Y-59837249D01*
X119585288Y-59974775D01*
X119585283Y-59974779D01*
X119581375Y-59977341D01*
X119466342Y-60080012D01*
X119463846Y-60082240D01*
X119399705Y-60112678D01*
X119329291Y-60103607D01*
X119293612Y-60080012D01*
X119218122Y-60008998D01*
X119214714Y-60005792D01*
X119000937Y-59857489D01*
X118996747Y-59855423D01*
X118996744Y-59855421D01*
X118771775Y-59744479D01*
X118771772Y-59744478D01*
X118767587Y-59742414D01*
X118519792Y-59663094D01*
X118379569Y-59640257D01*
X118267606Y-59622023D01*
X118267605Y-59622023D01*
X118262994Y-59621272D01*
X118132914Y-59619569D01*
X118007512Y-59617927D01*
X118007509Y-59617927D01*
X118002835Y-59617866D01*
X117745030Y-59652952D01*
X117495243Y-59725758D01*
X117490990Y-59727718D01*
X117490989Y-59727719D01*
X117454634Y-59744479D01*
X117258961Y-59834686D01*
X117255056Y-59837246D01*
X117255051Y-59837249D01*
X117045288Y-59974775D01*
X117045283Y-59974779D01*
X117041375Y-59977341D01*
X116926342Y-60080012D01*
X116923846Y-60082240D01*
X116859705Y-60112678D01*
X116789291Y-60103607D01*
X116753612Y-60080012D01*
X116678122Y-60008998D01*
X116674714Y-60005792D01*
X116460937Y-59857489D01*
X116456747Y-59855423D01*
X116456744Y-59855421D01*
X116231775Y-59744479D01*
X116231772Y-59744478D01*
X116227587Y-59742414D01*
X115979792Y-59663094D01*
X115839569Y-59640257D01*
X115727606Y-59622023D01*
X115727605Y-59622023D01*
X115722994Y-59621272D01*
X115592914Y-59619569D01*
X115467512Y-59617927D01*
X115467509Y-59617927D01*
X115462835Y-59617866D01*
X115205030Y-59652952D01*
X114955243Y-59725758D01*
X114950990Y-59727718D01*
X114950989Y-59727719D01*
X114914634Y-59744479D01*
X114718961Y-59834686D01*
X114715056Y-59837246D01*
X114715051Y-59837249D01*
X114505288Y-59974775D01*
X114505283Y-59974779D01*
X114501375Y-59977341D01*
X114307265Y-60150591D01*
X114140895Y-60350629D01*
X114005920Y-60573061D01*
X114004111Y-60577375D01*
X114004110Y-60577377D01*
X113917460Y-60784015D01*
X113905305Y-60813001D01*
X113904154Y-60817533D01*
X113904153Y-60817536D01*
X113894942Y-60853806D01*
X113841261Y-61065177D01*
X113819500Y-61281286D01*
X113819500Y-62436044D01*
X112240500Y-62436044D01*
X112240500Y-61303956D01*
X112239050Y-61284440D01*
X112226472Y-61115186D01*
X112226471Y-61115182D01*
X112226126Y-61110534D01*
X112168705Y-60856768D01*
X112167012Y-60852414D01*
X112076098Y-60618630D01*
X112076097Y-60618628D01*
X112074405Y-60614277D01*
X111945299Y-60388388D01*
X111784223Y-60184064D01*
X111594714Y-60005792D01*
X111380937Y-59857489D01*
X111376747Y-59855423D01*
X111376744Y-59855421D01*
X111151775Y-59744479D01*
X111151772Y-59744478D01*
X111147587Y-59742414D01*
X110899792Y-59663094D01*
X110759569Y-59640257D01*
X110647606Y-59622023D01*
X110647605Y-59622023D01*
X110642994Y-59621272D01*
X110512914Y-59619569D01*
X110387512Y-59617927D01*
X110387509Y-59617927D01*
X110382835Y-59617866D01*
X110125030Y-59652952D01*
X109875243Y-59725758D01*
X109870990Y-59727718D01*
X109870989Y-59727719D01*
X109834634Y-59744479D01*
X109638961Y-59834686D01*
X109635056Y-59837246D01*
X109635051Y-59837249D01*
X109425288Y-59974775D01*
X109425283Y-59974779D01*
X109421375Y-59977341D01*
X109227265Y-60150591D01*
X109060895Y-60350629D01*
X108925920Y-60573061D01*
X108924111Y-60577375D01*
X108924110Y-60577377D01*
X108837460Y-60784015D01*
X108825305Y-60813001D01*
X108824154Y-60817533D01*
X108824153Y-60817536D01*
X108814942Y-60853806D01*
X108761261Y-61065177D01*
X108739500Y-61281286D01*
X108739500Y-62436044D01*
X101600000Y-62436044D01*
X101600000Y-56797995D01*
X101620002Y-56729874D01*
X101673658Y-56683381D01*
X101743932Y-56673277D01*
X101800061Y-56696059D01*
X101888641Y-56760416D01*
X101947407Y-56792723D01*
X102108944Y-56881529D01*
X102164359Y-56911994D01*
X102260589Y-56950094D01*
X102453217Y-57026361D01*
X102453220Y-57026362D01*
X102456900Y-57027819D01*
X102460734Y-57028803D01*
X102460742Y-57028806D01*
X102649199Y-57077193D01*
X102761652Y-57106066D01*
X102765580Y-57106562D01*
X102765584Y-57106563D01*
X102889500Y-57122217D01*
X103073807Y-57145500D01*
X103388443Y-57145500D01*
X103572750Y-57122217D01*
X103696666Y-57106563D01*
X103696670Y-57106562D01*
X103700598Y-57106066D01*
X103813051Y-57077193D01*
X104001508Y-57028806D01*
X104001516Y-57028803D01*
X104005350Y-57027819D01*
X104009030Y-57026362D01*
X104009033Y-57026361D01*
X104201661Y-56950094D01*
X104297891Y-56911994D01*
X104353307Y-56881529D01*
X104514843Y-56792723D01*
X104573609Y-56760416D01*
X104576813Y-56758088D01*
X104576818Y-56758085D01*
X104824951Y-56577806D01*
X104824953Y-56577805D01*
X104828155Y-56575478D01*
X105057515Y-56360094D01*
X105100878Y-56307678D01*
X105255547Y-56120715D01*
X105258072Y-56117663D01*
X105426662Y-55852007D01*
X105428346Y-55848428D01*
X105428350Y-55848421D01*
X105558939Y-55570905D01*
X105558941Y-55570901D01*
X105560628Y-55567315D01*
X105657856Y-55268079D01*
X105716813Y-54959015D01*
X105736569Y-54645000D01*
X105716813Y-54330985D01*
X105657856Y-54021921D01*
X105560628Y-53722685D01*
X105552331Y-53705053D01*
X105428350Y-53441579D01*
X105428346Y-53441572D01*
X105426662Y-53437993D01*
X105277857Y-53203513D01*
X105258244Y-53135280D01*
X105278635Y-53067275D01*
X105332555Y-53021089D01*
X105384242Y-53010000D01*
X109573071Y-53010000D01*
X109641192Y-53030002D01*
G37*
%TD.AperFunction*%
%TA.AperFunction,Conductor*%
G36*
X173269718Y-85847513D02*
G01*
X173317161Y-85900330D01*
X173329500Y-85954710D01*
X173329500Y-86802729D01*
X173309498Y-86870850D01*
X173292595Y-86891824D01*
X172826824Y-87357595D01*
X172764512Y-87391621D01*
X172737729Y-87394500D01*
X171256500Y-87394500D01*
X171188379Y-87374498D01*
X171141886Y-87320842D01*
X171130500Y-87268500D01*
X171130500Y-86192312D01*
X171150502Y-86124191D01*
X171204158Y-86077698D01*
X171274432Y-86067594D01*
X171305630Y-86076285D01*
X171372962Y-86104796D01*
X171377255Y-86105934D01*
X171377260Y-86105936D01*
X171517009Y-86142989D01*
X171640640Y-86175769D01*
X171915648Y-86208319D01*
X172192499Y-86201794D01*
X172196897Y-86201062D01*
X172461278Y-86157057D01*
X172461282Y-86157056D01*
X172465668Y-86156326D01*
X172469909Y-86154985D01*
X172469912Y-86154984D01*
X172725460Y-86074165D01*
X172725462Y-86074164D01*
X172729706Y-86072822D01*
X172733717Y-86070896D01*
X172733722Y-86070894D01*
X172975325Y-85954878D01*
X172975326Y-85954877D01*
X172979344Y-85952948D01*
X173133499Y-85849945D01*
X173201251Y-85828730D01*
X173269718Y-85847513D01*
G37*
%TD.AperFunction*%
%TA.AperFunction,Conductor*%
G36*
X179831297Y-75042136D02*
G01*
X179866561Y-75103756D01*
X179870000Y-75132995D01*
X179870000Y-83499367D01*
X179849998Y-83567488D01*
X179796342Y-83613981D01*
X179726068Y-83624085D01*
X179669939Y-83601303D01*
X179575398Y-83532615D01*
X179575393Y-83532612D01*
X179572189Y-83530284D01*
X179322075Y-83392782D01*
X179299933Y-83380609D01*
X179299930Y-83380607D01*
X179296471Y-83378706D01*
X179137068Y-83315594D01*
X179007613Y-83264339D01*
X179007610Y-83264338D01*
X179003930Y-83262881D01*
X179000096Y-83261897D01*
X179000088Y-83261894D01*
X178811631Y-83213507D01*
X178699178Y-83184634D01*
X178695250Y-83184138D01*
X178695246Y-83184137D01*
X178571330Y-83168483D01*
X178387023Y-83145200D01*
X178072387Y-83145200D01*
X177888080Y-83168483D01*
X177764164Y-83184137D01*
X177764160Y-83184138D01*
X177760232Y-83184634D01*
X177647779Y-83213507D01*
X177459322Y-83261894D01*
X177459314Y-83261897D01*
X177455480Y-83262881D01*
X177451800Y-83264338D01*
X177451797Y-83264339D01*
X177322342Y-83315594D01*
X177162939Y-83378706D01*
X177159476Y-83380610D01*
X177159465Y-83380615D01*
X177017201Y-83458826D01*
X176947871Y-83474116D01*
X176881280Y-83449496D01*
X176838571Y-83392782D01*
X176830500Y-83348412D01*
X176830500Y-82792160D01*
X176850502Y-82724039D01*
X176867404Y-82703065D01*
X177393063Y-82177405D01*
X177455376Y-82143380D01*
X177482159Y-82140500D01*
X177612704Y-82140500D01*
X177615491Y-82140251D01*
X177615497Y-82140251D01*
X177701343Y-82132589D01*
X177732975Y-82129766D01*
X177928358Y-82073741D01*
X178108484Y-81979573D01*
X178142241Y-81952042D01*
X178261057Y-81855138D01*
X178265997Y-81851109D01*
X178384721Y-81705539D01*
X178390429Y-81698540D01*
X178390430Y-81698539D01*
X178394461Y-81693596D01*
X178403958Y-81675431D01*
X178420554Y-81643684D01*
X178488629Y-81513470D01*
X178544654Y-81318087D01*
X178553948Y-81213948D01*
X178555139Y-81200609D01*
X178555139Y-81200603D01*
X178555388Y-81197816D01*
X178555388Y-79482184D01*
X178554767Y-79475219D01*
X178545187Y-79367886D01*
X178544654Y-79361913D01*
X178488629Y-79166530D01*
X178415338Y-79026338D01*
X178397417Y-78992058D01*
X178397416Y-78992057D01*
X178394461Y-78986404D01*
X178381900Y-78971002D01*
X178270026Y-78833831D01*
X178265997Y-78828891D01*
X178254579Y-78819579D01*
X178113428Y-78704459D01*
X178113427Y-78704458D01*
X178108484Y-78700427D01*
X177928358Y-78606259D01*
X177732975Y-78550234D01*
X177701343Y-78547411D01*
X177615497Y-78539749D01*
X177615491Y-78539749D01*
X177612704Y-78539500D01*
X175897072Y-78539500D01*
X175894285Y-78539749D01*
X175894279Y-78539749D01*
X175808433Y-78547411D01*
X175776801Y-78550234D01*
X175752382Y-78557236D01*
X175681389Y-78556786D01*
X175621908Y-78518024D01*
X175592824Y-78453258D01*
X175603373Y-78383049D01*
X175628558Y-78347022D01*
X178768175Y-75207405D01*
X178830487Y-75173379D01*
X178857270Y-75170500D01*
X178987318Y-75170500D01*
X179216040Y-75141606D01*
X179295541Y-75131563D01*
X179295545Y-75131562D01*
X179299473Y-75131066D01*
X179438301Y-75095421D01*
X179600383Y-75053806D01*
X179600391Y-75053803D01*
X179604225Y-75052819D01*
X179607905Y-75051362D01*
X179607908Y-75051361D01*
X179697616Y-75015843D01*
X179768317Y-75009364D01*
X179831297Y-75042136D01*
G37*
%TD.AperFunction*%
%TD*%
M02*
