%TF.GenerationSoftware,KiCad,Pcbnew,(6.0.0)*%
%TF.CreationDate,2022-02-01T13:32:59+07:00*%
%TF.ProjectId,egg_pro_mini,6567675f-7072-46f5-9f6d-696e692e6b69,rev?*%
%TF.SameCoordinates,Original*%
%TF.FileFunction,Soldermask,Bot*%
%TF.FilePolarity,Negative*%
%FSLAX46Y46*%
G04 Gerber Fmt 4.6, Leading zero omitted, Abs format (unit mm)*
G04 Created by KiCad (PCBNEW (6.0.0)) date 2022-02-01 13:32:59*
%MOMM*%
%LPD*%
G01*
G04 APERTURE LIST*
G04 Aperture macros list*
%AMRoundRect*
0 Rectangle with rounded corners*
0 $1 Rounding radius*
0 $2 $3 $4 $5 $6 $7 $8 $9 X,Y pos of 4 corners*
0 Add a 4 corners polygon primitive as box body*
4,1,4,$2,$3,$4,$5,$6,$7,$8,$9,$2,$3,0*
0 Add four circle primitives for the rounded corners*
1,1,$1+$1,$2,$3*
1,1,$1+$1,$4,$5*
1,1,$1+$1,$6,$7*
1,1,$1+$1,$8,$9*
0 Add four rect primitives between the rounded corners*
20,1,$1+$1,$2,$3,$4,$5,0*
20,1,$1+$1,$4,$5,$6,$7,0*
20,1,$1+$1,$6,$7,$8,$9,0*
20,1,$1+$1,$8,$9,$2,$3,0*%
G04 Aperture macros list end*
%ADD10C,1.400000*%
%ADD11O,1.400000X1.400000*%
%ADD12C,2.000000*%
%ADD13O,2.000000X2.000000*%
%ADD14O,1.500000X2.500000*%
%ADD15O,2.500000X1.500000*%
%ADD16R,1.910000X1.910000*%
%ADD17C,1.910000*%
%ADD18C,3.000000*%
%ADD19R,1.800000X2.600000*%
%ADD20O,1.800000X2.600000*%
%ADD21R,3.500000X3.500000*%
%ADD22RoundRect,0.750000X0.750000X1.000000X-0.750000X1.000000X-0.750000X-1.000000X0.750000X-1.000000X0*%
%ADD23RoundRect,0.875000X0.875000X0.875000X-0.875000X0.875000X-0.875000X-0.875000X0.875000X-0.875000X0*%
%ADD24R,1.500000X1.500000*%
%ADD25C,1.500000*%
%ADD26C,2.100000*%
%ADD27R,2.200000X2.200000*%
%ADD28O,2.200000X2.200000*%
%ADD29R,1.600000X1.600000*%
%ADD30O,1.600000X1.600000*%
%ADD31C,1.600000*%
G04 APERTURE END LIST*
D10*
%TO.C,R2*%
X160900000Y-83910000D03*
D11*
X160900000Y-76290000D03*
%TD*%
D12*
%TO.C,SW3*%
X127320000Y-95010000D03*
X133820000Y-95010000D03*
X127320000Y-90510000D03*
X133820000Y-90510000D03*
%TD*%
%TO.C,R3*%
X139180000Y-91250000D03*
D13*
X146800000Y-91250000D03*
%TD*%
D14*
%TO.C,U2*%
X138430000Y-61870000D03*
X135890000Y-61870000D03*
X133350000Y-61870000D03*
X130810000Y-61870000D03*
X128270000Y-61870000D03*
X125730000Y-61870000D03*
X123190000Y-61870000D03*
X120650000Y-61870000D03*
X118110000Y-61870000D03*
X115570000Y-61870000D03*
X113030000Y-61870000D03*
X110490000Y-61870000D03*
X110490000Y-77110000D03*
X113030000Y-77110000D03*
X115570000Y-77110000D03*
X118110000Y-77110000D03*
X120650000Y-77110000D03*
X123190000Y-77110000D03*
X125730000Y-77110000D03*
X128270000Y-77110000D03*
X130810000Y-77110000D03*
X133350000Y-77110000D03*
X135890000Y-77110000D03*
X138430000Y-77110000D03*
D15*
X138430000Y-73300000D03*
X138430000Y-70760000D03*
X138430000Y-68220000D03*
X138430000Y-65680000D03*
%TD*%
D16*
%TO.C,U3*%
X172008000Y-89350000D03*
D17*
X172008000Y-86800000D03*
X172008000Y-84250000D03*
%TD*%
D18*
%TO.C,DS1*%
X103231125Y-85645700D03*
X178229705Y-85645700D03*
X178230225Y-54645000D03*
X103231125Y-54645000D03*
D19*
X108730225Y-54645000D03*
D20*
X111270225Y-54645000D03*
X113810225Y-54645000D03*
X116350225Y-54645000D03*
X118890225Y-54645000D03*
X121430225Y-54645000D03*
X123970225Y-54645000D03*
X126510225Y-54645000D03*
X129050225Y-54645000D03*
X131590225Y-54645000D03*
X134130225Y-54645000D03*
X136670225Y-54645000D03*
X139210225Y-54645000D03*
X141750225Y-54645000D03*
X144290225Y-54645000D03*
X146830225Y-54645000D03*
%TD*%
D21*
%TO.C,J3*%
X172900000Y-96467500D03*
D22*
X178900000Y-96467500D03*
D23*
X175900000Y-91767500D03*
%TD*%
D24*
%TO.C,Q1*%
X152110000Y-80450000D03*
D25*
X154650000Y-77910000D03*
X157190000Y-80450000D03*
%TD*%
D10*
%TO.C,R1*%
X140330000Y-80830000D03*
D11*
X147950000Y-80830000D03*
%TD*%
D26*
%TO.C,J2*%
X155370000Y-97970000D03*
X160370000Y-97970000D03*
X165370000Y-97970000D03*
%TD*%
D27*
%TO.C,D1*%
X152640000Y-91930000D03*
D28*
X162800000Y-91930000D03*
%TD*%
D29*
%TO.C,U1*%
X150600000Y-85075000D03*
D30*
X150600000Y-87615000D03*
X158220000Y-87615000D03*
X158220000Y-85075000D03*
%TD*%
D26*
%TO.C,J1*%
X138060000Y-97620000D03*
X143060000Y-97620000D03*
X148060000Y-97620000D03*
%TD*%
D12*
%TO.C,SW1*%
X115030000Y-94990000D03*
X108530000Y-94990000D03*
X115030000Y-90490000D03*
X108530000Y-90490000D03*
%TD*%
%TO.C,SW2*%
X117900000Y-95000000D03*
X124400000Y-95000000D03*
X124400000Y-90500000D03*
X117900000Y-90500000D03*
%TD*%
D18*
%TO.C,K1*%
X172830000Y-58470000D03*
X166830000Y-72670000D03*
X178830000Y-72670000D03*
X178830000Y-60470000D03*
X166830000Y-60470000D03*
%TD*%
D29*
%TO.C,C3*%
X149364888Y-71380000D03*
D31*
X151864888Y-71380000D03*
%TD*%
D29*
%TO.C,C1*%
X176754888Y-80340000D03*
D31*
X179254888Y-80340000D03*
%TD*%
M02*
