%TF.GenerationSoftware,KiCad,Pcbnew,(6.0.0)*%
%TF.CreationDate,2022-02-01T13:32:59+07:00*%
%TF.ProjectId,egg_pro_mini,6567675f-7072-46f5-9f6d-696e692e6b69,rev?*%
%TF.SameCoordinates,Original*%
%TF.FileFunction,Legend,Bot*%
%TF.FilePolarity,Positive*%
%FSLAX46Y46*%
G04 Gerber Fmt 4.6, Leading zero omitted, Abs format (unit mm)*
G04 Created by KiCad (PCBNEW (6.0.0)) date 2022-02-01 13:32:59*
%MOMM*%
%LPD*%
G01*
G04 APERTURE LIST*
%ADD10C,0.150000*%
%ADD11C,0.120000*%
G04 APERTURE END LIST*
D10*
%TO.C,K1*%
X169362380Y-67741904D02*
X168362380Y-67741904D01*
X169362380Y-68313333D02*
X168790952Y-67884761D01*
X168362380Y-68313333D02*
X168933809Y-67741904D01*
X169362380Y-69265714D02*
X169362380Y-68694285D01*
X169362380Y-68980000D02*
X168362380Y-68980000D01*
X168505238Y-68884761D01*
X168600476Y-68789523D01*
X168648095Y-68694285D01*
%TO.C,C3*%
X150781554Y-75487142D02*
X150829173Y-75534761D01*
X150972030Y-75582380D01*
X151067268Y-75582380D01*
X151210126Y-75534761D01*
X151305364Y-75439523D01*
X151352983Y-75344285D01*
X151400602Y-75153809D01*
X151400602Y-75010952D01*
X151352983Y-74820476D01*
X151305364Y-74725238D01*
X151210126Y-74630000D01*
X151067268Y-74582380D01*
X150972030Y-74582380D01*
X150829173Y-74630000D01*
X150781554Y-74677619D01*
X150448221Y-74582380D02*
X149829173Y-74582380D01*
X150162507Y-74963333D01*
X150019649Y-74963333D01*
X149924411Y-75010952D01*
X149876792Y-75058571D01*
X149829173Y-75153809D01*
X149829173Y-75391904D01*
X149876792Y-75487142D01*
X149924411Y-75534761D01*
X150019649Y-75582380D01*
X150305364Y-75582380D01*
X150400602Y-75534761D01*
X150448221Y-75487142D01*
%TO.C,C1*%
X178171554Y-84447142D02*
X178219173Y-84494761D01*
X178362030Y-84542380D01*
X178457268Y-84542380D01*
X178600126Y-84494761D01*
X178695364Y-84399523D01*
X178742983Y-84304285D01*
X178790602Y-84113809D01*
X178790602Y-83970952D01*
X178742983Y-83780476D01*
X178695364Y-83685238D01*
X178600126Y-83590000D01*
X178457268Y-83542380D01*
X178362030Y-83542380D01*
X178219173Y-83590000D01*
X178171554Y-83637619D01*
X177219173Y-84542380D02*
X177790602Y-84542380D01*
X177504888Y-84542380D02*
X177504888Y-83542380D01*
X177600126Y-83685238D01*
X177695364Y-83780476D01*
X177790602Y-83828095D01*
D11*
%TO.C,K1*%
X178830000Y-62170000D02*
X178830000Y-64470000D01*
X180530000Y-76170000D02*
X180530000Y-56970000D01*
X172830000Y-67970000D02*
X172830000Y-69470000D01*
X174330000Y-64470000D02*
X178830000Y-64470000D01*
X171330000Y-61970000D02*
X171330000Y-66970000D01*
X165130000Y-56970000D02*
X171630000Y-56970000D01*
X172830000Y-61070000D02*
X176530000Y-61070000D01*
X172830000Y-67970000D02*
X176530000Y-67970000D01*
X165130000Y-76170000D02*
X180530000Y-76170000D01*
X166830000Y-64470000D02*
X171330000Y-64470000D01*
X176530000Y-67970000D02*
X176530000Y-61070000D01*
X174330000Y-66970000D02*
X171330000Y-61970000D01*
X165130000Y-56970000D02*
X165130000Y-76170000D01*
X168530000Y-72670000D02*
X170830000Y-72670000D01*
X166830000Y-64470000D02*
X166830000Y-62170000D01*
X172830000Y-69470000D02*
X170130000Y-73970000D01*
X174030000Y-56970000D02*
X180530000Y-56970000D01*
X174330000Y-61970000D02*
X171330000Y-61970000D01*
X177130000Y-72670000D02*
X174830000Y-72670000D01*
X171330000Y-66970000D02*
X174330000Y-66970000D01*
X172830000Y-61070000D02*
X172830000Y-60170000D01*
X174330000Y-66970000D02*
X174330000Y-61970000D01*
%TO.C,C3*%
X151775888Y-73690000D02*
X151775888Y-72420000D01*
X152895888Y-70340000D02*
X152895888Y-70129000D01*
X150854888Y-73949000D02*
X150854888Y-72420000D01*
X152335888Y-73317000D02*
X152335888Y-72420000D01*
X151495888Y-70340000D02*
X151495888Y-68952000D01*
X153095888Y-72185000D02*
X153095888Y-70575000D01*
X151335888Y-70340000D02*
X151335888Y-68900000D01*
X152335888Y-70340000D02*
X152335888Y-69443000D01*
X151335888Y-73860000D02*
X151335888Y-72420000D01*
X152775888Y-70340000D02*
X152775888Y-69937000D01*
X151655888Y-70340000D02*
X151655888Y-69015000D01*
X152295888Y-73351000D02*
X152295888Y-72420000D01*
X151054888Y-73923000D02*
X151054888Y-72420000D01*
X151975888Y-70340000D02*
X151975888Y-69180000D01*
X152735888Y-70340000D02*
X152735888Y-69880000D01*
X153135888Y-72057000D02*
X153135888Y-70703000D01*
X148060113Y-73105000D02*
X148060113Y-72605000D01*
X152495888Y-70340000D02*
X152495888Y-69595000D01*
X152175888Y-70340000D02*
X152175888Y-69315000D01*
X150694888Y-73959000D02*
X150694888Y-68801000D01*
X152615888Y-70340000D02*
X152615888Y-69727000D01*
X151975888Y-73580000D02*
X151975888Y-72420000D01*
X152455888Y-70340000D02*
X152455888Y-69554000D01*
X152655888Y-72985000D02*
X152655888Y-72420000D01*
X153175888Y-71898000D02*
X153175888Y-70862000D01*
X151134888Y-73908000D02*
X151134888Y-72420000D01*
X152735888Y-72880000D02*
X152735888Y-72420000D01*
X152615888Y-73033000D02*
X152615888Y-72420000D01*
X151014888Y-73930000D02*
X151014888Y-72420000D01*
X151775888Y-70340000D02*
X151775888Y-69070000D01*
X151615888Y-73762000D02*
X151615888Y-72420000D01*
X151214888Y-70340000D02*
X151214888Y-68869000D01*
X152055888Y-73529000D02*
X152055888Y-72420000D01*
X152095888Y-73502000D02*
X152095888Y-72420000D01*
X151935888Y-70340000D02*
X151935888Y-69156000D01*
X151735888Y-70340000D02*
X151735888Y-69051000D01*
X152855888Y-72699000D02*
X152855888Y-72420000D01*
X152095888Y-70340000D02*
X152095888Y-69258000D01*
X152255888Y-73384000D02*
X152255888Y-72420000D01*
X152295888Y-70340000D02*
X152295888Y-69409000D01*
X152135888Y-70340000D02*
X152135888Y-69285000D01*
X152695888Y-70340000D02*
X152695888Y-69826000D01*
X151294888Y-73871000D02*
X151294888Y-72420000D01*
X152575888Y-70340000D02*
X152575888Y-69681000D01*
X152895888Y-72631000D02*
X152895888Y-72420000D01*
X152055888Y-70340000D02*
X152055888Y-69231000D01*
X152575888Y-73079000D02*
X152575888Y-72420000D01*
X151615888Y-70340000D02*
X151615888Y-68998000D01*
X152935888Y-72558000D02*
X152935888Y-70202000D01*
X153055888Y-72295000D02*
X153055888Y-70465000D01*
X151575888Y-73778000D02*
X151575888Y-72420000D01*
X151455888Y-70340000D02*
X151455888Y-68938000D01*
X151655888Y-73745000D02*
X151655888Y-72420000D01*
X150974888Y-73936000D02*
X150974888Y-72420000D01*
X150654888Y-73960000D02*
X150654888Y-68800000D01*
X150934888Y-70340000D02*
X150934888Y-68819000D01*
X151455888Y-73822000D02*
X151455888Y-72420000D01*
X151855888Y-73648000D02*
X151855888Y-72420000D01*
X152655888Y-70340000D02*
X152655888Y-69775000D01*
X151695888Y-70340000D02*
X151695888Y-69032000D01*
X150814888Y-73953000D02*
X150814888Y-68807000D01*
X150774888Y-73956000D02*
X150774888Y-68804000D01*
X150854888Y-70340000D02*
X150854888Y-68811000D01*
X152535888Y-73123000D02*
X152535888Y-72420000D01*
X152535888Y-70340000D02*
X152535888Y-69637000D01*
X151254888Y-73881000D02*
X151254888Y-72420000D01*
X151535888Y-73794000D02*
X151535888Y-72420000D01*
X152135888Y-73475000D02*
X152135888Y-72420000D01*
X151895888Y-73627000D02*
X151895888Y-72420000D01*
X152415888Y-73244000D02*
X152415888Y-72420000D01*
X151895888Y-70340000D02*
X151895888Y-69133000D01*
X151535888Y-70340000D02*
X151535888Y-68966000D01*
X147810113Y-72855000D02*
X148310113Y-72855000D01*
X152415888Y-70340000D02*
X152415888Y-69516000D01*
X152175888Y-73445000D02*
X152175888Y-72420000D01*
X152495888Y-73165000D02*
X152495888Y-72420000D01*
X152375888Y-73281000D02*
X152375888Y-72420000D01*
X150734888Y-73958000D02*
X150734888Y-68802000D01*
X151575888Y-70340000D02*
X151575888Y-68982000D01*
X151695888Y-73728000D02*
X151695888Y-72420000D01*
X151815888Y-70340000D02*
X151815888Y-69090000D01*
X150894888Y-70340000D02*
X150894888Y-68815000D01*
X151935888Y-73604000D02*
X151935888Y-72420000D01*
X151815888Y-73670000D02*
X151815888Y-72420000D01*
X152215888Y-73415000D02*
X152215888Y-72420000D01*
X151375888Y-73848000D02*
X151375888Y-72420000D01*
X152975888Y-72478000D02*
X152975888Y-70282000D01*
X152775888Y-72823000D02*
X152775888Y-72420000D01*
X152375888Y-70340000D02*
X152375888Y-69479000D01*
X151054888Y-70340000D02*
X151054888Y-68837000D01*
X153215888Y-71664000D02*
X153215888Y-71096000D01*
X152855888Y-70340000D02*
X152855888Y-70061000D01*
X152455888Y-73206000D02*
X152455888Y-72420000D01*
X151174888Y-70340000D02*
X151174888Y-68860000D01*
X151094888Y-70340000D02*
X151094888Y-68844000D01*
X151415888Y-73835000D02*
X151415888Y-72420000D01*
X151495888Y-73808000D02*
X151495888Y-72420000D01*
X151735888Y-73709000D02*
X151735888Y-72420000D01*
X151174888Y-73900000D02*
X151174888Y-72420000D01*
X151014888Y-70340000D02*
X151014888Y-68830000D01*
X152015888Y-73555000D02*
X152015888Y-72420000D01*
X150614888Y-73960000D02*
X150614888Y-68800000D01*
X151294888Y-70340000D02*
X151294888Y-68889000D01*
X152015888Y-70340000D02*
X152015888Y-69205000D01*
X153015888Y-72391000D02*
X153015888Y-70369000D01*
X151094888Y-73916000D02*
X151094888Y-72420000D01*
X150934888Y-73941000D02*
X150934888Y-72420000D01*
X151254888Y-70340000D02*
X151254888Y-68879000D01*
X151214888Y-73891000D02*
X151214888Y-72420000D01*
X151855888Y-70340000D02*
X151855888Y-69112000D01*
X151134888Y-70340000D02*
X151134888Y-68852000D01*
X152815888Y-70340000D02*
X152815888Y-69997000D01*
X152695888Y-72934000D02*
X152695888Y-72420000D01*
X152215888Y-70340000D02*
X152215888Y-69345000D01*
X151375888Y-70340000D02*
X151375888Y-68912000D01*
X152255888Y-70340000D02*
X152255888Y-69376000D01*
X150974888Y-70340000D02*
X150974888Y-68824000D01*
X151415888Y-70340000D02*
X151415888Y-68925000D01*
X152815888Y-72763000D02*
X152815888Y-72420000D01*
X150894888Y-73945000D02*
X150894888Y-72420000D01*
X153234888Y-71380000D02*
G75*
G03*
X153234888Y-71380000I-2620000J0D01*
G01*
%TO.C,C1*%
X178725888Y-82820000D02*
X178725888Y-81380000D01*
X179245888Y-82608000D02*
X179245888Y-81380000D01*
X178204888Y-82913000D02*
X178204888Y-77767000D01*
X179845888Y-79300000D02*
X179845888Y-78514000D01*
X178564888Y-79300000D02*
X178564888Y-77820000D01*
X178564888Y-82860000D02*
X178564888Y-81380000D01*
X179965888Y-82039000D02*
X179965888Y-81380000D01*
X178444888Y-82883000D02*
X178444888Y-81380000D01*
X180205888Y-79300000D02*
X180205888Y-78957000D01*
X178044888Y-82920000D02*
X178044888Y-77760000D01*
X180085888Y-79300000D02*
X180085888Y-78786000D01*
X179565888Y-79300000D02*
X179565888Y-78275000D01*
X178124888Y-82918000D02*
X178124888Y-77762000D01*
X180085888Y-81894000D02*
X180085888Y-81380000D01*
X180565888Y-80858000D02*
X180565888Y-79822000D01*
X178524888Y-82868000D02*
X178524888Y-81380000D01*
X179565888Y-82405000D02*
X179565888Y-81380000D01*
X178644888Y-79300000D02*
X178644888Y-77839000D01*
X180005888Y-79300000D02*
X180005888Y-78687000D01*
X178244888Y-82909000D02*
X178244888Y-81380000D01*
X180285888Y-81591000D02*
X180285888Y-81380000D01*
X180525888Y-81017000D02*
X180525888Y-79663000D01*
X179085888Y-82688000D02*
X179085888Y-81380000D01*
X179525888Y-82435000D02*
X179525888Y-81380000D01*
X180245888Y-79300000D02*
X180245888Y-79021000D01*
X175200113Y-81815000D02*
X175700113Y-81815000D01*
X178484888Y-82876000D02*
X178484888Y-81380000D01*
X178244888Y-79300000D02*
X178244888Y-77771000D01*
X178604888Y-82851000D02*
X178604888Y-81380000D01*
X178164888Y-82916000D02*
X178164888Y-77764000D01*
X178684888Y-79300000D02*
X178684888Y-77849000D01*
X178925888Y-79300000D02*
X178925888Y-77926000D01*
X179445888Y-79300000D02*
X179445888Y-78191000D01*
X179725888Y-79300000D02*
X179725888Y-78403000D01*
X178885888Y-82768000D02*
X178885888Y-81380000D01*
X178885888Y-79300000D02*
X178885888Y-77912000D01*
X179485888Y-79300000D02*
X179485888Y-78218000D01*
X178084888Y-82919000D02*
X178084888Y-77761000D01*
X178765888Y-82808000D02*
X178765888Y-81380000D01*
X179765888Y-79300000D02*
X179765888Y-78439000D01*
X179485888Y-82462000D02*
X179485888Y-81380000D01*
X178284888Y-82905000D02*
X178284888Y-81380000D01*
X180605888Y-80624000D02*
X180605888Y-80056000D01*
X179125888Y-82669000D02*
X179125888Y-81380000D01*
X180045888Y-79300000D02*
X180045888Y-78735000D01*
X179605888Y-79300000D02*
X179605888Y-78305000D01*
X178684888Y-82831000D02*
X178684888Y-81380000D01*
X178805888Y-79300000D02*
X178805888Y-77885000D01*
X179405888Y-79300000D02*
X179405888Y-78165000D01*
X179165888Y-82650000D02*
X179165888Y-81380000D01*
X179805888Y-82204000D02*
X179805888Y-81380000D01*
X179325888Y-79300000D02*
X179325888Y-78116000D01*
X180405888Y-81351000D02*
X180405888Y-79329000D01*
X178284888Y-79300000D02*
X178284888Y-77775000D01*
X179005888Y-82722000D02*
X179005888Y-81380000D01*
X179285888Y-79300000D02*
X179285888Y-78093000D01*
X179245888Y-79300000D02*
X179245888Y-78072000D01*
X179925888Y-79300000D02*
X179925888Y-78597000D01*
X180245888Y-81659000D02*
X180245888Y-81380000D01*
X178765888Y-79300000D02*
X178765888Y-77872000D01*
X178004888Y-82920000D02*
X178004888Y-77760000D01*
X179845888Y-82166000D02*
X179845888Y-81380000D01*
X180045888Y-81945000D02*
X180045888Y-81380000D01*
X178364888Y-82896000D02*
X178364888Y-81380000D01*
X178324888Y-82901000D02*
X178324888Y-81380000D01*
X179165888Y-79300000D02*
X179165888Y-78030000D01*
X179325888Y-82564000D02*
X179325888Y-81380000D01*
X178484888Y-79300000D02*
X178484888Y-77804000D01*
X179765888Y-82241000D02*
X179765888Y-81380000D01*
X179045888Y-79300000D02*
X179045888Y-77975000D01*
X179645888Y-79300000D02*
X179645888Y-78336000D01*
X178805888Y-82795000D02*
X178805888Y-81380000D01*
X179125888Y-79300000D02*
X179125888Y-78011000D01*
X179085888Y-79300000D02*
X179085888Y-77992000D01*
X175450113Y-82065000D02*
X175450113Y-81565000D01*
X179965888Y-79300000D02*
X179965888Y-78641000D01*
X179685888Y-79300000D02*
X179685888Y-78369000D01*
X178925888Y-82754000D02*
X178925888Y-81380000D01*
X178324888Y-79300000D02*
X178324888Y-77779000D01*
X178604888Y-79300000D02*
X178604888Y-77829000D01*
X179525888Y-79300000D02*
X179525888Y-78245000D01*
X179045888Y-82705000D02*
X179045888Y-81380000D01*
X178644888Y-82841000D02*
X178644888Y-81380000D01*
X178965888Y-79300000D02*
X178965888Y-77942000D01*
X180125888Y-79300000D02*
X180125888Y-78840000D01*
X178965888Y-82738000D02*
X178965888Y-81380000D01*
X178404888Y-79300000D02*
X178404888Y-77790000D01*
X179805888Y-79300000D02*
X179805888Y-78476000D01*
X179205888Y-79300000D02*
X179205888Y-78050000D01*
X179405888Y-82515000D02*
X179405888Y-81380000D01*
X179605888Y-82375000D02*
X179605888Y-81380000D01*
X180005888Y-81993000D02*
X180005888Y-81380000D01*
X180165888Y-79300000D02*
X180165888Y-78897000D01*
X180365888Y-81438000D02*
X180365888Y-79242000D01*
X179365888Y-79300000D02*
X179365888Y-78140000D01*
X180165888Y-81783000D02*
X180165888Y-81380000D01*
X178404888Y-82890000D02*
X178404888Y-81380000D01*
X179005888Y-79300000D02*
X179005888Y-77958000D01*
X178845888Y-82782000D02*
X178845888Y-81380000D01*
X178524888Y-79300000D02*
X178524888Y-77812000D01*
X178725888Y-79300000D02*
X178725888Y-77860000D01*
X179885888Y-82125000D02*
X179885888Y-81380000D01*
X179645888Y-82344000D02*
X179645888Y-81380000D01*
X178444888Y-79300000D02*
X178444888Y-77797000D01*
X179685888Y-82311000D02*
X179685888Y-81380000D01*
X178364888Y-79300000D02*
X178364888Y-77784000D01*
X180125888Y-81840000D02*
X180125888Y-81380000D01*
X179925888Y-82083000D02*
X179925888Y-81380000D01*
X180485888Y-81145000D02*
X180485888Y-79535000D01*
X180285888Y-79300000D02*
X180285888Y-79089000D01*
X180445888Y-81255000D02*
X180445888Y-79425000D01*
X179285888Y-82587000D02*
X179285888Y-81380000D01*
X180325888Y-81518000D02*
X180325888Y-79162000D01*
X178845888Y-79300000D02*
X178845888Y-77898000D01*
X179885888Y-79300000D02*
X179885888Y-78555000D01*
X179205888Y-82630000D02*
X179205888Y-81380000D01*
X179365888Y-82540000D02*
X179365888Y-81380000D01*
X180205888Y-81723000D02*
X180205888Y-81380000D01*
X179725888Y-82277000D02*
X179725888Y-81380000D01*
X179445888Y-82489000D02*
X179445888Y-81380000D01*
X180624888Y-80340000D02*
G75*
G03*
X180624888Y-80340000I-2620000J0D01*
G01*
%TD*%
M02*
