%TF.GenerationSoftware,KiCad,Pcbnew,(6.0.0)*%
%TF.CreationDate,2022-02-01T13:32:59+07:00*%
%TF.ProjectId,egg_pro_mini,6567675f-7072-46f5-9f6d-696e692e6b69,rev?*%
%TF.SameCoordinates,Original*%
%TF.FileFunction,Legend,Top*%
%TF.FilePolarity,Positive*%
%FSLAX46Y46*%
G04 Gerber Fmt 4.6, Leading zero omitted, Abs format (unit mm)*
G04 Created by KiCad (PCBNEW (6.0.0)) date 2022-02-01 13:32:59*
%MOMM*%
%LPD*%
G01*
G04 APERTURE LIST*
%ADD10C,0.150000*%
%ADD11C,0.254000*%
%ADD12C,0.120000*%
%ADD13C,0.127000*%
%ADD14C,0.200000*%
%ADD15C,0.100000*%
G04 APERTURE END LIST*
D10*
%TO.C,R2*%
X159432380Y-80266666D02*
X158956190Y-80600000D01*
X159432380Y-80838095D02*
X158432380Y-80838095D01*
X158432380Y-80457142D01*
X158480000Y-80361904D01*
X158527619Y-80314285D01*
X158622857Y-80266666D01*
X158765714Y-80266666D01*
X158860952Y-80314285D01*
X158908571Y-80361904D01*
X158956190Y-80457142D01*
X158956190Y-80838095D01*
X158527619Y-79885714D02*
X158480000Y-79838095D01*
X158432380Y-79742857D01*
X158432380Y-79504761D01*
X158480000Y-79409523D01*
X158527619Y-79361904D01*
X158622857Y-79314285D01*
X158718095Y-79314285D01*
X158860952Y-79361904D01*
X159432380Y-79933333D01*
X159432380Y-79314285D01*
%TO.C,SW3*%
X129236666Y-93404761D02*
X129379523Y-93452380D01*
X129617619Y-93452380D01*
X129712857Y-93404761D01*
X129760476Y-93357142D01*
X129808095Y-93261904D01*
X129808095Y-93166666D01*
X129760476Y-93071428D01*
X129712857Y-93023809D01*
X129617619Y-92976190D01*
X129427142Y-92928571D01*
X129331904Y-92880952D01*
X129284285Y-92833333D01*
X129236666Y-92738095D01*
X129236666Y-92642857D01*
X129284285Y-92547619D01*
X129331904Y-92500000D01*
X129427142Y-92452380D01*
X129665238Y-92452380D01*
X129808095Y-92500000D01*
X130141428Y-92452380D02*
X130379523Y-93452380D01*
X130570000Y-92738095D01*
X130760476Y-93452380D01*
X130998571Y-92452380D01*
X131284285Y-92452380D02*
X131903333Y-92452380D01*
X131570000Y-92833333D01*
X131712857Y-92833333D01*
X131808095Y-92880952D01*
X131855714Y-92928571D01*
X131903333Y-93023809D01*
X131903333Y-93261904D01*
X131855714Y-93357142D01*
X131808095Y-93404761D01*
X131712857Y-93452380D01*
X131427142Y-93452380D01*
X131331904Y-93404761D01*
X131284285Y-93357142D01*
%TO.C,R3*%
X142823333Y-89782380D02*
X142490000Y-89306190D01*
X142251904Y-89782380D02*
X142251904Y-88782380D01*
X142632857Y-88782380D01*
X142728095Y-88830000D01*
X142775714Y-88877619D01*
X142823333Y-88972857D01*
X142823333Y-89115714D01*
X142775714Y-89210952D01*
X142728095Y-89258571D01*
X142632857Y-89306190D01*
X142251904Y-89306190D01*
X143156666Y-88782380D02*
X143775714Y-88782380D01*
X143442380Y-89163333D01*
X143585238Y-89163333D01*
X143680476Y-89210952D01*
X143728095Y-89258571D01*
X143775714Y-89353809D01*
X143775714Y-89591904D01*
X143728095Y-89687142D01*
X143680476Y-89734761D01*
X143585238Y-89782380D01*
X143299523Y-89782380D01*
X143204285Y-89734761D01*
X143156666Y-89687142D01*
%TO.C,U2*%
X126491904Y-70537619D02*
X126491904Y-69728095D01*
X126444285Y-69632857D01*
X126396666Y-69585238D01*
X126301428Y-69537619D01*
X126110952Y-69537619D01*
X126015714Y-69585238D01*
X125968095Y-69632857D01*
X125920476Y-69728095D01*
X125920476Y-70537619D01*
X125491904Y-70442380D02*
X125444285Y-70490000D01*
X125349047Y-70537619D01*
X125110952Y-70537619D01*
X125015714Y-70490000D01*
X124968095Y-70442380D01*
X124920476Y-70347142D01*
X124920476Y-70251904D01*
X124968095Y-70109047D01*
X125539523Y-69537619D01*
X124920476Y-69537619D01*
%TO.C,U3*%
X166797333Y-89421666D02*
X167930666Y-89421666D01*
X168064000Y-89355000D01*
X168130666Y-89288333D01*
X168197333Y-89155000D01*
X168197333Y-88888333D01*
X168130666Y-88755000D01*
X168064000Y-88688333D01*
X167930666Y-88621666D01*
X166797333Y-88621666D01*
X166797333Y-88088333D02*
X166797333Y-87221666D01*
X167330666Y-87688333D01*
X167330666Y-87488333D01*
X167397333Y-87355000D01*
X167464000Y-87288333D01*
X167597333Y-87221666D01*
X167930666Y-87221666D01*
X168064000Y-87288333D01*
X168130666Y-87355000D01*
X168197333Y-87488333D01*
X168197333Y-87888333D01*
X168130666Y-88021666D01*
X168064000Y-88088333D01*
%TO.C,DS1*%
X101695939Y-51287380D02*
X101695939Y-50287380D01*
X101934034Y-50287380D01*
X102076891Y-50335000D01*
X102172129Y-50430238D01*
X102219748Y-50525476D01*
X102267367Y-50715952D01*
X102267367Y-50858809D01*
X102219748Y-51049285D01*
X102172129Y-51144523D01*
X102076891Y-51239761D01*
X101934034Y-51287380D01*
X101695939Y-51287380D01*
X102648320Y-51239761D02*
X102791177Y-51287380D01*
X103029272Y-51287380D01*
X103124510Y-51239761D01*
X103172129Y-51192142D01*
X103219748Y-51096904D01*
X103219748Y-51001666D01*
X103172129Y-50906428D01*
X103124510Y-50858809D01*
X103029272Y-50811190D01*
X102838796Y-50763571D01*
X102743558Y-50715952D01*
X102695939Y-50668333D01*
X102648320Y-50573095D01*
X102648320Y-50477857D01*
X102695939Y-50382619D01*
X102743558Y-50335000D01*
X102838796Y-50287380D01*
X103076891Y-50287380D01*
X103219748Y-50335000D01*
X104172129Y-51287380D02*
X103600701Y-51287380D01*
X103886415Y-51287380D02*
X103886415Y-50287380D01*
X103791177Y-50430238D01*
X103695939Y-50525476D01*
X103600701Y-50573095D01*
%TO.C,J3*%
X181016666Y-90169880D02*
X181016666Y-90884166D01*
X180969047Y-91027023D01*
X180873809Y-91122261D01*
X180730952Y-91169880D01*
X180635714Y-91169880D01*
X181397619Y-90169880D02*
X182016666Y-90169880D01*
X181683333Y-90550833D01*
X181826190Y-90550833D01*
X181921428Y-90598452D01*
X181969047Y-90646071D01*
X182016666Y-90741309D01*
X182016666Y-90979404D01*
X181969047Y-91074642D01*
X181921428Y-91122261D01*
X181826190Y-91169880D01*
X181540476Y-91169880D01*
X181445238Y-91122261D01*
X181397619Y-91074642D01*
%TO.C,Q1*%
X154564761Y-76807619D02*
X154469523Y-76760000D01*
X154374285Y-76664761D01*
X154231428Y-76521904D01*
X154136190Y-76474285D01*
X154040952Y-76474285D01*
X154088571Y-76712380D02*
X153993333Y-76664761D01*
X153898095Y-76569523D01*
X153850476Y-76379047D01*
X153850476Y-76045714D01*
X153898095Y-75855238D01*
X153993333Y-75760000D01*
X154088571Y-75712380D01*
X154279047Y-75712380D01*
X154374285Y-75760000D01*
X154469523Y-75855238D01*
X154517142Y-76045714D01*
X154517142Y-76379047D01*
X154469523Y-76569523D01*
X154374285Y-76664761D01*
X154279047Y-76712380D01*
X154088571Y-76712380D01*
X155469523Y-76712380D02*
X154898095Y-76712380D01*
X155183809Y-76712380D02*
X155183809Y-75712380D01*
X155088571Y-75855238D01*
X154993333Y-75950476D01*
X154898095Y-75998095D01*
%TO.C,R1*%
X143973333Y-79362380D02*
X143640000Y-78886190D01*
X143401904Y-79362380D02*
X143401904Y-78362380D01*
X143782857Y-78362380D01*
X143878095Y-78410000D01*
X143925714Y-78457619D01*
X143973333Y-78552857D01*
X143973333Y-78695714D01*
X143925714Y-78790952D01*
X143878095Y-78838571D01*
X143782857Y-78886190D01*
X143401904Y-78886190D01*
X144925714Y-79362380D02*
X144354285Y-79362380D01*
X144640000Y-79362380D02*
X144640000Y-78362380D01*
X144544761Y-78505238D01*
X144449523Y-78600476D01*
X144354285Y-78648095D01*
D11*
%TO.C,J2*%
X160156666Y-95074523D02*
X160156666Y-95981666D01*
X160096190Y-96163095D01*
X159975238Y-96284047D01*
X159793809Y-96344523D01*
X159672857Y-96344523D01*
X160700952Y-95195476D02*
X160761428Y-95135000D01*
X160882380Y-95074523D01*
X161184761Y-95074523D01*
X161305714Y-95135000D01*
X161366190Y-95195476D01*
X161426666Y-95316428D01*
X161426666Y-95437380D01*
X161366190Y-95618809D01*
X160640476Y-96344523D01*
X161426666Y-96344523D01*
D10*
%TO.C,D1*%
X157141904Y-92162380D02*
X157141904Y-91162380D01*
X157380000Y-91162380D01*
X157522857Y-91210000D01*
X157618095Y-91305238D01*
X157665714Y-91400476D01*
X157713333Y-91590952D01*
X157713333Y-91733809D01*
X157665714Y-91924285D01*
X157618095Y-92019523D01*
X157522857Y-92114761D01*
X157380000Y-92162380D01*
X157141904Y-92162380D01*
X158665714Y-92162380D02*
X158094285Y-92162380D01*
X158380000Y-92162380D02*
X158380000Y-91162380D01*
X158284761Y-91305238D01*
X158189523Y-91400476D01*
X158094285Y-91448095D01*
X152378095Y-90282380D02*
X152378095Y-89282380D01*
X152949523Y-90282380D02*
X152520952Y-89710952D01*
X152949523Y-89282380D02*
X152378095Y-89853809D01*
%TO.C,U1*%
X153648095Y-82197380D02*
X153648095Y-83006904D01*
X153695714Y-83102142D01*
X153743333Y-83149761D01*
X153838571Y-83197380D01*
X154029047Y-83197380D01*
X154124285Y-83149761D01*
X154171904Y-83102142D01*
X154219523Y-83006904D01*
X154219523Y-82197380D01*
X155219523Y-83197380D02*
X154648095Y-83197380D01*
X154933809Y-83197380D02*
X154933809Y-82197380D01*
X154838571Y-82340238D01*
X154743333Y-82435476D01*
X154648095Y-82483095D01*
D11*
%TO.C,J1*%
X142836666Y-94754523D02*
X142836666Y-95661666D01*
X142776190Y-95843095D01*
X142655238Y-95964047D01*
X142473809Y-96024523D01*
X142352857Y-96024523D01*
X144106666Y-96024523D02*
X143380952Y-96024523D01*
X143743809Y-96024523D02*
X143743809Y-94754523D01*
X143622857Y-94935952D01*
X143501904Y-95056904D01*
X143380952Y-95117380D01*
D10*
%TO.C,SW1*%
X110226891Y-93444761D02*
X110369748Y-93492380D01*
X110607844Y-93492380D01*
X110703082Y-93444761D01*
X110750701Y-93397142D01*
X110798320Y-93301904D01*
X110798320Y-93206666D01*
X110750701Y-93111428D01*
X110703082Y-93063809D01*
X110607844Y-93016190D01*
X110417367Y-92968571D01*
X110322129Y-92920952D01*
X110274510Y-92873333D01*
X110226891Y-92778095D01*
X110226891Y-92682857D01*
X110274510Y-92587619D01*
X110322129Y-92540000D01*
X110417367Y-92492380D01*
X110655463Y-92492380D01*
X110798320Y-92540000D01*
X111131653Y-92492380D02*
X111369748Y-93492380D01*
X111560225Y-92778095D01*
X111750701Y-93492380D01*
X111988796Y-92492380D01*
X112893558Y-93492380D02*
X112322129Y-93492380D01*
X112607844Y-93492380D02*
X112607844Y-92492380D01*
X112512605Y-92635238D01*
X112417367Y-92730476D01*
X112322129Y-92778095D01*
%TO.C,SW2*%
X120086891Y-92934761D02*
X120229748Y-92982380D01*
X120467844Y-92982380D01*
X120563082Y-92934761D01*
X120610701Y-92887142D01*
X120658320Y-92791904D01*
X120658320Y-92696666D01*
X120610701Y-92601428D01*
X120563082Y-92553809D01*
X120467844Y-92506190D01*
X120277367Y-92458571D01*
X120182129Y-92410952D01*
X120134510Y-92363333D01*
X120086891Y-92268095D01*
X120086891Y-92172857D01*
X120134510Y-92077619D01*
X120182129Y-92030000D01*
X120277367Y-91982380D01*
X120515463Y-91982380D01*
X120658320Y-92030000D01*
X120991653Y-91982380D02*
X121229748Y-92982380D01*
X121420225Y-92268095D01*
X121610701Y-92982380D01*
X121848796Y-91982380D01*
X122182129Y-92077619D02*
X122229748Y-92030000D01*
X122324986Y-91982380D01*
X122563082Y-91982380D01*
X122658320Y-92030000D01*
X122705939Y-92077619D01*
X122753558Y-92172857D01*
X122753558Y-92268095D01*
X122705939Y-92410952D01*
X122134510Y-92982380D01*
X122753558Y-92982380D01*
D12*
%TO.C,R2*%
X160900000Y-82970000D02*
X160900000Y-82020000D01*
X161820000Y-78180000D02*
X159980000Y-78180000D01*
X159980000Y-78180000D02*
X159980000Y-82020000D01*
X160900000Y-77230000D02*
X160900000Y-78180000D01*
X159980000Y-82020000D02*
X161820000Y-82020000D01*
X161820000Y-82020000D02*
X161820000Y-78180000D01*
%TO.C,SW3*%
X127070000Y-92010000D02*
X127070000Y-93510000D01*
X132820000Y-89510000D02*
X128320000Y-89510000D01*
X128320000Y-96010000D02*
X132820000Y-96010000D01*
X134070000Y-93510000D02*
X134070000Y-92010000D01*
%TO.C,R3*%
X144910000Y-92170000D02*
X144910000Y-90330000D01*
X141070000Y-90330000D02*
X141070000Y-92170000D01*
X144910000Y-90330000D02*
X141070000Y-90330000D01*
X145860000Y-91250000D02*
X144910000Y-91250000D01*
X140120000Y-91250000D02*
X141070000Y-91250000D01*
X141070000Y-92170000D02*
X144910000Y-92170000D01*
%TO.C,U2*%
X106620000Y-68600000D02*
X100620000Y-68600000D01*
X100620000Y-67840000D02*
X106620000Y-67840000D01*
X106620000Y-76220000D02*
X100620000Y-76220000D01*
X109220000Y-74570000D02*
X106680000Y-74570000D01*
X100620000Y-76220000D02*
X100620000Y-75460000D01*
X109220000Y-78380000D02*
X139700000Y-78380000D01*
X139700000Y-60600000D02*
X139700000Y-63140000D01*
X107950000Y-78380000D02*
X107950000Y-60600000D01*
X109220000Y-72030000D02*
X106680000Y-72030000D01*
X137160000Y-74570000D02*
X137160000Y-64410000D01*
X100620000Y-68600000D02*
X100620000Y-67840000D01*
X109220000Y-66950000D02*
X106680000Y-66950000D01*
X100620000Y-75460000D02*
X106620000Y-75460000D01*
X109220000Y-69490000D02*
X106680000Y-69490000D01*
X100620000Y-72920000D02*
X106620000Y-72920000D01*
X139700000Y-63140000D02*
X109220000Y-63140000D01*
X100620000Y-63520000D02*
X100620000Y-62760000D01*
X100620000Y-70380000D02*
X106620000Y-70380000D01*
X139700000Y-74570000D02*
X137160000Y-74570000D01*
X100620000Y-62760000D02*
X106620000Y-62760000D01*
X106620000Y-73680000D02*
X100620000Y-73680000D01*
X140970000Y-60600000D02*
X140970000Y-78380000D01*
X100620000Y-65300000D02*
X106620000Y-65300000D01*
X109220000Y-60600000D02*
X139700000Y-60600000D01*
X106620000Y-71140000D02*
X100620000Y-71140000D01*
X109220000Y-75840000D02*
X109220000Y-78380000D01*
X100620000Y-66060000D02*
X100620000Y-65300000D01*
X109220000Y-61870000D02*
X106680000Y-61870000D01*
X100620000Y-73680000D02*
X100620000Y-72920000D01*
X137160000Y-64410000D02*
X139700000Y-64410000D01*
X106620000Y-63520000D02*
X100620000Y-63520000D01*
X106620000Y-66060000D02*
X100620000Y-66060000D01*
X139700000Y-78380000D02*
X139700000Y-75840000D01*
X109220000Y-63140000D02*
X109220000Y-60600000D01*
X100620000Y-71140000D02*
X100620000Y-70380000D01*
X139700000Y-64410000D02*
X139700000Y-74570000D01*
X139700000Y-75840000D02*
X109220000Y-75840000D01*
X109220000Y-64410000D02*
X106680000Y-64410000D01*
X140970000Y-78380000D02*
X107950000Y-78380000D01*
X107950000Y-60600000D02*
X140970000Y-60600000D01*
D13*
%TO.C,U3*%
X169148000Y-81600000D02*
X173748000Y-81600000D01*
X173748000Y-81600000D02*
X173748000Y-92000000D01*
X169148000Y-92000000D02*
X169148000Y-81600000D01*
X173748000Y-92000000D02*
X169148000Y-92000000D01*
D14*
X174303000Y-89350000D02*
G75*
G03*
X174303000Y-89350000I-100000J0D01*
G01*
D12*
%TO.C,DS1*%
X108930225Y-62645000D02*
X172430225Y-62645000D01*
X107230225Y-51645000D02*
X110230225Y-51645000D01*
X103730225Y-82645000D02*
X103730225Y-57645000D01*
X180870225Y-88285000D02*
X180870225Y-52005000D01*
X100590225Y-88285000D02*
X180870225Y-88285000D01*
X100590225Y-52005000D02*
X100590225Y-88285000D01*
X180870225Y-52005000D02*
X101390225Y-52005000D01*
X172930225Y-63145000D02*
X172930225Y-77145000D01*
X176730225Y-82645000D02*
X103730225Y-82645000D01*
X103730225Y-57645000D02*
X176730225Y-57645000D01*
X100600225Y-52005000D02*
X101390225Y-52005000D01*
X172430885Y-77645000D02*
X108930225Y-77645000D01*
X108430505Y-77144320D02*
X108430505Y-63145000D01*
X176730225Y-57645000D02*
X176730225Y-82645000D01*
X108430505Y-77144320D02*
G75*
G03*
X108930885Y-77644700I500380J0D01*
G01*
X172430885Y-77644700D02*
G75*
G03*
X172931265Y-77144320I0J500380D01*
G01*
X172930225Y-63145000D02*
G75*
G03*
X172430225Y-62645000I-500001J-1D01*
G01*
X108930885Y-62643460D02*
G75*
G03*
X108430505Y-63143840I0J-500380D01*
G01*
%TO.C,J3*%
X172850000Y-101267500D02*
X171800000Y-101267500D01*
X171800000Y-100217500D02*
X171800000Y-101267500D01*
X172000000Y-94567500D02*
X172000000Y-91867500D01*
X177900000Y-91867500D02*
X186700000Y-91867500D01*
X186700000Y-101067500D02*
X172000000Y-101067500D01*
X172000000Y-101067500D02*
X172000000Y-98467500D01*
X186700000Y-91867500D02*
X186700000Y-101067500D01*
X172000000Y-91867500D02*
X173900000Y-91867500D01*
%TO.C,Q1*%
X152850000Y-82300000D02*
X156450000Y-82300000D01*
X153510000Y-78100001D02*
G75*
G03*
X152282801Y-79346158I1139999J-2349998D01*
G01*
X156450000Y-82300000D02*
G75*
G03*
X156974184Y-81572795I-1799991J1849994D01*
G01*
X157005458Y-79351629D02*
G75*
G03*
X155760000Y-78100000I-2355460J-1098374D01*
G01*
X152325816Y-81572795D02*
G75*
G03*
X152850000Y-82300000I2324175J1122789D01*
G01*
%TO.C,R1*%
X141270000Y-80830000D02*
X142220000Y-80830000D01*
X142220000Y-81750000D02*
X146060000Y-81750000D01*
X146060000Y-81750000D02*
X146060000Y-79910000D01*
X142220000Y-79910000D02*
X142220000Y-81750000D01*
X147010000Y-80830000D02*
X146060000Y-80830000D01*
X146060000Y-79910000D02*
X142220000Y-79910000D01*
D15*
%TO.C,J2*%
X167870000Y-93970000D02*
X167870000Y-101470000D01*
X167870000Y-101470000D02*
X152870000Y-101470000D01*
X152870000Y-93970000D02*
X167870000Y-93970000D01*
X152870000Y-101470000D02*
X152870000Y-93970000D01*
D12*
%TO.C,D1*%
X155780000Y-90460000D02*
X155780000Y-93400000D01*
X155900000Y-90460000D02*
X155900000Y-93400000D01*
X156020000Y-90460000D02*
X156020000Y-93400000D01*
X155000000Y-90460000D02*
X155000000Y-93400000D01*
X160440000Y-90460000D02*
X155000000Y-90460000D01*
X160440000Y-93400000D02*
X160440000Y-90460000D01*
X155000000Y-93400000D02*
X160440000Y-93400000D01*
X153980000Y-91930000D02*
X155000000Y-91930000D01*
X161460000Y-91930000D02*
X160440000Y-91930000D01*
%TO.C,U1*%
X151760000Y-83745000D02*
X151760000Y-88945000D01*
X151760000Y-88945000D02*
X157060000Y-88945000D01*
X157060000Y-83745000D02*
X155410000Y-83745000D01*
X157060000Y-88945000D02*
X157060000Y-83745000D01*
X153410000Y-83745000D02*
X151760000Y-83745000D01*
X153410000Y-83745000D02*
G75*
G03*
X155410000Y-83745000I1000000J0D01*
G01*
D15*
%TO.C,J1*%
X135560000Y-93620000D02*
X150560000Y-93620000D01*
X135560000Y-101120000D02*
X135560000Y-93620000D01*
X150560000Y-93620000D02*
X150560000Y-101120000D01*
X150560000Y-101120000D02*
X135560000Y-101120000D01*
D12*
%TO.C,SW1*%
X115280000Y-93490000D02*
X115280000Y-91990000D01*
X108280000Y-91990000D02*
X108280000Y-93490000D01*
X109530000Y-95990000D02*
X114030000Y-95990000D01*
X114030000Y-89490000D02*
X109530000Y-89490000D01*
%TO.C,SW2*%
X124650000Y-93500000D02*
X124650000Y-92000000D01*
X118900000Y-96000000D02*
X123400000Y-96000000D01*
X117650000Y-92000000D02*
X117650000Y-93500000D01*
X123400000Y-89500000D02*
X118900000Y-89500000D01*
%TD*%
M02*
