M48
; DRILL file {KiCad (6.0.0)} date Tue Feb  1 13:32:57 2022
; FORMAT={-:-/ absolute / metric / decimal}
; #@! TF.CreationDate,2022-02-01T13:32:57+07:00
; #@! TF.GenerationSoftware,Kicad,Pcbnew,(6.0.0)
; #@! TF.FileFunction,Plated,1,2,PTH
FMAT,2
METRIC
; #@! TA.AperFunction,Plated,PTH,ComponentDrill
T1C0.700
; #@! TA.AperFunction,Plated,PTH,ComponentDrill
T2C0.800
; #@! TA.AperFunction,Plated,PTH,ComponentDrill
T3C1.000
; #@! TA.AperFunction,Plated,PTH,ComponentDrill
T4C1.100
; #@! TA.AperFunction,Plated,PTH,ComponentDrill
T5C1.200
; #@! TA.AperFunction,Plated,PTH,ComponentDrill
T6C1.270
; #@! TA.AperFunction,Plated,PTH,ComponentDrill
T7C1.300
; #@! TA.AperFunction,Plated,PTH,ComponentDrill
T8C1.400
; #@! TA.AperFunction,Plated,PTH,ComponentDrill
T9C2.500
%
G90
G05
T1
X140.33Y-80.83
X147.95Y-80.83
X160.9Y-76.29
X160.9Y-83.91
T2
X149.365Y-71.38
X150.6Y-85.075
X150.6Y-87.615
X151.865Y-71.38
X152.11Y-80.45
X154.65Y-77.91
X157.19Y-80.45
X158.22Y-85.075
X158.22Y-87.615
X176.755Y-80.34
X179.255Y-80.34
T3
X110.49Y-61.87
X110.49Y-77.11
X113.03Y-61.87
X113.03Y-77.11
X115.57Y-61.87
X115.57Y-77.11
X118.11Y-61.87
X118.11Y-77.11
X120.65Y-61.87
X120.65Y-77.11
X123.19Y-61.87
X123.19Y-77.11
X125.73Y-61.87
X125.73Y-77.11
X128.27Y-61.87
X128.27Y-77.11
X130.81Y-61.87
X130.81Y-77.11
X133.35Y-61.87
X133.35Y-77.11
X135.89Y-61.87
X135.89Y-77.11
X138.43Y-61.87
X138.43Y-65.68
X138.43Y-68.22
X138.43Y-70.76
X138.43Y-73.3
X138.43Y-77.11
X139.18Y-91.25
X146.8Y-91.25
T4
X108.53Y-90.49
X108.53Y-94.99
X115.03Y-90.49
X115.03Y-94.99
X117.9Y-90.5
X117.9Y-95.0
X124.4Y-90.5
X124.4Y-95.0
X127.32Y-90.51
X127.32Y-95.01
X133.82Y-90.51
X133.82Y-95.01
X152.64Y-91.93
X162.8Y-91.93
T5
X108.73Y-54.645
X111.27Y-54.645
X113.81Y-54.645
X116.35Y-54.645
X118.89Y-54.645
X121.43Y-54.645
X123.97Y-54.645
X126.51Y-54.645
X129.05Y-54.645
X131.59Y-54.645
X134.13Y-54.645
X136.67Y-54.645
X139.21Y-54.645
X141.75Y-54.645
X144.29Y-54.645
X146.83Y-54.645
T6
X172.008Y-84.25
X172.008Y-86.8
X172.008Y-89.35
T7
X166.83Y-60.47
X166.83Y-72.67
X172.83Y-58.47
X178.83Y-60.47
X178.83Y-72.67
T8
X138.06Y-97.62
X143.06Y-97.62
X148.06Y-97.62
X155.37Y-97.97
X160.37Y-97.97
X165.37Y-97.97
T9
X103.231Y-54.645
X103.231Y-85.646
X178.23Y-85.646
X178.23Y-54.645
T3
G00X172.9Y-97.468
M15
G01X172.9Y-95.468
M16
G05
G00X176.9Y-91.767
M15
G01X174.9Y-91.767
M16
G05
G00X178.9Y-97.468
M15
G01X178.9Y-95.468
M16
G05
T0
M30
