M48
; DRILL file {KiCad (6.0.0)} date Mon Jan 31 19:39:50 2022
; FORMAT={-:-/ absolute / metric / decimal}
; #@! TF.CreationDate,2022-01-31T19:39:50+07:00
; #@! TF.GenerationSoftware,Kicad,Pcbnew,(6.0.0)
; #@! TF.FileFunction,Plated,1,2,PTH
FMAT,2
METRIC
; #@! TA.AperFunction,Plated,PTH,ComponentDrill
T1C0.700
; #@! TA.AperFunction,Plated,PTH,ComponentDrill
T2C0.800
; #@! TA.AperFunction,Plated,PTH,ComponentDrill
T3C1.000
; #@! TA.AperFunction,Plated,PTH,ComponentDrill
T4C1.100
; #@! TA.AperFunction,Plated,PTH,ComponentDrill
T5C1.200
; #@! TA.AperFunction,Plated,PTH,ComponentDrill
T6C1.270
; #@! TA.AperFunction,Plated,PTH,ComponentDrill
T7C1.300
; #@! TA.AperFunction,Plated,PTH,ComponentDrill
T8C1.360
; #@! TA.AperFunction,Plated,PTH,ComponentDrill
T9C2.500
%
G90
G05
T1
X88.23Y-118.43
X95.85Y-118.43
X115.35Y-46.23
X115.47Y-48.42
X122.97Y-46.23
X123.09Y-48.42
X125.78Y-113.96
X125.9Y-116.15
X133.4Y-113.96
X133.52Y-116.15
X153.02Y-43.95
X160.64Y-43.95
T2
X95.37Y-36.83
X95.37Y-39.33
X104.94Y-45.875
X104.94Y-48.415
X106.74Y-39.76
X106.77Y-34.05
X109.24Y-39.76
X109.27Y-34.05
X112.56Y-45.875
X112.56Y-48.415
X119.9Y-114.3
X122.44Y-111.76
X122.44Y-116.84
X126.43Y-45.54
X126.43Y-50.62
X128.97Y-48.08
X136.31Y-113.965
X136.31Y-116.505
X139.6Y-128.33
X139.63Y-122.62
X142.1Y-128.33
X142.13Y-122.62
X143.93Y-113.965
X143.93Y-116.505
X153.5Y-123.05
X153.5Y-125.55
T3
X101.87Y-92.39
X101.87Y-107.63
X104.41Y-92.39
X104.41Y-107.63
X106.95Y-92.39
X106.95Y-107.63
X109.49Y-92.39
X109.49Y-107.63
X111.44Y-54.75
X111.44Y-69.99
X112.03Y-92.39
X112.03Y-107.63
X113.98Y-54.75
X113.98Y-69.99
X114.57Y-92.39
X114.57Y-107.63
X116.52Y-54.75
X116.52Y-69.99
X117.11Y-92.39
X117.11Y-107.63
X119.06Y-54.75
X119.06Y-69.99
X119.65Y-92.39
X119.65Y-107.63
X121.6Y-54.75
X121.6Y-69.99
X122.19Y-92.39
X122.19Y-107.63
X124.14Y-54.75
X124.14Y-69.99
X124.73Y-92.39
X124.73Y-107.63
X126.68Y-54.75
X126.68Y-69.99
X127.27Y-92.39
X127.27Y-107.63
X129.22Y-54.75
X129.22Y-69.99
X129.81Y-92.39
X129.81Y-107.63
X131.76Y-54.75
X131.76Y-69.99
X132.35Y-92.39
X132.35Y-107.63
X134.3Y-54.75
X134.3Y-69.99
X134.89Y-92.39
X134.89Y-107.63
X136.84Y-54.75
X136.84Y-69.99
X137.43Y-92.39
X137.43Y-107.63
X139.38Y-54.75
X139.38Y-69.99
X141.92Y-54.75
X141.92Y-69.99
X144.46Y-54.75
X144.46Y-69.99
X147.0Y-54.75
X147.0Y-69.99
T4
X93.3Y-51.53
X98.63Y-119.74
X98.63Y-124.24
X103.46Y-51.53
X105.13Y-119.74
X105.13Y-124.24
X108.72Y-119.72
X108.72Y-124.22
X115.22Y-119.72
X115.22Y-124.22
X118.71Y-119.74
X118.71Y-124.24
X123.66Y-38.14
X123.66Y-42.64
X125.21Y-119.74
X125.21Y-124.24
X130.16Y-38.14
X130.16Y-42.64
X133.65Y-38.16
X133.65Y-42.66
X140.15Y-38.16
X140.15Y-42.66
X143.74Y-38.14
X143.74Y-42.64
X145.41Y-110.85
X150.24Y-38.14
X150.24Y-42.64
X155.57Y-110.85
T5
X92.44Y-83.902
X94.98Y-83.902
X97.52Y-83.902
X100.06Y-83.902
X102.6Y-83.902
X105.14Y-83.902
X107.68Y-83.902
X110.22Y-83.902
X112.76Y-83.902
X115.3Y-83.902
X117.84Y-83.902
X118.33Y-78.477
X120.38Y-83.902
X120.87Y-78.477
X122.92Y-83.902
X123.41Y-78.477
X125.46Y-83.902
X125.95Y-78.477
X128.0Y-83.902
X128.49Y-78.477
X130.54Y-83.902
X131.03Y-78.477
X133.57Y-78.477
X136.11Y-78.477
X138.65Y-78.477
X141.19Y-78.477
X143.73Y-78.477
X146.27Y-78.477
X148.81Y-78.477
X151.35Y-78.477
X153.89Y-78.477
X156.43Y-78.477
T6
X100.612Y-34.35
X100.612Y-36.9
X100.612Y-39.45
X148.258Y-122.93
X148.258Y-125.48
X148.258Y-128.03
T7
X91.21Y-56.42
X91.21Y-68.42
X103.41Y-56.42
X103.41Y-68.42
X105.41Y-62.42
X143.46Y-99.96
X145.46Y-93.96
X145.46Y-105.96
X157.66Y-93.96
X157.66Y-105.96
T8
X87.81Y-37.85
X87.81Y-40.39
X87.81Y-42.93
X88.168Y-123.91
X90.709Y-123.91
X93.248Y-123.91
X155.621Y-38.47
X158.161Y-38.47
X160.701Y-38.47
X161.06Y-119.45
X161.06Y-121.99
X161.06Y-124.53
T9
X86.93Y-78.477
X86.931Y-47.477
X86.941Y-83.902
X86.941Y-114.903
X161.929Y-47.477
X161.929Y-78.477
X161.939Y-114.903
X161.94Y-83.902
T3
G00X112.87Y-35.47
M15
G01X112.87Y-37.47
M16
G05
G00X118.57Y-33.47
M15
G01X116.57Y-33.47
M16
G05
G00X118.57Y-39.47
M15
G01X116.57Y-39.47
M16
G05
G00X130.3Y-122.91
M15
G01X132.3Y-122.91
M16
G05
G00X130.3Y-128.91
M15
G01X132.3Y-128.91
M16
G05
G00X136.0Y-126.91
M15
G01X136.0Y-124.91
M16
G05
T0
M30
