M48
; DRILL file {KiCad (6.0.0)} date Tue Feb  1 13:42:24 2022
; FORMAT={-:-/ absolute / metric / decimal}
; #@! TF.CreationDate,2022-02-01T13:42:24+07:00
; #@! TF.GenerationSoftware,Kicad,Pcbnew,(6.0.0)
; #@! TF.FileFunction,Plated,1,2,PTH
FMAT,2
METRIC
; #@! TA.AperFunction,Plated,PTH,ComponentDrill
T1C0.700
; #@! TA.AperFunction,Plated,PTH,ComponentDrill
T2C0.800
; #@! TA.AperFunction,Plated,PTH,ComponentDrill
T3C1.000
; #@! TA.AperFunction,Plated,PTH,ComponentDrill
T4C1.100
; #@! TA.AperFunction,Plated,PTH,ComponentDrill
T5C1.200
; #@! TA.AperFunction,Plated,PTH,ComponentDrill
T6C1.270
; #@! TA.AperFunction,Plated,PTH,ComponentDrill
T7C1.300
; #@! TA.AperFunction,Plated,PTH,ComponentDrill
T8C1.400
; #@! TA.AperFunction,Plated,PTH,ComponentDrill
T9C2.500
%
G90
G05
T1
X138.965Y-48.59
X138.965Y-56.21
X151.915Y-51.67
X158.735Y-109.495
X159.535Y-51.67
X166.355Y-109.495
X179.305Y-104.955
X179.305Y-112.575
T2
X120.61Y-52.16
X123.11Y-52.16
X141.645Y-44.885
X141.645Y-47.425
X142.675Y-52.05
X145.215Y-54.59
X147.755Y-52.05
X148.0Y-61.12
X149.265Y-44.885
X149.265Y-47.425
X150.5Y-61.12
X167.77Y-100.045
X169.005Y-113.74
X169.005Y-116.28
X170.27Y-100.045
X170.515Y-109.115
X173.055Y-106.575
X175.595Y-109.115
X176.625Y-113.74
X176.625Y-116.28
X195.16Y-109.005
X197.66Y-109.005
T3
X128.895Y-90.535
X128.895Y-105.775
X131.435Y-90.535
X131.435Y-105.775
X133.975Y-90.535
X133.975Y-105.775
X136.515Y-90.535
X136.515Y-105.775
X139.055Y-90.535
X139.055Y-105.775
X141.595Y-90.535
X141.595Y-105.775
X144.135Y-90.535
X144.135Y-105.775
X146.675Y-90.535
X146.675Y-105.775
X149.215Y-90.535
X149.215Y-105.775
X151.755Y-90.535
X151.755Y-105.775
X153.065Y-41.25
X154.295Y-90.535
X154.295Y-105.775
X156.835Y-90.535
X156.835Y-94.345
X156.835Y-96.885
X156.835Y-99.425
X156.835Y-101.965
X156.835Y-105.775
X157.585Y-119.915
X160.685Y-41.25
X161.435Y-55.39
X161.435Y-59.2
X161.435Y-61.74
X161.435Y-64.28
X161.435Y-66.82
X161.435Y-70.63
X163.975Y-55.39
X163.975Y-70.63
X165.205Y-119.915
X166.515Y-55.39
X166.515Y-70.63
X169.055Y-55.39
X169.055Y-70.63
X171.595Y-55.39
X171.595Y-70.63
X174.135Y-55.39
X174.135Y-70.63
X176.675Y-55.39
X176.675Y-70.63
X179.215Y-55.39
X179.215Y-70.63
X181.755Y-55.39
X181.755Y-70.63
X184.295Y-55.39
X184.295Y-70.63
X186.835Y-55.39
X186.835Y-70.63
X189.375Y-55.39
X189.375Y-70.63
T4
X126.935Y-119.155
X126.935Y-123.655
X133.435Y-119.155
X133.435Y-123.655
X136.305Y-119.165
X136.305Y-123.665
X137.065Y-40.57
X142.805Y-119.165
X142.805Y-123.665
X145.725Y-119.175
X145.725Y-123.675
X147.225Y-40.57
X152.225Y-119.175
X152.225Y-123.675
X166.045Y-37.49
X166.045Y-41.99
X171.045Y-120.595
X172.545Y-37.49
X172.545Y-41.99
X175.465Y-37.5
X175.465Y-42.0
X181.205Y-120.595
X181.965Y-37.5
X181.965Y-42.0
X184.835Y-37.51
X184.835Y-42.01
X191.335Y-37.51
X191.335Y-42.01
T5
X127.135Y-83.31
X129.675Y-83.31
X132.215Y-83.31
X134.755Y-83.31
X137.295Y-83.31
X139.835Y-83.31
X142.375Y-83.31
X144.915Y-83.31
X147.455Y-83.31
X149.995Y-83.31
X152.535Y-83.31
X153.035Y-77.855
X155.075Y-83.31
X155.575Y-77.855
X157.615Y-83.31
X158.115Y-77.855
X160.155Y-83.31
X160.655Y-77.855
X162.695Y-83.31
X163.195Y-77.855
X165.235Y-83.31
X165.735Y-77.855
X168.275Y-77.855
X170.815Y-77.855
X173.355Y-77.855
X175.895Y-77.855
X178.435Y-77.855
X180.975Y-77.855
X183.515Y-77.855
X186.055Y-77.855
X188.595Y-77.855
X191.135Y-77.855
T6
X127.857Y-43.15
X127.857Y-45.7
X127.857Y-48.25
X190.413Y-112.915
X190.413Y-115.465
X190.413Y-118.015
T7
X121.035Y-59.83
X121.035Y-72.03
X127.035Y-74.03
X133.035Y-59.83
X133.035Y-72.03
X185.235Y-89.135
X185.235Y-101.335
X191.235Y-87.135
X197.235Y-89.135
X197.235Y-101.335
T8
X134.495Y-34.53
X139.495Y-34.53
X144.495Y-34.53
X151.805Y-34.88
X156.465Y-126.285
X156.805Y-34.88
X161.465Y-126.285
X161.805Y-34.88
X166.465Y-126.285
X173.775Y-126.635
X178.775Y-126.635
X183.775Y-126.635
T9
X121.635Y-77.855
X121.635Y-46.854
X121.636Y-83.31
X121.636Y-114.311
X196.634Y-46.854
X196.634Y-77.855
X196.635Y-114.311
X196.635Y-83.31
T3
G00X120.965Y-35.032
M15
G01X120.965Y-37.032
M16
G05
G00X122.965Y-40.733
M15
G01X124.965Y-40.733
M16
G05
G00X126.965Y-35.032
M15
G01X126.965Y-37.032
M16
G05
G00X191.305Y-126.132
M15
G01X191.305Y-124.132
M16
G05
G00X195.305Y-120.432
M15
G01X193.305Y-120.432
M16
G05
G00X197.305Y-126.132
M15
G01X197.305Y-124.132
M16
G05
T0
M30
