%TF.GenerationSoftware,KiCad,Pcbnew,(6.0.0)*%
%TF.CreationDate,2022-02-01T13:42:31+07:00*%
%TF.ProjectId,egg_pro_mini,6567675f-7072-46f5-9f6d-696e692e6b69,rev?*%
%TF.SameCoordinates,Original*%
%TF.FileFunction,Legend,Bot*%
%TF.FilePolarity,Positive*%
%FSLAX46Y46*%
G04 Gerber Fmt 4.6, Leading zero omitted, Abs format (unit mm)*
G04 Created by KiCad (PCBNEW (6.0.0)) date 2022-02-01 13:42:31*
%MOMM*%
%LPD*%
G01*
G04 APERTURE LIST*
%ADD10C,0.150000*%
%ADD11C,0.120000*%
G04 APERTURE END LIST*
D10*
%TO.C,K1*%
X131407380Y-63281904D02*
X130407380Y-63281904D01*
X131407380Y-63853333D02*
X130835952Y-63424761D01*
X130407380Y-63853333D02*
X130978809Y-63281904D01*
X131407380Y-64805714D02*
X131407380Y-64234285D01*
X131407380Y-64520000D02*
X130407380Y-64520000D01*
X130550238Y-64424761D01*
X130645476Y-64329523D01*
X130693095Y-64234285D01*
%TO.C,C3*%
X149416778Y-57727142D02*
X149464397Y-57774761D01*
X149607254Y-57822380D01*
X149702492Y-57822380D01*
X149845350Y-57774761D01*
X149940588Y-57679523D01*
X149988207Y-57584285D01*
X150035826Y-57393809D01*
X150035826Y-57250952D01*
X149988207Y-57060476D01*
X149940588Y-56965238D01*
X149845350Y-56870000D01*
X149702492Y-56822380D01*
X149607254Y-56822380D01*
X149464397Y-56870000D01*
X149416778Y-56917619D01*
X149083445Y-56822380D02*
X148464397Y-56822380D01*
X148797731Y-57203333D01*
X148654873Y-57203333D01*
X148559635Y-57250952D01*
X148512016Y-57298571D01*
X148464397Y-57393809D01*
X148464397Y-57631904D01*
X148512016Y-57727142D01*
X148559635Y-57774761D01*
X148654873Y-57822380D01*
X148940588Y-57822380D01*
X149035826Y-57774761D01*
X149083445Y-57727142D01*
%TO.C,C1*%
X122026778Y-48767142D02*
X122074397Y-48814761D01*
X122217254Y-48862380D01*
X122312492Y-48862380D01*
X122455350Y-48814761D01*
X122550588Y-48719523D01*
X122598207Y-48624285D01*
X122645826Y-48433809D01*
X122645826Y-48290952D01*
X122598207Y-48100476D01*
X122550588Y-48005238D01*
X122455350Y-47910000D01*
X122312492Y-47862380D01*
X122217254Y-47862380D01*
X122074397Y-47910000D01*
X122026778Y-47957619D01*
X121074397Y-48862380D02*
X121645826Y-48862380D01*
X121360112Y-48862380D02*
X121360112Y-47862380D01*
X121455350Y-48005238D01*
X121550588Y-48100476D01*
X121645826Y-48148095D01*
%TO.C,K1*%
X187767380Y-96406904D02*
X186767380Y-96406904D01*
X187767380Y-96978333D02*
X187195952Y-96549761D01*
X186767380Y-96978333D02*
X187338809Y-96406904D01*
X187767380Y-97930714D02*
X187767380Y-97359285D01*
X187767380Y-97645000D02*
X186767380Y-97645000D01*
X186910238Y-97549761D01*
X187005476Y-97454523D01*
X187053095Y-97359285D01*
%TO.C,C3*%
X169186554Y-104152142D02*
X169234173Y-104199761D01*
X169377030Y-104247380D01*
X169472268Y-104247380D01*
X169615126Y-104199761D01*
X169710364Y-104104523D01*
X169757983Y-104009285D01*
X169805602Y-103818809D01*
X169805602Y-103675952D01*
X169757983Y-103485476D01*
X169710364Y-103390238D01*
X169615126Y-103295000D01*
X169472268Y-103247380D01*
X169377030Y-103247380D01*
X169234173Y-103295000D01*
X169186554Y-103342619D01*
X168853221Y-103247380D02*
X168234173Y-103247380D01*
X168567507Y-103628333D01*
X168424649Y-103628333D01*
X168329411Y-103675952D01*
X168281792Y-103723571D01*
X168234173Y-103818809D01*
X168234173Y-104056904D01*
X168281792Y-104152142D01*
X168329411Y-104199761D01*
X168424649Y-104247380D01*
X168710364Y-104247380D01*
X168805602Y-104199761D01*
X168853221Y-104152142D01*
%TO.C,C1*%
X196576554Y-113112142D02*
X196624173Y-113159761D01*
X196767030Y-113207380D01*
X196862268Y-113207380D01*
X197005126Y-113159761D01*
X197100364Y-113064523D01*
X197147983Y-112969285D01*
X197195602Y-112778809D01*
X197195602Y-112635952D01*
X197147983Y-112445476D01*
X197100364Y-112350238D01*
X197005126Y-112255000D01*
X196862268Y-112207380D01*
X196767030Y-112207380D01*
X196624173Y-112255000D01*
X196576554Y-112302619D01*
X195624173Y-113207380D02*
X196195602Y-113207380D01*
X195909888Y-113207380D02*
X195909888Y-112207380D01*
X196005126Y-112350238D01*
X196100364Y-112445476D01*
X196195602Y-112493095D01*
D11*
%TO.C,K1*%
X121035000Y-70330000D02*
X121035000Y-68030000D01*
X119335000Y-56330000D02*
X119335000Y-75530000D01*
X127035000Y-64530000D02*
X127035000Y-63030000D01*
X125535000Y-68030000D02*
X121035000Y-68030000D01*
X128535000Y-70530000D02*
X128535000Y-65530000D01*
X134735000Y-75530000D02*
X128235000Y-75530000D01*
X127035000Y-71430000D02*
X123335000Y-71430000D01*
X127035000Y-64530000D02*
X123335000Y-64530000D01*
X134735000Y-56330000D02*
X119335000Y-56330000D01*
X133035000Y-68030000D02*
X128535000Y-68030000D01*
X123335000Y-64530000D02*
X123335000Y-71430000D01*
X125535000Y-65530000D02*
X128535000Y-70530000D01*
X134735000Y-75530000D02*
X134735000Y-56330000D01*
X131335000Y-59830000D02*
X129035000Y-59830000D01*
X133035000Y-68030000D02*
X133035000Y-70330000D01*
X127035000Y-63030000D02*
X129735000Y-58530000D01*
X125835000Y-75530000D02*
X119335000Y-75530000D01*
X125535000Y-70530000D02*
X128535000Y-70530000D01*
X122735000Y-59830000D02*
X125035000Y-59830000D01*
X128535000Y-65530000D02*
X125535000Y-65530000D01*
X127035000Y-71430000D02*
X127035000Y-72330000D01*
X125535000Y-65530000D02*
X125535000Y-70530000D01*
%TO.C,C3*%
X148089112Y-58810000D02*
X148089112Y-60080000D01*
X146969112Y-62160000D02*
X146969112Y-62371000D01*
X149010112Y-58551000D02*
X149010112Y-60080000D01*
X147529112Y-59183000D02*
X147529112Y-60080000D01*
X148369112Y-62160000D02*
X148369112Y-63548000D01*
X146769112Y-60315000D02*
X146769112Y-61925000D01*
X148529112Y-62160000D02*
X148529112Y-63600000D01*
X147529112Y-62160000D02*
X147529112Y-63057000D01*
X148529112Y-58640000D02*
X148529112Y-60080000D01*
X147089112Y-62160000D02*
X147089112Y-62563000D01*
X148209112Y-62160000D02*
X148209112Y-63485000D01*
X147569112Y-59149000D02*
X147569112Y-60080000D01*
X148810112Y-58577000D02*
X148810112Y-60080000D01*
X147889112Y-62160000D02*
X147889112Y-63320000D01*
X147129112Y-62160000D02*
X147129112Y-62620000D01*
X146729112Y-60443000D02*
X146729112Y-61797000D01*
X151804887Y-59395000D02*
X151804887Y-59895000D01*
X147369112Y-62160000D02*
X147369112Y-62905000D01*
X147689112Y-62160000D02*
X147689112Y-63185000D01*
X149170112Y-58541000D02*
X149170112Y-63699000D01*
X147249112Y-62160000D02*
X147249112Y-62773000D01*
X147889112Y-58920000D02*
X147889112Y-60080000D01*
X147409112Y-62160000D02*
X147409112Y-62946000D01*
X147209112Y-59515000D02*
X147209112Y-60080000D01*
X146689112Y-60602000D02*
X146689112Y-61638000D01*
X148730112Y-58592000D02*
X148730112Y-60080000D01*
X147129112Y-59620000D02*
X147129112Y-60080000D01*
X147249112Y-59467000D02*
X147249112Y-60080000D01*
X148850112Y-58570000D02*
X148850112Y-60080000D01*
X148089112Y-62160000D02*
X148089112Y-63430000D01*
X148249112Y-58738000D02*
X148249112Y-60080000D01*
X148650112Y-62160000D02*
X148650112Y-63631000D01*
X147809112Y-58971000D02*
X147809112Y-60080000D01*
X147769112Y-58998000D02*
X147769112Y-60080000D01*
X147929112Y-62160000D02*
X147929112Y-63344000D01*
X148129112Y-62160000D02*
X148129112Y-63449000D01*
X147009112Y-59801000D02*
X147009112Y-60080000D01*
X147769112Y-62160000D02*
X147769112Y-63242000D01*
X147609112Y-59116000D02*
X147609112Y-60080000D01*
X147569112Y-62160000D02*
X147569112Y-63091000D01*
X147729112Y-62160000D02*
X147729112Y-63215000D01*
X147169112Y-62160000D02*
X147169112Y-62674000D01*
X148570112Y-58629000D02*
X148570112Y-60080000D01*
X147289112Y-62160000D02*
X147289112Y-62819000D01*
X146969112Y-59869000D02*
X146969112Y-60080000D01*
X147809112Y-62160000D02*
X147809112Y-63269000D01*
X147289112Y-59421000D02*
X147289112Y-60080000D01*
X148249112Y-62160000D02*
X148249112Y-63502000D01*
X146929112Y-59942000D02*
X146929112Y-62298000D01*
X146809112Y-60205000D02*
X146809112Y-62035000D01*
X148289112Y-58722000D02*
X148289112Y-60080000D01*
X148409112Y-62160000D02*
X148409112Y-63562000D01*
X148209112Y-58755000D02*
X148209112Y-60080000D01*
X148890112Y-58564000D02*
X148890112Y-60080000D01*
X149210112Y-58540000D02*
X149210112Y-63700000D01*
X148930112Y-62160000D02*
X148930112Y-63681000D01*
X148409112Y-58678000D02*
X148409112Y-60080000D01*
X148009112Y-58852000D02*
X148009112Y-60080000D01*
X147209112Y-62160000D02*
X147209112Y-62725000D01*
X148169112Y-62160000D02*
X148169112Y-63468000D01*
X149050112Y-58547000D02*
X149050112Y-63693000D01*
X149090112Y-58544000D02*
X149090112Y-63696000D01*
X149010112Y-62160000D02*
X149010112Y-63689000D01*
X147329112Y-59377000D02*
X147329112Y-60080000D01*
X147329112Y-62160000D02*
X147329112Y-62863000D01*
X148610112Y-58619000D02*
X148610112Y-60080000D01*
X148329112Y-58706000D02*
X148329112Y-60080000D01*
X147729112Y-59025000D02*
X147729112Y-60080000D01*
X147969112Y-58873000D02*
X147969112Y-60080000D01*
X147449112Y-59256000D02*
X147449112Y-60080000D01*
X147969112Y-62160000D02*
X147969112Y-63367000D01*
X148329112Y-62160000D02*
X148329112Y-63534000D01*
X152054887Y-59645000D02*
X151554887Y-59645000D01*
X147449112Y-62160000D02*
X147449112Y-62984000D01*
X147689112Y-59055000D02*
X147689112Y-60080000D01*
X147369112Y-59335000D02*
X147369112Y-60080000D01*
X147489112Y-59219000D02*
X147489112Y-60080000D01*
X149130112Y-58542000D02*
X149130112Y-63698000D01*
X148289112Y-62160000D02*
X148289112Y-63518000D01*
X148169112Y-58772000D02*
X148169112Y-60080000D01*
X148049112Y-62160000D02*
X148049112Y-63410000D01*
X148970112Y-62160000D02*
X148970112Y-63685000D01*
X147929112Y-58896000D02*
X147929112Y-60080000D01*
X148049112Y-58830000D02*
X148049112Y-60080000D01*
X147649112Y-59085000D02*
X147649112Y-60080000D01*
X148489112Y-58652000D02*
X148489112Y-60080000D01*
X146889112Y-60022000D02*
X146889112Y-62218000D01*
X147089112Y-59677000D02*
X147089112Y-60080000D01*
X147489112Y-62160000D02*
X147489112Y-63021000D01*
X148810112Y-62160000D02*
X148810112Y-63663000D01*
X146649112Y-60836000D02*
X146649112Y-61404000D01*
X147009112Y-62160000D02*
X147009112Y-62439000D01*
X147409112Y-59294000D02*
X147409112Y-60080000D01*
X148690112Y-62160000D02*
X148690112Y-63640000D01*
X148770112Y-62160000D02*
X148770112Y-63656000D01*
X148449112Y-58665000D02*
X148449112Y-60080000D01*
X148369112Y-58692000D02*
X148369112Y-60080000D01*
X148129112Y-58791000D02*
X148129112Y-60080000D01*
X148690112Y-58600000D02*
X148690112Y-60080000D01*
X148850112Y-62160000D02*
X148850112Y-63670000D01*
X147849112Y-58945000D02*
X147849112Y-60080000D01*
X149250112Y-58540000D02*
X149250112Y-63700000D01*
X148570112Y-62160000D02*
X148570112Y-63611000D01*
X147849112Y-62160000D02*
X147849112Y-63295000D01*
X146849112Y-60109000D02*
X146849112Y-62131000D01*
X148770112Y-58584000D02*
X148770112Y-60080000D01*
X148930112Y-58559000D02*
X148930112Y-60080000D01*
X148610112Y-62160000D02*
X148610112Y-63621000D01*
X148650112Y-58609000D02*
X148650112Y-60080000D01*
X148009112Y-62160000D02*
X148009112Y-63388000D01*
X148730112Y-62160000D02*
X148730112Y-63648000D01*
X147049112Y-62160000D02*
X147049112Y-62503000D01*
X147169112Y-59566000D02*
X147169112Y-60080000D01*
X147649112Y-62160000D02*
X147649112Y-63155000D01*
X148489112Y-62160000D02*
X148489112Y-63588000D01*
X147609112Y-62160000D02*
X147609112Y-63124000D01*
X148890112Y-62160000D02*
X148890112Y-63676000D01*
X148449112Y-62160000D02*
X148449112Y-63575000D01*
X147049112Y-59737000D02*
X147049112Y-60080000D01*
X148970112Y-58555000D02*
X148970112Y-60080000D01*
X151870112Y-61120000D02*
G75*
G03*
X151870112Y-61120000I-2620000J0D01*
G01*
%TO.C,C1*%
X121139112Y-49680000D02*
X121139112Y-51120000D01*
X120619112Y-49892000D02*
X120619112Y-51120000D01*
X121660112Y-49587000D02*
X121660112Y-54733000D01*
X120019112Y-53200000D02*
X120019112Y-53986000D01*
X121300112Y-53200000D02*
X121300112Y-54680000D01*
X121300112Y-49640000D02*
X121300112Y-51120000D01*
X119899112Y-50461000D02*
X119899112Y-51120000D01*
X121420112Y-49617000D02*
X121420112Y-51120000D01*
X119659112Y-53200000D02*
X119659112Y-53543000D01*
X121820112Y-49580000D02*
X121820112Y-54740000D01*
X119779112Y-53200000D02*
X119779112Y-53714000D01*
X120299112Y-53200000D02*
X120299112Y-54225000D01*
X121740112Y-49582000D02*
X121740112Y-54738000D01*
X119779112Y-50606000D02*
X119779112Y-51120000D01*
X119299112Y-51642000D02*
X119299112Y-52678000D01*
X121340112Y-49632000D02*
X121340112Y-51120000D01*
X120299112Y-50095000D02*
X120299112Y-51120000D01*
X121220112Y-53200000D02*
X121220112Y-54661000D01*
X119859112Y-53200000D02*
X119859112Y-53813000D01*
X121620112Y-49591000D02*
X121620112Y-51120000D01*
X119579112Y-50909000D02*
X119579112Y-51120000D01*
X119339112Y-51483000D02*
X119339112Y-52837000D01*
X120779112Y-49812000D02*
X120779112Y-51120000D01*
X120339112Y-50065000D02*
X120339112Y-51120000D01*
X119619112Y-53200000D02*
X119619112Y-53479000D01*
X124664887Y-50685000D02*
X124164887Y-50685000D01*
X121380112Y-49624000D02*
X121380112Y-51120000D01*
X121620112Y-53200000D02*
X121620112Y-54729000D01*
X121260112Y-49649000D02*
X121260112Y-51120000D01*
X121700112Y-49584000D02*
X121700112Y-54736000D01*
X121180112Y-53200000D02*
X121180112Y-54651000D01*
X120939112Y-53200000D02*
X120939112Y-54574000D01*
X120419112Y-53200000D02*
X120419112Y-54309000D01*
X120139112Y-53200000D02*
X120139112Y-54097000D01*
X120979112Y-49732000D02*
X120979112Y-51120000D01*
X120979112Y-53200000D02*
X120979112Y-54588000D01*
X120379112Y-53200000D02*
X120379112Y-54282000D01*
X121780112Y-49581000D02*
X121780112Y-54739000D01*
X121099112Y-49692000D02*
X121099112Y-51120000D01*
X120099112Y-53200000D02*
X120099112Y-54061000D01*
X120379112Y-50038000D02*
X120379112Y-51120000D01*
X121580112Y-49595000D02*
X121580112Y-51120000D01*
X119259112Y-51876000D02*
X119259112Y-52444000D01*
X120739112Y-49831000D02*
X120739112Y-51120000D01*
X119819112Y-53200000D02*
X119819112Y-53765000D01*
X120259112Y-53200000D02*
X120259112Y-54195000D01*
X121180112Y-49669000D02*
X121180112Y-51120000D01*
X121059112Y-53200000D02*
X121059112Y-54615000D01*
X120459112Y-53200000D02*
X120459112Y-54335000D01*
X120699112Y-49850000D02*
X120699112Y-51120000D01*
X120059112Y-50296000D02*
X120059112Y-51120000D01*
X120539112Y-53200000D02*
X120539112Y-54384000D01*
X119459112Y-51149000D02*
X119459112Y-53171000D01*
X121580112Y-53200000D02*
X121580112Y-54725000D01*
X120859112Y-49778000D02*
X120859112Y-51120000D01*
X120579112Y-53200000D02*
X120579112Y-54407000D01*
X120619112Y-53200000D02*
X120619112Y-54428000D01*
X119939112Y-53200000D02*
X119939112Y-53903000D01*
X119619112Y-50841000D02*
X119619112Y-51120000D01*
X121099112Y-53200000D02*
X121099112Y-54628000D01*
X121860112Y-49580000D02*
X121860112Y-54740000D01*
X120019112Y-50334000D02*
X120019112Y-51120000D01*
X119819112Y-50555000D02*
X119819112Y-51120000D01*
X121500112Y-49604000D02*
X121500112Y-51120000D01*
X121540112Y-49599000D02*
X121540112Y-51120000D01*
X120699112Y-53200000D02*
X120699112Y-54470000D01*
X120539112Y-49936000D02*
X120539112Y-51120000D01*
X121380112Y-53200000D02*
X121380112Y-54696000D01*
X120099112Y-50259000D02*
X120099112Y-51120000D01*
X120819112Y-53200000D02*
X120819112Y-54525000D01*
X120219112Y-53200000D02*
X120219112Y-54164000D01*
X121059112Y-49705000D02*
X121059112Y-51120000D01*
X120739112Y-53200000D02*
X120739112Y-54489000D01*
X120779112Y-53200000D02*
X120779112Y-54508000D01*
X124414887Y-50435000D02*
X124414887Y-50935000D01*
X119899112Y-53200000D02*
X119899112Y-53859000D01*
X120179112Y-53200000D02*
X120179112Y-54131000D01*
X120939112Y-49746000D02*
X120939112Y-51120000D01*
X121540112Y-53200000D02*
X121540112Y-54721000D01*
X121260112Y-53200000D02*
X121260112Y-54671000D01*
X120339112Y-53200000D02*
X120339112Y-54255000D01*
X120819112Y-49795000D02*
X120819112Y-51120000D01*
X121220112Y-49659000D02*
X121220112Y-51120000D01*
X120899112Y-53200000D02*
X120899112Y-54558000D01*
X119739112Y-53200000D02*
X119739112Y-53660000D01*
X120899112Y-49762000D02*
X120899112Y-51120000D01*
X121460112Y-53200000D02*
X121460112Y-54710000D01*
X120059112Y-53200000D02*
X120059112Y-54024000D01*
X120659112Y-53200000D02*
X120659112Y-54450000D01*
X120459112Y-49985000D02*
X120459112Y-51120000D01*
X120259112Y-50125000D02*
X120259112Y-51120000D01*
X119859112Y-50507000D02*
X119859112Y-51120000D01*
X119699112Y-53200000D02*
X119699112Y-53603000D01*
X119499112Y-51062000D02*
X119499112Y-53258000D01*
X120499112Y-53200000D02*
X120499112Y-54360000D01*
X119699112Y-50717000D02*
X119699112Y-51120000D01*
X121460112Y-49610000D02*
X121460112Y-51120000D01*
X120859112Y-53200000D02*
X120859112Y-54542000D01*
X121019112Y-49718000D02*
X121019112Y-51120000D01*
X121340112Y-53200000D02*
X121340112Y-54688000D01*
X121139112Y-53200000D02*
X121139112Y-54640000D01*
X119979112Y-50375000D02*
X119979112Y-51120000D01*
X120219112Y-50156000D02*
X120219112Y-51120000D01*
X121420112Y-53200000D02*
X121420112Y-54703000D01*
X120179112Y-50189000D02*
X120179112Y-51120000D01*
X121500112Y-53200000D02*
X121500112Y-54716000D01*
X119739112Y-50660000D02*
X119739112Y-51120000D01*
X119939112Y-50417000D02*
X119939112Y-51120000D01*
X119379112Y-51355000D02*
X119379112Y-52965000D01*
X119579112Y-53200000D02*
X119579112Y-53411000D01*
X119419112Y-51245000D02*
X119419112Y-53075000D01*
X120579112Y-49913000D02*
X120579112Y-51120000D01*
X119539112Y-50982000D02*
X119539112Y-53338000D01*
X121019112Y-53200000D02*
X121019112Y-54602000D01*
X119979112Y-53200000D02*
X119979112Y-53945000D01*
X120659112Y-49870000D02*
X120659112Y-51120000D01*
X120499112Y-49960000D02*
X120499112Y-51120000D01*
X119659112Y-50777000D02*
X119659112Y-51120000D01*
X120139112Y-50223000D02*
X120139112Y-51120000D01*
X120419112Y-50011000D02*
X120419112Y-51120000D01*
X124480112Y-52160000D02*
G75*
G03*
X124480112Y-52160000I-2620000J0D01*
G01*
%TO.C,K1*%
X197235000Y-90835000D02*
X197235000Y-93135000D01*
X198935000Y-104835000D02*
X198935000Y-85635000D01*
X191235000Y-96635000D02*
X191235000Y-98135000D01*
X192735000Y-93135000D02*
X197235000Y-93135000D01*
X189735000Y-90635000D02*
X189735000Y-95635000D01*
X183535000Y-85635000D02*
X190035000Y-85635000D01*
X191235000Y-89735000D02*
X194935000Y-89735000D01*
X191235000Y-96635000D02*
X194935000Y-96635000D01*
X183535000Y-104835000D02*
X198935000Y-104835000D01*
X185235000Y-93135000D02*
X189735000Y-93135000D01*
X194935000Y-96635000D02*
X194935000Y-89735000D01*
X192735000Y-95635000D02*
X189735000Y-90635000D01*
X183535000Y-85635000D02*
X183535000Y-104835000D01*
X186935000Y-101335000D02*
X189235000Y-101335000D01*
X185235000Y-93135000D02*
X185235000Y-90835000D01*
X191235000Y-98135000D02*
X188535000Y-102635000D01*
X192435000Y-85635000D02*
X198935000Y-85635000D01*
X192735000Y-90635000D02*
X189735000Y-90635000D01*
X195535000Y-101335000D02*
X193235000Y-101335000D01*
X189735000Y-95635000D02*
X192735000Y-95635000D01*
X191235000Y-89735000D02*
X191235000Y-88835000D01*
X192735000Y-95635000D02*
X192735000Y-90635000D01*
%TO.C,C3*%
X170180888Y-102355000D02*
X170180888Y-101085000D01*
X171300888Y-99005000D02*
X171300888Y-98794000D01*
X169259888Y-102614000D02*
X169259888Y-101085000D01*
X170740888Y-101982000D02*
X170740888Y-101085000D01*
X169900888Y-99005000D02*
X169900888Y-97617000D01*
X171500888Y-100850000D02*
X171500888Y-99240000D01*
X169740888Y-99005000D02*
X169740888Y-97565000D01*
X170740888Y-99005000D02*
X170740888Y-98108000D01*
X169740888Y-102525000D02*
X169740888Y-101085000D01*
X171180888Y-99005000D02*
X171180888Y-98602000D01*
X170060888Y-99005000D02*
X170060888Y-97680000D01*
X170700888Y-102016000D02*
X170700888Y-101085000D01*
X169459888Y-102588000D02*
X169459888Y-101085000D01*
X170380888Y-99005000D02*
X170380888Y-97845000D01*
X171140888Y-99005000D02*
X171140888Y-98545000D01*
X171540888Y-100722000D02*
X171540888Y-99368000D01*
X166465113Y-101770000D02*
X166465113Y-101270000D01*
X170900888Y-99005000D02*
X170900888Y-98260000D01*
X170580888Y-99005000D02*
X170580888Y-97980000D01*
X169099888Y-102624000D02*
X169099888Y-97466000D01*
X171020888Y-99005000D02*
X171020888Y-98392000D01*
X170380888Y-102245000D02*
X170380888Y-101085000D01*
X170860888Y-99005000D02*
X170860888Y-98219000D01*
X171060888Y-101650000D02*
X171060888Y-101085000D01*
X171580888Y-100563000D02*
X171580888Y-99527000D01*
X169539888Y-102573000D02*
X169539888Y-101085000D01*
X171140888Y-101545000D02*
X171140888Y-101085000D01*
X171020888Y-101698000D02*
X171020888Y-101085000D01*
X169419888Y-102595000D02*
X169419888Y-101085000D01*
X170180888Y-99005000D02*
X170180888Y-97735000D01*
X170020888Y-102427000D02*
X170020888Y-101085000D01*
X169619888Y-99005000D02*
X169619888Y-97534000D01*
X170460888Y-102194000D02*
X170460888Y-101085000D01*
X170500888Y-102167000D02*
X170500888Y-101085000D01*
X170340888Y-99005000D02*
X170340888Y-97821000D01*
X170140888Y-99005000D02*
X170140888Y-97716000D01*
X171260888Y-101364000D02*
X171260888Y-101085000D01*
X170500888Y-99005000D02*
X170500888Y-97923000D01*
X170660888Y-102049000D02*
X170660888Y-101085000D01*
X170700888Y-99005000D02*
X170700888Y-98074000D01*
X170540888Y-99005000D02*
X170540888Y-97950000D01*
X171100888Y-99005000D02*
X171100888Y-98491000D01*
X169699888Y-102536000D02*
X169699888Y-101085000D01*
X170980888Y-99005000D02*
X170980888Y-98346000D01*
X171300888Y-101296000D02*
X171300888Y-101085000D01*
X170460888Y-99005000D02*
X170460888Y-97896000D01*
X170980888Y-101744000D02*
X170980888Y-101085000D01*
X170020888Y-99005000D02*
X170020888Y-97663000D01*
X171340888Y-101223000D02*
X171340888Y-98867000D01*
X171460888Y-100960000D02*
X171460888Y-99130000D01*
X169980888Y-102443000D02*
X169980888Y-101085000D01*
X169860888Y-99005000D02*
X169860888Y-97603000D01*
X170060888Y-102410000D02*
X170060888Y-101085000D01*
X169379888Y-102601000D02*
X169379888Y-101085000D01*
X169059888Y-102625000D02*
X169059888Y-97465000D01*
X169339888Y-99005000D02*
X169339888Y-97484000D01*
X169860888Y-102487000D02*
X169860888Y-101085000D01*
X170260888Y-102313000D02*
X170260888Y-101085000D01*
X171060888Y-99005000D02*
X171060888Y-98440000D01*
X170100888Y-99005000D02*
X170100888Y-97697000D01*
X169219888Y-102618000D02*
X169219888Y-97472000D01*
X169179888Y-102621000D02*
X169179888Y-97469000D01*
X169259888Y-99005000D02*
X169259888Y-97476000D01*
X170940888Y-101788000D02*
X170940888Y-101085000D01*
X170940888Y-99005000D02*
X170940888Y-98302000D01*
X169659888Y-102546000D02*
X169659888Y-101085000D01*
X169940888Y-102459000D02*
X169940888Y-101085000D01*
X170540888Y-102140000D02*
X170540888Y-101085000D01*
X170300888Y-102292000D02*
X170300888Y-101085000D01*
X170820888Y-101909000D02*
X170820888Y-101085000D01*
X170300888Y-99005000D02*
X170300888Y-97798000D01*
X169940888Y-99005000D02*
X169940888Y-97631000D01*
X166215113Y-101520000D02*
X166715113Y-101520000D01*
X170820888Y-99005000D02*
X170820888Y-98181000D01*
X170580888Y-102110000D02*
X170580888Y-101085000D01*
X170900888Y-101830000D02*
X170900888Y-101085000D01*
X170780888Y-101946000D02*
X170780888Y-101085000D01*
X169139888Y-102623000D02*
X169139888Y-97467000D01*
X169980888Y-99005000D02*
X169980888Y-97647000D01*
X170100888Y-102393000D02*
X170100888Y-101085000D01*
X170220888Y-99005000D02*
X170220888Y-97755000D01*
X169299888Y-99005000D02*
X169299888Y-97480000D01*
X170340888Y-102269000D02*
X170340888Y-101085000D01*
X170220888Y-102335000D02*
X170220888Y-101085000D01*
X170620888Y-102080000D02*
X170620888Y-101085000D01*
X169780888Y-102513000D02*
X169780888Y-101085000D01*
X171380888Y-101143000D02*
X171380888Y-98947000D01*
X171180888Y-101488000D02*
X171180888Y-101085000D01*
X170780888Y-99005000D02*
X170780888Y-98144000D01*
X169459888Y-99005000D02*
X169459888Y-97502000D01*
X171620888Y-100329000D02*
X171620888Y-99761000D01*
X171260888Y-99005000D02*
X171260888Y-98726000D01*
X170860888Y-101871000D02*
X170860888Y-101085000D01*
X169579888Y-99005000D02*
X169579888Y-97525000D01*
X169499888Y-99005000D02*
X169499888Y-97509000D01*
X169820888Y-102500000D02*
X169820888Y-101085000D01*
X169900888Y-102473000D02*
X169900888Y-101085000D01*
X170140888Y-102374000D02*
X170140888Y-101085000D01*
X169579888Y-102565000D02*
X169579888Y-101085000D01*
X169419888Y-99005000D02*
X169419888Y-97495000D01*
X170420888Y-102220000D02*
X170420888Y-101085000D01*
X169019888Y-102625000D02*
X169019888Y-97465000D01*
X169699888Y-99005000D02*
X169699888Y-97554000D01*
X170420888Y-99005000D02*
X170420888Y-97870000D01*
X171420888Y-101056000D02*
X171420888Y-99034000D01*
X169499888Y-102581000D02*
X169499888Y-101085000D01*
X169339888Y-102606000D02*
X169339888Y-101085000D01*
X169659888Y-99005000D02*
X169659888Y-97544000D01*
X169619888Y-102556000D02*
X169619888Y-101085000D01*
X170260888Y-99005000D02*
X170260888Y-97777000D01*
X169539888Y-99005000D02*
X169539888Y-97517000D01*
X171220888Y-99005000D02*
X171220888Y-98662000D01*
X171100888Y-101599000D02*
X171100888Y-101085000D01*
X170620888Y-99005000D02*
X170620888Y-98010000D01*
X169780888Y-99005000D02*
X169780888Y-97577000D01*
X170660888Y-99005000D02*
X170660888Y-98041000D01*
X169379888Y-99005000D02*
X169379888Y-97489000D01*
X169820888Y-99005000D02*
X169820888Y-97590000D01*
X171220888Y-101428000D02*
X171220888Y-101085000D01*
X169299888Y-102610000D02*
X169299888Y-101085000D01*
X171639888Y-100045000D02*
G75*
G03*
X171639888Y-100045000I-2620000J0D01*
G01*
%TO.C,C1*%
X197130888Y-111485000D02*
X197130888Y-110045000D01*
X197650888Y-111273000D02*
X197650888Y-110045000D01*
X196609888Y-111578000D02*
X196609888Y-106432000D01*
X198250888Y-107965000D02*
X198250888Y-107179000D01*
X196969888Y-107965000D02*
X196969888Y-106485000D01*
X196969888Y-111525000D02*
X196969888Y-110045000D01*
X198370888Y-110704000D02*
X198370888Y-110045000D01*
X196849888Y-111548000D02*
X196849888Y-110045000D01*
X198610888Y-107965000D02*
X198610888Y-107622000D01*
X196449888Y-111585000D02*
X196449888Y-106425000D01*
X198490888Y-107965000D02*
X198490888Y-107451000D01*
X197970888Y-107965000D02*
X197970888Y-106940000D01*
X196529888Y-111583000D02*
X196529888Y-106427000D01*
X198490888Y-110559000D02*
X198490888Y-110045000D01*
X198970888Y-109523000D02*
X198970888Y-108487000D01*
X196929888Y-111533000D02*
X196929888Y-110045000D01*
X197970888Y-111070000D02*
X197970888Y-110045000D01*
X197049888Y-107965000D02*
X197049888Y-106504000D01*
X198410888Y-107965000D02*
X198410888Y-107352000D01*
X196649888Y-111574000D02*
X196649888Y-110045000D01*
X198690888Y-110256000D02*
X198690888Y-110045000D01*
X198930888Y-109682000D02*
X198930888Y-108328000D01*
X197490888Y-111353000D02*
X197490888Y-110045000D01*
X197930888Y-111100000D02*
X197930888Y-110045000D01*
X198650888Y-107965000D02*
X198650888Y-107686000D01*
X193605113Y-110480000D02*
X194105113Y-110480000D01*
X196889888Y-111541000D02*
X196889888Y-110045000D01*
X196649888Y-107965000D02*
X196649888Y-106436000D01*
X197009888Y-111516000D02*
X197009888Y-110045000D01*
X196569888Y-111581000D02*
X196569888Y-106429000D01*
X197089888Y-107965000D02*
X197089888Y-106514000D01*
X197330888Y-107965000D02*
X197330888Y-106591000D01*
X197850888Y-107965000D02*
X197850888Y-106856000D01*
X198130888Y-107965000D02*
X198130888Y-107068000D01*
X197290888Y-111433000D02*
X197290888Y-110045000D01*
X197290888Y-107965000D02*
X197290888Y-106577000D01*
X197890888Y-107965000D02*
X197890888Y-106883000D01*
X196489888Y-111584000D02*
X196489888Y-106426000D01*
X197170888Y-111473000D02*
X197170888Y-110045000D01*
X198170888Y-107965000D02*
X198170888Y-107104000D01*
X197890888Y-111127000D02*
X197890888Y-110045000D01*
X196689888Y-111570000D02*
X196689888Y-110045000D01*
X199010888Y-109289000D02*
X199010888Y-108721000D01*
X197530888Y-111334000D02*
X197530888Y-110045000D01*
X198450888Y-107965000D02*
X198450888Y-107400000D01*
X198010888Y-107965000D02*
X198010888Y-106970000D01*
X197089888Y-111496000D02*
X197089888Y-110045000D01*
X197210888Y-107965000D02*
X197210888Y-106550000D01*
X197810888Y-107965000D02*
X197810888Y-106830000D01*
X197570888Y-111315000D02*
X197570888Y-110045000D01*
X198210888Y-110869000D02*
X198210888Y-110045000D01*
X197730888Y-107965000D02*
X197730888Y-106781000D01*
X198810888Y-110016000D02*
X198810888Y-107994000D01*
X196689888Y-107965000D02*
X196689888Y-106440000D01*
X197410888Y-111387000D02*
X197410888Y-110045000D01*
X197690888Y-107965000D02*
X197690888Y-106758000D01*
X197650888Y-107965000D02*
X197650888Y-106737000D01*
X198330888Y-107965000D02*
X198330888Y-107262000D01*
X198650888Y-110324000D02*
X198650888Y-110045000D01*
X197170888Y-107965000D02*
X197170888Y-106537000D01*
X196409888Y-111585000D02*
X196409888Y-106425000D01*
X198250888Y-110831000D02*
X198250888Y-110045000D01*
X198450888Y-110610000D02*
X198450888Y-110045000D01*
X196769888Y-111561000D02*
X196769888Y-110045000D01*
X196729888Y-111566000D02*
X196729888Y-110045000D01*
X197570888Y-107965000D02*
X197570888Y-106695000D01*
X197730888Y-111229000D02*
X197730888Y-110045000D01*
X196889888Y-107965000D02*
X196889888Y-106469000D01*
X198170888Y-110906000D02*
X198170888Y-110045000D01*
X197450888Y-107965000D02*
X197450888Y-106640000D01*
X198050888Y-107965000D02*
X198050888Y-107001000D01*
X197210888Y-111460000D02*
X197210888Y-110045000D01*
X197530888Y-107965000D02*
X197530888Y-106676000D01*
X197490888Y-107965000D02*
X197490888Y-106657000D01*
X193855113Y-110730000D02*
X193855113Y-110230000D01*
X198370888Y-107965000D02*
X198370888Y-107306000D01*
X198090888Y-107965000D02*
X198090888Y-107034000D01*
X197330888Y-111419000D02*
X197330888Y-110045000D01*
X196729888Y-107965000D02*
X196729888Y-106444000D01*
X197009888Y-107965000D02*
X197009888Y-106494000D01*
X197930888Y-107965000D02*
X197930888Y-106910000D01*
X197450888Y-111370000D02*
X197450888Y-110045000D01*
X197049888Y-111506000D02*
X197049888Y-110045000D01*
X197370888Y-107965000D02*
X197370888Y-106607000D01*
X198530888Y-107965000D02*
X198530888Y-107505000D01*
X197370888Y-111403000D02*
X197370888Y-110045000D01*
X196809888Y-107965000D02*
X196809888Y-106455000D01*
X198210888Y-107965000D02*
X198210888Y-107141000D01*
X197610888Y-107965000D02*
X197610888Y-106715000D01*
X197810888Y-111180000D02*
X197810888Y-110045000D01*
X198010888Y-111040000D02*
X198010888Y-110045000D01*
X198410888Y-110658000D02*
X198410888Y-110045000D01*
X198570888Y-107965000D02*
X198570888Y-107562000D01*
X198770888Y-110103000D02*
X198770888Y-107907000D01*
X197770888Y-107965000D02*
X197770888Y-106805000D01*
X198570888Y-110448000D02*
X198570888Y-110045000D01*
X196809888Y-111555000D02*
X196809888Y-110045000D01*
X197410888Y-107965000D02*
X197410888Y-106623000D01*
X197250888Y-111447000D02*
X197250888Y-110045000D01*
X196929888Y-107965000D02*
X196929888Y-106477000D01*
X197130888Y-107965000D02*
X197130888Y-106525000D01*
X198290888Y-110790000D02*
X198290888Y-110045000D01*
X198050888Y-111009000D02*
X198050888Y-110045000D01*
X196849888Y-107965000D02*
X196849888Y-106462000D01*
X198090888Y-110976000D02*
X198090888Y-110045000D01*
X196769888Y-107965000D02*
X196769888Y-106449000D01*
X198530888Y-110505000D02*
X198530888Y-110045000D01*
X198330888Y-110748000D02*
X198330888Y-110045000D01*
X198890888Y-109810000D02*
X198890888Y-108200000D01*
X198690888Y-107965000D02*
X198690888Y-107754000D01*
X198850888Y-109920000D02*
X198850888Y-108090000D01*
X197690888Y-111252000D02*
X197690888Y-110045000D01*
X198730888Y-110183000D02*
X198730888Y-107827000D01*
X197250888Y-107965000D02*
X197250888Y-106563000D01*
X198290888Y-107965000D02*
X198290888Y-107220000D01*
X197610888Y-111295000D02*
X197610888Y-110045000D01*
X197770888Y-111205000D02*
X197770888Y-110045000D01*
X198610888Y-110388000D02*
X198610888Y-110045000D01*
X198130888Y-110942000D02*
X198130888Y-110045000D01*
X197850888Y-111154000D02*
X197850888Y-110045000D01*
X199029888Y-109005000D02*
G75*
G03*
X199029888Y-109005000I-2620000J0D01*
G01*
%TD*%
M02*
