%TF.GenerationSoftware,KiCad,Pcbnew,(6.0.0)*%
%TF.CreationDate,2022-01-31T23:05:30+07:00*%
%TF.ProjectId,eggmodel_V1.1,6567676d-6f64-4656-9c5f-56312e312e6b,rev?*%
%TF.SameCoordinates,Original*%
%TF.FileFunction,Legend,Bot*%
%TF.FilePolarity,Positive*%
%FSLAX46Y46*%
G04 Gerber Fmt 4.6, Leading zero omitted, Abs format (unit mm)*
G04 Created by KiCad (PCBNEW (6.0.0)) date 2022-01-31 23:05:30*
%MOMM*%
%LPD*%
G01*
G04 APERTURE LIST*
%ADD10C,0.150000*%
%ADD11C,0.120000*%
%ADD12C,0.127000*%
G04 APERTURE END LIST*
D10*
%TO.C,A1*%
X119146666Y-99485714D02*
X119146666Y-99961904D01*
X119432380Y-99390476D02*
X118432380Y-99723809D01*
X119432380Y-100057142D01*
X119432380Y-100914285D02*
X119432380Y-100342857D01*
X119432380Y-100628571D02*
X118432380Y-100628571D01*
X118575238Y-100533333D01*
X118670476Y-100438095D01*
X118718095Y-100342857D01*
%TO.C,K1*%
X152823333Y-100613333D02*
X152823333Y-99213333D01*
X152023333Y-100613333D02*
X152623333Y-99813333D01*
X152023333Y-99213333D02*
X152823333Y-100013333D01*
X150690000Y-100613333D02*
X151490000Y-100613333D01*
X151090000Y-100613333D02*
X151090000Y-99213333D01*
X151223333Y-99413333D01*
X151356666Y-99546666D01*
X151490000Y-99613333D01*
D11*
%TO.C,A1*%
X97930000Y-109030000D02*
X97930000Y-90990000D01*
X136160000Y-106360000D02*
X136160000Y-109030000D01*
X97930000Y-90990000D02*
X141370000Y-90990000D01*
X138700000Y-93660000D02*
X138700000Y-90990000D01*
X138700000Y-106360000D02*
X138700000Y-109030000D01*
X100600000Y-93660000D02*
X100600000Y-90990000D01*
X141370000Y-109030000D02*
X138700000Y-109030000D01*
X141370000Y-90990000D02*
X141370000Y-109030000D01*
X138700000Y-93660000D02*
X100600000Y-93660000D01*
X136160000Y-106360000D02*
X138700000Y-106360000D01*
X136160000Y-106360000D02*
X100600000Y-106360000D01*
X136160000Y-109030000D02*
X97930000Y-109030000D01*
X100600000Y-106360000D02*
X100600000Y-109030000D01*
D12*
%TO.C,K1*%
X161060000Y-92210000D02*
X142060000Y-92210000D01*
X142060000Y-92210000D02*
X142060000Y-107710000D01*
X161060000Y-107710000D02*
X161060000Y-92210000D01*
X142060000Y-107710000D02*
X161060000Y-107710000D01*
%TD*%
M02*
