M48
; DRILL file {KiCad (6.0.0)} date Mon Jan 31 23:05:26 2022
; FORMAT={-:-/ absolute / metric / decimal}
; #@! TF.CreationDate,2022-01-31T23:05:26+07:00
; #@! TF.GenerationSoftware,Kicad,Pcbnew,(6.0.0)
; #@! TF.FileFunction,Plated,1,2,PTH
FMAT,2
METRIC
; #@! TA.AperFunction,Plated,PTH,ComponentDrill
T1C0.700
; #@! TA.AperFunction,Plated,PTH,ComponentDrill
T2C0.800
; #@! TA.AperFunction,Plated,PTH,ComponentDrill
T3C1.000
; #@! TA.AperFunction,Plated,PTH,ComponentDrill
T4C1.100
; #@! TA.AperFunction,Plated,PTH,ComponentDrill
T5C1.200
; #@! TA.AperFunction,Plated,PTH,ComponentDrill
T6C1.270
; #@! TA.AperFunction,Plated,PTH,ComponentDrill
T7C1.300
; #@! TA.AperFunction,Plated,PTH,ComponentDrill
T8C1.360
; #@! TA.AperFunction,Plated,PTH,ComponentDrill
T9C2.500
%
G90
G05
T1
X88.23Y-118.43
X95.85Y-118.43
X125.78Y-113.96
X125.9Y-116.15
X133.4Y-113.96
X133.52Y-116.15
T2
X119.9Y-114.3
X122.44Y-111.76
X122.44Y-116.84
X136.31Y-113.965
X136.31Y-116.505
X139.6Y-128.33
X139.63Y-122.62
X142.1Y-128.33
X142.13Y-122.62
X143.93Y-113.965
X143.93Y-116.505
X153.5Y-123.05
X153.5Y-125.55
T3
X101.87Y-92.39
X101.87Y-107.63
X104.41Y-92.39
X104.41Y-107.63
X106.95Y-92.39
X106.95Y-107.63
X109.49Y-92.39
X109.49Y-107.63
X112.03Y-92.39
X112.03Y-107.63
X114.57Y-92.39
X114.57Y-107.63
X117.11Y-92.39
X117.11Y-107.63
X119.65Y-92.39
X119.65Y-107.63
X122.19Y-92.39
X122.19Y-107.63
X124.73Y-92.39
X124.73Y-107.63
X127.27Y-92.39
X127.27Y-107.63
X129.81Y-92.39
X129.81Y-107.63
X132.35Y-92.39
X132.35Y-107.63
X134.89Y-92.39
X134.89Y-107.63
X137.43Y-92.39
X137.43Y-107.63
T4
X98.63Y-119.74
X98.63Y-124.24
X105.13Y-119.74
X105.13Y-124.24
X108.72Y-119.72
X108.72Y-124.22
X115.22Y-119.72
X115.22Y-124.22
X118.71Y-119.74
X118.71Y-124.24
X125.21Y-119.74
X125.21Y-124.24
X145.41Y-110.85
X155.57Y-110.85
T5
X92.44Y-83.902
X94.98Y-83.902
X97.52Y-83.902
X100.06Y-83.902
X102.6Y-83.902
X105.14Y-83.902
X107.68Y-83.902
X110.22Y-83.902
X112.76Y-83.902
X115.3Y-83.902
X117.84Y-83.902
X120.38Y-83.902
X122.92Y-83.902
X125.46Y-83.902
X128.0Y-83.902
X130.54Y-83.902
T6
X148.258Y-122.93
X148.258Y-125.48
X148.258Y-128.03
T7
X143.46Y-99.96
X145.46Y-93.96
X145.46Y-105.96
X157.66Y-93.96
X157.66Y-105.96
T8
X88.168Y-123.91
X90.709Y-123.91
X93.248Y-123.91
X161.06Y-119.45
X161.06Y-121.99
X161.06Y-124.53
T9
X86.941Y-83.902
X86.941Y-114.903
X161.939Y-114.903
X161.94Y-83.902
T3
G00X130.3Y-122.91
M15
G01X132.3Y-122.91
M16
G05
G00X130.3Y-128.91
M15
G01X132.3Y-128.91
M16
G05
G00X136.0Y-126.91
M15
G01X136.0Y-124.91
M16
G05
T0
M30
