%TF.GenerationSoftware,KiCad,Pcbnew,(6.0.0)*%
%TF.CreationDate,2022-01-31T23:05:30+07:00*%
%TF.ProjectId,eggmodel_V1.1,6567676d-6f64-4656-9c5f-56312e312e6b,rev?*%
%TF.SameCoordinates,Original*%
%TF.FileFunction,Copper,L1,Top*%
%TF.FilePolarity,Positive*%
%FSLAX46Y46*%
G04 Gerber Fmt 4.6, Leading zero omitted, Abs format (unit mm)*
G04 Created by KiCad (PCBNEW (6.0.0)) date 2022-01-31 23:05:30*
%MOMM*%
%LPD*%
G01*
G04 APERTURE LIST*
G04 Aperture macros list*
%AMRoundRect*
0 Rectangle with rounded corners*
0 $1 Rounding radius*
0 $2 $3 $4 $5 $6 $7 $8 $9 X,Y pos of 4 corners*
0 Add a 4 corners polygon primitive as box body*
4,1,4,$2,$3,$4,$5,$6,$7,$8,$9,$2,$3,0*
0 Add four circle primitives for the rounded corners*
1,1,$1+$1,$2,$3*
1,1,$1+$1,$4,$5*
1,1,$1+$1,$6,$7*
1,1,$1+$1,$8,$9*
0 Add four rect primitives between the rounded corners*
20,1,$1+$1,$2,$3,$4,$5,0*
20,1,$1+$1,$4,$5,$6,$7,0*
20,1,$1+$1,$6,$7,$8,$9,0*
20,1,$1+$1,$8,$9,$2,$3,0*%
G04 Aperture macros list end*
%ADD10C,0.300000*%
%TA.AperFunction,NonConductor*%
%ADD11C,0.300000*%
%TD*%
%TA.AperFunction,ComponentPad*%
%ADD12R,2.040000X2.040000*%
%TD*%
%TA.AperFunction,ComponentPad*%
%ADD13C,2.040000*%
%TD*%
%TA.AperFunction,ComponentPad*%
%ADD14R,3.500000X3.500000*%
%TD*%
%TA.AperFunction,ComponentPad*%
%ADD15RoundRect,0.750000X1.000000X-0.750000X1.000000X0.750000X-1.000000X0.750000X-1.000000X-0.750000X0*%
%TD*%
%TA.AperFunction,ComponentPad*%
%ADD16RoundRect,0.875000X0.875000X-0.875000X0.875000X0.875000X-0.875000X0.875000X-0.875000X-0.875000X0*%
%TD*%
%TA.AperFunction,ComponentPad*%
%ADD17C,1.400000*%
%TD*%
%TA.AperFunction,ComponentPad*%
%ADD18O,1.400000X1.400000*%
%TD*%
%TA.AperFunction,ComponentPad*%
%ADD19R,1.500000X1.500000*%
%TD*%
%TA.AperFunction,ComponentPad*%
%ADD20C,1.500000*%
%TD*%
%TA.AperFunction,ComponentPad*%
%ADD21C,3.000000*%
%TD*%
%TA.AperFunction,ComponentPad*%
%ADD22R,1.800000X2.600000*%
%TD*%
%TA.AperFunction,ComponentPad*%
%ADD23O,1.800000X2.600000*%
%TD*%
%TA.AperFunction,ComponentPad*%
%ADD24C,2.000000*%
%TD*%
%TA.AperFunction,ComponentPad*%
%ADD25R,1.600000X1.600000*%
%TD*%
%TA.AperFunction,ComponentPad*%
%ADD26C,1.600000*%
%TD*%
%TA.AperFunction,ComponentPad*%
%ADD27O,1.600000X1.600000*%
%TD*%
%TA.AperFunction,ComponentPad*%
%ADD28R,1.910000X1.910000*%
%TD*%
%TA.AperFunction,ComponentPad*%
%ADD29C,1.910000*%
%TD*%
%TA.AperFunction,ComponentPad*%
%ADD30R,2.200000X2.200000*%
%TD*%
%TA.AperFunction,ComponentPad*%
%ADD31O,2.200000X2.200000*%
%TD*%
%TA.AperFunction,ComponentPad*%
%ADD32C,1.950000*%
%TD*%
%TA.AperFunction,Conductor*%
%ADD33C,1.500000*%
%TD*%
%TA.AperFunction,Conductor*%
%ADD34C,1.400000*%
%TD*%
G04 APERTURE END LIST*
D10*
D11*
X103622857Y-127651071D02*
X103622857Y-126151071D01*
X103980000Y-126151071D01*
X104194285Y-126222500D01*
X104337142Y-126365357D01*
X104408571Y-126508214D01*
X104480000Y-126793928D01*
X104480000Y-127008214D01*
X104408571Y-127293928D01*
X104337142Y-127436785D01*
X104194285Y-127579642D01*
X103980000Y-127651071D01*
X103622857Y-127651071D01*
X105694285Y-127579642D02*
X105551428Y-127651071D01*
X105265714Y-127651071D01*
X105122857Y-127579642D01*
X105051428Y-127436785D01*
X105051428Y-126865357D01*
X105122857Y-126722500D01*
X105265714Y-126651071D01*
X105551428Y-126651071D01*
X105694285Y-126722500D01*
X105765714Y-126865357D01*
X105765714Y-127008214D01*
X105051428Y-127151071D01*
X106337142Y-127579642D02*
X106480000Y-127651071D01*
X106765714Y-127651071D01*
X106908571Y-127579642D01*
X106980000Y-127436785D01*
X106980000Y-127365357D01*
X106908571Y-127222500D01*
X106765714Y-127151071D01*
X106551428Y-127151071D01*
X106408571Y-127079642D01*
X106337142Y-126936785D01*
X106337142Y-126865357D01*
X106408571Y-126722500D01*
X106551428Y-126651071D01*
X106765714Y-126651071D01*
X106908571Y-126722500D01*
X108265714Y-127651071D02*
X108265714Y-126865357D01*
X108194285Y-126722500D01*
X108051428Y-126651071D01*
X107765714Y-126651071D01*
X107622857Y-126722500D01*
X108265714Y-127579642D02*
X108122857Y-127651071D01*
X107765714Y-127651071D01*
X107622857Y-127579642D01*
X107551428Y-127436785D01*
X107551428Y-127293928D01*
X107622857Y-127151071D01*
X107765714Y-127079642D01*
X108122857Y-127079642D01*
X108265714Y-127008214D01*
X108980000Y-127651071D02*
X108980000Y-126651071D01*
X108980000Y-126151071D02*
X108908571Y-126222500D01*
X108980000Y-126293928D01*
X109051428Y-126222500D01*
X108980000Y-126151071D01*
X108980000Y-126293928D01*
X109694285Y-126651071D02*
X109694285Y-127651071D01*
X109694285Y-126793928D02*
X109765714Y-126722500D01*
X109908571Y-126651071D01*
X110122857Y-126651071D01*
X110265714Y-126722500D01*
X110337142Y-126865357D01*
X110337142Y-127651071D01*
X111694285Y-126651071D02*
X111694285Y-127865357D01*
X111622857Y-128008214D01*
X111551428Y-128079642D01*
X111408571Y-128151071D01*
X111194285Y-128151071D01*
X111051428Y-128079642D01*
X111694285Y-127579642D02*
X111551428Y-127651071D01*
X111265714Y-127651071D01*
X111122857Y-127579642D01*
X111051428Y-127508214D01*
X110980000Y-127365357D01*
X110980000Y-126936785D01*
X111051428Y-126793928D01*
X111122857Y-126722500D01*
X111265714Y-126651071D01*
X111551428Y-126651071D01*
X111694285Y-126722500D01*
X114051428Y-126865357D02*
X114265714Y-126936785D01*
X114337142Y-127008214D01*
X114408571Y-127151071D01*
X114408571Y-127365357D01*
X114337142Y-127508214D01*
X114265714Y-127579642D01*
X114122857Y-127651071D01*
X113551428Y-127651071D01*
X113551428Y-126151071D01*
X114051428Y-126151071D01*
X114194285Y-126222500D01*
X114265714Y-126293928D01*
X114337142Y-126436785D01*
X114337142Y-126579642D01*
X114265714Y-126722500D01*
X114194285Y-126793928D01*
X114051428Y-126865357D01*
X113551428Y-126865357D01*
X114908571Y-126651071D02*
X115265714Y-127651071D01*
X115622857Y-126651071D02*
X115265714Y-127651071D01*
X115122857Y-128008214D01*
X115051428Y-128079642D01*
X114908571Y-128151071D01*
X116194285Y-127508214D02*
X116265714Y-127579642D01*
X116194285Y-127651071D01*
X116122857Y-127579642D01*
X116194285Y-127508214D01*
X116194285Y-127651071D01*
X105587142Y-130066071D02*
X105587142Y-128566071D01*
X105944285Y-128566071D01*
X106158571Y-128637500D01*
X106301428Y-128780357D01*
X106372857Y-128923214D01*
X106444285Y-129208928D01*
X106444285Y-129423214D01*
X106372857Y-129708928D01*
X106301428Y-129851785D01*
X106158571Y-129994642D01*
X105944285Y-130066071D01*
X105587142Y-130066071D01*
X107301428Y-130066071D02*
X107158571Y-129994642D01*
X107087142Y-129923214D01*
X107015714Y-129780357D01*
X107015714Y-129351785D01*
X107087142Y-129208928D01*
X107158571Y-129137500D01*
X107301428Y-129066071D01*
X107515714Y-129066071D01*
X107658571Y-129137500D01*
X107730000Y-129208928D01*
X107801428Y-129351785D01*
X107801428Y-129780357D01*
X107730000Y-129923214D01*
X107658571Y-129994642D01*
X107515714Y-130066071D01*
X107301428Y-130066071D01*
X109087142Y-129066071D02*
X109087142Y-130066071D01*
X108444285Y-129066071D02*
X108444285Y-129851785D01*
X108515714Y-129994642D01*
X108658571Y-130066071D01*
X108872857Y-130066071D01*
X109015714Y-129994642D01*
X109087142Y-129923214D01*
X109801428Y-130066071D02*
X109801428Y-128566071D01*
X109801428Y-129137500D02*
X109944285Y-129066071D01*
X110230000Y-129066071D01*
X110372857Y-129137500D01*
X110444285Y-129208928D01*
X110515714Y-129351785D01*
X110515714Y-129780357D01*
X110444285Y-129923214D01*
X110372857Y-129994642D01*
X110230000Y-130066071D01*
X109944285Y-130066071D01*
X109801428Y-129994642D01*
X111372857Y-130066071D02*
X111230000Y-129994642D01*
X111158571Y-129851785D01*
X111158571Y-128566071D01*
X112515714Y-129994642D02*
X112372857Y-130066071D01*
X112087142Y-130066071D01*
X111944285Y-129994642D01*
X111872857Y-129851785D01*
X111872857Y-129280357D01*
X111944285Y-129137500D01*
X112087142Y-129066071D01*
X112372857Y-129066071D01*
X112515714Y-129137500D01*
X112587142Y-129280357D01*
X112587142Y-129423214D01*
X111872857Y-129566071D01*
X114230000Y-128566071D02*
X114587142Y-130066071D01*
X114872857Y-128994642D01*
X115158571Y-130066071D01*
X115515714Y-128566071D01*
D12*
%TO.P,J3,1,1*%
%TO.N,Net-(J3-Pad1)*%
X161060000Y-124530000D03*
D13*
%TO.P,J3,2,2*%
%TO.N,Net-(J3-Pad2)*%
X161060000Y-121990000D03*
%TO.P,J3,3,3*%
%TO.N,Net-(J3-Pad3)*%
X161060000Y-119450000D03*
%TD*%
D14*
%TO.P,J2,1*%
%TO.N,Net-(C1-Pad1)*%
X131300000Y-122910000D03*
D15*
%TO.P,J2,2*%
%TO.N,GND*%
X131300000Y-128910000D03*
D16*
%TO.P,J2,3*%
%TO.N,N/C*%
X136000000Y-125910000D03*
%TD*%
D17*
%TO.P,R1,1*%
%TO.N,VCC*%
X88230000Y-118430000D03*
D18*
%TO.P,R1,2*%
%TO.N,D8*%
X95850000Y-118430000D03*
%TD*%
D19*
%TO.P,Q1,1,E*%
%TO.N,GND*%
X122440000Y-116840000D03*
D20*
%TO.P,Q1,2,B*%
%TO.N,Net-(Q1-Pad2)*%
X119900000Y-114300000D03*
%TO.P,Q1,3,C*%
%TO.N,Net-(D1-Pad2)*%
X122440000Y-111760000D03*
%TD*%
D21*
%TO.P,DS1,*%
%TO.N,*%
X161940000Y-83902500D03*
X161939480Y-114903200D03*
X86940900Y-83902500D03*
X86940900Y-114903200D03*
D22*
%TO.P,DS1,1,VSS*%
%TO.N,GND*%
X92440000Y-83902500D03*
D23*
%TO.P,DS1,2,VDD*%
%TO.N,VCC*%
X94980000Y-83902500D03*
%TO.P,DS1,3,VO*%
X97520000Y-83902500D03*
%TO.P,DS1,4,RS*%
%TO.N,A0*%
X100060000Y-83902500D03*
%TO.P,DS1,5,R/W*%
%TO.N,GND*%
X102600000Y-83902500D03*
%TO.P,DS1,6,E*%
%TO.N,A1*%
X105140000Y-83902500D03*
%TO.P,DS1,7,D0*%
%TO.N,unconnected-(DS1-Pad7)*%
X107680000Y-83902500D03*
%TO.P,DS1,8,D1*%
%TO.N,unconnected-(DS1-Pad8)*%
X110220000Y-83902500D03*
%TO.P,DS1,9,D2*%
%TO.N,unconnected-(DS1-Pad9)*%
X112760000Y-83902500D03*
%TO.P,DS1,10,D3*%
%TO.N,unconnected-(DS1-Pad10)*%
X115300000Y-83902500D03*
%TO.P,DS1,11,D4*%
%TO.N,A2*%
X117840000Y-83902500D03*
%TO.P,DS1,12,D5*%
%TO.N,A3*%
X120380000Y-83902500D03*
%TO.P,DS1,13,D6*%
%TO.N,A4*%
X122920000Y-83902500D03*
%TO.P,DS1,14,D7*%
%TO.N,A5*%
X125460000Y-83902500D03*
%TO.P,DS1,15,LED(+)*%
%TO.N,unconnected-(DS1-Pad15)*%
X128000000Y-83902500D03*
%TO.P,DS1,16,LED(-)*%
%TO.N,unconnected-(DS1-Pad16)*%
X130540000Y-83902500D03*
%TD*%
D24*
%TO.P,SW1,1,1*%
%TO.N,GND*%
X118710000Y-124240000D03*
X125210000Y-124240000D03*
%TO.P,SW1,2,2*%
%TO.N,D10*%
X125210000Y-119740000D03*
X118710000Y-119740000D03*
%TD*%
D25*
%TO.P,C1,1*%
%TO.N,Net-(C1-Pad1)*%
X139600000Y-128330000D03*
D26*
%TO.P,C1,2*%
%TO.N,GND*%
X142100000Y-128330000D03*
%TD*%
D24*
%TO.P,SW2,1,1*%
%TO.N,GND*%
X115220000Y-124220000D03*
X108720000Y-124220000D03*
%TO.P,SW2,2,2*%
%TO.N,D11*%
X115220000Y-119720000D03*
X108720000Y-119720000D03*
%TD*%
D25*
%TO.P,C2,1*%
%TO.N,Net-(C1-Pad1)*%
X139630000Y-122620000D03*
D26*
%TO.P,C2,2*%
%TO.N,GND*%
X142130000Y-122620000D03*
%TD*%
D24*
%TO.P,SW3,1,1*%
%TO.N,GND*%
X98630000Y-124240000D03*
X105130000Y-124240000D03*
%TO.P,SW3,2,2*%
%TO.N,D12*%
X105130000Y-119740000D03*
X98630000Y-119740000D03*
%TD*%
D17*
%TO.P,R2,1*%
%TO.N,Net-(R2-Pad1)*%
X133400000Y-113960000D03*
D18*
%TO.P,R2,2*%
%TO.N,D9*%
X125780000Y-113960000D03*
%TD*%
D25*
%TO.P,U1,1*%
%TO.N,Net-(R2-Pad1)*%
X136310000Y-113965000D03*
D27*
%TO.P,U1,2*%
%TO.N,GND*%
X136310000Y-116505000D03*
%TO.P,U1,3*%
%TO.N,Net-(R3-Pad2)*%
X143930000Y-116505000D03*
%TO.P,U1,4*%
%TO.N,VCC*%
X143930000Y-113965000D03*
%TD*%
D28*
%TO.P,U2,1,INPUT*%
%TO.N,Net-(C1-Pad1)*%
X148258000Y-128030000D03*
D29*
%TO.P,U2,2,GROUND*%
%TO.N,GND*%
X148258000Y-125480000D03*
%TO.P,U2,3,OUTPUT*%
%TO.N,VCC*%
X148258000Y-122930000D03*
%TD*%
D17*
%TO.P,R3,1*%
%TO.N,Net-(Q1-Pad2)*%
X125900000Y-116150000D03*
D18*
%TO.P,R3,2*%
%TO.N,Net-(R3-Pad2)*%
X133520000Y-116150000D03*
%TD*%
D25*
%TO.P,C3,1*%
%TO.N,VCC*%
X153500000Y-123050000D03*
D26*
%TO.P,C3,2*%
%TO.N,GND*%
X153500000Y-125550000D03*
%TD*%
D12*
%TO.P,J1,1,1*%
%TO.N,VCC*%
X88168500Y-123910000D03*
D13*
%TO.P,J1,2,2*%
%TO.N,D8*%
X90708500Y-123910000D03*
%TO.P,J1,3,3*%
%TO.N,GND*%
X93248500Y-123910000D03*
%TD*%
D30*
%TO.P,D1,1,K*%
%TO.N,VCC*%
X155570000Y-110850000D03*
D31*
%TO.P,D1,2,A*%
%TO.N,Net-(D1-Pad2)*%
X145410000Y-110850000D03*
%TD*%
D25*
%TO.P,A1,1,D1/TX*%
%TO.N,unconnected-(A1-Pad1)*%
X137430000Y-107630000D03*
D27*
%TO.P,A1,2,D0/RX*%
%TO.N,unconnected-(A1-Pad2)*%
X134890000Y-107630000D03*
%TO.P,A1,3,~{RESET}*%
%TO.N,unconnected-(A1-Pad3)*%
X132350000Y-107630000D03*
%TO.P,A1,4,GND*%
%TO.N,GND*%
X129810000Y-107630000D03*
%TO.P,A1,5,D2*%
%TO.N,unconnected-(A1-Pad5)*%
X127270000Y-107630000D03*
%TO.P,A1,6,D3*%
%TO.N,unconnected-(A1-Pad6)*%
X124730000Y-107630000D03*
%TO.P,A1,7,D4*%
%TO.N,unconnected-(A1-Pad7)*%
X122190000Y-107630000D03*
%TO.P,A1,8,D5*%
%TO.N,unconnected-(A1-Pad8)*%
X119650000Y-107630000D03*
%TO.P,A1,9,D6*%
%TO.N,unconnected-(A1-Pad9)*%
X117110000Y-107630000D03*
%TO.P,A1,10,D7*%
%TO.N,unconnected-(A1-Pad10)*%
X114570000Y-107630000D03*
%TO.P,A1,11,D8*%
%TO.N,D8*%
X112030000Y-107630000D03*
%TO.P,A1,12,D9*%
%TO.N,D9*%
X109490000Y-107630000D03*
%TO.P,A1,13,D10*%
%TO.N,D10*%
X106950000Y-107630000D03*
%TO.P,A1,14,D11*%
%TO.N,D11*%
X104410000Y-107630000D03*
%TO.P,A1,15,D12*%
%TO.N,D12*%
X101870000Y-107630000D03*
%TO.P,A1,16,D13*%
%TO.N,unconnected-(A1-Pad16)*%
X101870000Y-92390000D03*
%TO.P,A1,17,3V3*%
%TO.N,unconnected-(A1-Pad17)*%
X104410000Y-92390000D03*
%TO.P,A1,18,AREF*%
%TO.N,unconnected-(A1-Pad18)*%
X106950000Y-92390000D03*
%TO.P,A1,19,A0*%
%TO.N,A0*%
X109490000Y-92390000D03*
%TO.P,A1,20,A1*%
%TO.N,A1*%
X112030000Y-92390000D03*
%TO.P,A1,21,A2*%
%TO.N,A2*%
X114570000Y-92390000D03*
%TO.P,A1,22,A3*%
%TO.N,A3*%
X117110000Y-92390000D03*
%TO.P,A1,23,A4*%
%TO.N,A4*%
X119650000Y-92390000D03*
%TO.P,A1,24,A5*%
%TO.N,A5*%
X122190000Y-92390000D03*
%TO.P,A1,25,A6*%
%TO.N,unconnected-(A1-Pad25)*%
X124730000Y-92390000D03*
%TO.P,A1,26,A7*%
%TO.N,unconnected-(A1-Pad26)*%
X127270000Y-92390000D03*
%TO.P,A1,27,+5V*%
%TO.N,VCC*%
X129810000Y-92390000D03*
%TO.P,A1,28,~{RESET}*%
%TO.N,unconnected-(A1-Pad28)*%
X132350000Y-92390000D03*
%TO.P,A1,29,GND*%
%TO.N,GND*%
X134890000Y-92390000D03*
%TO.P,A1,30,VIN*%
%TO.N,unconnected-(A1-Pad30)*%
X137430000Y-92390000D03*
%TD*%
D32*
%TO.P,K1,COIL1*%
%TO.N,VCC*%
X145460000Y-93960000D03*
%TO.P,K1,COIL2*%
%TO.N,Net-(D1-Pad2)*%
X145460000Y-105960000D03*
%TO.P,K1,COM*%
%TO.N,Net-(J3-Pad2)*%
X143460000Y-99960000D03*
%TO.P,K1,NC*%
%TO.N,Net-(J3-Pad1)*%
X157660000Y-105960000D03*
%TO.P,K1,NO*%
%TO.N,Net-(J3-Pad3)*%
X157660000Y-93960000D03*
%TD*%
D33*
%TO.N,A0*%
X109490000Y-90870000D02*
X109490000Y-92390000D01*
X100060000Y-83902500D02*
X100060000Y-88820000D01*
X108470000Y-89850000D02*
X109490000Y-90870000D01*
X100060000Y-88820000D02*
X101090000Y-89850000D01*
X101090000Y-89850000D02*
X108470000Y-89850000D01*
D34*
%TO.N,GND*%
X108720000Y-124220000D02*
X105150000Y-124220000D01*
D33*
X148328000Y-125550000D02*
X148258000Y-125480000D01*
D34*
X131300000Y-128910000D02*
X134390000Y-128910000D01*
X142130000Y-128300000D02*
X142100000Y-128330000D01*
X108700000Y-124240000D02*
X108720000Y-124220000D01*
X135770000Y-130290000D02*
X141040000Y-130290000D01*
X115220000Y-124220000D02*
X108720000Y-124220000D01*
X134390000Y-128910000D02*
X135770000Y-130290000D01*
X105150000Y-124220000D02*
X105130000Y-124240000D01*
X125210000Y-124240000D02*
X118710000Y-124240000D01*
X148258000Y-125480000D02*
X142240000Y-125480000D01*
X141040000Y-130290000D02*
X142100000Y-129230000D01*
X142240000Y-125480000D02*
X142130000Y-125590000D01*
X118710000Y-124240000D02*
X115240000Y-124240000D01*
X142130000Y-122620000D02*
X142130000Y-125590000D01*
X93248500Y-123910000D02*
X98300000Y-123910000D01*
X142100000Y-129230000D02*
X142100000Y-128330000D01*
D33*
X153500000Y-125550000D02*
X148328000Y-125550000D01*
D34*
X98630000Y-124240000D02*
X105130000Y-124240000D01*
X115240000Y-124240000D02*
X115220000Y-124220000D01*
X142130000Y-125590000D02*
X142130000Y-128300000D01*
X98300000Y-123910000D02*
X98630000Y-124240000D01*
D33*
%TO.N,A1*%
X105140000Y-85350000D02*
X107030000Y-87240000D01*
X110120000Y-87240000D02*
X112030000Y-89150000D01*
X107030000Y-87240000D02*
X110120000Y-87240000D01*
X112030000Y-89150000D02*
X112030000Y-92390000D01*
X105140000Y-83902500D02*
X105140000Y-85350000D01*
D34*
%TO.N,A2*%
X117840000Y-83902500D02*
X117840000Y-85510000D01*
X117840000Y-85510000D02*
X114570000Y-88780000D01*
X114570000Y-88780000D02*
X114570000Y-92390000D01*
%TO.N,A3*%
X117110000Y-89080000D02*
X117110000Y-92390000D01*
X120380000Y-83902500D02*
X120380000Y-85810000D01*
X120380000Y-85810000D02*
X117110000Y-89080000D01*
%TO.N,A4*%
X119650000Y-89670000D02*
X119650000Y-92390000D01*
X122920000Y-86400000D02*
X119650000Y-89670000D01*
X122920000Y-83902500D02*
X122920000Y-86400000D01*
%TO.N,A5*%
X122190000Y-89860000D02*
X122190000Y-92390000D01*
X125460000Y-83902500D02*
X125460000Y-86590000D01*
X125460000Y-86590000D02*
X122190000Y-89860000D01*
%TO.N,D8*%
X92810000Y-118390000D02*
X92850000Y-118430000D01*
X95850000Y-107970000D02*
X99890000Y-103930000D01*
X112030000Y-106440000D02*
X112030000Y-107630000D01*
X99890000Y-103930000D02*
X109520000Y-103930000D01*
X95850000Y-118430000D02*
X95850000Y-107970000D01*
X92850000Y-118430000D02*
X95850000Y-118430000D01*
X90708500Y-120491500D02*
X92810000Y-118390000D01*
X109520000Y-103930000D02*
X112030000Y-106440000D01*
X90708500Y-123910000D02*
X90708500Y-120491500D01*
D33*
%TO.N,VCC*%
X94980000Y-83902500D02*
X97520000Y-83902500D01*
X127340000Y-96560000D02*
X93010000Y-96560000D01*
X155570000Y-110850000D02*
X155570000Y-113530000D01*
X131560000Y-89070000D02*
X144390000Y-89070000D01*
X153980000Y-115120000D02*
X148290000Y-115120000D01*
X155570000Y-113530000D02*
X153980000Y-115120000D01*
X148290000Y-115120000D02*
X148258000Y-115152000D01*
X147135000Y-113965000D02*
X148290000Y-115120000D01*
D34*
X88230000Y-118430000D02*
X88230000Y-117420000D01*
D33*
X129810000Y-92390000D02*
X129810000Y-90820000D01*
X145460000Y-90140000D02*
X145460000Y-93960000D01*
X149160000Y-93960000D02*
X155570000Y-100370000D01*
D34*
X88168500Y-123910000D02*
X88168500Y-118491500D01*
D33*
X148258000Y-115152000D02*
X148258000Y-122930000D01*
D34*
X93010000Y-88440000D02*
X94980000Y-86470000D01*
X94980000Y-86470000D02*
X94980000Y-83902500D01*
D33*
X129810000Y-92390000D02*
X129810000Y-94090000D01*
D34*
X93010000Y-96560000D02*
X93010000Y-88440000D01*
X93010000Y-112640000D02*
X93010000Y-96560000D01*
X88168500Y-118491500D02*
X88230000Y-118430000D01*
X88230000Y-117420000D02*
X93010000Y-112640000D01*
D33*
X155570000Y-100370000D02*
X155570000Y-110850000D01*
X145460000Y-93960000D02*
X149160000Y-93960000D01*
X143930000Y-113965000D02*
X147135000Y-113965000D01*
X129810000Y-90820000D02*
X131560000Y-89070000D01*
X153500000Y-123050000D02*
X148378000Y-123050000D01*
X144390000Y-89070000D02*
X145460000Y-90140000D01*
X148378000Y-123050000D02*
X148258000Y-122930000D01*
X129810000Y-94090000D02*
X127340000Y-96560000D01*
D34*
%TO.N,D10*%
X106950000Y-111540000D02*
X110030000Y-114620000D01*
X110030000Y-114620000D02*
X116470000Y-114620000D01*
X118710000Y-116860000D02*
X118710000Y-119740000D01*
X116470000Y-114620000D02*
X118710000Y-116860000D01*
X106950000Y-107630000D02*
X106950000Y-111540000D01*
X118710000Y-119740000D02*
X125210000Y-119740000D01*
%TO.N,D11*%
X104410000Y-107630000D02*
X104410000Y-114270000D01*
X108720000Y-119720000D02*
X115220000Y-119720000D01*
X108250000Y-115820000D02*
X108720000Y-116290000D01*
X108720000Y-116290000D02*
X108720000Y-119720000D01*
X104410000Y-114270000D02*
X105960000Y-115820000D01*
X105960000Y-115820000D02*
X108250000Y-115820000D01*
%TO.N,D12*%
X98630000Y-119740000D02*
X101690000Y-119740000D01*
X101870000Y-119560000D02*
X101690000Y-119740000D01*
X101870000Y-107630000D02*
X101870000Y-119560000D01*
X101690000Y-119740000D02*
X105130000Y-119740000D01*
%TO.N,Net-(C1-Pad1)*%
X139630000Y-128300000D02*
X139600000Y-128330000D01*
X131300000Y-122910000D02*
X139340000Y-122910000D01*
X139340000Y-122910000D02*
X139630000Y-122620000D01*
X139630000Y-122620000D02*
X139630000Y-128300000D01*
D33*
%TO.N,Net-(D1-Pad2)*%
X144500000Y-111760000D02*
X122440000Y-111760000D01*
X144500000Y-111760000D02*
X145410000Y-110850000D01*
X145460000Y-105960000D02*
X145460000Y-110800000D01*
X145460000Y-110800000D02*
X145410000Y-110850000D01*
%TO.N,Net-(J3-Pad1)*%
X154990000Y-119750000D02*
X156950000Y-121710000D01*
X157660000Y-105960000D02*
X157660000Y-114570000D01*
X156950000Y-121710000D02*
X156950000Y-124060000D01*
X154990000Y-117240000D02*
X154990000Y-119750000D01*
X157660000Y-114570000D02*
X154990000Y-117240000D01*
X156950000Y-124060000D02*
X157420000Y-124530000D01*
X157420000Y-124530000D02*
X161060000Y-124530000D01*
D34*
%TO.N,Net-(Q1-Pad2)*%
X124619511Y-116150000D02*
X125900000Y-116150000D01*
X122660000Y-114330000D02*
X122799511Y-114330000D01*
X119900000Y-114300000D02*
X122630000Y-114300000D01*
X122799511Y-114330000D02*
X124619511Y-116150000D01*
X122630000Y-114300000D02*
X122660000Y-114330000D01*
%TO.N,Net-(R2-Pad1)*%
X136305000Y-113960000D02*
X136310000Y-113965000D01*
X133400000Y-113960000D02*
X136305000Y-113960000D01*
D33*
%TO.N,Net-(R3-Pad2)*%
X143930000Y-118380000D02*
X143930000Y-116505000D01*
X133520000Y-117920000D02*
X134750000Y-119150000D01*
X143950000Y-118400000D02*
X143930000Y-118380000D01*
X143200000Y-119150000D02*
X143950000Y-118400000D01*
X134750000Y-119150000D02*
X143200000Y-119150000D01*
X133520000Y-116150000D02*
X133520000Y-117920000D01*
%TD*%
%TA.AperFunction,Conductor*%
%TO.N,GND*%
G36*
X131665996Y-113530502D02*
G01*
X131712489Y-113584158D01*
X131721961Y-113658376D01*
X131721787Y-113659363D01*
X131720639Y-113663883D01*
X131720172Y-113668525D01*
X131720171Y-113668528D01*
X131710577Y-113763803D01*
X131710176Y-113767298D01*
X131706402Y-113796559D01*
X131696833Y-113870741D01*
X131696946Y-113875519D01*
X131697213Y-113886880D01*
X131696614Y-113902466D01*
X131695316Y-113915361D01*
X131695540Y-113920028D01*
X131695540Y-113920034D01*
X131700285Y-114018814D01*
X131700395Y-114021890D01*
X131702816Y-114124610D01*
X131702929Y-114129390D01*
X131703762Y-114134090D01*
X131703763Y-114134100D01*
X131705186Y-114142126D01*
X131706975Y-114158074D01*
X131707443Y-114167820D01*
X131725608Y-114259142D01*
X131728250Y-114272426D01*
X131728738Y-114275019D01*
X131748078Y-114384142D01*
X131751207Y-114393360D01*
X131755473Y-114409283D01*
X131755838Y-114411121D01*
X131755841Y-114411130D01*
X131756752Y-114415713D01*
X131758332Y-114420114D01*
X131758334Y-114420121D01*
X131793830Y-114518984D01*
X131794552Y-114521052D01*
X131831241Y-114629133D01*
X131833444Y-114633374D01*
X131834248Y-114634921D01*
X131838627Y-114644942D01*
X131838677Y-114644920D01*
X131840579Y-114649192D01*
X131842160Y-114653595D01*
X131895568Y-114752991D01*
X131896329Y-114754433D01*
X131950505Y-114858725D01*
X131953330Y-114862592D01*
X131955849Y-114866655D01*
X131955794Y-114866689D01*
X131956831Y-114868333D01*
X131957069Y-114868181D01*
X131959577Y-114872117D01*
X131961792Y-114876240D01*
X132011709Y-114943087D01*
X132030981Y-114968896D01*
X132031764Y-114969956D01*
X132065188Y-115015706D01*
X132067754Y-115019219D01*
X132091788Y-115086024D01*
X132073732Y-115158913D01*
X131955920Y-115353061D01*
X131954111Y-115357375D01*
X131954110Y-115357377D01*
X131858509Y-115585361D01*
X131855305Y-115593001D01*
X131854154Y-115597533D01*
X131854153Y-115597536D01*
X131831865Y-115685298D01*
X131791261Y-115845177D01*
X131769500Y-116061286D01*
X131769500Y-117865335D01*
X131769297Y-117872478D01*
X131766176Y-117927448D01*
X131764859Y-117950636D01*
X131766413Y-117967543D01*
X131775263Y-118063860D01*
X131775446Y-118066051D01*
X131783874Y-118179466D01*
X131784906Y-118184029D01*
X131784908Y-118184039D01*
X131785438Y-118186382D01*
X131788015Y-118202648D01*
X131788238Y-118205071D01*
X131788666Y-118209726D01*
X131789777Y-118214265D01*
X131789777Y-118214267D01*
X131815701Y-118320214D01*
X131816205Y-118322352D01*
X131841295Y-118433232D01*
X131843866Y-118439844D01*
X131848818Y-118455549D01*
X131850507Y-118462451D01*
X131852280Y-118466784D01*
X131852280Y-118466785D01*
X131893569Y-118567711D01*
X131894384Y-118569752D01*
X131931219Y-118664470D01*
X131935595Y-118675723D01*
X131937915Y-118679782D01*
X131937917Y-118679786D01*
X131939116Y-118681884D01*
X131946336Y-118696686D01*
X131949025Y-118703259D01*
X131966136Y-118732019D01*
X132007160Y-118800974D01*
X132008266Y-118802871D01*
X132064701Y-118901612D01*
X132069103Y-118907196D01*
X132078427Y-118920764D01*
X132082055Y-118926861D01*
X132085012Y-118930480D01*
X132153972Y-119014884D01*
X132155348Y-119016598D01*
X132191002Y-119061824D01*
X132225777Y-119105936D01*
X132300554Y-119176279D01*
X132301601Y-119177264D01*
X132304363Y-119179944D01*
X133068824Y-119944405D01*
X133102850Y-120006717D01*
X133097785Y-120077532D01*
X133055238Y-120134368D01*
X132988718Y-120159179D01*
X132979729Y-120159500D01*
X129492184Y-120159500D01*
X129489397Y-120159749D01*
X129489391Y-120159749D01*
X129403611Y-120167405D01*
X129371913Y-120170234D01*
X129176530Y-120226259D01*
X128996404Y-120320427D01*
X128991461Y-120324458D01*
X128991460Y-120324459D01*
X128843831Y-120444862D01*
X128838891Y-120448891D01*
X128834862Y-120453831D01*
X128714913Y-120600904D01*
X128710427Y-120606404D01*
X128616259Y-120786530D01*
X128560234Y-120981913D01*
X128559701Y-120987885D01*
X128559701Y-120987886D01*
X128553152Y-121061269D01*
X128549500Y-121102184D01*
X128549500Y-124717816D01*
X128549749Y-124720603D01*
X128549749Y-124720609D01*
X128555120Y-124780783D01*
X128560234Y-124838087D01*
X128616259Y-125033470D01*
X128710427Y-125213596D01*
X128714458Y-125218539D01*
X128714459Y-125218540D01*
X128778720Y-125297332D01*
X128838891Y-125371109D01*
X128843831Y-125375138D01*
X128969882Y-125477942D01*
X128996404Y-125499573D01*
X129176530Y-125593741D01*
X129371913Y-125649766D01*
X129403545Y-125652589D01*
X129489391Y-125660251D01*
X129489397Y-125660251D01*
X129492184Y-125660500D01*
X133107816Y-125660500D01*
X133110988Y-125660217D01*
X133112302Y-125660100D01*
X133112611Y-125660162D01*
X133113409Y-125660126D01*
X133113418Y-125660322D01*
X133181931Y-125673968D01*
X133233008Y-125723280D01*
X133249500Y-125785601D01*
X133249500Y-126860536D01*
X133249645Y-126862675D01*
X133260101Y-127017184D01*
X133261439Y-127036963D01*
X133262341Y-127041260D01*
X133316393Y-127298873D01*
X133316395Y-127298880D01*
X133317331Y-127303341D01*
X133411091Y-127558860D01*
X133413265Y-127562872D01*
X133413268Y-127562879D01*
X133528505Y-127775561D01*
X133540754Y-127798168D01*
X133703605Y-128016251D01*
X133896231Y-128208542D01*
X134114599Y-128371012D01*
X134118621Y-128373182D01*
X134350116Y-128498090D01*
X134350121Y-128498092D01*
X134354133Y-128500257D01*
X134609815Y-128593571D01*
X134614282Y-128594500D01*
X134614285Y-128594501D01*
X134713065Y-128615047D01*
X134876290Y-128648998D01*
X134880648Y-128649287D01*
X134880652Y-128649288D01*
X135047370Y-128660361D01*
X135047372Y-128660361D01*
X135049464Y-128660500D01*
X136950536Y-128660500D01*
X137048443Y-128653874D01*
X137122577Y-128648858D01*
X137122580Y-128648858D01*
X137126963Y-128648561D01*
X137243624Y-128624083D01*
X137388873Y-128593607D01*
X137388880Y-128593605D01*
X137393341Y-128592669D01*
X137397625Y-128591097D01*
X137397632Y-128591095D01*
X137630096Y-128505795D01*
X137700937Y-128501107D01*
X137763068Y-128535462D01*
X137796761Y-128597955D01*
X137799500Y-128624083D01*
X137799500Y-129187816D01*
X137810234Y-129308087D01*
X137866259Y-129503470D01*
X137960427Y-129683596D01*
X138088891Y-129841109D01*
X138093831Y-129845138D01*
X138186236Y-129920501D01*
X138246404Y-129969573D01*
X138252062Y-129972531D01*
X138309078Y-130002339D01*
X138360180Y-130051625D01*
X138376523Y-130120715D01*
X138352919Y-130187673D01*
X138296862Y-130231240D01*
X138250702Y-130240000D01*
X119120286Y-130240000D01*
X119052165Y-130219998D01*
X119005672Y-130166342D01*
X118994286Y-130114000D01*
X118994286Y-124165000D01*
X101965715Y-124165000D01*
X101965715Y-130114000D01*
X101945713Y-130182121D01*
X101892057Y-130228614D01*
X101839715Y-130240000D01*
X85436000Y-130240000D01*
X85367879Y-130219998D01*
X85321386Y-130166342D01*
X85310000Y-130114000D01*
X85310000Y-117056359D01*
X85330002Y-116988238D01*
X85383658Y-116941745D01*
X85453932Y-116931641D01*
X85510060Y-116954422D01*
X85595208Y-117016285D01*
X85598416Y-117018616D01*
X85709198Y-117079519D01*
X85870327Y-117168101D01*
X85874134Y-117170194D01*
X85941960Y-117197048D01*
X86162992Y-117284561D01*
X86162995Y-117284562D01*
X86166675Y-117286019D01*
X86170509Y-117287003D01*
X86170517Y-117287006D01*
X86434835Y-117354871D01*
X86495841Y-117391185D01*
X86527530Y-117454717D01*
X86529500Y-117476912D01*
X86529500Y-118006648D01*
X86522599Y-118047774D01*
X86518821Y-118058715D01*
X86517962Y-118063421D01*
X86517961Y-118063423D01*
X86507612Y-118120088D01*
X86505621Y-118129103D01*
X86495233Y-118169129D01*
X86489951Y-118189481D01*
X86489464Y-118194235D01*
X86484082Y-118246766D01*
X86482688Y-118256560D01*
X86472339Y-118313226D01*
X86468000Y-118396019D01*
X86468000Y-118397691D01*
X86467957Y-118399324D01*
X86467896Y-118399322D01*
X86467344Y-118410126D01*
X86463581Y-118446855D01*
X86463819Y-118451636D01*
X86463819Y-118451637D01*
X86467844Y-118532493D01*
X86468000Y-118538757D01*
X86468000Y-122097003D01*
X86447998Y-122165124D01*
X86437097Y-122178651D01*
X86437391Y-122178891D01*
X86318902Y-122324174D01*
X86308927Y-122336404D01*
X86214759Y-122516530D01*
X86158734Y-122711913D01*
X86148000Y-122832184D01*
X86148000Y-124987816D01*
X86148249Y-124990603D01*
X86148249Y-124990609D01*
X86154510Y-125060764D01*
X86158734Y-125108087D01*
X86214759Y-125303470D01*
X86308927Y-125483596D01*
X86437391Y-125641109D01*
X86442331Y-125645138D01*
X86588021Y-125763959D01*
X86594904Y-125769573D01*
X86775030Y-125863741D01*
X86970413Y-125919766D01*
X87002045Y-125922589D01*
X87087891Y-125930251D01*
X87087897Y-125930251D01*
X87090684Y-125930500D01*
X89246316Y-125930500D01*
X89249103Y-125930251D01*
X89249109Y-125930251D01*
X89334955Y-125922589D01*
X89366587Y-125919766D01*
X89561970Y-125863741D01*
X89742096Y-125769573D01*
X89747039Y-125765541D01*
X89752372Y-125762025D01*
X89753648Y-125763959D01*
X89809420Y-125740467D01*
X89875486Y-125750825D01*
X89923556Y-125772529D01*
X89998653Y-125806437D01*
X89998657Y-125806439D01*
X90002565Y-125808203D01*
X90006684Y-125809423D01*
X90262599Y-125885229D01*
X90262604Y-125885230D01*
X90266712Y-125886447D01*
X90270946Y-125887095D01*
X90270951Y-125887096D01*
X90468547Y-125917332D01*
X90539034Y-125928118D01*
X90679212Y-125930320D01*
X90810201Y-125932379D01*
X90810207Y-125932379D01*
X90814492Y-125932446D01*
X91087989Y-125899349D01*
X91354463Y-125829440D01*
X91608985Y-125724014D01*
X91618013Y-125718739D01*
X91843135Y-125587188D01*
X91843137Y-125587186D01*
X91846843Y-125585021D01*
X92063637Y-125415033D01*
X92106203Y-125371109D01*
X92252373Y-125220272D01*
X92255356Y-125217194D01*
X92418451Y-124995168D01*
X92512536Y-124821884D01*
X92547854Y-124756837D01*
X92547855Y-124756835D01*
X92549904Y-124753061D01*
X92606815Y-124602451D01*
X92645766Y-124499371D01*
X92645767Y-124499367D01*
X92647284Y-124495353D01*
X92678481Y-124359139D01*
X92707829Y-124230998D01*
X92707830Y-124230994D01*
X92708787Y-124226814D01*
X92713781Y-124170865D01*
X92733057Y-123954877D01*
X92733277Y-123952413D01*
X92733721Y-123910000D01*
X92733552Y-123907519D01*
X92715275Y-123639423D01*
X92715274Y-123639417D01*
X92714983Y-123635146D01*
X92707309Y-123598087D01*
X92659986Y-123369575D01*
X92659117Y-123365378D01*
X92567156Y-123105688D01*
X92440802Y-122860881D01*
X92431913Y-122848233D01*
X92409000Y-122775783D01*
X92409000Y-121248060D01*
X92429002Y-121179939D01*
X92445905Y-121158965D01*
X93437465Y-120167405D01*
X93499777Y-120133379D01*
X93526560Y-120130500D01*
X95731970Y-120130500D01*
X95748089Y-120131535D01*
X95760741Y-120133167D01*
X95832887Y-120131467D01*
X95840780Y-120131529D01*
X95874172Y-120132841D01*
X95904846Y-120134046D01*
X95904851Y-120134046D01*
X95909513Y-120134229D01*
X95957305Y-120128995D01*
X95968053Y-120128281D01*
X96014609Y-120127184D01*
X96014613Y-120127184D01*
X96019390Y-120127071D01*
X96024094Y-120126237D01*
X96024098Y-120126237D01*
X96047770Y-120122042D01*
X96057233Y-120120365D01*
X96069657Y-120118795D01*
X96107976Y-120115880D01*
X96128381Y-120111151D01*
X96143104Y-120108647D01*
X96146202Y-120108308D01*
X96160760Y-120106713D01*
X96165274Y-120105525D01*
X96165277Y-120105524D01*
X96210339Y-120093660D01*
X96220431Y-120091441D01*
X96269438Y-120082756D01*
X96269442Y-120082755D01*
X96274142Y-120081922D01*
X96310530Y-120069570D01*
X96322571Y-120066140D01*
X96326439Y-120065243D01*
X96360015Y-120057461D01*
X96376499Y-120050885D01*
X96391098Y-120046071D01*
X96405181Y-120042363D01*
X96455216Y-120020866D01*
X96464444Y-120017324D01*
X96498076Y-120005907D01*
X96569009Y-120002950D01*
X96630282Y-120038813D01*
X96662527Y-120102583D01*
X96687400Y-120238775D01*
X96697012Y-120267586D01*
X96775008Y-120501368D01*
X96777058Y-120507514D01*
X96779050Y-120511501D01*
X96779051Y-120511503D01*
X96899641Y-120752841D01*
X96903687Y-120760939D01*
X96986897Y-120881334D01*
X97037312Y-120954277D01*
X97064761Y-120993993D01*
X97067783Y-120997262D01*
X97252204Y-121196768D01*
X97257065Y-121202027D01*
X97260519Y-121204839D01*
X97473307Y-121378075D01*
X97473311Y-121378078D01*
X97476764Y-121380889D01*
X97719472Y-121527012D01*
X97723567Y-121528746D01*
X97723569Y-121528747D01*
X97976247Y-121635742D01*
X97976254Y-121635744D01*
X97980348Y-121637478D01*
X97997075Y-121641913D01*
X98249889Y-121708946D01*
X98249893Y-121708947D01*
X98254186Y-121710085D01*
X98258595Y-121710607D01*
X98258601Y-121710608D01*
X98415954Y-121729232D01*
X98535523Y-121743384D01*
X98818745Y-121736709D01*
X98823143Y-121735977D01*
X99093810Y-121690926D01*
X99093814Y-121690925D01*
X99098200Y-121690195D01*
X99102441Y-121688854D01*
X99102444Y-121688853D01*
X99364068Y-121606112D01*
X99364070Y-121606111D01*
X99368314Y-121604769D01*
X99372325Y-121602843D01*
X99372330Y-121602841D01*
X99619678Y-121484066D01*
X99619679Y-121484065D01*
X99623697Y-121482136D01*
X99654230Y-121461735D01*
X99724231Y-121440500D01*
X101653256Y-121440500D01*
X101810133Y-121440911D01*
X101810139Y-121440911D01*
X101814908Y-121440923D01*
X101816876Y-121440627D01*
X101820337Y-121440500D01*
X104040775Y-121440500D01*
X104105764Y-121458554D01*
X104148139Y-121484066D01*
X104219472Y-121527012D01*
X104223567Y-121528746D01*
X104223569Y-121528747D01*
X104476247Y-121635742D01*
X104476254Y-121635744D01*
X104480348Y-121637478D01*
X104497075Y-121641913D01*
X104749889Y-121708946D01*
X104749893Y-121708947D01*
X104754186Y-121710085D01*
X104758595Y-121710607D01*
X104758601Y-121710608D01*
X104915954Y-121729232D01*
X105035523Y-121743384D01*
X105318745Y-121736709D01*
X105323143Y-121735977D01*
X105593810Y-121690926D01*
X105593814Y-121690925D01*
X105598200Y-121690195D01*
X105602441Y-121688854D01*
X105602444Y-121688853D01*
X105864068Y-121606112D01*
X105864070Y-121606111D01*
X105868314Y-121604769D01*
X105872325Y-121602843D01*
X105872330Y-121602841D01*
X106119678Y-121484066D01*
X106119679Y-121484065D01*
X106123697Y-121482136D01*
X106150741Y-121464066D01*
X106355545Y-121327221D01*
X106355549Y-121327218D01*
X106359253Y-121324743D01*
X106570281Y-121135730D01*
X106752573Y-120918868D01*
X106823768Y-120804710D01*
X106876788Y-120757494D01*
X106946918Y-120746438D01*
X107011893Y-120775052D01*
X107034331Y-120799746D01*
X107154761Y-120973993D01*
X107157783Y-120977262D01*
X107337889Y-121172100D01*
X107347065Y-121182027D01*
X107350519Y-121184839D01*
X107563307Y-121358075D01*
X107563311Y-121358078D01*
X107566764Y-121360889D01*
X107809472Y-121507012D01*
X107813567Y-121508746D01*
X107813569Y-121508747D01*
X108066247Y-121615742D01*
X108066254Y-121615744D01*
X108070348Y-121617478D01*
X108162505Y-121641913D01*
X108339889Y-121688946D01*
X108339893Y-121688947D01*
X108344186Y-121690085D01*
X108348595Y-121690607D01*
X108348601Y-121690608D01*
X108503539Y-121708946D01*
X108625523Y-121723384D01*
X108908745Y-121716709D01*
X108913143Y-121715977D01*
X109183810Y-121670926D01*
X109183814Y-121670925D01*
X109188200Y-121670195D01*
X109192441Y-121668854D01*
X109192444Y-121668853D01*
X109454068Y-121586112D01*
X109454070Y-121586111D01*
X109458314Y-121584769D01*
X109462325Y-121582843D01*
X109462330Y-121582841D01*
X109709678Y-121464066D01*
X109709679Y-121464065D01*
X109713697Y-121462136D01*
X109744230Y-121441735D01*
X109814231Y-121420500D01*
X114130775Y-121420500D01*
X114195764Y-121438554D01*
X114238139Y-121464066D01*
X114309472Y-121507012D01*
X114313567Y-121508746D01*
X114313569Y-121508747D01*
X114566247Y-121615742D01*
X114566254Y-121615744D01*
X114570348Y-121617478D01*
X114662505Y-121641913D01*
X114839889Y-121688946D01*
X114839893Y-121688947D01*
X114844186Y-121690085D01*
X114848595Y-121690607D01*
X114848601Y-121690608D01*
X115003539Y-121708946D01*
X115125523Y-121723384D01*
X115408745Y-121716709D01*
X115413143Y-121715977D01*
X115683810Y-121670926D01*
X115683814Y-121670925D01*
X115688200Y-121670195D01*
X115692441Y-121668854D01*
X115692444Y-121668853D01*
X115954068Y-121586112D01*
X115954070Y-121586111D01*
X115958314Y-121584769D01*
X115962325Y-121582843D01*
X115962330Y-121582841D01*
X116209678Y-121464066D01*
X116209679Y-121464065D01*
X116213697Y-121462136D01*
X116232496Y-121449575D01*
X116445545Y-121307221D01*
X116445549Y-121307218D01*
X116449253Y-121304743D01*
X116660281Y-121115730D01*
X116842573Y-120898868D01*
X116853222Y-120881793D01*
X116906242Y-120834577D01*
X116976373Y-120823522D01*
X117041347Y-120852137D01*
X117063785Y-120876831D01*
X117144761Y-120993993D01*
X117147783Y-120997262D01*
X117332204Y-121196768D01*
X117337065Y-121202027D01*
X117340519Y-121204839D01*
X117553307Y-121378075D01*
X117553311Y-121378078D01*
X117556764Y-121380889D01*
X117799472Y-121527012D01*
X117803567Y-121528746D01*
X117803569Y-121528747D01*
X118056247Y-121635742D01*
X118056254Y-121635744D01*
X118060348Y-121637478D01*
X118077075Y-121641913D01*
X118329889Y-121708946D01*
X118329893Y-121708947D01*
X118334186Y-121710085D01*
X118338595Y-121710607D01*
X118338601Y-121710608D01*
X118495954Y-121729232D01*
X118615523Y-121743384D01*
X118898745Y-121736709D01*
X118903143Y-121735977D01*
X119173810Y-121690926D01*
X119173814Y-121690925D01*
X119178200Y-121690195D01*
X119182441Y-121688854D01*
X119182444Y-121688853D01*
X119444068Y-121606112D01*
X119444070Y-121606111D01*
X119448314Y-121604769D01*
X119452325Y-121602843D01*
X119452330Y-121602841D01*
X119699678Y-121484066D01*
X119699679Y-121484065D01*
X119703697Y-121482136D01*
X119734230Y-121461735D01*
X119804231Y-121440500D01*
X124120775Y-121440500D01*
X124185764Y-121458554D01*
X124228139Y-121484066D01*
X124299472Y-121527012D01*
X124303567Y-121528746D01*
X124303569Y-121528747D01*
X124556247Y-121635742D01*
X124556254Y-121635744D01*
X124560348Y-121637478D01*
X124577075Y-121641913D01*
X124829889Y-121708946D01*
X124829893Y-121708947D01*
X124834186Y-121710085D01*
X124838595Y-121710607D01*
X124838601Y-121710608D01*
X124995954Y-121729232D01*
X125115523Y-121743384D01*
X125398745Y-121736709D01*
X125403143Y-121735977D01*
X125673810Y-121690926D01*
X125673814Y-121690925D01*
X125678200Y-121690195D01*
X125682441Y-121688854D01*
X125682444Y-121688853D01*
X125944068Y-121606112D01*
X125944070Y-121606111D01*
X125948314Y-121604769D01*
X125952325Y-121602843D01*
X125952330Y-121602841D01*
X126199678Y-121484066D01*
X126199679Y-121484065D01*
X126203697Y-121482136D01*
X126230741Y-121464066D01*
X126435545Y-121327221D01*
X126435549Y-121327218D01*
X126439253Y-121324743D01*
X126650281Y-121135730D01*
X126832573Y-120918868D01*
X126841402Y-120904712D01*
X126874190Y-120852137D01*
X126982489Y-120678485D01*
X126989896Y-120661732D01*
X127050758Y-120524064D01*
X127097040Y-120419376D01*
X127173939Y-120146712D01*
X127179243Y-120107221D01*
X127211225Y-119869115D01*
X127211226Y-119869107D01*
X127211652Y-119865933D01*
X127215610Y-119740000D01*
X127212448Y-119695335D01*
X127198771Y-119502183D01*
X127195601Y-119457407D01*
X127194542Y-119452485D01*
X127136911Y-119184800D01*
X127136911Y-119184798D01*
X127135975Y-119180453D01*
X127037920Y-118914663D01*
X126950324Y-118752319D01*
X126905506Y-118669256D01*
X126903393Y-118665340D01*
X126735078Y-118437460D01*
X126727735Y-118430000D01*
X126556999Y-118256562D01*
X126536334Y-118235570D01*
X126532794Y-118232869D01*
X126532788Y-118232863D01*
X126314667Y-118066398D01*
X126314663Y-118066395D01*
X126311126Y-118063696D01*
X126307248Y-118061524D01*
X126307237Y-118061517D01*
X126263285Y-118036903D01*
X126213624Y-117986166D01*
X126199277Y-117916634D01*
X126224799Y-117850384D01*
X126282087Y-117808448D01*
X126292773Y-117805121D01*
X126306371Y-117801541D01*
X126310000Y-117800643D01*
X126405349Y-117778543D01*
X126405355Y-117778541D01*
X126410015Y-117777461D01*
X126426499Y-117770885D01*
X126441098Y-117766071D01*
X126455181Y-117762363D01*
X126548911Y-117722093D01*
X126551957Y-117720832D01*
X126562081Y-117716793D01*
X126650318Y-117681590D01*
X126662860Y-117674217D01*
X126676966Y-117667076D01*
X126687405Y-117662591D01*
X126776807Y-117607267D01*
X126779226Y-117605808D01*
X126869229Y-117552898D01*
X126873354Y-117550473D01*
X126877069Y-117547449D01*
X126877077Y-117547443D01*
X126882145Y-117543317D01*
X126895392Y-117533885D01*
X126898358Y-117532050D01*
X126898362Y-117532047D01*
X126902331Y-117529591D01*
X126984957Y-117459643D01*
X126986743Y-117458159D01*
X127073991Y-117387129D01*
X127079452Y-117381095D01*
X127091452Y-117369488D01*
X127095238Y-117366283D01*
X127168678Y-117282542D01*
X127169917Y-117281152D01*
X127176844Y-117273500D01*
X127215713Y-117230558D01*
X127244400Y-117198865D01*
X127244402Y-117198863D01*
X127247613Y-117195315D01*
X127250256Y-117191315D01*
X127250332Y-117191201D01*
X127256129Y-117183604D01*
X127255994Y-117183502D01*
X127258806Y-117179770D01*
X127261888Y-117176256D01*
X127264414Y-117172330D01*
X127264417Y-117172325D01*
X127323697Y-117080163D01*
X127324538Y-117078874D01*
X127387581Y-116983446D01*
X127387586Y-116983438D01*
X127390222Y-116979447D01*
X127392223Y-116975106D01*
X127392760Y-116974142D01*
X127395315Y-116969045D01*
X127396095Y-116967608D01*
X127398619Y-116963684D01*
X127402667Y-116954699D01*
X127446710Y-116856926D01*
X127447166Y-116855926D01*
X127496532Y-116748843D01*
X127496533Y-116748840D01*
X127498538Y-116744491D01*
X127499863Y-116739887D01*
X127500234Y-116738889D01*
X127501150Y-116736074D01*
X127502428Y-116733236D01*
X127534906Y-116618077D01*
X127570068Y-116495855D01*
X127570651Y-116491333D01*
X127571034Y-116489976D01*
X127571798Y-116483975D01*
X127585231Y-116378379D01*
X127585912Y-116373030D01*
X127603167Y-116239259D01*
X127603055Y-116234509D01*
X127603057Y-116234430D01*
X127603135Y-116232942D01*
X127603137Y-116231378D01*
X127605185Y-116153169D01*
X127605268Y-116150000D01*
X127604493Y-116139560D01*
X127599347Y-116070330D01*
X127599035Y-116063960D01*
X127597184Y-115985400D01*
X127597184Y-115985398D01*
X127597071Y-115980610D01*
X127590623Y-115944230D01*
X127589038Y-115931587D01*
X127586886Y-115902624D01*
X127586883Y-115902606D01*
X127586537Y-115897945D01*
X127568205Y-115816927D01*
X127567032Y-115811113D01*
X127552756Y-115730561D01*
X127552754Y-115730555D01*
X127551922Y-115725858D01*
X127541074Y-115693901D01*
X127537494Y-115681207D01*
X127531788Y-115655989D01*
X127530756Y-115651428D01*
X127517638Y-115617693D01*
X127499498Y-115571047D01*
X127497618Y-115565882D01*
X127470296Y-115485394D01*
X127470295Y-115485391D01*
X127468759Y-115480867D01*
X127454675Y-115453753D01*
X127449062Y-115441351D01*
X127440843Y-115420215D01*
X127440840Y-115420209D01*
X127439150Y-115415863D01*
X127394771Y-115338217D01*
X127392350Y-115333775D01*
X127381528Y-115312942D01*
X127349495Y-115251275D01*
X127346672Y-115247411D01*
X127346669Y-115247406D01*
X127333363Y-115229192D01*
X127325711Y-115217386D01*
X127316054Y-115200489D01*
X127316049Y-115200481D01*
X127313731Y-115196426D01*
X127256419Y-115123726D01*
X127253632Y-115120054D01*
X127199431Y-115045861D01*
X127175398Y-114979056D01*
X127191298Y-114909862D01*
X127195202Y-114903371D01*
X127276094Y-114777610D01*
X127276096Y-114777607D01*
X127278619Y-114773684D01*
X127382428Y-114543236D01*
X127451034Y-114299976D01*
X127467263Y-114172409D01*
X127482533Y-114052378D01*
X127482533Y-114052372D01*
X127482931Y-114049247D01*
X127483648Y-114021890D01*
X127485185Y-113963160D01*
X127485268Y-113960000D01*
X127481137Y-113904405D01*
X127466883Y-113712597D01*
X127466882Y-113712593D01*
X127466537Y-113707945D01*
X127456663Y-113664308D01*
X127461138Y-113593452D01*
X127503210Y-113536264D01*
X127569521Y-113510900D01*
X127579556Y-113510500D01*
X131597875Y-113510500D01*
X131665996Y-113530502D01*
G37*
%TD.AperFunction*%
%TA.AperFunction,Conductor*%
G36*
X146425850Y-115735502D02*
G01*
X146446824Y-115752405D01*
X146470595Y-115776176D01*
X146504621Y-115838488D01*
X146507500Y-115865271D01*
X146507500Y-122018438D01*
X146496236Y-122067021D01*
X146497421Y-122067501D01*
X146395131Y-122320042D01*
X146395128Y-122320050D01*
X146393458Y-122324174D01*
X146326698Y-122592934D01*
X146298472Y-122868419D01*
X146298647Y-122872870D01*
X146308785Y-123130873D01*
X146309345Y-123145134D01*
X146359098Y-123417555D01*
X146360507Y-123421778D01*
X146431692Y-123635146D01*
X146446739Y-123680249D01*
X146506139Y-123799127D01*
X146560300Y-123907519D01*
X146570520Y-123927973D01*
X146727970Y-124155785D01*
X146730986Y-124159047D01*
X146730991Y-124159054D01*
X146912923Y-124355866D01*
X146915949Y-124359139D01*
X146970556Y-124403596D01*
X147127243Y-124531160D01*
X147127248Y-124531163D01*
X147130705Y-124533978D01*
X147367954Y-124676814D01*
X147372049Y-124678548D01*
X147372051Y-124678549D01*
X147556935Y-124756837D01*
X147622962Y-124784796D01*
X147627255Y-124785934D01*
X147627260Y-124785936D01*
X147754928Y-124819786D01*
X147890640Y-124855769D01*
X148165648Y-124888319D01*
X148442499Y-124881794D01*
X148446897Y-124881062D01*
X148711278Y-124837057D01*
X148711282Y-124837056D01*
X148715668Y-124836326D01*
X148719909Y-124834985D01*
X148719912Y-124834984D01*
X148810404Y-124806365D01*
X148848398Y-124800500D01*
X152367268Y-124800500D01*
X152401998Y-124805381D01*
X152521913Y-124839766D01*
X152553545Y-124842589D01*
X152639391Y-124850251D01*
X152639397Y-124850251D01*
X152642184Y-124850500D01*
X154357816Y-124850500D01*
X154360603Y-124850251D01*
X154360609Y-124850251D01*
X154446455Y-124842589D01*
X154478087Y-124839766D01*
X154673470Y-124783741D01*
X154853596Y-124689573D01*
X154955105Y-124606785D01*
X155006169Y-124565138D01*
X155011109Y-124561109D01*
X155049181Y-124514428D01*
X155107736Y-124474280D01*
X155178701Y-124472163D01*
X155239545Y-124508748D01*
X155268672Y-124564269D01*
X155268896Y-124564200D01*
X155269260Y-124565389D01*
X155269718Y-124566263D01*
X155271295Y-124573232D01*
X155273866Y-124579844D01*
X155278818Y-124595549D01*
X155280507Y-124602451D01*
X155282280Y-124606784D01*
X155282280Y-124606785D01*
X155323569Y-124707711D01*
X155324384Y-124709752D01*
X155361956Y-124806365D01*
X155365595Y-124815723D01*
X155367915Y-124819782D01*
X155367917Y-124819786D01*
X155369116Y-124821884D01*
X155376336Y-124836686D01*
X155379025Y-124843259D01*
X155381420Y-124847284D01*
X155437160Y-124940974D01*
X155438266Y-124942871D01*
X155494701Y-125041612D01*
X155499103Y-125047196D01*
X155508427Y-125060764D01*
X155512055Y-125066861D01*
X155515012Y-125070480D01*
X155583972Y-125154884D01*
X155585348Y-125156598D01*
X155634180Y-125218540D01*
X155655777Y-125245936D01*
X155659179Y-125249136D01*
X155731601Y-125317264D01*
X155734363Y-125319944D01*
X156143550Y-125729131D01*
X156148458Y-125734325D01*
X156194224Y-125785601D01*
X156200591Y-125792735D01*
X156288119Y-125865531D01*
X156289676Y-125866850D01*
X156375843Y-125941096D01*
X156381835Y-125944876D01*
X156395171Y-125954566D01*
X156400629Y-125959105D01*
X156404620Y-125961527D01*
X156404630Y-125961534D01*
X156497894Y-126018129D01*
X156499763Y-126019285D01*
X156545614Y-126048214D01*
X156595886Y-126079933D01*
X156602378Y-126082790D01*
X156616992Y-126090398D01*
X156623061Y-126094080D01*
X156627369Y-126095887D01*
X156627370Y-126095887D01*
X156727962Y-126138069D01*
X156729982Y-126138937D01*
X156741982Y-126144217D01*
X156834033Y-126184720D01*
X156840880Y-126186587D01*
X156856457Y-126191951D01*
X156858695Y-126192890D01*
X156858702Y-126192892D01*
X156863001Y-126194695D01*
X156973249Y-126222694D01*
X156975263Y-126223224D01*
X157085052Y-126253156D01*
X157092102Y-126253991D01*
X157108294Y-126256992D01*
X157110641Y-126257588D01*
X157110653Y-126257590D01*
X157115177Y-126258739D01*
X157119823Y-126259207D01*
X157119824Y-126259207D01*
X157228277Y-126270128D01*
X157230462Y-126270367D01*
X157316578Y-126280559D01*
X157343429Y-126283737D01*
X157447440Y-126280559D01*
X157451288Y-126280500D01*
X159307800Y-126280500D01*
X159375921Y-126300502D01*
X159387435Y-126308857D01*
X159481455Y-126385537D01*
X159486404Y-126389573D01*
X159666530Y-126483741D01*
X159861913Y-126539766D01*
X159893545Y-126542589D01*
X159979391Y-126550251D01*
X159979397Y-126550251D01*
X159982184Y-126550500D01*
X162137816Y-126550500D01*
X162140603Y-126550251D01*
X162140609Y-126550251D01*
X162226455Y-126542589D01*
X162258087Y-126539766D01*
X162453470Y-126483741D01*
X162633596Y-126389573D01*
X162659029Y-126368831D01*
X162786169Y-126265138D01*
X162791109Y-126261109D01*
X162812055Y-126235427D01*
X162915541Y-126108540D01*
X162915542Y-126108539D01*
X162919573Y-126103596D01*
X162928713Y-126086114D01*
X162963650Y-126019285D01*
X163013741Y-125923470D01*
X163069766Y-125728087D01*
X163075828Y-125660162D01*
X163080251Y-125610609D01*
X163080251Y-125610603D01*
X163080500Y-125607816D01*
X163080500Y-123452184D01*
X163077410Y-123417555D01*
X163070299Y-123337886D01*
X163069766Y-123331913D01*
X163013741Y-123136530D01*
X162919573Y-122956404D01*
X162915537Y-122951455D01*
X162913463Y-122948310D01*
X162892662Y-122880429D01*
X162902594Y-122833510D01*
X162901404Y-122833061D01*
X162997266Y-122579371D01*
X162997267Y-122579367D01*
X162998784Y-122575353D01*
X163053510Y-122336404D01*
X163059329Y-122310998D01*
X163059330Y-122310994D01*
X163060287Y-122306814D01*
X163071726Y-122178651D01*
X163084557Y-122034877D01*
X163084777Y-122032413D01*
X163085221Y-121990000D01*
X163069616Y-121761097D01*
X163066775Y-121719423D01*
X163066774Y-121719417D01*
X163066483Y-121715146D01*
X163061402Y-121690608D01*
X163027882Y-121528747D01*
X163010617Y-121445378D01*
X162918656Y-121185688D01*
X162810505Y-120976149D01*
X162794267Y-120944688D01*
X162794267Y-120944687D01*
X162792302Y-120940881D01*
X162782365Y-120926741D01*
X162723282Y-120842676D01*
X162687714Y-120792067D01*
X162664909Y-120724834D01*
X162682074Y-120655943D01*
X162689254Y-120645023D01*
X162698179Y-120632874D01*
X162769951Y-120535168D01*
X162771997Y-120531400D01*
X162899354Y-120296837D01*
X162899355Y-120296835D01*
X162901404Y-120293061D01*
X162962442Y-120131529D01*
X162997266Y-120039371D01*
X162997267Y-120039367D01*
X162998784Y-120035353D01*
X163056053Y-119785301D01*
X163059329Y-119770998D01*
X163059330Y-119770994D01*
X163060287Y-119766814D01*
X163066667Y-119695335D01*
X163084557Y-119494877D01*
X163084777Y-119492413D01*
X163085221Y-119450000D01*
X163074469Y-119292281D01*
X163066775Y-119179423D01*
X163066774Y-119179417D01*
X163066483Y-119175146D01*
X163056711Y-119127956D01*
X163015066Y-118926861D01*
X163010617Y-118905378D01*
X162918656Y-118645688D01*
X162807331Y-118430000D01*
X162794267Y-118404688D01*
X162794267Y-118404687D01*
X162792302Y-118400881D01*
X162787712Y-118394349D01*
X162636359Y-118178997D01*
X162636358Y-118178996D01*
X162633892Y-118175487D01*
X162480053Y-118009936D01*
X162449276Y-117976816D01*
X162449275Y-117976816D01*
X162446359Y-117973677D01*
X162436787Y-117965842D01*
X162318350Y-117868903D01*
X162233172Y-117799186D01*
X161998277Y-117655242D01*
X161994364Y-117653524D01*
X161994350Y-117653517D01*
X161975113Y-117645073D01*
X161920777Y-117599377D01*
X161899773Y-117531558D01*
X161918768Y-117463150D01*
X161971732Y-117415871D01*
X162025759Y-117403700D01*
X162096798Y-117403700D01*
X162321174Y-117375355D01*
X162405021Y-117364763D01*
X162405025Y-117364762D01*
X162408953Y-117364266D01*
X162546718Y-117328894D01*
X162709863Y-117287006D01*
X162709871Y-117287003D01*
X162713705Y-117286019D01*
X162717385Y-117284562D01*
X162717388Y-117284561D01*
X162938420Y-117197048D01*
X163006246Y-117170194D01*
X163010054Y-117168101D01*
X163171182Y-117079519D01*
X163281964Y-117018616D01*
X163285170Y-117016287D01*
X163285173Y-117016285D01*
X163369939Y-116954699D01*
X163436807Y-116930840D01*
X163505959Y-116946921D01*
X163555439Y-116997835D01*
X163570000Y-117056635D01*
X163570000Y-130114000D01*
X163549998Y-130182121D01*
X163496342Y-130228614D01*
X163444000Y-130240000D01*
X140949298Y-130240000D01*
X140881177Y-130219998D01*
X140834684Y-130166342D01*
X140824580Y-130096068D01*
X140854074Y-130031488D01*
X140890922Y-130002339D01*
X140947938Y-129972531D01*
X140953596Y-129969573D01*
X141013765Y-129920501D01*
X141106169Y-129845138D01*
X141111109Y-129841109D01*
X141239573Y-129683596D01*
X141333741Y-129503470D01*
X141389766Y-129308087D01*
X141400500Y-129187816D01*
X141400500Y-129042816D01*
X146302500Y-129042816D01*
X146313234Y-129163087D01*
X146369259Y-129358470D01*
X146463427Y-129538596D01*
X146591891Y-129696109D01*
X146749404Y-129824573D01*
X146929530Y-129918741D01*
X147124913Y-129974766D01*
X147156545Y-129977589D01*
X147242391Y-129985251D01*
X147242397Y-129985251D01*
X147245184Y-129985500D01*
X149270816Y-129985500D01*
X149273603Y-129985251D01*
X149273609Y-129985251D01*
X149359455Y-129977589D01*
X149391087Y-129974766D01*
X149586470Y-129918741D01*
X149766596Y-129824573D01*
X149924109Y-129696109D01*
X150052573Y-129538596D01*
X150146741Y-129358470D01*
X150202766Y-129163087D01*
X150213500Y-129042816D01*
X150213500Y-127017184D01*
X150202766Y-126896913D01*
X150146741Y-126701530D01*
X150062451Y-126540299D01*
X150055529Y-126527058D01*
X150055528Y-126527057D01*
X150052573Y-126521404D01*
X150023292Y-126485501D01*
X149928138Y-126368831D01*
X149924109Y-126363891D01*
X149919169Y-126359862D01*
X149771540Y-126239459D01*
X149771539Y-126239458D01*
X149766596Y-126235427D01*
X149586470Y-126141259D01*
X149391087Y-126085234D01*
X149352745Y-126081812D01*
X149273609Y-126074749D01*
X149273603Y-126074749D01*
X149270816Y-126074500D01*
X147245184Y-126074500D01*
X147242397Y-126074749D01*
X147242391Y-126074749D01*
X147163255Y-126081812D01*
X147124913Y-126085234D01*
X146929530Y-126141259D01*
X146749404Y-126235427D01*
X146744461Y-126239458D01*
X146744460Y-126239459D01*
X146596831Y-126359862D01*
X146591891Y-126363891D01*
X146587862Y-126368831D01*
X146492709Y-126485501D01*
X146463427Y-126521404D01*
X146460472Y-126527057D01*
X146460471Y-126527058D01*
X146453549Y-126540299D01*
X146369259Y-126701530D01*
X146313234Y-126896913D01*
X146302500Y-127017184D01*
X146302500Y-129042816D01*
X141400500Y-129042816D01*
X141400500Y-127472184D01*
X141389766Y-127351913D01*
X141335381Y-127162249D01*
X141330500Y-127127519D01*
X141330500Y-123888003D01*
X141344838Y-123829628D01*
X141363741Y-123793470D01*
X141419766Y-123598087D01*
X141430500Y-123477816D01*
X141430500Y-121762184D01*
X141428776Y-121742861D01*
X141420299Y-121647886D01*
X141419766Y-121641913D01*
X141363741Y-121446530D01*
X141284324Y-121294619D01*
X141272529Y-121272058D01*
X141272528Y-121272057D01*
X141269573Y-121266404D01*
X141255787Y-121249500D01*
X141141109Y-121108891D01*
X141142584Y-121107688D01*
X141112876Y-121053283D01*
X141117941Y-120982468D01*
X141160488Y-120925632D01*
X141227008Y-120900821D01*
X141235997Y-120900500D01*
X143145335Y-120900500D01*
X143152478Y-120900703D01*
X143225961Y-120904876D01*
X143225967Y-120904876D01*
X143230636Y-120905141D01*
X143296986Y-120899044D01*
X143343860Y-120894737D01*
X143346051Y-120894554D01*
X143377269Y-120892234D01*
X143459466Y-120886126D01*
X143464029Y-120885094D01*
X143464039Y-120885092D01*
X143466382Y-120884562D01*
X143482648Y-120881985D01*
X143485071Y-120881762D01*
X143485075Y-120881761D01*
X143489726Y-120881334D01*
X143494265Y-120880223D01*
X143494267Y-120880223D01*
X143600214Y-120854299D01*
X143602352Y-120853795D01*
X143637913Y-120845748D01*
X143713232Y-120828705D01*
X143719844Y-120826134D01*
X143735549Y-120821182D01*
X143742451Y-120819493D01*
X143751361Y-120815848D01*
X143847711Y-120776431D01*
X143849752Y-120775616D01*
X143951368Y-120736099D01*
X143951373Y-120736097D01*
X143955723Y-120734405D01*
X143959782Y-120732085D01*
X143959786Y-120732083D01*
X143961884Y-120730884D01*
X143976686Y-120723664D01*
X143983259Y-120720975D01*
X144080977Y-120662838D01*
X144082874Y-120661732D01*
X144133365Y-120632874D01*
X144181612Y-120605299D01*
X144187196Y-120600897D01*
X144200764Y-120591573D01*
X144202841Y-120590337D01*
X144202843Y-120590335D01*
X144206861Y-120587945D01*
X144294884Y-120516028D01*
X144296598Y-120514652D01*
X144382268Y-120447115D01*
X144382271Y-120447112D01*
X144385936Y-120444223D01*
X144457249Y-120368415D01*
X144459928Y-120365653D01*
X145174737Y-119650843D01*
X145175912Y-119649684D01*
X145261375Y-119566430D01*
X145264723Y-119563169D01*
X145308772Y-119505242D01*
X145313600Y-119499279D01*
X145361097Y-119444156D01*
X145368091Y-119433072D01*
X145386796Y-119403425D01*
X145393062Y-119394393D01*
X145419376Y-119359788D01*
X145422209Y-119356063D01*
X145457218Y-119292251D01*
X145461106Y-119285651D01*
X145497439Y-119228067D01*
X145497440Y-119228066D01*
X145499933Y-119224114D01*
X145519328Y-119180035D01*
X145524189Y-119170178D01*
X145547353Y-119127956D01*
X145572538Y-119059690D01*
X145575417Y-119052565D01*
X145602838Y-118990244D01*
X145604720Y-118985967D01*
X145617390Y-118939496D01*
X145620740Y-118929031D01*
X145635789Y-118888238D01*
X145637406Y-118883855D01*
X145647016Y-118837654D01*
X145652223Y-118812620D01*
X145654020Y-118805137D01*
X145671927Y-118739455D01*
X145673156Y-118734947D01*
X145673705Y-118730311D01*
X145673707Y-118730299D01*
X145678818Y-118687120D01*
X145680584Y-118676273D01*
X145689437Y-118633710D01*
X145689438Y-118633704D01*
X145690390Y-118629126D01*
X145690768Y-118622481D01*
X145694514Y-118556500D01*
X145695184Y-118548833D01*
X145698686Y-118519247D01*
X145703737Y-118476571D01*
X145702266Y-118428441D01*
X145702410Y-118417448D01*
X145703439Y-118399324D01*
X145705141Y-118369364D01*
X145698483Y-118296902D01*
X145698013Y-118289222D01*
X145695934Y-118221190D01*
X145695791Y-118216510D01*
X145694959Y-118211909D01*
X145694958Y-118211899D01*
X145687224Y-118169129D01*
X145685742Y-118158241D01*
X145681334Y-118110275D01*
X145681607Y-118110250D01*
X145680500Y-118096921D01*
X145680500Y-116949062D01*
X145685231Y-116914861D01*
X145687997Y-116905053D01*
X145699302Y-116864969D01*
X145721588Y-116689788D01*
X145732677Y-116602625D01*
X145732677Y-116602621D01*
X145733075Y-116599495D01*
X145735549Y-116505000D01*
X145735211Y-116500449D01*
X145716064Y-116242788D01*
X145716063Y-116242784D01*
X145715717Y-116238123D01*
X145713395Y-116227859D01*
X145667721Y-116026014D01*
X145656655Y-115977109D01*
X145637471Y-115927776D01*
X145621679Y-115887167D01*
X145615632Y-115816428D01*
X145648789Y-115753650D01*
X145710623Y-115718763D01*
X145739112Y-115715500D01*
X146357729Y-115715500D01*
X146425850Y-115735502D01*
G37*
%TD.AperFunction*%
%TA.AperFunction,Conductor*%
G36*
X122081072Y-116020502D02*
G01*
X122102046Y-116037405D01*
X123391012Y-117326371D01*
X123505100Y-117441058D01*
X123508946Y-117443899D01*
X123508951Y-117443903D01*
X123555289Y-117478129D01*
X123562509Y-117483883D01*
X123591208Y-117508524D01*
X123609831Y-117524514D01*
X123658708Y-117554996D01*
X123666871Y-117560544D01*
X123713209Y-117594770D01*
X123768431Y-117623824D01*
X123776420Y-117628409D01*
X123803849Y-117645515D01*
X123829358Y-117661424D01*
X123882294Y-117684167D01*
X123891199Y-117688415D01*
X123910203Y-117698414D01*
X123937946Y-117713010D01*
X123937951Y-117713012D01*
X123942174Y-117715234D01*
X123960176Y-117721450D01*
X124001134Y-117735593D01*
X124009747Y-117738926D01*
X124035430Y-117749960D01*
X124067068Y-117763553D01*
X124122821Y-117778023D01*
X124132286Y-117780880D01*
X124160974Y-117790786D01*
X124218834Y-117831927D01*
X124245267Y-117897820D01*
X124231880Y-117967543D01*
X124177931Y-118021698D01*
X124170969Y-118025315D01*
X124112887Y-118039500D01*
X120536500Y-118039500D01*
X120468379Y-118019498D01*
X120421886Y-117965842D01*
X120410500Y-117913500D01*
X120410500Y-116896744D01*
X120410650Y-116839294D01*
X120410923Y-116735091D01*
X120401648Y-116673400D01*
X120400611Y-116664224D01*
X120396243Y-116606792D01*
X120396242Y-116606788D01*
X120395880Y-116602024D01*
X120382877Y-116545921D01*
X120381023Y-116536206D01*
X120373170Y-116483975D01*
X120372459Y-116479245D01*
X120353957Y-116419661D01*
X120351547Y-116410759D01*
X120338542Y-116354647D01*
X120338540Y-116354642D01*
X120337461Y-116349985D01*
X120316115Y-116296482D01*
X120312814Y-116287160D01*
X120297157Y-116236734D01*
X120297155Y-116236730D01*
X120295737Y-116232162D01*
X120271148Y-116181634D01*
X120259324Y-116111631D01*
X120287225Y-116046347D01*
X120345992Y-116006511D01*
X120384444Y-116000500D01*
X122012951Y-116000500D01*
X122081072Y-116020502D01*
G37*
%TD.AperFunction*%
%TA.AperFunction,Conductor*%
G36*
X142095050Y-113530502D02*
G01*
X142141543Y-113584158D01*
X142150108Y-113651291D01*
X142151881Y-113651470D01*
X142125070Y-113917736D01*
X142125294Y-113922403D01*
X142125294Y-113922408D01*
X142127441Y-113967096D01*
X142137909Y-114185041D01*
X142190118Y-114447512D01*
X142191698Y-114451912D01*
X142191698Y-114451913D01*
X142216524Y-114521060D01*
X142280549Y-114699383D01*
X142407215Y-114935121D01*
X142410010Y-114938864D01*
X142410012Y-114938867D01*
X142440023Y-114979056D01*
X142567335Y-115149547D01*
X142570654Y-115152837D01*
X142572927Y-115155452D01*
X142602521Y-115219987D01*
X142592527Y-115290277D01*
X142574706Y-115318683D01*
X142523654Y-115380067D01*
X142460075Y-115456512D01*
X142457652Y-115460505D01*
X142344443Y-115647068D01*
X142321244Y-115685298D01*
X142319437Y-115689606D01*
X142319437Y-115689607D01*
X142230112Y-115902624D01*
X142217755Y-115932091D01*
X142216604Y-115936623D01*
X142216603Y-115936626D01*
X142162413Y-116150000D01*
X142151881Y-116191470D01*
X142125070Y-116457736D01*
X142125294Y-116462403D01*
X142125294Y-116462408D01*
X142131727Y-116596338D01*
X142137909Y-116725041D01*
X142138820Y-116729621D01*
X142138821Y-116729629D01*
X142177079Y-116921962D01*
X142179500Y-116946543D01*
X142179500Y-117273500D01*
X142159498Y-117341621D01*
X142105842Y-117388114D01*
X142053500Y-117399500D01*
X135527271Y-117399500D01*
X135459150Y-117379498D01*
X135438176Y-117362595D01*
X135307405Y-117231824D01*
X135273379Y-117169512D01*
X135270500Y-117142729D01*
X135270500Y-116083956D01*
X135269488Y-116070330D01*
X135259177Y-115931587D01*
X135256464Y-115895084D01*
X135271363Y-115825669D01*
X135321426Y-115775328D01*
X135393318Y-115760246D01*
X135452184Y-115765500D01*
X137167816Y-115765500D01*
X137170603Y-115765251D01*
X137170609Y-115765251D01*
X137256455Y-115757589D01*
X137288087Y-115754766D01*
X137483470Y-115698741D01*
X137638500Y-115617693D01*
X137657942Y-115607529D01*
X137657943Y-115607528D01*
X137663596Y-115604573D01*
X137672225Y-115597536D01*
X137816169Y-115480138D01*
X137821109Y-115476109D01*
X137887982Y-115394114D01*
X137945541Y-115323540D01*
X137945542Y-115323539D01*
X137949573Y-115318596D01*
X138043741Y-115138470D01*
X138099766Y-114943087D01*
X138104531Y-114889701D01*
X138110251Y-114825609D01*
X138110251Y-114825603D01*
X138110500Y-114822816D01*
X138110500Y-113636500D01*
X138130502Y-113568379D01*
X138184158Y-113521886D01*
X138236500Y-113510500D01*
X142026929Y-113510500D01*
X142095050Y-113530502D01*
G37*
%TD.AperFunction*%
%TA.AperFunction,Conductor*%
G36*
X93354436Y-82282502D02*
G01*
X93400929Y-82336158D01*
X93411033Y-82406432D01*
X93389843Y-82460319D01*
X93339784Y-82532479D01*
X93216935Y-82779414D01*
X93131020Y-83041498D01*
X93130240Y-83045989D01*
X93130240Y-83045990D01*
X93089710Y-83279421D01*
X93083838Y-83313238D01*
X93079500Y-83400376D01*
X93079500Y-84372570D01*
X93079665Y-84374838D01*
X93079665Y-84374850D01*
X93087870Y-84487925D01*
X93094375Y-84577583D01*
X93095359Y-84582038D01*
X93095359Y-84582041D01*
X93136379Y-84767835D01*
X93153836Y-84846903D01*
X93251551Y-85104819D01*
X93253764Y-85108803D01*
X93253769Y-85108814D01*
X93263649Y-85126601D01*
X93279500Y-85187782D01*
X93279500Y-85713439D01*
X93259498Y-85781560D01*
X93242595Y-85802534D01*
X91833622Y-87211508D01*
X91718942Y-87325589D01*
X91716100Y-87329437D01*
X91716099Y-87329438D01*
X91706517Y-87342411D01*
X91688944Y-87366204D01*
X91681881Y-87375766D01*
X91676125Y-87382989D01*
X91654608Y-87408049D01*
X91635486Y-87430319D01*
X91632961Y-87434368D01*
X91632952Y-87434380D01*
X91605003Y-87479196D01*
X91599452Y-87487366D01*
X91565230Y-87533698D01*
X91563004Y-87537929D01*
X91562999Y-87537937D01*
X91536187Y-87588900D01*
X91531600Y-87596894D01*
X91498576Y-87649846D01*
X91496686Y-87654244D01*
X91496686Y-87654245D01*
X91475837Y-87702773D01*
X91471577Y-87711704D01*
X91459557Y-87734551D01*
X91444766Y-87762663D01*
X91443207Y-87767179D01*
X91443204Y-87767185D01*
X91424412Y-87821608D01*
X91421081Y-87830220D01*
X91396447Y-87887557D01*
X91395244Y-87892192D01*
X91395243Y-87892195D01*
X91381977Y-87943310D01*
X91379117Y-87952782D01*
X91360321Y-88007215D01*
X91359462Y-88011921D01*
X91359461Y-88011923D01*
X91349112Y-88068588D01*
X91347121Y-88077603D01*
X91333475Y-88130182D01*
X91331451Y-88137981D01*
X91330964Y-88142735D01*
X91325582Y-88195266D01*
X91324188Y-88205060D01*
X91313839Y-88261726D01*
X91309500Y-88344519D01*
X91309500Y-88346191D01*
X91309457Y-88347824D01*
X91309396Y-88347822D01*
X91308844Y-88358626D01*
X91305081Y-88395355D01*
X91305319Y-88400136D01*
X91305319Y-88400137D01*
X91309344Y-88480993D01*
X91309500Y-88487257D01*
X91309500Y-96110520D01*
X91304741Y-96141001D01*
X91305610Y-96141210D01*
X91304517Y-96145762D01*
X91303094Y-96150208D01*
X91261272Y-96407006D01*
X91257866Y-96667165D01*
X91292952Y-96924970D01*
X91294260Y-96929456D01*
X91294260Y-96929458D01*
X91304466Y-96964473D01*
X91309500Y-96999731D01*
X91309500Y-111883440D01*
X91289498Y-111951561D01*
X91272595Y-111972535D01*
X89395202Y-113849928D01*
X89332890Y-113883954D01*
X89262075Y-113878889D01*
X89205239Y-113836342D01*
X89192099Y-113814481D01*
X89138125Y-113699779D01*
X89138121Y-113699772D01*
X89136437Y-113696193D01*
X88967847Y-113430537D01*
X88767290Y-113188106D01*
X88753579Y-113175230D01*
X88717756Y-113141590D01*
X88537930Y-112972722D01*
X88534726Y-112970394D01*
X88286593Y-112790115D01*
X88286588Y-112790112D01*
X88283384Y-112787784D01*
X88070237Y-112670605D01*
X88011128Y-112638109D01*
X88011125Y-112638107D01*
X88007666Y-112636206D01*
X87786138Y-112548497D01*
X87718808Y-112521839D01*
X87718805Y-112521838D01*
X87715125Y-112520381D01*
X87711291Y-112519397D01*
X87711283Y-112519394D01*
X87522826Y-112471007D01*
X87410373Y-112442134D01*
X87406445Y-112441638D01*
X87406441Y-112441637D01*
X87262765Y-112423487D01*
X87098218Y-112402700D01*
X86783582Y-112402700D01*
X86619035Y-112423487D01*
X86475359Y-112441637D01*
X86475355Y-112441638D01*
X86471427Y-112442134D01*
X86358974Y-112471007D01*
X86170517Y-112519394D01*
X86170509Y-112519397D01*
X86166675Y-112520381D01*
X86162995Y-112521838D01*
X86162992Y-112521839D01*
X86095662Y-112548497D01*
X85874134Y-112636206D01*
X85870675Y-112638107D01*
X85870672Y-112638109D01*
X85811563Y-112670605D01*
X85598416Y-112787784D01*
X85595213Y-112790111D01*
X85595210Y-112790113D01*
X85510060Y-112851978D01*
X85443193Y-112875836D01*
X85374041Y-112859755D01*
X85324561Y-112808841D01*
X85310000Y-112750041D01*
X85310000Y-86055659D01*
X85330002Y-85987538D01*
X85383658Y-85941045D01*
X85453932Y-85930941D01*
X85510060Y-85953722D01*
X85595208Y-86015585D01*
X85598416Y-86017916D01*
X85713105Y-86080967D01*
X85818719Y-86139029D01*
X85874134Y-86169494D01*
X85970364Y-86207594D01*
X86162992Y-86283861D01*
X86162995Y-86283862D01*
X86166675Y-86285319D01*
X86170509Y-86286303D01*
X86170517Y-86286306D01*
X86331154Y-86327550D01*
X86471427Y-86363566D01*
X86475355Y-86364062D01*
X86475359Y-86364063D01*
X86599275Y-86379717D01*
X86783582Y-86403000D01*
X87098218Y-86403000D01*
X87282525Y-86379717D01*
X87406441Y-86364063D01*
X87406445Y-86364062D01*
X87410373Y-86363566D01*
X87550646Y-86327550D01*
X87711283Y-86286306D01*
X87711291Y-86286303D01*
X87715125Y-86285319D01*
X87718805Y-86283862D01*
X87718808Y-86283861D01*
X87911436Y-86207594D01*
X88007666Y-86169494D01*
X88063082Y-86139029D01*
X88168695Y-86080967D01*
X88283384Y-86017916D01*
X88286590Y-86015587D01*
X88286593Y-86015585D01*
X88534726Y-85835306D01*
X88534728Y-85835305D01*
X88537930Y-85832978D01*
X88767290Y-85617594D01*
X88967847Y-85375163D01*
X89136437Y-85109507D01*
X89138121Y-85105928D01*
X89138125Y-85105921D01*
X89268714Y-84828405D01*
X89268716Y-84828401D01*
X89270403Y-84824815D01*
X89367631Y-84525579D01*
X89426588Y-84216515D01*
X89446344Y-83902500D01*
X89426588Y-83588485D01*
X89367631Y-83279421D01*
X89270403Y-82980185D01*
X89262106Y-82962553D01*
X89138125Y-82699079D01*
X89138121Y-82699072D01*
X89136437Y-82695493D01*
X88984459Y-82456013D01*
X88964846Y-82387780D01*
X88985237Y-82319775D01*
X89039157Y-82273589D01*
X89090844Y-82262500D01*
X93286315Y-82262500D01*
X93354436Y-82282502D01*
G37*
%TD.AperFunction*%
%TA.AperFunction,Conductor*%
G36*
X136222143Y-90840502D02*
G01*
X136268636Y-90894158D01*
X136278740Y-90964432D01*
X136249246Y-91029012D01*
X136237923Y-91040503D01*
X136158595Y-91111306D01*
X136131197Y-91135760D01*
X135960075Y-91341512D01*
X135957652Y-91345505D01*
X135833053Y-91550838D01*
X135821244Y-91570298D01*
X135717755Y-91817091D01*
X135716604Y-91821623D01*
X135716603Y-91821626D01*
X135658913Y-92048781D01*
X135651881Y-92076470D01*
X135625070Y-92342736D01*
X135625294Y-92347403D01*
X135625294Y-92347408D01*
X135628304Y-92410066D01*
X135637909Y-92610041D01*
X135690118Y-92872512D01*
X135691698Y-92876912D01*
X135691698Y-92876913D01*
X135724835Y-92969205D01*
X135780549Y-93124383D01*
X135782765Y-93128507D01*
X135850982Y-93255465D01*
X135907215Y-93360121D01*
X135910010Y-93363864D01*
X135910012Y-93363867D01*
X135994199Y-93476607D01*
X136067335Y-93574547D01*
X136070642Y-93577825D01*
X136070647Y-93577831D01*
X136246143Y-93751801D01*
X136257390Y-93762950D01*
X136261156Y-93765712D01*
X136261158Y-93765713D01*
X136441289Y-93897790D01*
X136473205Y-93921192D01*
X136477340Y-93923368D01*
X136477344Y-93923370D01*
X136606918Y-93991542D01*
X136710039Y-94045797D01*
X136714458Y-94047340D01*
X136958273Y-94132484D01*
X136958279Y-94132486D01*
X136962690Y-94134026D01*
X136967283Y-94134898D01*
X137213866Y-94181714D01*
X137225606Y-94183943D01*
X137352616Y-94188933D01*
X137488345Y-94194266D01*
X137488350Y-94194266D01*
X137493013Y-94194449D01*
X137576010Y-94185359D01*
X137754382Y-94165825D01*
X137754387Y-94165824D01*
X137759035Y-94165315D01*
X137874567Y-94134898D01*
X138013309Y-94098370D01*
X138017829Y-94097180D01*
X138222584Y-94009211D01*
X138259407Y-93993391D01*
X138259410Y-93993389D01*
X138263710Y-93991542D01*
X138267690Y-93989079D01*
X138267694Y-93989077D01*
X138487302Y-93853179D01*
X138487306Y-93853176D01*
X138491275Y-93850720D01*
X138505010Y-93839092D01*
X138691960Y-93680828D01*
X138691961Y-93680827D01*
X138695526Y-93677809D01*
X138789365Y-93570807D01*
X138868894Y-93480122D01*
X138868898Y-93480117D01*
X138871976Y-93476607D01*
X138913666Y-93411792D01*
X139014219Y-93255465D01*
X139014222Y-93255460D01*
X139016747Y-93251534D01*
X139126661Y-93007534D01*
X139172002Y-92846768D01*
X139198032Y-92754473D01*
X139198033Y-92754470D01*
X139199302Y-92749969D01*
X139217103Y-92610041D01*
X139232677Y-92487625D01*
X139232677Y-92487621D01*
X139233075Y-92484495D01*
X139235549Y-92390000D01*
X139229407Y-92307347D01*
X139216064Y-92127788D01*
X139216063Y-92127784D01*
X139215717Y-92123123D01*
X139205161Y-92076470D01*
X139157686Y-91866666D01*
X139156655Y-91862109D01*
X139059662Y-91612691D01*
X138926868Y-91380350D01*
X138761190Y-91170189D01*
X138678777Y-91092662D01*
X138620962Y-91038275D01*
X138585050Y-90977030D01*
X138587950Y-90906093D01*
X138628741Y-90847985D01*
X138694473Y-90821154D01*
X138707295Y-90820500D01*
X143583500Y-90820500D01*
X143651621Y-90840502D01*
X143698114Y-90894158D01*
X143709500Y-90946500D01*
X143709500Y-93006390D01*
X143692455Y-93069674D01*
X143681415Y-93088680D01*
X143679745Y-93092803D01*
X143578062Y-93343846D01*
X143578059Y-93343854D01*
X143576389Y-93347978D01*
X143508946Y-93619487D01*
X143480431Y-93897790D01*
X143480606Y-93902241D01*
X143489748Y-94134898D01*
X143491415Y-94177334D01*
X143492215Y-94181714D01*
X143536637Y-94424948D01*
X143541676Y-94452542D01*
X143630214Y-94717922D01*
X143755261Y-94968180D01*
X143914322Y-95198322D01*
X144104223Y-95403756D01*
X144107677Y-95406568D01*
X144317719Y-95577569D01*
X144317723Y-95577572D01*
X144321176Y-95580383D01*
X144324998Y-95582684D01*
X144537300Y-95710500D01*
X144560851Y-95724679D01*
X144614520Y-95747405D01*
X144814364Y-95832029D01*
X144814369Y-95832031D01*
X144818467Y-95833766D01*
X144822764Y-95834905D01*
X144822769Y-95834907D01*
X144953675Y-95869616D01*
X145088883Y-95905465D01*
X145093300Y-95905988D01*
X145093301Y-95905988D01*
X145177708Y-95915978D01*
X145366704Y-95938347D01*
X145646386Y-95931756D01*
X145801199Y-95905988D01*
X145917959Y-95886554D01*
X145917963Y-95886553D01*
X145922349Y-95885823D01*
X145926590Y-95884482D01*
X145926593Y-95884481D01*
X146184842Y-95802808D01*
X146184844Y-95802807D01*
X146189088Y-95801465D01*
X146193099Y-95799539D01*
X146193104Y-95799537D01*
X146352665Y-95722917D01*
X146407207Y-95710500D01*
X148382729Y-95710500D01*
X148450850Y-95730502D01*
X148471824Y-95747405D01*
X153782595Y-101058176D01*
X153816621Y-101120488D01*
X153819500Y-101147271D01*
X153819500Y-108929631D01*
X153799498Y-108997752D01*
X153773135Y-109027274D01*
X153758891Y-109038891D01*
X153630427Y-109196404D01*
X153536259Y-109376530D01*
X153480234Y-109571913D01*
X153469500Y-109692184D01*
X153469500Y-112007816D01*
X153480234Y-112128087D01*
X153536259Y-112323470D01*
X153630427Y-112503596D01*
X153634458Y-112508539D01*
X153634459Y-112508540D01*
X153656769Y-112535895D01*
X153758891Y-112661109D01*
X153763841Y-112665146D01*
X153768349Y-112669654D01*
X153767398Y-112670605D01*
X153803568Y-112723358D01*
X153805685Y-112794323D01*
X153772879Y-112851540D01*
X153291824Y-113332595D01*
X153229512Y-113366621D01*
X153202729Y-113369500D01*
X149067271Y-113369500D01*
X148999150Y-113349498D01*
X148978176Y-113332595D01*
X148411450Y-112765869D01*
X148406542Y-112760675D01*
X148357526Y-112705757D01*
X148357524Y-112705755D01*
X148354409Y-112702265D01*
X148266951Y-112629527D01*
X148265300Y-112628130D01*
X148182703Y-112556959D01*
X148182701Y-112556957D01*
X148179156Y-112553903D01*
X148175191Y-112551401D01*
X148173157Y-112550117D01*
X148159833Y-112540436D01*
X148157974Y-112538890D01*
X148157961Y-112538881D01*
X148154371Y-112535895D01*
X148128805Y-112520381D01*
X148057146Y-112476898D01*
X148055275Y-112475740D01*
X147963070Y-112417562D01*
X147963069Y-112417561D01*
X147959114Y-112415066D01*
X147952626Y-112412212D01*
X147937992Y-112404593D01*
X147935940Y-112403347D01*
X147935930Y-112403342D01*
X147931939Y-112400920D01*
X147827046Y-112356935D01*
X147825059Y-112356081D01*
X147806959Y-112348117D01*
X147720967Y-112310280D01*
X147714120Y-112308413D01*
X147698543Y-112303049D01*
X147696310Y-112302112D01*
X147696302Y-112302109D01*
X147691999Y-112300305D01*
X147581782Y-112272314D01*
X147579673Y-112271759D01*
X147474457Y-112243073D01*
X147474449Y-112243072D01*
X147469947Y-112241844D01*
X147462900Y-112241010D01*
X147446695Y-112238006D01*
X147439823Y-112236261D01*
X147326684Y-112224868D01*
X147324563Y-112224636D01*
X147285012Y-112219955D01*
X147246789Y-112215431D01*
X147181491Y-112187560D01*
X147141627Y-112128811D01*
X147139854Y-112057837D01*
X147160053Y-112015709D01*
X147163800Y-112010609D01*
X147187655Y-111978134D01*
X147289501Y-111790557D01*
X147322263Y-111730217D01*
X147322264Y-111730215D01*
X147324313Y-111726441D01*
X147425548Y-111458530D01*
X147466229Y-111280908D01*
X147488530Y-111183538D01*
X147488531Y-111183533D01*
X147489487Y-111179358D01*
X147514946Y-110894092D01*
X147515408Y-110850000D01*
X147510870Y-110783440D01*
X147496220Y-110568540D01*
X147496219Y-110568534D01*
X147495928Y-110564263D01*
X147491770Y-110544182D01*
X147455793Y-110370458D01*
X147437850Y-110283814D01*
X147342248Y-110013842D01*
X147224534Y-109785775D01*
X147210500Y-109727985D01*
X147210500Y-106912999D01*
X147221259Y-106862054D01*
X147323458Y-106630886D01*
X147399396Y-106361630D01*
X147411109Y-106274424D01*
X147436211Y-106087542D01*
X147436212Y-106087534D01*
X147436638Y-106084360D01*
X147437020Y-106072218D01*
X147440445Y-105963222D01*
X147440445Y-105963217D01*
X147440546Y-105960000D01*
X147420787Y-105680939D01*
X147408512Y-105623921D01*
X147362842Y-105411792D01*
X147362842Y-105411790D01*
X147361906Y-105407445D01*
X147265076Y-105144977D01*
X147132230Y-104898770D01*
X146966019Y-104673738D01*
X146920077Y-104627068D01*
X146772890Y-104477552D01*
X146769759Y-104474371D01*
X146766220Y-104471670D01*
X146766213Y-104471664D01*
X146550905Y-104307347D01*
X146547365Y-104304645D01*
X146303275Y-104167948D01*
X146299136Y-104166347D01*
X146299128Y-104166343D01*
X146105854Y-104091572D01*
X146042360Y-104067008D01*
X146038035Y-104066005D01*
X146038030Y-104066004D01*
X145888165Y-104031267D01*
X145769826Y-104003838D01*
X145491109Y-103979698D01*
X145486674Y-103979942D01*
X145486670Y-103979942D01*
X145372678Y-103986216D01*
X145211772Y-103995071D01*
X145207409Y-103995939D01*
X145207408Y-103995939D01*
X144941755Y-104048781D01*
X144941753Y-104048782D01*
X144937387Y-104049650D01*
X144673430Y-104142345D01*
X144425168Y-104271307D01*
X144381564Y-104302467D01*
X144201173Y-104431375D01*
X144201169Y-104431378D01*
X144197552Y-104433963D01*
X143995127Y-104627068D01*
X143992371Y-104630564D01*
X143992370Y-104630565D01*
X143955504Y-104677330D01*
X143821929Y-104846768D01*
X143791724Y-104898770D01*
X143683653Y-105084826D01*
X143683650Y-105084832D01*
X143681415Y-105088680D01*
X143679741Y-105092813D01*
X143578062Y-105343846D01*
X143578059Y-105343854D01*
X143576389Y-105347978D01*
X143508946Y-105619487D01*
X143480431Y-105897790D01*
X143480606Y-105902241D01*
X143489119Y-106118891D01*
X143491415Y-106177334D01*
X143501038Y-106230024D01*
X143524267Y-106357215D01*
X143541676Y-106452542D01*
X143630214Y-106717922D01*
X143632206Y-106721909D01*
X143632207Y-106721911D01*
X143696213Y-106850007D01*
X143709500Y-106906326D01*
X143709500Y-109576290D01*
X143685823Y-109649816D01*
X143620629Y-109740543D01*
X143610676Y-109759342D01*
X143513720Y-109942459D01*
X143464168Y-109993302D01*
X143402366Y-110009500D01*
X122458453Y-110009500D01*
X122456804Y-110009489D01*
X122337512Y-110007927D01*
X122337509Y-110007927D01*
X122332835Y-110007866D01*
X122260721Y-110017680D01*
X122253120Y-110018480D01*
X122180534Y-110023874D01*
X122133566Y-110034502D01*
X122122750Y-110036458D01*
X122075030Y-110042952D01*
X122070538Y-110044261D01*
X122070530Y-110044263D01*
X122005176Y-110063312D01*
X121997726Y-110065239D01*
X121965334Y-110072569D01*
X121926768Y-110081295D01*
X121881887Y-110098748D01*
X121871486Y-110102279D01*
X121825243Y-110115758D01*
X121759149Y-110146227D01*
X121752089Y-110149224D01*
X121684277Y-110175595D01*
X121642454Y-110199499D01*
X121632701Y-110204522D01*
X121588961Y-110224686D01*
X121585052Y-110227249D01*
X121528114Y-110264579D01*
X121521556Y-110268597D01*
X121458388Y-110304701D01*
X121454720Y-110307593D01*
X121454712Y-110307598D01*
X121420569Y-110334514D01*
X121411649Y-110340936D01*
X121375288Y-110364775D01*
X121375283Y-110364779D01*
X121371375Y-110367341D01*
X121367883Y-110370458D01*
X121317097Y-110415786D01*
X121311202Y-110420733D01*
X121254064Y-110465777D01*
X121250856Y-110469187D01*
X121250854Y-110469189D01*
X121221077Y-110500843D01*
X121213205Y-110508513D01*
X121177265Y-110540591D01*
X121154020Y-110568540D01*
X121130742Y-110596529D01*
X121125644Y-110602292D01*
X121075792Y-110655286D01*
X121073126Y-110659129D01*
X121048341Y-110694855D01*
X121041688Y-110703604D01*
X121013886Y-110737032D01*
X121013883Y-110737036D01*
X121010895Y-110740629D01*
X120984917Y-110783440D01*
X120973150Y-110802831D01*
X120968958Y-110809286D01*
X120940714Y-110850000D01*
X120927489Y-110869063D01*
X120925423Y-110873253D01*
X120925421Y-110873256D01*
X120906190Y-110912253D01*
X120900903Y-110921890D01*
X120875920Y-110963061D01*
X120874113Y-110967371D01*
X120847786Y-111030154D01*
X120844595Y-111037156D01*
X120812414Y-111102413D01*
X120810991Y-111106860D01*
X120797733Y-111148277D01*
X120793928Y-111158589D01*
X120777116Y-111198681D01*
X120777114Y-111198687D01*
X120775305Y-111203001D01*
X120774154Y-111207533D01*
X120774153Y-111207536D01*
X120757398Y-111273510D01*
X120755277Y-111280908D01*
X120733094Y-111350208D01*
X120732344Y-111354811D01*
X120732341Y-111354825D01*
X120725350Y-111397751D01*
X120723112Y-111408511D01*
X120712414Y-111450636D01*
X120711261Y-111455177D01*
X120710792Y-111459833D01*
X120710792Y-111459834D01*
X120703974Y-111527549D01*
X120702969Y-111535180D01*
X120692024Y-111602381D01*
X120692023Y-111602397D01*
X120691272Y-111607006D01*
X120691211Y-111611683D01*
X120690641Y-111655165D01*
X120690018Y-111666136D01*
X120685194Y-111714049D01*
X120685418Y-111718715D01*
X120685418Y-111718719D01*
X120688685Y-111786716D01*
X120688819Y-111794397D01*
X120687866Y-111867165D01*
X120688497Y-111871798D01*
X120694361Y-111914887D01*
X120695367Y-111925831D01*
X120697677Y-111973930D01*
X120698590Y-111978519D01*
X120698590Y-111978521D01*
X120711870Y-112045287D01*
X120713140Y-112052875D01*
X120716541Y-112077864D01*
X120722952Y-112124970D01*
X120736431Y-112171214D01*
X120739040Y-112181879D01*
X120748435Y-112229112D01*
X120750013Y-112233508D01*
X120750015Y-112233514D01*
X120773023Y-112297595D01*
X120775401Y-112304915D01*
X120795758Y-112374757D01*
X120797718Y-112379009D01*
X120797719Y-112379011D01*
X120815921Y-112418494D01*
X120820075Y-112428644D01*
X120820887Y-112430907D01*
X120825091Y-112501777D01*
X120790311Y-112563671D01*
X120727590Y-112596937D01*
X120702305Y-112599500D01*
X120349480Y-112599500D01*
X120318999Y-112594741D01*
X120318790Y-112595610D01*
X120314238Y-112594517D01*
X120309792Y-112593094D01*
X120087914Y-112556959D01*
X120057606Y-112552023D01*
X120057605Y-112552023D01*
X120052994Y-112551272D01*
X119922914Y-112549569D01*
X119797512Y-112547927D01*
X119797509Y-112547927D01*
X119792835Y-112547866D01*
X119535030Y-112582952D01*
X119530544Y-112584260D01*
X119530542Y-112584260D01*
X119491602Y-112595610D01*
X119285243Y-112655758D01*
X119280990Y-112657718D01*
X119280989Y-112657719D01*
X119229220Y-112681585D01*
X119048961Y-112764686D01*
X119045056Y-112767246D01*
X119045051Y-112767249D01*
X118835288Y-112904775D01*
X118835283Y-112904779D01*
X118831375Y-112907341D01*
X118739753Y-112989117D01*
X118667950Y-113053204D01*
X118637265Y-113080591D01*
X118470895Y-113280629D01*
X118335920Y-113503061D01*
X118334111Y-113507376D01*
X118334108Y-113507381D01*
X118237736Y-113737204D01*
X118192948Y-113792290D01*
X118125487Y-113814417D01*
X118056773Y-113796559D01*
X118032444Y-113777574D01*
X117698499Y-113443629D01*
X117621893Y-113366621D01*
X117584411Y-113328942D01*
X117534233Y-113291880D01*
X117527011Y-113286125D01*
X117483307Y-113248599D01*
X117483304Y-113248597D01*
X117479681Y-113245486D01*
X117475632Y-113242961D01*
X117475620Y-113242952D01*
X117430804Y-113215003D01*
X117422634Y-113209452D01*
X117376302Y-113175230D01*
X117372071Y-113173004D01*
X117372063Y-113172999D01*
X117321100Y-113146187D01*
X117313106Y-113141600D01*
X117260154Y-113108576D01*
X117207226Y-113085837D01*
X117198296Y-113081577D01*
X117151570Y-113056993D01*
X117151569Y-113056993D01*
X117147337Y-113054766D01*
X117142821Y-113053207D01*
X117142815Y-113053204D01*
X117088392Y-113034412D01*
X117079780Y-113031081D01*
X117073631Y-113028439D01*
X117022443Y-113006447D01*
X117017808Y-113005244D01*
X117017805Y-113005243D01*
X116966690Y-112991977D01*
X116957217Y-112989117D01*
X116902785Y-112970321D01*
X116898079Y-112969462D01*
X116898077Y-112969461D01*
X116841412Y-112959112D01*
X116832397Y-112957121D01*
X116776650Y-112942653D01*
X116776651Y-112942653D01*
X116772019Y-112941451D01*
X116714731Y-112935582D01*
X116704938Y-112934188D01*
X116648274Y-112923839D01*
X116565481Y-112919500D01*
X116563809Y-112919500D01*
X116562176Y-112919457D01*
X116562178Y-112919396D01*
X116551374Y-112918844D01*
X116514645Y-112915081D01*
X116509864Y-112915319D01*
X116509863Y-112915319D01*
X116429007Y-112919344D01*
X116422743Y-112919500D01*
X110786561Y-112919500D01*
X110718440Y-112899498D01*
X110697466Y-112882595D01*
X108687405Y-110872535D01*
X108653380Y-110810223D01*
X108650500Y-110783440D01*
X108650500Y-109421515D01*
X108670502Y-109353394D01*
X108724158Y-109306901D01*
X108794432Y-109296797D01*
X108818041Y-109302560D01*
X109018273Y-109372484D01*
X109018279Y-109372486D01*
X109022690Y-109374026D01*
X109027283Y-109374898D01*
X109272818Y-109421515D01*
X109285606Y-109423943D01*
X109412616Y-109428933D01*
X109548345Y-109434266D01*
X109548350Y-109434266D01*
X109553013Y-109434449D01*
X109648943Y-109423943D01*
X109814382Y-109405825D01*
X109814387Y-109405824D01*
X109819035Y-109405315D01*
X109934567Y-109374898D01*
X110073309Y-109338370D01*
X110077829Y-109337180D01*
X110202501Y-109283617D01*
X110319407Y-109233391D01*
X110319410Y-109233389D01*
X110323710Y-109231542D01*
X110327690Y-109229079D01*
X110327694Y-109229077D01*
X110547302Y-109093179D01*
X110547306Y-109093176D01*
X110551275Y-109090720D01*
X110676022Y-108985114D01*
X110740938Y-108956365D01*
X110811091Y-108967277D01*
X110846143Y-108991801D01*
X110857390Y-109002950D01*
X111073205Y-109161192D01*
X111077340Y-109163368D01*
X111077344Y-109163370D01*
X111206918Y-109231542D01*
X111310039Y-109285797D01*
X111358041Y-109302560D01*
X111558273Y-109372484D01*
X111558279Y-109372486D01*
X111562690Y-109374026D01*
X111567283Y-109374898D01*
X111812818Y-109421515D01*
X111825606Y-109423943D01*
X111952616Y-109428933D01*
X112088345Y-109434266D01*
X112088350Y-109434266D01*
X112093013Y-109434449D01*
X112188943Y-109423943D01*
X112354382Y-109405825D01*
X112354387Y-109405824D01*
X112359035Y-109405315D01*
X112474567Y-109374898D01*
X112613309Y-109338370D01*
X112617829Y-109337180D01*
X112742501Y-109283617D01*
X112859407Y-109233391D01*
X112859410Y-109233389D01*
X112863710Y-109231542D01*
X112867690Y-109229079D01*
X112867694Y-109229077D01*
X113087302Y-109093179D01*
X113087306Y-109093176D01*
X113091275Y-109090720D01*
X113216022Y-108985114D01*
X113280938Y-108956365D01*
X113351091Y-108967277D01*
X113386143Y-108991801D01*
X113397390Y-109002950D01*
X113613205Y-109161192D01*
X113617340Y-109163368D01*
X113617344Y-109163370D01*
X113746918Y-109231542D01*
X113850039Y-109285797D01*
X113898041Y-109302560D01*
X114098273Y-109372484D01*
X114098279Y-109372486D01*
X114102690Y-109374026D01*
X114107283Y-109374898D01*
X114352818Y-109421515D01*
X114365606Y-109423943D01*
X114492616Y-109428933D01*
X114628345Y-109434266D01*
X114628350Y-109434266D01*
X114633013Y-109434449D01*
X114728943Y-109423943D01*
X114894382Y-109405825D01*
X114894387Y-109405824D01*
X114899035Y-109405315D01*
X115014567Y-109374898D01*
X115153309Y-109338370D01*
X115157829Y-109337180D01*
X115282501Y-109283617D01*
X115399407Y-109233391D01*
X115399410Y-109233389D01*
X115403710Y-109231542D01*
X115407690Y-109229079D01*
X115407694Y-109229077D01*
X115627302Y-109093179D01*
X115627306Y-109093176D01*
X115631275Y-109090720D01*
X115756022Y-108985114D01*
X115820938Y-108956365D01*
X115891091Y-108967277D01*
X115926143Y-108991801D01*
X115937390Y-109002950D01*
X116153205Y-109161192D01*
X116157340Y-109163368D01*
X116157344Y-109163370D01*
X116286918Y-109231542D01*
X116390039Y-109285797D01*
X116438041Y-109302560D01*
X116638273Y-109372484D01*
X116638279Y-109372486D01*
X116642690Y-109374026D01*
X116647283Y-109374898D01*
X116892818Y-109421515D01*
X116905606Y-109423943D01*
X117032616Y-109428933D01*
X117168345Y-109434266D01*
X117168350Y-109434266D01*
X117173013Y-109434449D01*
X117268943Y-109423943D01*
X117434382Y-109405825D01*
X117434387Y-109405824D01*
X117439035Y-109405315D01*
X117554567Y-109374898D01*
X117693309Y-109338370D01*
X117697829Y-109337180D01*
X117822501Y-109283617D01*
X117939407Y-109233391D01*
X117939410Y-109233389D01*
X117943710Y-109231542D01*
X117947690Y-109229079D01*
X117947694Y-109229077D01*
X118167302Y-109093179D01*
X118167306Y-109093176D01*
X118171275Y-109090720D01*
X118296022Y-108985114D01*
X118360938Y-108956365D01*
X118431091Y-108967277D01*
X118466143Y-108991801D01*
X118477390Y-109002950D01*
X118693205Y-109161192D01*
X118697340Y-109163368D01*
X118697344Y-109163370D01*
X118826918Y-109231542D01*
X118930039Y-109285797D01*
X118978041Y-109302560D01*
X119178273Y-109372484D01*
X119178279Y-109372486D01*
X119182690Y-109374026D01*
X119187283Y-109374898D01*
X119432818Y-109421515D01*
X119445606Y-109423943D01*
X119572616Y-109428933D01*
X119708345Y-109434266D01*
X119708350Y-109434266D01*
X119713013Y-109434449D01*
X119808943Y-109423943D01*
X119974382Y-109405825D01*
X119974387Y-109405824D01*
X119979035Y-109405315D01*
X120094567Y-109374898D01*
X120233309Y-109338370D01*
X120237829Y-109337180D01*
X120362501Y-109283617D01*
X120479407Y-109233391D01*
X120479410Y-109233389D01*
X120483710Y-109231542D01*
X120487690Y-109229079D01*
X120487694Y-109229077D01*
X120707302Y-109093179D01*
X120707306Y-109093176D01*
X120711275Y-109090720D01*
X120836022Y-108985114D01*
X120900938Y-108956365D01*
X120971091Y-108967277D01*
X121006143Y-108991801D01*
X121017390Y-109002950D01*
X121233205Y-109161192D01*
X121237340Y-109163368D01*
X121237344Y-109163370D01*
X121366918Y-109231542D01*
X121470039Y-109285797D01*
X121518041Y-109302560D01*
X121718273Y-109372484D01*
X121718279Y-109372486D01*
X121722690Y-109374026D01*
X121727283Y-109374898D01*
X121972818Y-109421515D01*
X121985606Y-109423943D01*
X122112616Y-109428933D01*
X122248345Y-109434266D01*
X122248350Y-109434266D01*
X122253013Y-109434449D01*
X122348943Y-109423943D01*
X122514382Y-109405825D01*
X122514387Y-109405824D01*
X122519035Y-109405315D01*
X122634567Y-109374898D01*
X122773309Y-109338370D01*
X122777829Y-109337180D01*
X122902501Y-109283617D01*
X123019407Y-109233391D01*
X123019410Y-109233389D01*
X123023710Y-109231542D01*
X123027690Y-109229079D01*
X123027694Y-109229077D01*
X123247302Y-109093179D01*
X123247306Y-109093176D01*
X123251275Y-109090720D01*
X123376022Y-108985114D01*
X123440938Y-108956365D01*
X123511091Y-108967277D01*
X123546143Y-108991801D01*
X123557390Y-109002950D01*
X123773205Y-109161192D01*
X123777340Y-109163368D01*
X123777344Y-109163370D01*
X123906918Y-109231542D01*
X124010039Y-109285797D01*
X124058041Y-109302560D01*
X124258273Y-109372484D01*
X124258279Y-109372486D01*
X124262690Y-109374026D01*
X124267283Y-109374898D01*
X124512818Y-109421515D01*
X124525606Y-109423943D01*
X124652616Y-109428933D01*
X124788345Y-109434266D01*
X124788350Y-109434266D01*
X124793013Y-109434449D01*
X124888943Y-109423943D01*
X125054382Y-109405825D01*
X125054387Y-109405824D01*
X125059035Y-109405315D01*
X125174567Y-109374898D01*
X125313309Y-109338370D01*
X125317829Y-109337180D01*
X125442501Y-109283617D01*
X125559407Y-109233391D01*
X125559410Y-109233389D01*
X125563710Y-109231542D01*
X125567690Y-109229079D01*
X125567694Y-109229077D01*
X125787302Y-109093179D01*
X125787306Y-109093176D01*
X125791275Y-109090720D01*
X125916022Y-108985114D01*
X125980938Y-108956365D01*
X126051091Y-108967277D01*
X126086143Y-108991801D01*
X126097390Y-109002950D01*
X126313205Y-109161192D01*
X126317340Y-109163368D01*
X126317344Y-109163370D01*
X126446918Y-109231542D01*
X126550039Y-109285797D01*
X126598041Y-109302560D01*
X126798273Y-109372484D01*
X126798279Y-109372486D01*
X126802690Y-109374026D01*
X126807283Y-109374898D01*
X127052818Y-109421515D01*
X127065606Y-109423943D01*
X127192616Y-109428933D01*
X127328345Y-109434266D01*
X127328350Y-109434266D01*
X127333013Y-109434449D01*
X127428943Y-109423943D01*
X127594382Y-109405825D01*
X127594387Y-109405824D01*
X127599035Y-109405315D01*
X127714567Y-109374898D01*
X127853309Y-109338370D01*
X127857829Y-109337180D01*
X127982501Y-109283617D01*
X128099407Y-109233391D01*
X128099410Y-109233389D01*
X128103710Y-109231542D01*
X128107690Y-109229079D01*
X128107694Y-109229077D01*
X128327302Y-109093179D01*
X128327306Y-109093176D01*
X128331275Y-109090720D01*
X128392498Y-109038891D01*
X128531960Y-108920828D01*
X128531961Y-108920827D01*
X128535526Y-108917809D01*
X128641182Y-108797332D01*
X128708894Y-108720122D01*
X128708898Y-108720117D01*
X128711976Y-108716607D01*
X128781778Y-108608087D01*
X128854219Y-108495465D01*
X128854222Y-108495460D01*
X128856747Y-108491534D01*
X128966661Y-108247534D01*
X129039302Y-107989969D01*
X129057103Y-107850041D01*
X129072677Y-107727625D01*
X129072677Y-107727621D01*
X129073075Y-107724495D01*
X129075549Y-107630000D01*
X129072037Y-107582736D01*
X130545070Y-107582736D01*
X130557909Y-107850041D01*
X130610118Y-108112512D01*
X130700549Y-108364383D01*
X130702765Y-108368507D01*
X130770982Y-108495465D01*
X130827215Y-108600121D01*
X130830010Y-108603864D01*
X130830012Y-108603867D01*
X130984542Y-108810807D01*
X130987335Y-108814547D01*
X130990642Y-108817825D01*
X130990647Y-108817831D01*
X131163782Y-108989460D01*
X131177390Y-109002950D01*
X131393205Y-109161192D01*
X131397340Y-109163368D01*
X131397344Y-109163370D01*
X131526918Y-109231542D01*
X131630039Y-109285797D01*
X131678041Y-109302560D01*
X131878273Y-109372484D01*
X131878279Y-109372486D01*
X131882690Y-109374026D01*
X131887283Y-109374898D01*
X132132818Y-109421515D01*
X132145606Y-109423943D01*
X132272616Y-109428933D01*
X132408345Y-109434266D01*
X132408350Y-109434266D01*
X132413013Y-109434449D01*
X132508943Y-109423943D01*
X132674382Y-109405825D01*
X132674387Y-109405824D01*
X132679035Y-109405315D01*
X132794567Y-109374898D01*
X132933309Y-109338370D01*
X132937829Y-109337180D01*
X133062501Y-109283617D01*
X133179407Y-109233391D01*
X133179410Y-109233389D01*
X133183710Y-109231542D01*
X133187690Y-109229079D01*
X133187694Y-109229077D01*
X133407302Y-109093179D01*
X133407306Y-109093176D01*
X133411275Y-109090720D01*
X133536022Y-108985114D01*
X133600938Y-108956365D01*
X133671091Y-108967277D01*
X133706143Y-108991801D01*
X133717390Y-109002950D01*
X133933205Y-109161192D01*
X133937340Y-109163368D01*
X133937344Y-109163370D01*
X134066918Y-109231542D01*
X134170039Y-109285797D01*
X134218041Y-109302560D01*
X134418273Y-109372484D01*
X134418279Y-109372486D01*
X134422690Y-109374026D01*
X134427283Y-109374898D01*
X134672818Y-109421515D01*
X134685606Y-109423943D01*
X134812616Y-109428933D01*
X134948345Y-109434266D01*
X134948350Y-109434266D01*
X134953013Y-109434449D01*
X135048943Y-109423943D01*
X135214382Y-109405825D01*
X135214387Y-109405824D01*
X135219035Y-109405315D01*
X135334567Y-109374898D01*
X135473309Y-109338370D01*
X135477829Y-109337180D01*
X135602501Y-109283617D01*
X135719407Y-109233391D01*
X135719410Y-109233389D01*
X135723710Y-109231542D01*
X135727690Y-109229079D01*
X135727694Y-109229077D01*
X135821378Y-109171103D01*
X135889830Y-109152265D01*
X135957600Y-109173426D01*
X135967315Y-109180603D01*
X136076404Y-109269573D01*
X136082057Y-109272528D01*
X136082058Y-109272529D01*
X136110389Y-109287340D01*
X136256530Y-109363741D01*
X136451913Y-109419766D01*
X136471510Y-109421515D01*
X136569391Y-109430251D01*
X136569397Y-109430251D01*
X136572184Y-109430500D01*
X138287816Y-109430500D01*
X138290603Y-109430251D01*
X138290609Y-109430251D01*
X138388490Y-109421515D01*
X138408087Y-109419766D01*
X138603470Y-109363741D01*
X138749611Y-109287340D01*
X138777942Y-109272529D01*
X138777943Y-109272528D01*
X138783596Y-109269573D01*
X138873311Y-109196404D01*
X138936169Y-109145138D01*
X138941109Y-109141109D01*
X139051535Y-109005713D01*
X139065541Y-108988540D01*
X139065542Y-108988539D01*
X139069573Y-108983596D01*
X139078105Y-108967277D01*
X139159905Y-108810807D01*
X139163741Y-108803470D01*
X139219766Y-108608087D01*
X139222589Y-108576455D01*
X139230251Y-108490609D01*
X139230251Y-108490603D01*
X139230500Y-108487816D01*
X139230500Y-106772184D01*
X139219766Y-106651913D01*
X139163741Y-106456530D01*
X139069573Y-106276404D01*
X139007814Y-106200679D01*
X138945138Y-106123831D01*
X138941109Y-106118891D01*
X138889685Y-106076951D01*
X138788540Y-105994459D01*
X138788539Y-105994458D01*
X138783596Y-105990427D01*
X138603470Y-105896259D01*
X138408087Y-105840234D01*
X138376455Y-105837411D01*
X138290609Y-105829749D01*
X138290603Y-105829749D01*
X138287816Y-105829500D01*
X136572184Y-105829500D01*
X136569397Y-105829749D01*
X136569391Y-105829749D01*
X136483545Y-105837411D01*
X136451913Y-105840234D01*
X136256530Y-105896259D01*
X136076404Y-105990427D01*
X136071457Y-105994462D01*
X136071455Y-105994463D01*
X135970245Y-106077007D01*
X135904814Y-106104561D01*
X135834872Y-106092365D01*
X135818794Y-106082894D01*
X135810227Y-106076951D01*
X135810224Y-106076949D01*
X135806385Y-106074286D01*
X135764132Y-106053449D01*
X135570559Y-105957989D01*
X135570556Y-105957988D01*
X135566371Y-105955924D01*
X135311497Y-105874338D01*
X135098814Y-105839701D01*
X135051976Y-105832073D01*
X135051975Y-105832073D01*
X135047364Y-105831322D01*
X134908184Y-105829500D01*
X134784451Y-105827880D01*
X134784448Y-105827880D01*
X134779774Y-105827819D01*
X134514605Y-105863907D01*
X134510118Y-105865215D01*
X134510117Y-105865215D01*
X134463835Y-105878705D01*
X134257683Y-105938792D01*
X134253430Y-105940752D01*
X134253429Y-105940753D01*
X134211679Y-105960000D01*
X134014652Y-106050831D01*
X134010743Y-106053394D01*
X133794764Y-106194996D01*
X133794759Y-106195000D01*
X133790851Y-106197562D01*
X133787359Y-106200679D01*
X133704734Y-106274424D01*
X133640593Y-106304862D01*
X133570178Y-106295790D01*
X133534500Y-106272196D01*
X133489670Y-106230024D01*
X133489667Y-106230022D01*
X133486269Y-106226825D01*
X133266385Y-106074286D01*
X133224132Y-106053449D01*
X133030559Y-105957989D01*
X133030556Y-105957988D01*
X133026371Y-105955924D01*
X132771497Y-105874338D01*
X132558814Y-105839701D01*
X132511976Y-105832073D01*
X132511975Y-105832073D01*
X132507364Y-105831322D01*
X132368184Y-105829500D01*
X132244451Y-105827880D01*
X132244448Y-105827880D01*
X132239774Y-105827819D01*
X131974605Y-105863907D01*
X131970118Y-105865215D01*
X131970117Y-105865215D01*
X131923835Y-105878705D01*
X131717683Y-105938792D01*
X131713430Y-105940752D01*
X131713429Y-105940753D01*
X131671679Y-105960000D01*
X131474652Y-106050831D01*
X131470743Y-106053394D01*
X131254764Y-106194996D01*
X131254759Y-106195000D01*
X131250851Y-106197562D01*
X131168055Y-106271460D01*
X131130632Y-106304862D01*
X131051197Y-106375760D01*
X130880075Y-106581512D01*
X130877652Y-106585505D01*
X130794879Y-106721911D01*
X130741244Y-106810298D01*
X130739437Y-106814606D01*
X130739437Y-106814607D01*
X130709336Y-106886391D01*
X130637755Y-107057091D01*
X130636604Y-107061623D01*
X130636603Y-107061626D01*
X130573033Y-107311933D01*
X130571881Y-107316470D01*
X130545070Y-107582736D01*
X129072037Y-107582736D01*
X129055717Y-107363123D01*
X129045161Y-107316470D01*
X128997686Y-107106666D01*
X128996655Y-107102109D01*
X128977471Y-107052776D01*
X128901355Y-106857044D01*
X128901354Y-106857042D01*
X128899662Y-106852691D01*
X128766868Y-106620350D01*
X128601190Y-106410189D01*
X128406269Y-106226825D01*
X128186385Y-106074286D01*
X128144132Y-106053449D01*
X127950559Y-105957989D01*
X127950556Y-105957988D01*
X127946371Y-105955924D01*
X127691497Y-105874338D01*
X127478814Y-105839701D01*
X127431976Y-105832073D01*
X127431975Y-105832073D01*
X127427364Y-105831322D01*
X127288184Y-105829500D01*
X127164451Y-105827880D01*
X127164448Y-105827880D01*
X127159774Y-105827819D01*
X126894605Y-105863907D01*
X126890118Y-105865215D01*
X126890117Y-105865215D01*
X126843835Y-105878705D01*
X126637683Y-105938792D01*
X126633430Y-105940752D01*
X126633429Y-105940753D01*
X126591679Y-105960000D01*
X126394652Y-106050831D01*
X126390743Y-106053394D01*
X126174764Y-106194996D01*
X126174759Y-106195000D01*
X126170851Y-106197562D01*
X126167359Y-106200679D01*
X126084734Y-106274424D01*
X126020593Y-106304862D01*
X125950178Y-106295790D01*
X125914500Y-106272196D01*
X125869670Y-106230024D01*
X125869667Y-106230022D01*
X125866269Y-106226825D01*
X125646385Y-106074286D01*
X125604132Y-106053449D01*
X125410559Y-105957989D01*
X125410556Y-105957988D01*
X125406371Y-105955924D01*
X125151497Y-105874338D01*
X124938814Y-105839701D01*
X124891976Y-105832073D01*
X124891975Y-105832073D01*
X124887364Y-105831322D01*
X124748184Y-105829500D01*
X124624451Y-105827880D01*
X124624448Y-105827880D01*
X124619774Y-105827819D01*
X124354605Y-105863907D01*
X124350118Y-105865215D01*
X124350117Y-105865215D01*
X124303835Y-105878705D01*
X124097683Y-105938792D01*
X124093430Y-105940752D01*
X124093429Y-105940753D01*
X124051679Y-105960000D01*
X123854652Y-106050831D01*
X123850743Y-106053394D01*
X123634764Y-106194996D01*
X123634759Y-106195000D01*
X123630851Y-106197562D01*
X123627359Y-106200679D01*
X123544734Y-106274424D01*
X123480593Y-106304862D01*
X123410178Y-106295790D01*
X123374500Y-106272196D01*
X123329670Y-106230024D01*
X123329667Y-106230022D01*
X123326269Y-106226825D01*
X123106385Y-106074286D01*
X123064132Y-106053449D01*
X122870559Y-105957989D01*
X122870556Y-105957988D01*
X122866371Y-105955924D01*
X122611497Y-105874338D01*
X122398814Y-105839701D01*
X122351976Y-105832073D01*
X122351975Y-105832073D01*
X122347364Y-105831322D01*
X122208184Y-105829500D01*
X122084451Y-105827880D01*
X122084448Y-105827880D01*
X122079774Y-105827819D01*
X121814605Y-105863907D01*
X121810118Y-105865215D01*
X121810117Y-105865215D01*
X121763835Y-105878705D01*
X121557683Y-105938792D01*
X121553430Y-105940752D01*
X121553429Y-105940753D01*
X121511679Y-105960000D01*
X121314652Y-106050831D01*
X121310743Y-106053394D01*
X121094764Y-106194996D01*
X121094759Y-106195000D01*
X121090851Y-106197562D01*
X121087359Y-106200679D01*
X121004734Y-106274424D01*
X120940593Y-106304862D01*
X120870178Y-106295790D01*
X120834500Y-106272196D01*
X120789670Y-106230024D01*
X120789667Y-106230022D01*
X120786269Y-106226825D01*
X120566385Y-106074286D01*
X120524132Y-106053449D01*
X120330559Y-105957989D01*
X120330556Y-105957988D01*
X120326371Y-105955924D01*
X120071497Y-105874338D01*
X119858814Y-105839701D01*
X119811976Y-105832073D01*
X119811975Y-105832073D01*
X119807364Y-105831322D01*
X119668184Y-105829500D01*
X119544451Y-105827880D01*
X119544448Y-105827880D01*
X119539774Y-105827819D01*
X119274605Y-105863907D01*
X119270118Y-105865215D01*
X119270117Y-105865215D01*
X119223835Y-105878705D01*
X119017683Y-105938792D01*
X119013430Y-105940752D01*
X119013429Y-105940753D01*
X118971679Y-105960000D01*
X118774652Y-106050831D01*
X118770743Y-106053394D01*
X118554764Y-106194996D01*
X118554759Y-106195000D01*
X118550851Y-106197562D01*
X118547359Y-106200679D01*
X118464734Y-106274424D01*
X118400593Y-106304862D01*
X118330178Y-106295790D01*
X118294500Y-106272196D01*
X118249670Y-106230024D01*
X118249667Y-106230022D01*
X118246269Y-106226825D01*
X118026385Y-106074286D01*
X117984132Y-106053449D01*
X117790559Y-105957989D01*
X117790556Y-105957988D01*
X117786371Y-105955924D01*
X117531497Y-105874338D01*
X117318814Y-105839701D01*
X117271976Y-105832073D01*
X117271975Y-105832073D01*
X117267364Y-105831322D01*
X117128184Y-105829500D01*
X117004451Y-105827880D01*
X117004448Y-105827880D01*
X116999774Y-105827819D01*
X116734605Y-105863907D01*
X116730118Y-105865215D01*
X116730117Y-105865215D01*
X116683835Y-105878705D01*
X116477683Y-105938792D01*
X116473430Y-105940752D01*
X116473429Y-105940753D01*
X116431679Y-105960000D01*
X116234652Y-106050831D01*
X116230743Y-106053394D01*
X116014764Y-106194996D01*
X116014759Y-106195000D01*
X116010851Y-106197562D01*
X116007359Y-106200679D01*
X115924734Y-106274424D01*
X115860593Y-106304862D01*
X115790178Y-106295790D01*
X115754500Y-106272196D01*
X115709670Y-106230024D01*
X115709667Y-106230022D01*
X115706269Y-106226825D01*
X115486385Y-106074286D01*
X115444132Y-106053449D01*
X115250559Y-105957989D01*
X115250556Y-105957988D01*
X115246371Y-105955924D01*
X114991497Y-105874338D01*
X114778814Y-105839701D01*
X114731976Y-105832073D01*
X114731975Y-105832073D01*
X114727364Y-105831322D01*
X114588184Y-105829500D01*
X114464451Y-105827880D01*
X114464448Y-105827880D01*
X114459774Y-105827819D01*
X114194605Y-105863907D01*
X114190118Y-105865215D01*
X114190117Y-105865215D01*
X114143835Y-105878705D01*
X113937683Y-105938792D01*
X113933430Y-105940752D01*
X113933429Y-105940753D01*
X113824541Y-105990951D01*
X113754304Y-106001306D01*
X113689618Y-105972043D01*
X113654761Y-105923216D01*
X113636113Y-105876476D01*
X113632814Y-105867157D01*
X113617157Y-105816734D01*
X113617155Y-105816730D01*
X113615737Y-105812162D01*
X113613645Y-105807864D01*
X113613643Y-105807858D01*
X113588444Y-105756079D01*
X113584710Y-105747633D01*
X113563364Y-105694127D01*
X113563361Y-105694120D01*
X113561590Y-105689682D01*
X113532393Y-105640017D01*
X113527726Y-105631314D01*
X113524129Y-105623921D01*
X113502524Y-105579526D01*
X113467059Y-105528212D01*
X113462093Y-105520432D01*
X113432903Y-105470778D01*
X113432897Y-105470770D01*
X113430473Y-105466646D01*
X113394114Y-105421986D01*
X113388175Y-105414076D01*
X113357726Y-105370019D01*
X113357721Y-105370013D01*
X113355426Y-105366692D01*
X113299950Y-105305080D01*
X113298776Y-105303906D01*
X113297659Y-105302729D01*
X113297703Y-105302687D01*
X113290445Y-105294647D01*
X113270158Y-105269728D01*
X113270149Y-105269719D01*
X113267129Y-105266009D01*
X113203549Y-105208459D01*
X113199010Y-105204140D01*
X110748499Y-102753629D01*
X110637788Y-102642337D01*
X110634411Y-102638942D01*
X110584233Y-102601880D01*
X110577011Y-102596125D01*
X110533307Y-102558599D01*
X110533304Y-102558597D01*
X110529681Y-102555486D01*
X110525632Y-102552961D01*
X110525620Y-102552952D01*
X110480804Y-102525003D01*
X110472634Y-102519452D01*
X110426302Y-102485230D01*
X110422071Y-102483004D01*
X110422063Y-102482999D01*
X110371100Y-102456187D01*
X110363106Y-102451600D01*
X110310154Y-102418576D01*
X110257226Y-102395837D01*
X110248296Y-102391577D01*
X110201570Y-102366993D01*
X110201569Y-102366993D01*
X110197337Y-102364766D01*
X110192821Y-102363207D01*
X110192815Y-102363204D01*
X110138392Y-102344412D01*
X110129780Y-102341081D01*
X110123631Y-102338439D01*
X110072443Y-102316447D01*
X110067808Y-102315244D01*
X110067805Y-102315243D01*
X110022472Y-102303478D01*
X110016689Y-102301977D01*
X110007217Y-102299117D01*
X109952785Y-102280321D01*
X109948079Y-102279462D01*
X109948077Y-102279461D01*
X109891412Y-102269112D01*
X109882397Y-102267121D01*
X109826650Y-102252653D01*
X109826651Y-102252653D01*
X109822019Y-102251451D01*
X109764731Y-102245582D01*
X109754938Y-102244188D01*
X109754566Y-102244120D01*
X109698274Y-102233839D01*
X109615481Y-102229500D01*
X109613809Y-102229500D01*
X109612176Y-102229457D01*
X109612178Y-102229396D01*
X109601374Y-102228844D01*
X109564645Y-102225081D01*
X109559864Y-102225319D01*
X109559863Y-102225319D01*
X109491460Y-102228724D01*
X109484130Y-102229089D01*
X109479007Y-102229344D01*
X109472743Y-102229500D01*
X99926887Y-102229500D01*
X99765092Y-102229076D01*
X99703390Y-102238352D01*
X99694222Y-102239389D01*
X99669826Y-102241244D01*
X99636793Y-102243757D01*
X99636790Y-102243757D01*
X99632024Y-102244120D01*
X99627365Y-102245200D01*
X99627364Y-102245200D01*
X99575923Y-102257123D01*
X99566207Y-102258977D01*
X99513979Y-102266829D01*
X99513974Y-102266830D01*
X99509246Y-102267541D01*
X99449674Y-102286039D01*
X99440771Y-102288450D01*
X99379985Y-102302539D01*
X99375542Y-102304312D01*
X99375531Y-102304315D01*
X99326481Y-102323884D01*
X99317157Y-102327186D01*
X99292176Y-102334943D01*
X99262162Y-102344263D01*
X99257870Y-102346352D01*
X99257854Y-102346358D01*
X99206070Y-102371559D01*
X99197626Y-102375292D01*
X99139682Y-102398410D01*
X99090024Y-102427602D01*
X99081312Y-102432273D01*
X99033834Y-102455378D01*
X99033829Y-102455381D01*
X99029526Y-102457475D01*
X98978195Y-102492953D01*
X98970434Y-102497907D01*
X98916646Y-102529527D01*
X98912938Y-102532546D01*
X98912929Y-102532552D01*
X98871985Y-102565885D01*
X98864076Y-102571824D01*
X98828916Y-102596125D01*
X98816692Y-102604574D01*
X98755080Y-102660050D01*
X98753906Y-102661224D01*
X98752729Y-102662341D01*
X98752687Y-102662297D01*
X98744647Y-102669555D01*
X98719728Y-102689842D01*
X98719719Y-102689851D01*
X98716009Y-102692871D01*
X98712795Y-102696422D01*
X98658460Y-102756450D01*
X98654140Y-102760990D01*
X94925595Y-106489535D01*
X94863283Y-106523561D01*
X94792468Y-106518496D01*
X94735632Y-106475949D01*
X94710821Y-106409429D01*
X94710500Y-106400440D01*
X94710500Y-99897790D01*
X141480431Y-99897790D01*
X141480606Y-99902241D01*
X141488611Y-100105961D01*
X141491415Y-100177334D01*
X141492215Y-100181714D01*
X141524267Y-100357215D01*
X141541676Y-100452542D01*
X141630214Y-100717922D01*
X141755261Y-100968180D01*
X141914322Y-101198322D01*
X142104223Y-101403756D01*
X142107677Y-101406568D01*
X142317719Y-101577569D01*
X142317723Y-101577572D01*
X142321176Y-101580383D01*
X142324998Y-101582684D01*
X142487246Y-101680365D01*
X142560851Y-101724679D01*
X142660811Y-101767007D01*
X142814364Y-101832029D01*
X142814369Y-101832031D01*
X142818467Y-101833766D01*
X142822764Y-101834905D01*
X142822769Y-101834907D01*
X142953675Y-101869616D01*
X143088883Y-101905465D01*
X143093300Y-101905988D01*
X143093301Y-101905988D01*
X143177708Y-101915978D01*
X143366704Y-101938347D01*
X143646386Y-101931756D01*
X143801199Y-101905988D01*
X143917959Y-101886554D01*
X143917963Y-101886553D01*
X143922349Y-101885823D01*
X143926590Y-101884482D01*
X143926593Y-101884481D01*
X144184842Y-101802808D01*
X144184844Y-101802807D01*
X144189088Y-101801465D01*
X144193099Y-101799539D01*
X144193104Y-101799537D01*
X144437260Y-101682295D01*
X144437261Y-101682294D01*
X144441279Y-101680365D01*
X144558247Y-101602209D01*
X144670183Y-101527416D01*
X144670187Y-101527413D01*
X144673891Y-101524938D01*
X144882282Y-101338287D01*
X145062295Y-101124136D01*
X145210338Y-100886757D01*
X145323458Y-100630886D01*
X145399396Y-100361630D01*
X145424748Y-100172885D01*
X145436211Y-100087542D01*
X145436212Y-100087534D01*
X145436638Y-100084360D01*
X145436909Y-100075733D01*
X145440445Y-99963222D01*
X145440445Y-99963217D01*
X145440546Y-99960000D01*
X145420787Y-99680939D01*
X145408512Y-99623921D01*
X145362842Y-99411792D01*
X145362842Y-99411790D01*
X145361906Y-99407445D01*
X145265076Y-99144977D01*
X145132230Y-98898770D01*
X144966019Y-98673738D01*
X144920077Y-98627068D01*
X144772890Y-98477552D01*
X144769759Y-98474371D01*
X144766220Y-98471670D01*
X144766213Y-98471664D01*
X144561118Y-98315141D01*
X144547365Y-98304645D01*
X144475322Y-98264299D01*
X144307161Y-98170124D01*
X144307158Y-98170123D01*
X144303275Y-98167948D01*
X144299136Y-98166347D01*
X144299128Y-98166343D01*
X144105854Y-98091572D01*
X144042360Y-98067008D01*
X144038035Y-98066005D01*
X144038030Y-98066004D01*
X143888165Y-98031267D01*
X143769826Y-98003838D01*
X143491109Y-97979698D01*
X143486674Y-97979942D01*
X143486670Y-97979942D01*
X143372678Y-97986216D01*
X143211772Y-97995071D01*
X143207409Y-97995939D01*
X143207408Y-97995939D01*
X142941755Y-98048781D01*
X142941753Y-98048782D01*
X142937387Y-98049650D01*
X142673430Y-98142345D01*
X142425168Y-98271307D01*
X142364199Y-98314876D01*
X142201173Y-98431375D01*
X142201169Y-98431378D01*
X142197552Y-98433963D01*
X141995127Y-98627068D01*
X141992371Y-98630564D01*
X141992370Y-98630565D01*
X141955504Y-98677330D01*
X141821929Y-98846768D01*
X141791724Y-98898770D01*
X141683653Y-99084826D01*
X141683650Y-99084832D01*
X141681415Y-99088680D01*
X141679741Y-99092813D01*
X141578062Y-99343846D01*
X141578059Y-99343854D01*
X141576389Y-99347978D01*
X141508946Y-99619487D01*
X141480431Y-99897790D01*
X94710500Y-99897790D01*
X94710500Y-98436500D01*
X94730502Y-98368379D01*
X94784158Y-98321886D01*
X94836500Y-98310500D01*
X127285335Y-98310500D01*
X127292478Y-98310703D01*
X127365961Y-98314876D01*
X127365967Y-98314876D01*
X127370636Y-98315141D01*
X127428775Y-98309799D01*
X127483860Y-98304737D01*
X127486051Y-98304554D01*
X127517269Y-98302234D01*
X127599466Y-98296126D01*
X127604029Y-98295094D01*
X127604039Y-98295092D01*
X127606382Y-98294562D01*
X127622648Y-98291985D01*
X127625071Y-98291762D01*
X127625075Y-98291761D01*
X127629726Y-98291334D01*
X127634265Y-98290223D01*
X127634267Y-98290223D01*
X127740214Y-98264299D01*
X127742352Y-98263795D01*
X127770058Y-98257526D01*
X127853232Y-98238705D01*
X127859844Y-98236134D01*
X127875549Y-98231182D01*
X127882451Y-98229493D01*
X127886785Y-98227720D01*
X127987711Y-98186431D01*
X127989752Y-98185616D01*
X128091368Y-98146099D01*
X128091373Y-98146097D01*
X128095723Y-98144405D01*
X128099782Y-98142085D01*
X128099786Y-98142083D01*
X128101884Y-98140884D01*
X128116686Y-98133664D01*
X128123259Y-98130975D01*
X128220977Y-98072838D01*
X128222874Y-98071732D01*
X128258929Y-98051125D01*
X128321612Y-98015299D01*
X128327196Y-98010897D01*
X128340764Y-98001573D01*
X128342841Y-98000337D01*
X128342843Y-98000335D01*
X128346861Y-97997945D01*
X128434884Y-97926028D01*
X128436598Y-97924652D01*
X128522268Y-97857115D01*
X128522271Y-97857112D01*
X128525936Y-97854223D01*
X128597264Y-97778399D01*
X128599944Y-97775637D01*
X131009131Y-95366450D01*
X131014325Y-95361542D01*
X131069243Y-95312526D01*
X131069245Y-95312524D01*
X131072735Y-95309409D01*
X131145531Y-95221881D01*
X131146874Y-95220295D01*
X131165808Y-95198322D01*
X131221096Y-95134157D01*
X131224876Y-95128165D01*
X131234566Y-95114829D01*
X131239105Y-95109371D01*
X131241527Y-95105380D01*
X131241534Y-95105370D01*
X131298129Y-95012106D01*
X131299285Y-95010237D01*
X131357439Y-94918066D01*
X131359933Y-94914114D01*
X131362790Y-94907622D01*
X131370400Y-94893003D01*
X131371659Y-94890929D01*
X131371660Y-94890928D01*
X131374080Y-94886939D01*
X131407760Y-94806621D01*
X131418069Y-94782038D01*
X131418937Y-94780018D01*
X131462836Y-94680248D01*
X131464720Y-94675967D01*
X131466587Y-94669120D01*
X131471951Y-94653543D01*
X131472890Y-94651305D01*
X131472892Y-94651298D01*
X131474695Y-94646999D01*
X131502694Y-94536751D01*
X131503224Y-94534737D01*
X131533156Y-94424948D01*
X131533991Y-94417898D01*
X131536992Y-94401706D01*
X131537588Y-94399359D01*
X131537590Y-94399347D01*
X131538739Y-94394823D01*
X131541649Y-94365923D01*
X131550128Y-94281723D01*
X131550367Y-94279538D01*
X131560459Y-94194266D01*
X131561643Y-94184260D01*
X131589513Y-94118963D01*
X131648261Y-94079099D01*
X131719235Y-94077324D01*
X131728311Y-94080115D01*
X131878273Y-94132484D01*
X131878279Y-94132486D01*
X131882690Y-94134026D01*
X131887283Y-94134898D01*
X132133866Y-94181714D01*
X132145606Y-94183943D01*
X132272616Y-94188933D01*
X132408345Y-94194266D01*
X132408350Y-94194266D01*
X132413013Y-94194449D01*
X132496010Y-94185359D01*
X132674382Y-94165825D01*
X132674387Y-94165824D01*
X132679035Y-94165315D01*
X132794567Y-94134898D01*
X132933309Y-94098370D01*
X132937829Y-94097180D01*
X133142584Y-94009211D01*
X133179407Y-93993391D01*
X133179410Y-93993389D01*
X133183710Y-93991542D01*
X133187690Y-93989079D01*
X133187694Y-93989077D01*
X133407302Y-93853179D01*
X133407306Y-93853176D01*
X133411275Y-93850720D01*
X133425010Y-93839092D01*
X133611960Y-93680828D01*
X133611961Y-93680827D01*
X133615526Y-93677809D01*
X133709365Y-93570807D01*
X133788894Y-93480122D01*
X133788898Y-93480117D01*
X133791976Y-93476607D01*
X133833666Y-93411792D01*
X133934219Y-93255465D01*
X133934222Y-93255460D01*
X133936747Y-93251534D01*
X134046661Y-93007534D01*
X134092002Y-92846768D01*
X134118032Y-92754473D01*
X134118033Y-92754470D01*
X134119302Y-92749969D01*
X134137103Y-92610041D01*
X134152677Y-92487625D01*
X134152677Y-92487621D01*
X134153075Y-92484495D01*
X134155549Y-92390000D01*
X134149407Y-92307347D01*
X134136064Y-92127788D01*
X134136063Y-92127784D01*
X134135717Y-92123123D01*
X134125161Y-92076470D01*
X134077686Y-91866666D01*
X134076655Y-91862109D01*
X133979662Y-91612691D01*
X133846868Y-91380350D01*
X133681190Y-91170189D01*
X133598777Y-91092662D01*
X133540962Y-91038275D01*
X133505050Y-90977030D01*
X133507950Y-90906093D01*
X133548741Y-90847985D01*
X133614473Y-90821154D01*
X133627295Y-90820500D01*
X136154022Y-90820500D01*
X136222143Y-90840502D01*
G37*
%TD.AperFunction*%
%TA.AperFunction,Conductor*%
G36*
X103514436Y-82282502D02*
G01*
X103560929Y-82336158D01*
X103571033Y-82406432D01*
X103549843Y-82460319D01*
X103499784Y-82532479D01*
X103376935Y-82779414D01*
X103291020Y-83041498D01*
X103290240Y-83045989D01*
X103290240Y-83045990D01*
X103249710Y-83279421D01*
X103243838Y-83313238D01*
X103239500Y-83400376D01*
X103239500Y-84372570D01*
X103239665Y-84374838D01*
X103239665Y-84374850D01*
X103247870Y-84487925D01*
X103254375Y-84577583D01*
X103255359Y-84582038D01*
X103255359Y-84582041D01*
X103296379Y-84767835D01*
X103313836Y-84846903D01*
X103315453Y-84851171D01*
X103381327Y-85025044D01*
X103389500Y-85069684D01*
X103389500Y-85295335D01*
X103389297Y-85302478D01*
X103385170Y-85375163D01*
X103384859Y-85380636D01*
X103385288Y-85385301D01*
X103395263Y-85493860D01*
X103395446Y-85496051D01*
X103403874Y-85609466D01*
X103404906Y-85614029D01*
X103404908Y-85614039D01*
X103405438Y-85616382D01*
X103408015Y-85632648D01*
X103408238Y-85635071D01*
X103408666Y-85639726D01*
X103409777Y-85644265D01*
X103409777Y-85644267D01*
X103435701Y-85750214D01*
X103436205Y-85752352D01*
X103440391Y-85770850D01*
X103461295Y-85863232D01*
X103463866Y-85869844D01*
X103468818Y-85885549D01*
X103470507Y-85892451D01*
X103472280Y-85896784D01*
X103472280Y-85896785D01*
X103513569Y-85997711D01*
X103514384Y-85999752D01*
X103547600Y-86085163D01*
X103555595Y-86105723D01*
X103557915Y-86109782D01*
X103557917Y-86109786D01*
X103559116Y-86111884D01*
X103566336Y-86126686D01*
X103569025Y-86133259D01*
X103612991Y-86207159D01*
X103627160Y-86230974D01*
X103628266Y-86232871D01*
X103684701Y-86331612D01*
X103689103Y-86337196D01*
X103698427Y-86350764D01*
X103702055Y-86356861D01*
X103705012Y-86360480D01*
X103773972Y-86444884D01*
X103775348Y-86446598D01*
X103825223Y-86509863D01*
X103845777Y-86535936D01*
X103862196Y-86551381D01*
X103921601Y-86607264D01*
X103924363Y-86609944D01*
X105198824Y-87884405D01*
X105232850Y-87946717D01*
X105227785Y-88017532D01*
X105185238Y-88074368D01*
X105118718Y-88099179D01*
X105109729Y-88099500D01*
X101936500Y-88099500D01*
X101868379Y-88079498D01*
X101821886Y-88025842D01*
X101810500Y-87973500D01*
X101810500Y-85080187D01*
X101819924Y-85032375D01*
X101821034Y-85029669D01*
X101823065Y-85025586D01*
X101908980Y-84763502D01*
X101941261Y-84577583D01*
X101955506Y-84495543D01*
X101955507Y-84495535D01*
X101956162Y-84491762D01*
X101960500Y-84404624D01*
X101960500Y-83432430D01*
X101958289Y-83401946D01*
X101945955Y-83231968D01*
X101945625Y-83227417D01*
X101904578Y-83041498D01*
X101887148Y-82962553D01*
X101887147Y-82962550D01*
X101886164Y-82958097D01*
X101788449Y-82700181D01*
X101695299Y-82532479D01*
X101656740Y-82463059D01*
X101656737Y-82463055D01*
X101654525Y-82459072D01*
X101652952Y-82457011D01*
X101632533Y-82389543D01*
X101651971Y-82321259D01*
X101705240Y-82274324D01*
X101758529Y-82262500D01*
X103446315Y-82262500D01*
X103514436Y-82282502D01*
G37*
%TD.AperFunction*%
%TD*%
M02*
