%TF.GenerationSoftware,KiCad,Pcbnew,(6.0.0)*%
%TF.CreationDate,2022-01-31T23:05:30+07:00*%
%TF.ProjectId,eggmodel_V1.1,6567676d-6f64-4656-9c5f-56312e312e6b,rev?*%
%TF.SameCoordinates,Original*%
%TF.FileFunction,Legend,Top*%
%TF.FilePolarity,Positive*%
%FSLAX46Y46*%
G04 Gerber Fmt 4.6, Leading zero omitted, Abs format (unit mm)*
G04 Created by KiCad (PCBNEW (6.0.0)) date 2022-01-31 23:05:30*
%MOMM*%
%LPD*%
G01*
G04 APERTURE LIST*
%ADD10C,0.300000*%
%ADD11C,0.150000*%
%ADD12C,0.127000*%
%ADD13C,0.200000*%
%ADD14C,0.120000*%
G04 APERTURE END LIST*
D10*
X155278571Y-128958571D02*
X154564285Y-128958571D01*
X154564285Y-127458571D01*
X156421428Y-128958571D02*
X156421428Y-128172857D01*
X156350000Y-128030000D01*
X156207142Y-127958571D01*
X155921428Y-127958571D01*
X155778571Y-128030000D01*
X156421428Y-128887142D02*
X156278571Y-128958571D01*
X155921428Y-128958571D01*
X155778571Y-128887142D01*
X155707142Y-128744285D01*
X155707142Y-128601428D01*
X155778571Y-128458571D01*
X155921428Y-128387142D01*
X156278571Y-128387142D01*
X156421428Y-128315714D01*
X157135714Y-128958571D02*
X157135714Y-127958571D01*
X157135714Y-128101428D02*
X157207142Y-128030000D01*
X157350000Y-127958571D01*
X157564285Y-127958571D01*
X157707142Y-128030000D01*
X157778571Y-128172857D01*
X157778571Y-128958571D01*
X157778571Y-128172857D02*
X157850000Y-128030000D01*
X157992857Y-127958571D01*
X158207142Y-127958571D01*
X158350000Y-128030000D01*
X158421428Y-128172857D01*
X158421428Y-128958571D01*
X159135714Y-127958571D02*
X159135714Y-129458571D01*
X159135714Y-128030000D02*
X159278571Y-127958571D01*
X159564285Y-127958571D01*
X159707142Y-128030000D01*
X159778571Y-128101428D01*
X159850000Y-128244285D01*
X159850000Y-128672857D01*
X159778571Y-128815714D01*
X159707142Y-128887142D01*
X159564285Y-128958571D01*
X159278571Y-128958571D01*
X159135714Y-128887142D01*
X161135714Y-127958571D02*
X161135714Y-128958571D01*
X160492857Y-127958571D02*
X160492857Y-128744285D01*
X160564285Y-128887142D01*
X160707142Y-128958571D01*
X160921428Y-128958571D01*
X161064285Y-128887142D01*
X161135714Y-128815714D01*
X87000000Y-128917142D02*
X87214285Y-128988571D01*
X87571428Y-128988571D01*
X87714285Y-128917142D01*
X87785714Y-128845714D01*
X87857142Y-128702857D01*
X87857142Y-128560000D01*
X87785714Y-128417142D01*
X87714285Y-128345714D01*
X87571428Y-128274285D01*
X87285714Y-128202857D01*
X87142857Y-128131428D01*
X87071428Y-128060000D01*
X87000000Y-127917142D01*
X87000000Y-127774285D01*
X87071428Y-127631428D01*
X87142857Y-127560000D01*
X87285714Y-127488571D01*
X87642857Y-127488571D01*
X87857142Y-127560000D01*
X89071428Y-128917142D02*
X88928571Y-128988571D01*
X88642857Y-128988571D01*
X88500000Y-128917142D01*
X88428571Y-128774285D01*
X88428571Y-128202857D01*
X88500000Y-128060000D01*
X88642857Y-127988571D01*
X88928571Y-127988571D01*
X89071428Y-128060000D01*
X89142857Y-128202857D01*
X89142857Y-128345714D01*
X88428571Y-128488571D01*
X89785714Y-127988571D02*
X89785714Y-128988571D01*
X89785714Y-128131428D02*
X89857142Y-128060000D01*
X90000000Y-127988571D01*
X90214285Y-127988571D01*
X90357142Y-128060000D01*
X90428571Y-128202857D01*
X90428571Y-128988571D01*
X91071428Y-128917142D02*
X91214285Y-128988571D01*
X91500000Y-128988571D01*
X91642857Y-128917142D01*
X91714285Y-128774285D01*
X91714285Y-128702857D01*
X91642857Y-128560000D01*
X91500000Y-128488571D01*
X91285714Y-128488571D01*
X91142857Y-128417142D01*
X91071428Y-128274285D01*
X91071428Y-128202857D01*
X91142857Y-128060000D01*
X91285714Y-127988571D01*
X91500000Y-127988571D01*
X91642857Y-128060000D01*
X92571428Y-128988571D02*
X92428571Y-128917142D01*
X92357142Y-128845714D01*
X92285714Y-128702857D01*
X92285714Y-128274285D01*
X92357142Y-128131428D01*
X92428571Y-128060000D01*
X92571428Y-127988571D01*
X92785714Y-127988571D01*
X92928571Y-128060000D01*
X93000000Y-128131428D01*
X93071428Y-128274285D01*
X93071428Y-128702857D01*
X93000000Y-128845714D01*
X92928571Y-128917142D01*
X92785714Y-128988571D01*
X92571428Y-128988571D01*
X93714285Y-128988571D02*
X93714285Y-127988571D01*
X93714285Y-128274285D02*
X93785714Y-128131428D01*
X93857142Y-128060000D01*
X94000000Y-127988571D01*
X94142857Y-127988571D01*
D11*
%TO.C,J3*%
X161469415Y-128073399D02*
X161926699Y-128073399D01*
X162018156Y-128103884D01*
X162079127Y-128164856D01*
X162109613Y-128256313D01*
X162109613Y-128317284D01*
X161469415Y-127829514D02*
X161469415Y-127433201D01*
X161713300Y-127646600D01*
X161713300Y-127555143D01*
X161743785Y-127494172D01*
X161774271Y-127463686D01*
X161835242Y-127433201D01*
X161987670Y-127433201D01*
X162048642Y-127463686D01*
X162079127Y-127494172D01*
X162109613Y-127555143D01*
X162109613Y-127738057D01*
X162079127Y-127799028D01*
X162048642Y-127829514D01*
%TO.C,J2*%
X128269880Y-126543333D02*
X128984166Y-126543333D01*
X129127023Y-126590952D01*
X129222261Y-126686190D01*
X129269880Y-126829047D01*
X129269880Y-126924285D01*
X128365119Y-126114761D02*
X128317500Y-126067142D01*
X128269880Y-125971904D01*
X128269880Y-125733809D01*
X128317500Y-125638571D01*
X128365119Y-125590952D01*
X128460357Y-125543333D01*
X128555595Y-125543333D01*
X128698452Y-125590952D01*
X129269880Y-126162380D01*
X129269880Y-125543333D01*
%TO.C,R1*%
X91873333Y-118822380D02*
X91540000Y-118346190D01*
X91301904Y-118822380D02*
X91301904Y-117822380D01*
X91682857Y-117822380D01*
X91778095Y-117870000D01*
X91825714Y-117917619D01*
X91873333Y-118012857D01*
X91873333Y-118155714D01*
X91825714Y-118250952D01*
X91778095Y-118298571D01*
X91682857Y-118346190D01*
X91301904Y-118346190D01*
X92825714Y-118822380D02*
X92254285Y-118822380D01*
X92540000Y-118822380D02*
X92540000Y-117822380D01*
X92444761Y-117965238D01*
X92349523Y-118060476D01*
X92254285Y-118108095D01*
%TO.C,Q1*%
X122107619Y-114485238D02*
X122060000Y-114580476D01*
X121964761Y-114675714D01*
X121821904Y-114818571D01*
X121774285Y-114913809D01*
X121774285Y-115009047D01*
X122012380Y-114961428D02*
X121964761Y-115056666D01*
X121869523Y-115151904D01*
X121679047Y-115199523D01*
X121345714Y-115199523D01*
X121155238Y-115151904D01*
X121060000Y-115056666D01*
X121012380Y-114961428D01*
X121012380Y-114770952D01*
X121060000Y-114675714D01*
X121155238Y-114580476D01*
X121345714Y-114532857D01*
X121679047Y-114532857D01*
X121869523Y-114580476D01*
X121964761Y-114675714D01*
X122012380Y-114770952D01*
X122012380Y-114961428D01*
X122012380Y-113580476D02*
X122012380Y-114151904D01*
X122012380Y-113866190D02*
X121012380Y-113866190D01*
X121155238Y-113961428D01*
X121250476Y-114056666D01*
X121298095Y-114151904D01*
%TO.C,DS1*%
X134915714Y-84622380D02*
X134915714Y-83622380D01*
X135153809Y-83622380D01*
X135296666Y-83670000D01*
X135391904Y-83765238D01*
X135439523Y-83860476D01*
X135487142Y-84050952D01*
X135487142Y-84193809D01*
X135439523Y-84384285D01*
X135391904Y-84479523D01*
X135296666Y-84574761D01*
X135153809Y-84622380D01*
X134915714Y-84622380D01*
X135868095Y-84574761D02*
X136010952Y-84622380D01*
X136249047Y-84622380D01*
X136344285Y-84574761D01*
X136391904Y-84527142D01*
X136439523Y-84431904D01*
X136439523Y-84336666D01*
X136391904Y-84241428D01*
X136344285Y-84193809D01*
X136249047Y-84146190D01*
X136058571Y-84098571D01*
X135963333Y-84050952D01*
X135915714Y-84003333D01*
X135868095Y-83908095D01*
X135868095Y-83812857D01*
X135915714Y-83717619D01*
X135963333Y-83670000D01*
X136058571Y-83622380D01*
X136296666Y-83622380D01*
X136439523Y-83670000D01*
X137391904Y-84622380D02*
X136820476Y-84622380D01*
X137106190Y-84622380D02*
X137106190Y-83622380D01*
X137010952Y-83765238D01*
X136915714Y-83860476D01*
X136820476Y-83908095D01*
%TO.C,SW1*%
X120656666Y-122534761D02*
X120799523Y-122582380D01*
X121037619Y-122582380D01*
X121132857Y-122534761D01*
X121180476Y-122487142D01*
X121228095Y-122391904D01*
X121228095Y-122296666D01*
X121180476Y-122201428D01*
X121132857Y-122153809D01*
X121037619Y-122106190D01*
X120847142Y-122058571D01*
X120751904Y-122010952D01*
X120704285Y-121963333D01*
X120656666Y-121868095D01*
X120656666Y-121772857D01*
X120704285Y-121677619D01*
X120751904Y-121630000D01*
X120847142Y-121582380D01*
X121085238Y-121582380D01*
X121228095Y-121630000D01*
X121561428Y-121582380D02*
X121799523Y-122582380D01*
X121990000Y-121868095D01*
X122180476Y-122582380D01*
X122418571Y-121582380D01*
X123323333Y-122582380D02*
X122751904Y-122582380D01*
X123037619Y-122582380D02*
X123037619Y-121582380D01*
X122942380Y-121725238D01*
X122847142Y-121820476D01*
X122751904Y-121868095D01*
%TO.C,C1*%
X137213333Y-130107142D02*
X137165714Y-130154761D01*
X137022857Y-130202380D01*
X136927619Y-130202380D01*
X136784761Y-130154761D01*
X136689523Y-130059523D01*
X136641904Y-129964285D01*
X136594285Y-129773809D01*
X136594285Y-129630952D01*
X136641904Y-129440476D01*
X136689523Y-129345238D01*
X136784761Y-129250000D01*
X136927619Y-129202380D01*
X137022857Y-129202380D01*
X137165714Y-129250000D01*
X137213333Y-129297619D01*
X138165714Y-130202380D02*
X137594285Y-130202380D01*
X137880000Y-130202380D02*
X137880000Y-129202380D01*
X137784761Y-129345238D01*
X137689523Y-129440476D01*
X137594285Y-129488095D01*
%TO.C,SW2*%
X110666666Y-121904761D02*
X110809523Y-121952380D01*
X111047619Y-121952380D01*
X111142857Y-121904761D01*
X111190476Y-121857142D01*
X111238095Y-121761904D01*
X111238095Y-121666666D01*
X111190476Y-121571428D01*
X111142857Y-121523809D01*
X111047619Y-121476190D01*
X110857142Y-121428571D01*
X110761904Y-121380952D01*
X110714285Y-121333333D01*
X110666666Y-121238095D01*
X110666666Y-121142857D01*
X110714285Y-121047619D01*
X110761904Y-121000000D01*
X110857142Y-120952380D01*
X111095238Y-120952380D01*
X111238095Y-121000000D01*
X111571428Y-120952380D02*
X111809523Y-121952380D01*
X112000000Y-121238095D01*
X112190476Y-121952380D01*
X112428571Y-120952380D01*
X112761904Y-121047619D02*
X112809523Y-121000000D01*
X112904761Y-120952380D01*
X113142857Y-120952380D01*
X113238095Y-121000000D01*
X113285714Y-121047619D01*
X113333333Y-121142857D01*
X113333333Y-121238095D01*
X113285714Y-121380952D01*
X112714285Y-121952380D01*
X113333333Y-121952380D01*
%TO.C,C2*%
X140713333Y-119227142D02*
X140665714Y-119274761D01*
X140522857Y-119322380D01*
X140427619Y-119322380D01*
X140284761Y-119274761D01*
X140189523Y-119179523D01*
X140141904Y-119084285D01*
X140094285Y-118893809D01*
X140094285Y-118750952D01*
X140141904Y-118560476D01*
X140189523Y-118465238D01*
X140284761Y-118370000D01*
X140427619Y-118322380D01*
X140522857Y-118322380D01*
X140665714Y-118370000D01*
X140713333Y-118417619D01*
X141094285Y-118417619D02*
X141141904Y-118370000D01*
X141237142Y-118322380D01*
X141475238Y-118322380D01*
X141570476Y-118370000D01*
X141618095Y-118417619D01*
X141665714Y-118512857D01*
X141665714Y-118608095D01*
X141618095Y-118750952D01*
X141046666Y-119322380D01*
X141665714Y-119322380D01*
%TO.C,SW3*%
X100446666Y-122354761D02*
X100589523Y-122402380D01*
X100827619Y-122402380D01*
X100922857Y-122354761D01*
X100970476Y-122307142D01*
X101018095Y-122211904D01*
X101018095Y-122116666D01*
X100970476Y-122021428D01*
X100922857Y-121973809D01*
X100827619Y-121926190D01*
X100637142Y-121878571D01*
X100541904Y-121830952D01*
X100494285Y-121783333D01*
X100446666Y-121688095D01*
X100446666Y-121592857D01*
X100494285Y-121497619D01*
X100541904Y-121450000D01*
X100637142Y-121402380D01*
X100875238Y-121402380D01*
X101018095Y-121450000D01*
X101351428Y-121402380D02*
X101589523Y-122402380D01*
X101780000Y-121688095D01*
X101970476Y-122402380D01*
X102208571Y-121402380D01*
X102494285Y-121402380D02*
X103113333Y-121402380D01*
X102780000Y-121783333D01*
X102922857Y-121783333D01*
X103018095Y-121830952D01*
X103065714Y-121878571D01*
X103113333Y-121973809D01*
X103113333Y-122211904D01*
X103065714Y-122307142D01*
X103018095Y-122354761D01*
X102922857Y-122402380D01*
X102637142Y-122402380D01*
X102541904Y-122354761D01*
X102494285Y-122307142D01*
%TO.C,R2*%
X129493333Y-114562380D02*
X129160000Y-114086190D01*
X128921904Y-114562380D02*
X128921904Y-113562380D01*
X129302857Y-113562380D01*
X129398095Y-113610000D01*
X129445714Y-113657619D01*
X129493333Y-113752857D01*
X129493333Y-113895714D01*
X129445714Y-113990952D01*
X129398095Y-114038571D01*
X129302857Y-114086190D01*
X128921904Y-114086190D01*
X129874285Y-113657619D02*
X129921904Y-113610000D01*
X130017142Y-113562380D01*
X130255238Y-113562380D01*
X130350476Y-113610000D01*
X130398095Y-113657619D01*
X130445714Y-113752857D01*
X130445714Y-113848095D01*
X130398095Y-113990952D01*
X129826666Y-114562380D01*
X130445714Y-114562380D01*
%TO.C,U1*%
X139418095Y-114987380D02*
X139418095Y-115796904D01*
X139465714Y-115892142D01*
X139513333Y-115939761D01*
X139608571Y-115987380D01*
X139799047Y-115987380D01*
X139894285Y-115939761D01*
X139941904Y-115892142D01*
X139989523Y-115796904D01*
X139989523Y-114987380D01*
X140989523Y-115987380D02*
X140418095Y-115987380D01*
X140703809Y-115987380D02*
X140703809Y-114987380D01*
X140608571Y-115130238D01*
X140513333Y-115225476D01*
X140418095Y-115273095D01*
%TO.C,U2*%
X143625333Y-126246666D02*
X144758666Y-126246666D01*
X144892000Y-126180000D01*
X144958666Y-126113333D01*
X145025333Y-125980000D01*
X145025333Y-125713333D01*
X144958666Y-125580000D01*
X144892000Y-125513333D01*
X144758666Y-125446666D01*
X143625333Y-125446666D01*
X143758666Y-124846666D02*
X143692000Y-124780000D01*
X143625333Y-124646666D01*
X143625333Y-124313333D01*
X143692000Y-124180000D01*
X143758666Y-124113333D01*
X143892000Y-124046666D01*
X144025333Y-124046666D01*
X144225333Y-124113333D01*
X145025333Y-124913333D01*
X145025333Y-124046666D01*
%TO.C,R3*%
X129373333Y-116692380D02*
X129040000Y-116216190D01*
X128801904Y-116692380D02*
X128801904Y-115692380D01*
X129182857Y-115692380D01*
X129278095Y-115740000D01*
X129325714Y-115787619D01*
X129373333Y-115882857D01*
X129373333Y-116025714D01*
X129325714Y-116120952D01*
X129278095Y-116168571D01*
X129182857Y-116216190D01*
X128801904Y-116216190D01*
X129706666Y-115692380D02*
X130325714Y-115692380D01*
X129992380Y-116073333D01*
X130135238Y-116073333D01*
X130230476Y-116120952D01*
X130278095Y-116168571D01*
X130325714Y-116263809D01*
X130325714Y-116501904D01*
X130278095Y-116597142D01*
X130230476Y-116644761D01*
X130135238Y-116692380D01*
X129849523Y-116692380D01*
X129754285Y-116644761D01*
X129706666Y-116597142D01*
%TO.C,C3*%
X157607142Y-124466666D02*
X157654761Y-124514285D01*
X157702380Y-124657142D01*
X157702380Y-124752380D01*
X157654761Y-124895238D01*
X157559523Y-124990476D01*
X157464285Y-125038095D01*
X157273809Y-125085714D01*
X157130952Y-125085714D01*
X156940476Y-125038095D01*
X156845238Y-124990476D01*
X156750000Y-124895238D01*
X156702380Y-124752380D01*
X156702380Y-124657142D01*
X156750000Y-124514285D01*
X156797619Y-124466666D01*
X156702380Y-124133333D02*
X156702380Y-123514285D01*
X157083333Y-123847619D01*
X157083333Y-123704761D01*
X157130952Y-123609523D01*
X157178571Y-123561904D01*
X157273809Y-123514285D01*
X157511904Y-123514285D01*
X157607142Y-123561904D01*
X157654761Y-123609523D01*
X157702380Y-123704761D01*
X157702380Y-123990476D01*
X157654761Y-124085714D01*
X157607142Y-124133333D01*
%TO.C,J1*%
X90388100Y-119659415D02*
X90388100Y-120116699D01*
X90357615Y-120208156D01*
X90296643Y-120269127D01*
X90205186Y-120299613D01*
X90144215Y-120299613D01*
X91028298Y-120299613D02*
X90662471Y-120299613D01*
X90845384Y-120299613D02*
X90845384Y-119659415D01*
X90784413Y-119750872D01*
X90723442Y-119811843D01*
X90662471Y-119842329D01*
%TO.C,D1*%
X149541904Y-111262380D02*
X149541904Y-110262380D01*
X149780000Y-110262380D01*
X149922857Y-110310000D01*
X150018095Y-110405238D01*
X150065714Y-110500476D01*
X150113333Y-110690952D01*
X150113333Y-110833809D01*
X150065714Y-111024285D01*
X150018095Y-111119523D01*
X149922857Y-111214761D01*
X149780000Y-111262380D01*
X149541904Y-111262380D01*
X151065714Y-111262380D02*
X150494285Y-111262380D01*
X150780000Y-111262380D02*
X150780000Y-110262380D01*
X150684761Y-110405238D01*
X150589523Y-110500476D01*
X150494285Y-110548095D01*
X155308095Y-113402380D02*
X155308095Y-112402380D01*
X155879523Y-113402380D02*
X155450952Y-112830952D01*
X155879523Y-112402380D02*
X155308095Y-112973809D01*
D12*
%TO.C,J3*%
X157810000Y-126030000D02*
X157810000Y-117950000D01*
X164310000Y-126030000D02*
X157810000Y-126030000D01*
X157810000Y-117950000D02*
X164310000Y-117950000D01*
X164310000Y-117950000D02*
X164310000Y-126030000D01*
D13*
X161160000Y-126562000D02*
G75*
G03*
X161160000Y-126562000I-100000J0D01*
G01*
D14*
%TO.C,J2*%
X135900000Y-127910000D02*
X135900000Y-136710000D01*
X135900000Y-122010000D02*
X135900000Y-123910000D01*
X126500000Y-122860000D02*
X126500000Y-121810000D01*
X135900000Y-136710000D02*
X126700000Y-136710000D01*
X133200000Y-122010000D02*
X135900000Y-122010000D01*
X127550000Y-121810000D02*
X126500000Y-121810000D01*
X126700000Y-122010000D02*
X129300000Y-122010000D01*
X126700000Y-136710000D02*
X126700000Y-122010000D01*
%TO.C,R1*%
X89170000Y-118430000D02*
X90120000Y-118430000D01*
X93960000Y-119350000D02*
X93960000Y-117510000D01*
X90120000Y-119350000D02*
X93960000Y-119350000D01*
X93960000Y-117510000D02*
X90120000Y-117510000D01*
X90120000Y-117510000D02*
X90120000Y-119350000D01*
X94910000Y-118430000D02*
X93960000Y-118430000D01*
%TO.C,Q1*%
X124290000Y-116100000D02*
X124290000Y-112500000D01*
X123562795Y-116624184D02*
G75*
G03*
X124290000Y-116100000I-1122789J2324175D01*
G01*
X124290000Y-112500000D02*
G75*
G03*
X123562795Y-111975816I-1849994J-1799991D01*
G01*
X120090001Y-115440000D02*
G75*
G03*
X121336158Y-116667199I2349998J1139999D01*
G01*
X121341629Y-111944542D02*
G75*
G03*
X120090000Y-113190000I1098374J-2355460D01*
G01*
%TO.C,DS1*%
X160440000Y-111902500D02*
X87440000Y-111902500D01*
X87440000Y-86902500D02*
X160440000Y-86902500D01*
X164580000Y-81262500D02*
X85100000Y-81262500D01*
X164580000Y-117542500D02*
X164580000Y-81262500D01*
X90940000Y-80902500D02*
X93940000Y-80902500D01*
X84300000Y-117542500D02*
X164580000Y-117542500D01*
X92140280Y-106401820D02*
X92140280Y-92402500D01*
X156140660Y-106902500D02*
X92640000Y-106902500D01*
X156640000Y-92402500D02*
X156640000Y-106402500D01*
X160440000Y-86902500D02*
X160440000Y-111902500D01*
X92640000Y-91902500D02*
X156140000Y-91902500D01*
X84310000Y-81262500D02*
X85100000Y-81262500D01*
X87440000Y-111902500D02*
X87440000Y-86902500D01*
X84300000Y-81262500D02*
X84300000Y-117542500D01*
X92640660Y-91900960D02*
G75*
G03*
X92140280Y-92401340I0J-500380D01*
G01*
X156140660Y-106902200D02*
G75*
G03*
X156641040Y-106401820I0J500380D01*
G01*
X156640000Y-92402500D02*
G75*
G03*
X156140000Y-91902500I-500001J-1D01*
G01*
X92140280Y-106401820D02*
G75*
G03*
X92640660Y-106902200I500380J0D01*
G01*
%TO.C,SW1*%
X118460000Y-121240000D02*
X118460000Y-122740000D01*
X119710000Y-125240000D02*
X124210000Y-125240000D01*
X125460000Y-122740000D02*
X125460000Y-121240000D01*
X124210000Y-118740000D02*
X119710000Y-118740000D01*
%TO.C,C1*%
X141651000Y-125875000D02*
X141651000Y-127290000D01*
X141571000Y-125850000D02*
X141571000Y-127290000D01*
X141050000Y-125757000D02*
X141050000Y-130903000D01*
X141971000Y-129370000D02*
X141971000Y-130659000D01*
X142891000Y-126725000D02*
X142891000Y-127290000D01*
X142171000Y-126106000D02*
X142171000Y-127290000D01*
X141611000Y-129370000D02*
X141611000Y-130798000D01*
X141691000Y-129370000D02*
X141691000Y-130772000D01*
X141771000Y-129370000D02*
X141771000Y-130744000D01*
X142971000Y-129370000D02*
X142971000Y-129830000D01*
X143171000Y-127152000D02*
X143171000Y-129508000D01*
X141731000Y-125902000D02*
X141731000Y-127290000D01*
X142091000Y-129370000D02*
X142091000Y-130598000D01*
X141651000Y-129370000D02*
X141651000Y-130785000D01*
X141370000Y-125802000D02*
X141370000Y-127290000D01*
X142371000Y-126235000D02*
X142371000Y-127290000D01*
X141210000Y-125774000D02*
X141210000Y-127290000D01*
X141811000Y-125932000D02*
X141811000Y-127290000D01*
X143051000Y-129370000D02*
X143051000Y-129713000D01*
X143291000Y-127415000D02*
X143291000Y-129245000D01*
X142291000Y-126181000D02*
X142291000Y-127290000D01*
X142291000Y-129370000D02*
X142291000Y-130479000D01*
X143091000Y-127011000D02*
X143091000Y-127290000D01*
X143051000Y-126947000D02*
X143051000Y-127290000D01*
X142611000Y-126429000D02*
X142611000Y-127290000D01*
X142171000Y-129370000D02*
X142171000Y-130554000D01*
X140850000Y-125750000D02*
X140850000Y-130910000D01*
X141250000Y-129370000D02*
X141250000Y-130880000D01*
X142611000Y-129370000D02*
X142611000Y-130231000D01*
X141290000Y-125787000D02*
X141290000Y-127290000D01*
X142011000Y-129370000D02*
X142011000Y-130640000D01*
X143371000Y-127653000D02*
X143371000Y-129007000D01*
X142051000Y-129370000D02*
X142051000Y-130620000D01*
X142131000Y-126083000D02*
X142131000Y-127290000D01*
X141170000Y-125769000D02*
X141170000Y-127290000D01*
X141530000Y-129370000D02*
X141530000Y-130821000D01*
X142731000Y-126545000D02*
X142731000Y-127290000D01*
X141691000Y-125888000D02*
X141691000Y-127290000D01*
X142851000Y-129370000D02*
X142851000Y-129983000D01*
X142931000Y-126776000D02*
X142931000Y-127290000D01*
X141210000Y-129370000D02*
X141210000Y-130886000D01*
X142971000Y-126830000D02*
X142971000Y-127290000D01*
X142411000Y-126265000D02*
X142411000Y-127290000D01*
X142851000Y-126677000D02*
X142851000Y-127290000D01*
X142131000Y-129370000D02*
X142131000Y-130577000D01*
X142571000Y-129370000D02*
X142571000Y-130267000D01*
X141851000Y-125948000D02*
X141851000Y-127290000D01*
X141931000Y-129370000D02*
X141931000Y-130678000D01*
X142331000Y-126208000D02*
X142331000Y-127290000D01*
X141931000Y-125982000D02*
X141931000Y-127290000D01*
X143411000Y-127812000D02*
X143411000Y-128848000D01*
X142771000Y-129370000D02*
X142771000Y-130073000D01*
X141010000Y-125754000D02*
X141010000Y-130906000D01*
X140930000Y-125751000D02*
X140930000Y-130909000D01*
X142051000Y-126040000D02*
X142051000Y-127290000D01*
X140970000Y-125752000D02*
X140970000Y-130908000D01*
X142251000Y-129370000D02*
X142251000Y-130505000D01*
X141090000Y-125761000D02*
X141090000Y-127290000D01*
X142691000Y-126504000D02*
X142691000Y-127290000D01*
X141450000Y-129370000D02*
X141450000Y-130841000D01*
X141490000Y-125829000D02*
X141490000Y-127290000D01*
X141530000Y-125839000D02*
X141530000Y-127290000D01*
X141410000Y-129370000D02*
X141410000Y-130850000D01*
X143091000Y-129370000D02*
X143091000Y-129649000D01*
X141731000Y-129370000D02*
X141731000Y-130758000D01*
X142451000Y-126295000D02*
X142451000Y-127290000D01*
X141330000Y-125794000D02*
X141330000Y-127290000D01*
X142451000Y-129370000D02*
X142451000Y-130365000D01*
X142531000Y-129370000D02*
X142531000Y-130301000D01*
X141571000Y-129370000D02*
X141571000Y-130810000D01*
X141370000Y-129370000D02*
X141370000Y-130858000D01*
X142731000Y-129370000D02*
X142731000Y-130115000D01*
X141490000Y-129370000D02*
X141490000Y-130831000D01*
X141410000Y-125810000D02*
X141410000Y-127290000D01*
X143011000Y-126887000D02*
X143011000Y-127290000D01*
X141891000Y-125965000D02*
X141891000Y-127290000D01*
X142491000Y-129370000D02*
X142491000Y-130334000D01*
X143131000Y-127079000D02*
X143131000Y-127290000D01*
X140890000Y-125750000D02*
X140890000Y-130910000D01*
X141611000Y-125862000D02*
X141611000Y-127290000D01*
X142211000Y-126130000D02*
X142211000Y-127290000D01*
X142571000Y-126393000D02*
X142571000Y-127290000D01*
X142651000Y-126466000D02*
X142651000Y-127290000D01*
X142091000Y-126062000D02*
X142091000Y-127290000D01*
X143211000Y-127232000D02*
X143211000Y-129428000D01*
X142531000Y-126359000D02*
X142531000Y-127290000D01*
X143251000Y-127319000D02*
X143251000Y-129341000D01*
X142891000Y-129370000D02*
X142891000Y-129935000D01*
X142691000Y-129370000D02*
X142691000Y-130156000D01*
X142411000Y-129370000D02*
X142411000Y-130395000D01*
X143011000Y-129370000D02*
X143011000Y-129773000D01*
X142771000Y-126587000D02*
X142771000Y-127290000D01*
X142251000Y-126155000D02*
X142251000Y-127290000D01*
X141090000Y-129370000D02*
X141090000Y-130899000D01*
X141250000Y-125780000D02*
X141250000Y-127290000D01*
X138045225Y-126855000D02*
X138545225Y-126855000D01*
X142651000Y-129370000D02*
X142651000Y-130194000D01*
X141971000Y-126001000D02*
X141971000Y-127290000D01*
X142331000Y-129370000D02*
X142331000Y-130452000D01*
X141771000Y-125916000D02*
X141771000Y-127290000D01*
X142011000Y-126020000D02*
X142011000Y-127290000D01*
X142491000Y-126326000D02*
X142491000Y-127290000D01*
X141290000Y-129370000D02*
X141290000Y-130873000D01*
X141330000Y-129370000D02*
X141330000Y-130866000D01*
X141891000Y-129370000D02*
X141891000Y-130695000D01*
X141851000Y-129370000D02*
X141851000Y-130712000D01*
X141130000Y-125765000D02*
X141130000Y-127290000D01*
X142211000Y-129370000D02*
X142211000Y-130530000D01*
X143131000Y-129370000D02*
X143131000Y-129581000D01*
X142811000Y-129370000D02*
X142811000Y-130029000D01*
X142371000Y-129370000D02*
X142371000Y-130425000D01*
X142931000Y-129370000D02*
X142931000Y-129884000D01*
X141170000Y-129370000D02*
X141170000Y-130891000D01*
X142811000Y-126631000D02*
X142811000Y-127290000D01*
X143451000Y-128046000D02*
X143451000Y-128614000D01*
X138295225Y-126605000D02*
X138295225Y-127105000D01*
X141811000Y-129370000D02*
X141811000Y-130728000D01*
X141450000Y-125819000D02*
X141450000Y-127290000D01*
X143331000Y-127525000D02*
X143331000Y-129135000D01*
X141130000Y-129370000D02*
X141130000Y-130895000D01*
X143470000Y-128330000D02*
G75*
G03*
X143470000Y-128330000I-2620000J0D01*
G01*
%TO.C,SW2*%
X115470000Y-122720000D02*
X115470000Y-121220000D01*
X109720000Y-125220000D02*
X114220000Y-125220000D01*
X114220000Y-118720000D02*
X109720000Y-118720000D01*
X108470000Y-121220000D02*
X108470000Y-122720000D01*
%TO.C,C2*%
X141280000Y-123660000D02*
X141280000Y-125170000D01*
X141520000Y-120119000D02*
X141520000Y-121580000D01*
X141841000Y-120222000D02*
X141841000Y-121580000D01*
X141761000Y-123660000D02*
X141761000Y-125048000D01*
X141440000Y-120100000D02*
X141440000Y-121580000D01*
X142641000Y-120719000D02*
X142641000Y-121580000D01*
X142961000Y-123660000D02*
X142961000Y-124174000D01*
X143361000Y-121815000D02*
X143361000Y-123425000D01*
X141681000Y-120165000D02*
X141681000Y-121580000D01*
X143001000Y-121120000D02*
X143001000Y-121580000D01*
X142921000Y-123660000D02*
X142921000Y-124225000D01*
X142521000Y-120616000D02*
X142521000Y-121580000D01*
X141921000Y-123660000D02*
X141921000Y-124985000D01*
X142001000Y-123660000D02*
X142001000Y-124949000D01*
X141761000Y-120192000D02*
X141761000Y-121580000D01*
X142361000Y-123660000D02*
X142361000Y-124742000D01*
X141480000Y-123660000D02*
X141480000Y-125131000D01*
X141480000Y-120109000D02*
X141480000Y-121580000D01*
X142721000Y-120794000D02*
X142721000Y-121580000D01*
X142881000Y-123660000D02*
X142881000Y-124273000D01*
X140960000Y-120041000D02*
X140960000Y-125199000D01*
X141040000Y-120044000D02*
X141040000Y-125196000D01*
X141200000Y-123660000D02*
X141200000Y-125181000D01*
X141721000Y-123660000D02*
X141721000Y-125062000D01*
X142161000Y-123660000D02*
X142161000Y-124867000D01*
X141160000Y-123660000D02*
X141160000Y-125185000D01*
X141921000Y-120255000D02*
X141921000Y-121580000D01*
X142801000Y-123660000D02*
X142801000Y-124363000D01*
X141120000Y-123660000D02*
X141120000Y-125189000D01*
X141641000Y-123660000D02*
X141641000Y-125088000D01*
X143161000Y-123660000D02*
X143161000Y-123871000D01*
X141240000Y-123660000D02*
X141240000Y-125176000D01*
X142401000Y-120525000D02*
X142401000Y-121580000D01*
X141881000Y-120238000D02*
X141881000Y-121580000D01*
X141240000Y-120064000D02*
X141240000Y-121580000D01*
X141320000Y-123660000D02*
X141320000Y-125163000D01*
X141000000Y-120042000D02*
X141000000Y-125198000D01*
X143041000Y-123660000D02*
X143041000Y-124063000D01*
X143201000Y-121442000D02*
X143201000Y-123798000D01*
X142761000Y-123660000D02*
X142761000Y-124405000D01*
X143241000Y-121522000D02*
X143241000Y-123718000D01*
X142041000Y-120310000D02*
X142041000Y-121580000D01*
X141641000Y-120152000D02*
X141641000Y-121580000D01*
X141400000Y-123660000D02*
X141400000Y-125148000D01*
X142521000Y-123660000D02*
X142521000Y-124624000D01*
X142321000Y-123660000D02*
X142321000Y-124769000D01*
X141440000Y-123660000D02*
X141440000Y-125140000D01*
X142681000Y-120756000D02*
X142681000Y-121580000D01*
X142841000Y-120921000D02*
X142841000Y-121580000D01*
X142721000Y-123660000D02*
X142721000Y-124446000D01*
X143281000Y-121609000D02*
X143281000Y-123631000D01*
X142201000Y-123660000D02*
X142201000Y-124844000D01*
X142881000Y-120967000D02*
X142881000Y-121580000D01*
X143161000Y-121369000D02*
X143161000Y-121580000D01*
X142081000Y-120330000D02*
X142081000Y-121580000D01*
X142401000Y-123660000D02*
X142401000Y-124715000D01*
X142601000Y-120683000D02*
X142601000Y-121580000D01*
X143081000Y-121237000D02*
X143081000Y-121580000D01*
X141721000Y-120178000D02*
X141721000Y-121580000D01*
X142561000Y-123660000D02*
X142561000Y-124591000D01*
X141160000Y-120055000D02*
X141160000Y-121580000D01*
X142761000Y-120835000D02*
X142761000Y-121580000D01*
X142361000Y-120498000D02*
X142361000Y-121580000D01*
X141961000Y-123660000D02*
X141961000Y-124968000D01*
X142481000Y-120585000D02*
X142481000Y-121580000D01*
X142921000Y-121015000D02*
X142921000Y-121580000D01*
X141280000Y-120070000D02*
X141280000Y-121580000D01*
X143401000Y-121943000D02*
X143401000Y-123297000D01*
X141601000Y-120140000D02*
X141601000Y-121580000D01*
X141360000Y-120084000D02*
X141360000Y-121580000D01*
X142321000Y-120471000D02*
X142321000Y-121580000D01*
X142281000Y-120445000D02*
X142281000Y-121580000D01*
X143321000Y-121705000D02*
X143321000Y-123535000D01*
X142201000Y-120396000D02*
X142201000Y-121580000D01*
X142961000Y-121066000D02*
X142961000Y-121580000D01*
X141801000Y-120206000D02*
X141801000Y-121580000D01*
X142001000Y-120291000D02*
X142001000Y-121580000D01*
X143121000Y-123660000D02*
X143121000Y-123939000D01*
X142801000Y-120877000D02*
X142801000Y-121580000D01*
X142441000Y-123660000D02*
X142441000Y-124685000D01*
X142121000Y-120352000D02*
X142121000Y-121580000D01*
X142161000Y-120373000D02*
X142161000Y-121580000D01*
X141601000Y-123660000D02*
X141601000Y-125100000D01*
X142121000Y-123660000D02*
X142121000Y-124888000D01*
X142841000Y-123660000D02*
X142841000Y-124319000D01*
X140920000Y-120040000D02*
X140920000Y-125200000D01*
X140880000Y-120040000D02*
X140880000Y-125200000D01*
X143081000Y-123660000D02*
X143081000Y-124003000D01*
X143121000Y-121301000D02*
X143121000Y-121580000D01*
X141400000Y-120092000D02*
X141400000Y-121580000D01*
X143001000Y-123660000D02*
X143001000Y-124120000D01*
X138325225Y-120895000D02*
X138325225Y-121395000D01*
X141520000Y-123660000D02*
X141520000Y-125121000D01*
X141320000Y-120077000D02*
X141320000Y-121580000D01*
X141881000Y-123660000D02*
X141881000Y-125002000D01*
X141841000Y-123660000D02*
X141841000Y-125018000D01*
X142441000Y-120555000D02*
X142441000Y-121580000D01*
X142041000Y-123660000D02*
X142041000Y-124930000D01*
X142641000Y-123660000D02*
X142641000Y-124521000D01*
X141120000Y-120051000D02*
X141120000Y-121580000D01*
X142241000Y-123660000D02*
X142241000Y-124820000D01*
X141681000Y-123660000D02*
X141681000Y-125075000D01*
X143441000Y-122102000D02*
X143441000Y-123138000D01*
X142081000Y-123660000D02*
X142081000Y-124910000D01*
X141200000Y-120059000D02*
X141200000Y-121580000D01*
X143481000Y-122336000D02*
X143481000Y-122904000D01*
X142681000Y-123660000D02*
X142681000Y-124484000D01*
X142481000Y-123660000D02*
X142481000Y-124655000D01*
X138075225Y-121145000D02*
X138575225Y-121145000D01*
X141080000Y-120047000D02*
X141080000Y-125193000D01*
X143041000Y-121177000D02*
X143041000Y-121580000D01*
X141961000Y-120272000D02*
X141961000Y-121580000D01*
X142601000Y-123660000D02*
X142601000Y-124557000D01*
X141360000Y-123660000D02*
X141360000Y-125156000D01*
X141560000Y-120129000D02*
X141560000Y-121580000D01*
X142561000Y-120649000D02*
X142561000Y-121580000D01*
X142241000Y-120420000D02*
X142241000Y-121580000D01*
X142281000Y-123660000D02*
X142281000Y-124795000D01*
X141801000Y-123660000D02*
X141801000Y-125034000D01*
X141560000Y-123660000D02*
X141560000Y-125111000D01*
X143500000Y-122620000D02*
G75*
G03*
X143500000Y-122620000I-2620000J0D01*
G01*
%TO.C,SW3*%
X98380000Y-121240000D02*
X98380000Y-122740000D01*
X99630000Y-125240000D02*
X104130000Y-125240000D01*
X104130000Y-118740000D02*
X99630000Y-118740000D01*
X105380000Y-122740000D02*
X105380000Y-121240000D01*
%TO.C,R2*%
X126720000Y-113960000D02*
X127670000Y-113960000D01*
X131510000Y-113040000D02*
X127670000Y-113040000D01*
X132460000Y-113960000D02*
X131510000Y-113960000D01*
X131510000Y-114880000D02*
X131510000Y-113040000D01*
X127670000Y-113040000D02*
X127670000Y-114880000D01*
X127670000Y-114880000D02*
X131510000Y-114880000D01*
%TO.C,U1*%
X137470000Y-117835000D02*
X142770000Y-117835000D01*
X142770000Y-112635000D02*
X141120000Y-112635000D01*
X142770000Y-117835000D02*
X142770000Y-112635000D01*
X137470000Y-112635000D02*
X137470000Y-117835000D01*
X139120000Y-112635000D02*
X137470000Y-112635000D01*
X139120000Y-112635000D02*
G75*
G03*
X141120000Y-112635000I1000000J0D01*
G01*
D12*
%TO.C,U2*%
X149998000Y-120280000D02*
X149998000Y-130680000D01*
X149998000Y-130680000D02*
X145398000Y-130680000D01*
X145398000Y-120280000D02*
X149998000Y-120280000D01*
X145398000Y-130680000D02*
X145398000Y-120280000D01*
D13*
X150553000Y-128030000D02*
G75*
G03*
X150553000Y-128030000I-100000J0D01*
G01*
D14*
%TO.C,R3*%
X127790000Y-117070000D02*
X131630000Y-117070000D01*
X127790000Y-115230000D02*
X127790000Y-117070000D01*
X132580000Y-116150000D02*
X131630000Y-116150000D01*
X131630000Y-115230000D02*
X127790000Y-115230000D01*
X131630000Y-117070000D02*
X131630000Y-115230000D01*
X126840000Y-116150000D02*
X127790000Y-116150000D01*
%TO.C,C3*%
X152460000Y-126061000D02*
X151599000Y-126061000D01*
X152460000Y-125821000D02*
X151405000Y-125821000D01*
X152460000Y-126301000D02*
X151847000Y-126301000D01*
X154751000Y-126581000D02*
X154540000Y-126581000D01*
X156069000Y-124540000D02*
X154540000Y-124540000D01*
X155471000Y-125981000D02*
X154540000Y-125981000D01*
X155882000Y-125301000D02*
X154540000Y-125301000D01*
X155000000Y-126421000D02*
X154540000Y-126421000D01*
X154943000Y-126461000D02*
X154540000Y-126461000D01*
X152460000Y-125501000D02*
X151210000Y-125501000D01*
X156036000Y-124780000D02*
X154540000Y-124780000D01*
X154305000Y-126781000D02*
X152695000Y-126781000D01*
X155437000Y-126021000D02*
X154540000Y-126021000D01*
X155364000Y-126101000D02*
X154540000Y-126101000D01*
X152460000Y-126021000D02*
X151563000Y-126021000D01*
X152460000Y-125061000D02*
X151032000Y-125061000D01*
X152460000Y-125981000D02*
X151529000Y-125981000D01*
X155243000Y-126221000D02*
X154540000Y-126221000D01*
X155504000Y-125941000D02*
X154540000Y-125941000D01*
X152460000Y-124700000D02*
X150950000Y-124700000D01*
X155535000Y-125901000D02*
X154540000Y-125901000D01*
X152460000Y-126221000D02*
X151757000Y-126221000D01*
X152460000Y-125621000D02*
X151276000Y-125621000D01*
X152460000Y-126141000D02*
X151674000Y-126141000D01*
X152460000Y-125461000D02*
X151190000Y-125461000D01*
X152460000Y-126181000D02*
X151715000Y-126181000D01*
X152460000Y-125941000D02*
X151496000Y-125941000D01*
X152460000Y-126381000D02*
X151946000Y-126381000D01*
X156028000Y-124820000D02*
X154540000Y-124820000D01*
X152460000Y-125141000D02*
X151058000Y-125141000D01*
X152460000Y-125781000D02*
X151378000Y-125781000D01*
X156073000Y-124500000D02*
X150927000Y-124500000D01*
X155914000Y-125221000D02*
X154540000Y-125221000D01*
X152460000Y-124780000D02*
X150964000Y-124780000D01*
X156001000Y-124940000D02*
X154540000Y-124940000D01*
X152460000Y-124540000D02*
X150931000Y-124540000D01*
X154678000Y-126621000D02*
X152322000Y-126621000D01*
X156043000Y-124740000D02*
X154540000Y-124740000D01*
X152460000Y-126421000D02*
X152000000Y-126421000D01*
X155225000Y-121745225D02*
X154725000Y-121745225D01*
X155980000Y-125021000D02*
X154540000Y-125021000D01*
X155401000Y-126061000D02*
X154540000Y-126061000D01*
X155968000Y-125061000D02*
X154540000Y-125061000D01*
X155768000Y-125541000D02*
X154540000Y-125541000D01*
X152460000Y-124580000D02*
X150935000Y-124580000D01*
X152460000Y-125181000D02*
X151072000Y-125181000D01*
X155595000Y-125821000D02*
X154540000Y-125821000D01*
X152460000Y-125741000D02*
X151351000Y-125741000D01*
X154883000Y-126501000D02*
X154540000Y-126501000D01*
X152460000Y-125341000D02*
X151135000Y-125341000D01*
X155928000Y-125181000D02*
X154540000Y-125181000D01*
X152460000Y-124940000D02*
X150999000Y-124940000D01*
X152460000Y-124620000D02*
X150939000Y-124620000D01*
X154415000Y-126741000D02*
X152585000Y-126741000D01*
X154975000Y-121495225D02*
X154975000Y-121995225D01*
X155747000Y-125581000D02*
X154540000Y-125581000D01*
X156078000Y-124420000D02*
X150922000Y-124420000D01*
X156080000Y-124300000D02*
X150920000Y-124300000D01*
X156050000Y-124700000D02*
X154540000Y-124700000D01*
X155898000Y-125261000D02*
X154540000Y-125261000D01*
X152460000Y-124980000D02*
X151009000Y-124980000D01*
X155810000Y-125461000D02*
X154540000Y-125461000D01*
X152460000Y-125101000D02*
X151045000Y-125101000D01*
X152460000Y-126101000D02*
X151636000Y-126101000D01*
X155700000Y-125661000D02*
X154540000Y-125661000D01*
X155649000Y-125741000D02*
X154540000Y-125741000D01*
X152460000Y-126261000D02*
X151801000Y-126261000D01*
X152460000Y-124740000D02*
X150957000Y-124740000D01*
X156079000Y-124380000D02*
X150921000Y-124380000D01*
X155790000Y-125501000D02*
X154540000Y-125501000D01*
X152460000Y-125381000D02*
X151152000Y-125381000D01*
X152460000Y-124820000D02*
X150972000Y-124820000D01*
X152460000Y-125021000D02*
X151020000Y-125021000D01*
X152460000Y-125541000D02*
X151232000Y-125541000D01*
X152460000Y-126501000D02*
X152117000Y-126501000D01*
X152460000Y-125901000D02*
X151465000Y-125901000D01*
X153784000Y-126901000D02*
X153216000Y-126901000D01*
X155105000Y-126341000D02*
X154540000Y-126341000D01*
X156061000Y-124620000D02*
X154540000Y-124620000D01*
X155153000Y-126301000D02*
X154540000Y-126301000D01*
X155991000Y-124980000D02*
X154540000Y-124980000D01*
X156065000Y-124580000D02*
X154540000Y-124580000D01*
X154511000Y-126701000D02*
X152489000Y-126701000D01*
X152460000Y-124860000D02*
X150980000Y-124860000D01*
X152460000Y-125661000D02*
X151300000Y-125661000D01*
X156011000Y-124900000D02*
X154540000Y-124900000D01*
X152460000Y-126341000D02*
X151895000Y-126341000D01*
X155285000Y-126181000D02*
X154540000Y-126181000D01*
X154598000Y-126661000D02*
X152402000Y-126661000D01*
X152460000Y-125261000D02*
X151102000Y-125261000D01*
X152460000Y-126461000D02*
X152057000Y-126461000D01*
X154177000Y-126821000D02*
X152823000Y-126821000D01*
X155675000Y-125701000D02*
X154540000Y-125701000D01*
X156056000Y-124660000D02*
X154540000Y-124660000D01*
X152460000Y-126581000D02*
X152249000Y-126581000D01*
X152460000Y-125301000D02*
X151118000Y-125301000D01*
X155829000Y-125421000D02*
X154540000Y-125421000D01*
X152460000Y-125861000D02*
X151435000Y-125861000D01*
X154018000Y-126861000D02*
X152982000Y-126861000D01*
X152460000Y-126541000D02*
X152181000Y-126541000D01*
X155955000Y-125101000D02*
X154540000Y-125101000D01*
X156020000Y-124860000D02*
X154540000Y-124860000D01*
X152460000Y-124660000D02*
X150944000Y-124660000D01*
X155326000Y-126141000D02*
X154540000Y-126141000D01*
X156080000Y-124340000D02*
X150920000Y-124340000D01*
X152460000Y-125221000D02*
X151086000Y-125221000D01*
X154819000Y-126541000D02*
X154540000Y-126541000D01*
X155199000Y-126261000D02*
X154540000Y-126261000D01*
X152460000Y-124900000D02*
X150989000Y-124900000D01*
X155054000Y-126381000D02*
X154540000Y-126381000D01*
X152460000Y-125421000D02*
X151171000Y-125421000D01*
X155622000Y-125781000D02*
X154540000Y-125781000D01*
X155848000Y-125381000D02*
X154540000Y-125381000D01*
X156076000Y-124460000D02*
X150924000Y-124460000D01*
X155724000Y-125621000D02*
X154540000Y-125621000D01*
X152460000Y-125581000D02*
X151253000Y-125581000D01*
X155865000Y-125341000D02*
X154540000Y-125341000D01*
X155942000Y-125141000D02*
X154540000Y-125141000D01*
X152460000Y-125701000D02*
X151325000Y-125701000D01*
X155565000Y-125861000D02*
X154540000Y-125861000D01*
X156120000Y-124300000D02*
G75*
G03*
X156120000Y-124300000I-2620000J0D01*
G01*
D12*
%TO.C,J1*%
X86668500Y-127160000D02*
X86668500Y-120660000D01*
X94748500Y-120660000D02*
X94748500Y-127160000D01*
X86668500Y-120660000D02*
X94748500Y-120660000D01*
X94748500Y-127160000D02*
X86668500Y-127160000D01*
D13*
X86236500Y-123910000D02*
G75*
G03*
X86236500Y-123910000I-100000J0D01*
G01*
D14*
%TO.C,D1*%
X147770000Y-109380000D02*
X147770000Y-112320000D01*
X147770000Y-112320000D02*
X153210000Y-112320000D01*
X152310000Y-112320000D02*
X152310000Y-109380000D01*
X152430000Y-112320000D02*
X152430000Y-109380000D01*
X153210000Y-112320000D02*
X153210000Y-109380000D01*
X152190000Y-112320000D02*
X152190000Y-109380000D01*
X146750000Y-110850000D02*
X147770000Y-110850000D01*
X154230000Y-110850000D02*
X153210000Y-110850000D01*
X153210000Y-109380000D02*
X147770000Y-109380000D01*
%TD*%
M02*
